<?xml version="1.0" encoding="utf-8"?>
<!-- Generator: Adobe Illustrator 23.0.2, SVG Export Plug-In . SVG Version: 6.00 Build 0)  -->
<svg version="1.1" id="Layer_1" xmlns="http://www.w3.org/2000/svg" xmlns:xlink="http://www.w3.org/1999/xlink" x="0px" y="0px"
	 viewBox="0 0 50 50" style="enable-background:new 0 0 50 50;" xml:space="preserve">
<style type="text/css">
	.st0{fill:none;}
	.st1{fill:#5F4CEF;}
</style>
<rect class="st0" width="50" height="50"/>
<path class="st1" d="M11.2,21.4H7.5V9.6c0-1.3,0.1-2.8,0.2-4.4C7.6,5.2,7.4,5.5,6.9,6C6.5,6.5,5.8,7.3,4.6,8.6L2.5,6.2l5.3-4.9h3.4
	V21.4z M26.3,11.4c0,3.7-0.4,6.3-1.3,7.9c-0.9,1.6-2.3,2.5-4.2,2.5s-3.4-0.8-4.1-2.5c-0.9-1.7-1.3-4.2-1.3-7.9s0.5-6.3,1.4-7.9
	c0.9-1.6,2.2-2.5,4-2.5c2,0,3.4,0.8,4.2,2.4C25.8,5,26.3,7.7,26.3,11.4z M19,11.4c0,2.9,0.1,4.7,0.4,5.7c0.2,1,0.7,1.5,1.4,1.5
	c0.5,0,0.8-0.2,1.1-0.6c0.3-0.4,0.4-1.2,0.5-2.2s0.2-2.5,0.2-4.4c0-2.8-0.1-4.6-0.4-5.6c-0.3-1-0.7-1.5-1.4-1.5
	c-0.7,0-1.2,0.5-1.4,1.5C19.2,6.7,19,8.6,19,11.4z M39.3,11.4c0,3.7-0.4,6.3-1.3,7.9c-0.9,1.6-2.3,2.5-4.2,2.5c-2,0-3.4-0.8-4.1-2.5
	c-0.9-1.7-1.3-4.2-1.3-7.9s0.5-6.3,1.4-7.9s2.2-2.5,4-2.5c2,0,3.4,0.8,4.2,2.4C38.8,5,39.3,7.7,39.3,11.4z M32,11.4
	c0,2.9,0.1,4.7,0.4,5.7c0.2,1,0.7,1.5,1.4,1.5c0.5,0,0.8-0.2,1.1-0.6c0.3-0.4,0.4-1.1,0.6-2.1s0.2-2.5,0.2-4.4
	c0-2.8-0.1-4.6-0.4-5.6c-0.3-1-0.7-1.5-1.4-1.5s-1.2,0.5-1.4,1.5C32.3,6.8,32,8.6,32,11.4z M47.5,22.3c0,1.5-0.3,2.7-0.8,3.5
	c-0.5,0.8-1.3,1.2-2.2,1.2c-1,0-1.8-0.4-2.2-1.2c-0.5-0.8-0.7-1.9-0.7-3.5c0-1.5,0.2-2.7,0.7-3.5s1.2-1.2,2.2-1.2
	C46.4,17.8,47.5,19.3,47.5,22.3z M43.8,22.3c0,0.9,0.1,1.6,0.2,2.1c0.1,0.4,0.3,0.6,0.6,0.6s0.5-0.2,0.6-0.6
	c0.1-0.4,0.2-1.1,0.2-2.1c0-1-0.1-1.6-0.2-2.1s-0.3-0.6-0.6-0.6s-0.5,0.2-0.6,0.6S43.8,21.4,43.8,22.3z M44.3,12.1l-6.1,14.7h-2.1
	l6-14.7C42.2,12.1,44.3,12.1,44.3,12.1z"/>
</svg>
