<?xml version="1.0" encoding="utf-8"?>
<!-- Generator: Adobe Illustrator 23.0.2, SVG Export Plug-In . SVG Version: 6.00 Build 0)  -->
<svg version="1.1" id="Layer_1" xmlns="http://www.w3.org/2000/svg" xmlns:xlink="http://www.w3.org/1999/xlink" x="0px" y="0px"
	 viewBox="0 0 29 138" style="enable-background:new 0 0 29 138;" xml:space="preserve">
<style type="text/css">
	.st0{fill:#0A0068;}
</style>
<path id="Path-3" class="st0" d="M3.9,0.8l0.9,0.5C3.6,3.6,2.7,6,2.1,8.7l-1-0.2C1.8,5.7,2.7,3.2,3.9,0.8z M0.2,18.5l1,0
	C1.3,21,1.5,23.7,2,26.4l-1,0.2C0.5,23.8,0.3,21.1,0.2,18.5z M3.2,36.4l1-0.3c0.7,2.4,1.5,5,2.5,7.6L5.8,44
	C4.8,41.4,4,38.8,3.2,36.4z M9.6,53.3l0.9-0.4c1.1,2.3,2.2,4.7,3.4,7.2L13,60.6C11.8,58.1,10.7,55.7,9.6,53.3z M17.7,69.4l0.9-0.5
	c1.3,2.5,2.5,4.9,3.5,7.2l-0.9,0.4C20.1,74.2,19,71.8,17.7,69.4z M24.7,85.8l1-0.3c0.8,2.7,1.5,5.3,2,7.8l-1,0.2
	C26.2,91,25.5,88.5,24.7,85.8z M27.8,103.4l1,0c0.1,2.8-0.1,5.5-0.5,8.1l-1-0.2C27.7,108.7,27.9,106.1,27.8,103.4z M24.7,120.8
	l0.9,0.4c-1,2.5-2.3,4.9-3.8,7.1l-0.8-0.5C22.5,125.6,23.7,123.3,24.7,120.8z M14.8,135.4l0.7,0.7c-0.6,0.6-1.3,1.3-2,1.9l-0.7-0.7
	C13.5,136.7,14.1,136.1,14.8,135.4z"/>
</svg>
