<?xml version="1.0" encoding="utf-8"?>
<!-- Generator: Adobe Illustrator 23.0.2, SVG Export Plug-In . SVG Version: 6.00 Build 0)  -->
<svg version="1.1" id="Layer_1" xmlns="http://www.w3.org/2000/svg" xmlns:xlink="http://www.w3.org/1999/xlink" x="0px" y="0px"
	 viewBox="0 0 713 394" style="enable-background:new 0 0 713 394;" xml:space="preserve">
<style type="text/css">
	.st0{fill:#0A0068;}
	.st1{fill-rule:evenodd;clip-rule:evenodd;fill:#0A0068;}
	.st2{fill-rule:evenodd;clip-rule:evenodd;fill:#FFFFFF;}
	.st3{fill:#EBF5FF;}
	.st4{fill:#2C96F2;}
	.st5{fill:#FA8B55;}
	.st6{fill:#FFFFFF;}
	.st7{fill-rule:evenodd;clip-rule:evenodd;fill:#2A2B2D;}
	.st8{fill-rule:evenodd;clip-rule:evenodd;fill:#FCCF48;}
	.st9{fill-rule:evenodd;clip-rule:evenodd;fill:#D8D8D8;}
	.st10{fill-rule:evenodd;clip-rule:evenodd;fill:#37DA96;}
	.st11{fill-rule:evenodd;clip-rule:evenodd;fill:#F8427B;}
	.st12{fill:none;stroke:#0A0068;}
	.st13{fill:#E7ECFF;}
</style>
<path id="Combined-Shape" class="st0" d="M451,304v28h28.4c3.1,0,5.6,2.7,5.6,6c0,3.3-2.5,6-5.6,6H340.6c-3.1,0-5.6-2.7-5.6-6
	c0-3.3,2.5-6,5.6-6H364v-28H249c-3.9,0-7-3.1-7-7V79c0-3.9,3.1-7,7-7h319c3.9,0,7,3.1,7,7v218c0,3.9-3.1,7-7,7H451z"/>
<path id="Rectangle" class="st1" d="M598,239h92c1.7,0,3,1.3,3,3v122c0,1.7-1.3,3-3,3h-92c-1.7,0-3-1.3-3-3V242
	C595,240.3,596.3,239,598,239z"/>
<rect x="604" y="247" class="st2" width="81" height="113"/>
<path class="st3" d="M257.6,88h301.9c2,0,3.6,1.6,3.6,3.6v174.9c0,2-1.6,3.6-3.6,3.6H257.6c-2,0-3.6-1.6-3.6-3.6V91.6
	C254,89.6,255.6,88,257.6,88z"/>
<rect x="281.5" y="50.5" class="st2" width="144" height="194"/>
<path class="st4" d="M428,247H279V48h149V247z M284,242h139V53H284V242z M279,48h149v18H279V48z"/>
<rect x="283" y="66" class="st2" width="141" height="176.8"/>
<path class="st5" d="M619.8,269c0.1,0.1,0.2,0.2,0.2,0.4c0,0.2-0.1,0.3-0.2,0.4l-5,5.2c-0.1,0.1-0.2,0.2-0.4,0.2s-0.3-0.1-0.4-0.2
	l-2.9-3c-0.1-0.1-0.2-0.2-0.2-0.4s0.1-0.3,0.2-0.4l0.8-0.8c0.1-0.1,0.2-0.2,0.4-0.2s0.3,0.1,0.4,0.2l1.7,1.8l3.8-3.9
	c0.1-0.1,0.2-0.2,0.4-0.2s0.3,0.1,0.4,0.2L619.8,269z M619.8,290.5c0.1,0.1,0.2,0.2,0.2,0.4s-0.1,0.3-0.2,0.4l-5,5.2
	c-0.1,0.1-0.2,0.2-0.4,0.2s-0.3-0.1-0.4-0.2l-2.9-3c-0.1-0.1-0.2-0.2-0.2-0.4s0.1-0.3,0.2-0.4l0.8-0.8c0.1-0.1,0.2-0.2,0.4-0.2
	s0.3,0.1,0.4,0.2l1.7,1.8l3.8-3.9c0.1-0.1,0.2-0.2,0.4-0.2s0.3,0.1,0.4,0.2L619.8,290.5z M619.8,305.5c0.1,0.1,0.2,0.2,0.2,0.4
	c0,0.2-0.1,0.3-0.2,0.4l-5,5.2c-0.1,0.1-0.2,0.2-0.4,0.2s-0.3-0.1-0.4-0.2l-2.9-3c-0.1-0.1-0.2-0.2-0.2-0.4c0-0.2,0.1-0.3,0.2-0.4
	l0.8-0.8c0.1-0.1,0.2-0.2,0.4-0.2s0.3,0.1,0.4,0.2l1.7,1.8l3.8-3.9c0.1-0.1,0.2-0.2,0.4-0.2s0.3,0.1,0.4,0.2L619.8,305.5z
	 M619.8,324.9c0.1,0.1,0.2,0.2,0.2,0.4c0,0.2-0.1,0.3-0.2,0.4l-5,5.2c-0.1,0.1-0.2,0.2-0.4,0.2s-0.3-0.1-0.4-0.2l-2.9-3
	c-0.1-0.1-0.2-0.2-0.2-0.4s0.1-0.3,0.2-0.4l0.8-0.8c0.1-0.1,0.2-0.2,0.4-0.2s0.3,0.1,0.4,0.2l1.7,1.8l3.8-3.9
	c0.1-0.1,0.2-0.2,0.4-0.2s0.3,0.1,0.4,0.2L619.8,324.9z M359,157h57v45h-57V157z"/>
<path class="st1" d="M359,105h57v4.5h-57V105z M359,114h57v4.5h-57V114z M359,136.5h57v4.5h-57V136.5z M359,145.5h57v4.5h-57V145.5z
	 M359,123h57v9h-57V123z M293,157h57v4.5h-57V157z M293,166h57v4.5h-57V166z M293,188.5h57v4.5h-57V188.5z M293,197.5h57v4.5h-57
	V197.5z M293,175h57v9h-57V175z M293,211h122v6.8H293V211z M293,222.2h122v6.8H293V222.2z"/>
<path id="Path" class="st0" d="M310.4,168H26.6c-4.2,0-7.6,3.4-7.6,7.6V355h299V175.6c0-2-0.8-3.9-2.2-5.4
	C314.3,168.8,312.4,168,310.4,168z"/>
<rect x="34" y="180" class="st6" width="271" height="163"/>
<path class="st0" d="M0,357c0,5.3,2.1,10.4,5.9,14.2c3.8,3.8,8.9,5.9,14.3,5.8h292.6c11.1,0,20.2-9,20.2-20H0z"/>
<path class="st6" d="M191.7,362h-55.5c-1.4,0-2.7-0.6-3.7-1.8c-1-1.1-1.5-2.7-1.5-4.2h66c0,1.6-0.6,3.1-1.6,4.3
	C194.5,361.4,193.1,362,191.7,362L191.7,362z"/>
<rect x="35.5" y="182.5" class="st2" width="267" height="159"/>
<path class="st4" d="M305,344H33V180h272V344z M38,339h262V185H38V339z M33,180h272v18H33V180z"/>
<path class="st7" d="M195,211h58v4h-58V211z M149,223h58v4h-58V223z M183,246h58v4h-58V246z M124,276h117v4H124V276z M102,281h117v4
	H102V281z M223,252h30v4h-30V252z M177,311h30v4h-30V311z M167,299h30v4h-30V299z M223,322h30v4h-30V322z"/>
<path class="st8" d="M229,205h58v4h-58V205z M207,316h34v4h-34V316z M85,234h122v4H85V234z M74,287h122v4H74V287z"/>
<path class="st9" d="M161,217h58v4h-58V217z M183,270h58v4h-58V270z M253,258h34v4h-34V258z M163,304h34v4h-34V304z M253,328h34v4
	h-34V328z M223,263h30v4h-30V263z M85,229h122v4H85V229z M85,240h122v4H85V240z M74,293h122v4H74V293z"/>
<path class="st10" d="M627,269h47v6.4h-47V269z M627,290.4h47v6.4h-47V290.4z M627,305.3h47v6.4h-47V305.3z M627,324.6h47v6.4h-47
	V324.6z M637.7,243v-10.2c1.8-1.8,3.6-2.8,5.3-2.8c1.8,0,3.6,0.9,5.3,2.7V243H663v13h-40v-13H637.7z M639.8,243h6.5v-9
	c-1.1-0.9-2.2-1.3-3.2-1.3c-1.1,0-2.2,0.4-3.2,1.3V243z M314.5,53c1.9,0,3.5,1.6,3.5,3.5s-1.6,3.5-3.5,3.5s-3.5-1.6-3.5-3.5
	S312.6,53,314.5,53z M293,105h57v45h-57V105z M293,80h122v18H293V80z M68.5,185c1.9,0,3.5,1.6,3.5,3.5s-1.6,3.5-3.5,3.5
	s-3.5-1.6-3.5-3.5S66.6,185,68.5,185z"/>
<path class="st11" d="M294.5,53c1.9,0,3.5,1.6,3.5,3.5s-1.6,3.5-3.5,3.5s-3.5-1.6-3.5-3.5S292.6,53,294.5,53z M48.5,185
	c1.9,0,3.5,1.6,3.5,3.5s-1.6,3.5-3.5,3.5s-3.5-1.6-3.5-3.5S46.6,185,48.5,185z M509.5,256V140h28v116H509.5z"/>
<path class="st12" d="M509.5,250.3h6H509.5z M509.5,244.8h6H509.5z M509.5,239.3h6H509.5z M509.5,233.8h6H509.5z M509.5,228.3h6
	H509.5z M509.5,222.8h6H509.5z M509.5,217.3h6H509.5z M509.5,211.8h6H509.5z M509.5,206.3h6H509.5z M509.5,200.8h6H509.5z
	 M509.5,195.3h6H509.5z M509.5,189.8h6H509.5z M509.5,184.3h6H509.5z M509.5,178.8h6H509.5z M509.5,173.3h6H509.5z M509.5,167.8h6
	H509.5z M509.5,162.3h6H509.5z M509.5,156.8h6H509.5z M509.5,151.3h6H509.5z M509.5,145.8h6H509.5z"/>
<circle class="st12" cx="523.5" cy="146" r="3"/>
<path class="st8" d="M58.5,185c1.9,0,3.5,1.6,3.5,3.5s-1.6,3.5-3.5,3.5s-3.5-1.6-3.5-3.5S56.6,185,58.5,185z M243.8,29
	c-1.6-1.1-2-3.3-0.9-4.9c1.1-1.6,3.3-2,4.9-0.9c1.6,1.1,2,3.3,0.9,4.9C247.6,29.7,245.4,30.1,243.8,29z M615.1,130.7
	c-1.1,1.6-3.3,2-4.9,0.9c-1.6-1.1-2-3.3-0.9-4.9c1.1-1.6,3.3-2,4.9-0.9c0.8,0.5,1.3,1.3,1.5,2.2C615.8,129,615.6,129.9,615.1,130.7z
	 M690,60c0.1,6.2-2.4,12.1-6.9,16.4c-4.1,4.2-6.4,9.8-6.4,15.6h-20.3v-0.9c-0.1-5.7-2.5-11.1-6.7-15.1c-6-6-8.2-14.7-5.7-22.7
	c2.5-8,9.3-14.1,17.6-15.8c6.9-1.4,14.1,0.3,19.6,4.6S690,53.1,690,60z M636.4,57L616,51.2l1.4-5.3l19.5,8.1L636.4,57z M694.1,57
	l-0.7-2.9l17.9-9.4l1.7,5L694.1,57z M642.5,40.9l-14.2-14.6l3.4-3.9l12.5,16.1L642.5,40.9z M682,37.2l-2.2-2l9.4-17.8l4.1,3.1
	L682,37.2z M659.6,31l-1.8-20.5l6.1-0.5L663,30.5L659.6,31z M482.2,189c2.1,31.9,3,50.9,2.8,57.2c-0.2,6.2-1.6,9.8-4.2,10.8h-9.9
	c-2.8,0.5-4.4-3.1-4.8-10.8c-0.4-7.7,0.6-26.7,3-57.2H482.2z M304.5,53c1.9,0,3.5,1.6,3.5,3.5s-1.6,3.5-3.5,3.5s-3.5-1.6-3.5-3.5
	S302.6,53,304.5,53z M523,367h39v7h-39V367z M531,377h39v7h-39V377z M523,387h39v7h-39V387z M216,115v7h-39v-7H216z M208,125v7h-39
	v-7H208z M216,135v7h-39v-7H216z M666,160h39v7h-39V160z M674,168h39v7h-39V168z M666,178h39v7h-39V178z M140.5,70.7l0.4-1.3
	c0.1-0.4,0.5-0.7,0.9-0.7c0.4,0,0.8-0.1,1.2-0.2c0.4-0.1,0.9,0.1,1.1,0.4l0.7,1.2c0.2,0.4,0.6,0.7,1,0.8s0.9,0.1,1.3-0.2l1.9-1.1
	c0.8-0.5,1.1-1.5,0.6-2.4l-0.7-1.2c-0.2-0.4-0.1-0.8,0.2-1.2c0.2-0.3,0.5-0.6,0.7-0.9c0.2-0.4,0.7-0.5,1.1-0.5l1.3,0.3
	c0.9,0.2,1.9-0.3,2.1-1.2l0.6-2.1c0.2-0.9-0.3-1.9-1.2-2.1l-1.3-0.3c-0.4-0.1-0.7-0.5-0.7-0.9c0-0.4-0.1-0.8-0.1-1.2
	c-0.1-0.4,0.1-0.8,0.4-1.1l1.2-0.7c0.4-0.2,0.7-0.6,0.8-1.1c0.1-0.4,0.1-0.9-0.2-1.3l-1.1-1.9c-0.5-0.8-1.5-1.1-2.4-0.6l-1.2,0.7
	c-0.4,0.2-0.8,0.1-1.2-0.2c-0.3-0.3-0.6-0.5-0.9-0.7c-0.4-0.2-0.5-0.7-0.5-1.1l0.4-1.3c0.2-0.9-0.3-1.9-1.2-2.1l-2.1-0.6
	c-0.9-0.2-1.9,0.3-2.1,1.2l-0.4,1.3c-0.1,0.4-0.5,0.7-0.9,0.7c-0.4,0-0.8,0.1-1.1,0.1c-0.4,0.1-0.8-0.1-1.1-0.5l-0.7-1.2
	c-0.2-0.4-0.6-0.7-1-0.8s-0.9-0.1-1.3,0.2l-1.9,1.1c-0.4,0.2-0.7,0.6-0.8,1.1c-0.1,0.4-0.1,0.9,0.2,1.3l0.7,1.2
	c0.1,0.2,0.1,0.5,0.1,0.7c0,0.2-0.1,0.3-0.2,0.4c-0.3,0.3-0.5,0.6-0.7,0.9c-0.2,0.4-0.7,0.5-1.1,0.5l-1.3-0.4
	c-0.9-0.2-1.9,0.3-2.1,1.2l-0.6,2.1c-0.2,0.9,0.3,1.9,1.2,2.1l1.3,0.4c0.4,0.1,0.7,0.5,0.7,0.9c0,0.4,0.1,0.8,0.2,1.2
	c0,0.2,0,0.3,0,0.5c-0.1,0.2-0.2,0.5-0.4,0.6l-1.2,0.7c-0.8,0.5-1.1,1.5-0.6,2.4l1.1,1.9c0.2,0.4,0.6,0.7,1,0.8
	c0.4,0.1,0.9,0.1,1.3-0.2l1.2-0.7c0.4-0.2,0.8-0.1,1.2,0.2c0.3,0.3,0.6,0.5,0.9,0.7c0.4,0.2,0.5,0.7,0.5,1.1l-0.4,1.3
	c-0.2,0.9,0.3,1.9,1.2,2.1l2.1,0.6C139.3,72.2,140.3,71.6,140.5,70.7z M139.7,62.9c-2-0.5-3.5-2.2-3.7-4.2c-0.3-2,0.7-4,2.5-5.1
	c1.8-1,4-0.9,5.6,0.4c1.6,1.2,2.3,3.4,1.8,5.3C145.2,62,142.4,63.6,139.7,62.9z"/>
<path class="st0" d="M673,104v1.1c0,0.5-0.4,0.9-0.9,0.9h-13.2c-0.5,0-0.9-0.4-0.9-0.9V104h-4.4c-0.3,0-0.6-0.3-0.6-0.6V88.6
	c0-0.3,0.3-0.6,0.6-0.6h24.8c0.3,0,0.6,0.3,0.6,0.6v14.8c0,0.3-0.3,0.6-0.6,0.6H673z"/>
<path class="st13" d="M674.6,93.8h-18.3c-0.8,0-1.4-0.6-1.4-1.3s0.6-1.3,1.4-1.3h18.3c0.8,0,1.4,0.6,1.4,1.3S675.4,93.8,674.6,93.8z
	 M674.6,97.8h-18.3c-0.8,0-1.4-0.6-1.4-1.3c0-0.7,0.6-1.3,1.4-1.3h18.3c0.7,0,1.4,0.6,1.4,1.3C676,97.2,675.4,97.8,674.6,97.8z
	 M674.6,100.8h-18.3c-0.7,0-1.4-0.6-1.4-1.3c0-0.7,0.6-1.3,1.4-1.3h18.3c0.8,0,1.4,0.6,1.4,1.3C676,100.2,675.4,100.8,674.6,100.8z"
	/>
<path class="st0" d="M482.6,180c-1.2-6.8,3.4-16.4,3.4-16.4c-4.5-4.7-9.3-23.6-9.3-23.6h-0.9v21.4c1,0.1,1.7,1,1.7,2
	c0,1.2-0.9,2.1-2,2.1c-1.1,0-2-1-2-2.1c0-1,0.7-1.9,1.7-2V140h-0.9c0,0-4.9,18.9-9.3,23.6c0,0,4.7,9.6,3.4,16.4H467l-1,9h19l-1-9
	H482.6z M107.8,140.9h-3.9c-1.6,0-2.9-1.1-2.9-2.5s1.3-2.6,2.9-2.6h3.9v-3.9c0-1.6,1.1-2.9,2.5-2.9s2.5,1.3,2.5,2.9v3.9h2.2
	c1.6,0,2.9,1.1,2.9,2.6s-1.3,2.5-2.9,2.5h-2.2v2.3c0,0.8-0.3,1.5-0.8,2.1c-0.5,0.5-1.2,0.8-1.9,0.8c-1.4,0-2.5-1.3-2.5-2.8V140.9z
	 M462.8,49.2h-3.9c-1.6,0-2.9-1.1-2.9-2.5c0-1.4,1.3-2.6,2.9-2.6h3.9v-2.2c0-1.6,1.1-2.9,2.6-2.9s2.5,1.3,2.5,2.9v2.2h2.2
	c1.6,0,2.9,1.1,2.9,2.6c0,1.4-1.3,2.5-2.9,2.5h-2.2v4c0,0.8-0.3,1.5-0.8,2.1s-1.2,0.8-1.9,0.8c-1.4,0-2.5-1.3-2.5-2.8V49.2z
	 M504.9,349l-1,4c-0.4,1.3-1.4,2.1-2.7,2c-0.3,0-0.5,0-0.8,0c-0.7-0.2-1.3-0.7-1.7-1.4s-0.4-1.5-0.2-2.3l1-3.8l-2.4-0.6
	c-1.6-0.4-2.5-2-2-3.5c0.4-1.5,2.1-2.4,3.7-1.9l2.2,0.6l0.5-1.9c0.4-1.6,1.9-2.5,3.4-2.1c1.5,0.4,2.3,2.1,1.9,3.7l-0.5,1.8l3.5,0.9
	c0.8,0.2,1.4,0.7,1.8,1.3s0.5,1.4,0.2,2.1c-0.4,1.2-1.5,2-2.8,1.9c-0.3,0-0.6,0-0.8,0L504.9,349z M427.5,373.5l-0.9,3.5
	c-0.4,1.3-1.4,2.1-2.7,2c-0.2,0-0.5,0-0.7,0c-0.7-0.2-1.3-0.7-1.7-1.4c-0.4-0.7-0.4-1.5-0.2-2.3l0.9-3.3l-4-1.1
	c-1.5-0.4-2.4-2-2-3.5s2.1-2.3,3.6-1.9l3.8,1.1l0.6-2.4c0.4-1.6,1.9-2.5,3.4-2.1s2.3,2.1,1.9,3.7l-0.6,2.2l1.7,0.5
	c1.5,0.2,2.6,1.6,2.4,3.1s-1.6,2.5-3.2,2.3c-0.3,0-0.5,0-0.8,0L427.5,373.5z M177.4,36h-1.4v-2.5c0-3-2.5-5.5-5.5-5.5h-41.1
	l-3.3-3.5c-0.3-0.3-0.7-0.5-1.1-0.5h-15.5c-3,0-5.5,2.5-5.5,5.5V36h-1.4c-3,0-5.5,2.5-5.5,5.5c0,0,0,0.1,0,0.1l4,48.1
	c0,3,2.5,5.4,5.5,5.4h18.1h30.7h18.1c3,0,5.5-2.4,5.5-5.4l4-48.1c0,0,0-0.1,0-0.1C182.9,38.4,180.4,36,177.4,36z M106.9,29.5
	c0-1.4,1.1-2.5,2.5-2.5h14.8l3.3,3.5c0.3,0.3,0.7,0.5,1.1,0.5h41.8c1.4,0,2.5,1.1,2.5,2.5V36h-66V29.5z M57,109
	c0,2.4-1.5,4.6-3.7,5.5c-2.2,0.9-4.8,0.4-6.5-1.3c-1.7-1.7-2.2-4.3-1.3-6.5c0.9-2.2,3.1-3.7,5.6-3.7c1.6,0,3.1,0.6,4.2,1.8
	C56.4,105.9,57,107.4,57,109z M351.5,15c-4.1,0-7.5-3.4-7.5-7.5s3.4-7.5,7.5-7.5s7.5,3.4,7.5,7.5S355.6,15,351.5,15z M621.5,199
	c-4.1,0-7.5-3.4-7.5-7.5s3.4-7.5,7.5-7.5s7.5,3.4,7.5,7.5S625.6,199,621.5,199z M581.5,35c-4.1,0-7.5-3.4-7.5-7.5s3.4-7.5,7.5-7.5
	s7.5,3.4,7.5,7.5S585.6,35,581.5,35z"/>
<path class="st6" d="M156.2,87.2c-0.2,0.6-0.8,1-1.4,0.8l-1.5-0.4c-0.6-0.2-1-0.9-0.8-1.5l0.2-0.9c0-0.3-0.1-0.6-0.3-0.8
	c-0.2-0.2-0.4-0.3-0.6-0.5c-0.2-0.2-0.5-0.2-0.8-0.1l-0.8,0.5c-0.6,0.3-1.3,0.1-1.6-0.5l-0.7-1.3c-0.2-0.3-0.2-0.6-0.1-0.9
	c0.1-0.3,0.3-0.6,0.6-0.8l0.8-0.5c0.1-0.1,0.3-0.3,0.3-0.4c0-0.1,0-0.2,0-0.3c0-0.3-0.1-0.5-0.1-0.8c0-0.3-0.2-0.6-0.5-0.7l-0.9-0.2
	c-0.6-0.2-1-0.9-0.8-1.5l0.4-1.5c0.2-0.7,0.8-1,1.4-0.9l0.9,0.2c0.3,0,0.6-0.1,0.7-0.3c0.2-0.2,0.3-0.4,0.5-0.7
	c0.1-0.1,0.1-0.2,0.2-0.3c0.1-0.2,0.1-0.4,0-0.5l-0.5-0.8c-0.2-0.3-0.2-0.6-0.1-0.9c0.1-0.3,0.3-0.6,0.5-0.8l1.3-0.8
	c0.6-0.3,1.3-0.1,1.6,0.5l0.5,0.8c0.2,0.3,0.5,0.4,0.7,0.3c0.3-0.1,0.5-0.1,0.8-0.1c0.3,0,0.5-0.2,0.6-0.5l0.2-0.9
	c0.2-0.7,0.8-1.1,1.4-0.9l1.4,0.4c0.6,0.2,1,0.9,0.8,1.5l-0.2,0.9c0,0.3,0.1,0.6,0.3,0.8c0.2,0.2,0.4,0.3,0.6,0.5
	c0.2,0.2,0.5,0.2,0.8,0.1l0.8-0.5c0.3-0.2,0.6-0.2,0.9-0.1s0.6,0.3,0.7,0.6l0.7,1.3c0.2,0.3,0.2,0.6,0.1,0.9
	c-0.1,0.3-0.3,0.6-0.5,0.8l-0.8,0.5c-0.1,0.1-0.2,0.3-0.3,0.4c0,0.1,0,0.2,0,0.3c0,0.3,0.1,0.6,0.1,0.8c0,0.3,0.2,0.6,0.5,0.7
	l0.9,0.2c0.6,0.2,1,0.9,0.8,1.5l-0.4,1.5c-0.1,0.3-0.3,0.6-0.5,0.8c-0.3,0.2-0.6,0.2-0.9,0.1l-0.9-0.2c-0.3-0.1-0.6,0.1-0.7,0.3
	c-0.2,0.2-0.3,0.4-0.5,0.7c-0.1,0.1-0.1,0.2-0.2,0.3c-0.1,0.2,0,0.4,0,0.5l0.5,0.8c0.2,0.3,0.2,0.6,0.1,1c-0.1,0.3-0.3,0.6-0.5,0.7
	l-1.3,0.8c-0.3,0.2-0.6,0.2-0.9,0.1c-0.3-0.1-0.6-0.3-0.7-0.6l-0.5-0.8c-0.2-0.2-0.5-0.4-0.7-0.3c-0.3,0.1-0.5,0.1-0.8,0.1
	c-0.3,0-0.5,0.2-0.6,0.5L156.2,87.2z M155.6,81.5c1.8,0.5,3.7-0.6,4.2-2.6c0.4-1.4-0.1-2.9-1.2-3.8s-2.6-1-3.8-0.3
	c-1.2,0.7-1.9,2.2-1.7,3.6C153.2,80,154.2,81.2,155.6,81.5z M123.2,85.2c-0.2,0.6-0.8,1-1.4,0.8l-1.5-0.4c-0.6-0.2-1-0.9-0.8-1.5
	l0.2-0.9c0-0.3-0.1-0.6-0.3-0.8c-0.2-0.2-0.4-0.3-0.6-0.5c-0.2-0.2-0.5-0.2-0.8-0.1l-0.8,0.5c-0.6,0.3-1.3,0.1-1.6-0.5l-0.7-1.3
	c-0.2-0.3-0.2-0.6-0.1-0.9c0.1-0.3,0.3-0.6,0.6-0.8l0.8-0.5c0.1-0.1,0.3-0.3,0.3-0.4c0-0.1,0-0.2,0-0.3c0-0.3-0.1-0.5-0.1-0.8
	c0-0.3-0.2-0.6-0.5-0.7l-0.9-0.2c-0.6-0.2-1-0.9-0.8-1.5l0.4-1.5c0.2-0.7,0.8-1,1.4-0.9l0.9,0.2c0.3,0,0.6-0.1,0.7-0.3
	c0.2-0.2,0.3-0.4,0.5-0.7c0.1-0.1,0.1-0.2,0.2-0.3c0.1-0.2,0.1-0.4,0-0.5l-0.5-0.8c-0.2-0.3-0.2-0.6-0.1-0.9
	c0.1-0.3,0.3-0.6,0.5-0.8l1.3-0.8c0.6-0.3,1.3-0.1,1.6,0.5l0.5,0.8c0.2,0.3,0.5,0.4,0.7,0.3c0.3-0.1,0.5-0.1,0.8-0.1
	c0.3,0,0.5-0.2,0.6-0.5l0.2-0.9c0.2-0.7,0.8-1.1,1.4-0.9l1.4,0.4c0.6,0.2,1,0.9,0.8,1.5l-0.2,0.9c0,0.3,0.1,0.6,0.3,0.8
	c0.2,0.2,0.4,0.3,0.6,0.5c0.2,0.2,0.5,0.2,0.8,0.1l0.8-0.5c0.3-0.2,0.6-0.2,0.9-0.1s0.6,0.3,0.7,0.6l0.7,1.3
	c0.2,0.3,0.2,0.6,0.1,0.9c-0.1,0.3-0.3,0.6-0.5,0.8l-0.8,0.5c-0.1,0.1-0.2,0.3-0.3,0.4c0,0.1,0,0.2,0,0.3c0,0.3,0.1,0.6,0.1,0.8
	c0,0.3,0.2,0.6,0.5,0.7l0.9,0.2c0.6,0.2,1,0.9,0.8,1.5l-0.4,1.5c-0.1,0.3-0.3,0.6-0.5,0.8c-0.3,0.2-0.6,0.2-0.9,0.1l-0.9-0.2
	c-0.3-0.1-0.6,0.1-0.7,0.3c-0.2,0.2-0.3,0.4-0.5,0.7c-0.1,0.1-0.1,0.2-0.2,0.3c-0.1,0.2,0,0.4,0,0.5l0.5,0.8c0.2,0.3,0.2,0.6,0.1,1
	c-0.1,0.3-0.3,0.6-0.5,0.7l-1.3,0.8c-0.3,0.2-0.6,0.2-0.9,0.1c-0.3-0.1-0.6-0.3-0.7-0.6l-0.5-0.8c-0.2-0.2-0.5-0.4-0.7-0.3
	c-0.3,0.1-0.5,0.1-0.8,0.1c-0.3,0-0.5,0.2-0.6,0.5L123.2,85.2z M122.6,79.5c1.8,0.5,3.7-0.6,4.2-2.6c0.4-1.4-0.1-2.9-1.2-3.8
	c-1.1-0.9-2.6-1-3.8-0.3c-1.2,0.7-1.9,2.2-1.7,3.6C120.2,78,121.2,79.2,122.6,79.5z"/>
</svg>
