<?xml version="1.0" encoding="utf-8"?>
<!-- Generator: Adobe Illustrator 23.0.2, SVG Export Plug-In . SVG Version: 6.00 Build 0)  -->
<svg version="1.1" id="Layer_1" xmlns="http://www.w3.org/2000/svg" xmlns:xlink="http://www.w3.org/1999/xlink" x="0px" y="0px"
	 viewBox="0 0 29 195" style="enable-background:new 0 0 29 195;" xml:space="preserve">
<style type="text/css">
	.st0{fill:#0A0068;}
</style>
<path id="Path-3" class="st0" d="M3.9,0.9l0.9,0.3C4,3.6,3.2,6.2,2.7,8.9l-1-0.2C2.3,5.9,3,3.3,3.9,0.9z M0.4,18.6l1,0.1
	c-0.2,2.5-0.2,5.2-0.1,8l-1,0C0.2,23.9,0.2,21.2,0.4,18.6z M0.9,36.7l1-0.1c0.3,2.6,0.7,5.2,1.1,7.9l-1,0.2
	C1.6,41.9,1.2,39.3,0.9,36.7z M4,54.5l1-0.2c0.6,2.5,1.2,5.1,1.9,7.8l-1,0.3C5.2,59.6,4.5,57,4,54.5z M8.6,72l1-0.3
	c0.8,2.5,1.6,5,2.4,7.6l-0.9,0.3C10.2,77,9.4,74.5,8.6,72z M14.4,89l0.9-0.3c0.7,2,1.5,4.1,2.3,6.2c0.2,0.4,0.3,0.9,0.5,1.3
	l-0.9,0.4c-0.2-0.4-0.3-0.9-0.5-1.3C15.9,93.1,15.1,91,14.4,89z M20.5,105.9l1-0.3c0.8,2.6,1.6,5.2,2.3,7.7l-1,0.3
	C22.1,111,21.3,108.5,20.5,105.9z M25.2,123.2l1-0.2c0.6,2.7,1,5.3,1.4,7.9l-1,0.1C26.2,128.5,25.7,125.9,25.2,123.2z M27.6,141
	l1-0.1c0.2,2.7,0.2,5.4,0.2,8l-1,0C27.9,146.3,27.8,143.7,27.6,141z M27.2,158.9l1,0.1c-0.3,2.7-0.8,5.3-1.4,7.9l-1-0.2
	C26.4,164.2,26.8,161.6,27.2,158.9z M22.9,176.2l0.9,0.4c-1,2.5-2,5-3.3,7.4l-0.9-0.5C20.9,181.1,22,178.7,22.9,176.2z M14.5,192
	l0.8,0.6c-0.6,0.8-1.2,1.6-1.8,2.4l-0.8-0.6C13.4,193.6,14,192.8,14.5,192z"/>
</svg>
