<?xml version="1.0" encoding="utf-8"?>
<!-- Generator: Adobe Illustrator 23.0.2, SVG Export Plug-In . SVG Version: 6.00 Build 0)  -->
<svg version="1.1" id="Layer_1" xmlns="http://www.w3.org/2000/svg" xmlns:xlink="http://www.w3.org/1999/xlink" x="0px" y="0px"
	 viewBox="0 0 52 52" style="enable-background:new 0 0 52 52;" xml:space="preserve">
<style type="text/css">
	.st0{fill:#37DA96;}
	.st1{filter:url(#Adobe_OpacityMaskFilter);}
	.st2{fill-rule:evenodd;clip-rule:evenodd;fill:#FFFFFF;}
	.st3{mask:url(#mask-2_1_);fill:#FFFFFF;}
</style>
<path class="st0" d="M26,0L26,0c14.4,0,26,11.6,26,26l0,0c0,14.4-11.6,26-26,26l0,0C11.6,52,0,40.4,0,26l0,0C0,11.6,11.6,0,26,0z"/>
<defs>
	<filter id="Adobe_OpacityMaskFilter" filterUnits="userSpaceOnUse" x="21.3" y="2.6" width="30.1" height="43.4">
		<feColorMatrix  type="matrix" values="1 0 0 0 0  0 1 0 0 0  0 0 1 0 0  0 0 0 1 0"/>
	</filter>
</defs>
<mask maskUnits="userSpaceOnUse" x="21.3" y="2.6" width="30.1" height="43.4" id="mask-2_1_">
	<g class="st1">
		<path id="path-1_1_" class="st2" d="M26,0L26,0c14.4,0,26,11.6,26,26l0,0c0,14.4-11.6,26-26,26l0,0C11.6,52,0,40.4,0,26l0,0
			C0,11.6,11.6,0,26,0z"/>
	</g>
</mask>
<path class="st3" d="M51.3,46H21.4v-6.3l10.8-10.9c3.2-3.3,5.3-5.5,6.2-6.8s1.7-2.4,2.1-3.5s0.6-2.2,0.6-3.3c0-1.7-0.5-3-1.4-3.8
	s-2.2-1.3-3.8-1.3c-1.7,0-3.3,0.4-4.8,1.1s-3.2,1.8-4.9,3.3l-4.9-5.8c2.1-1.8,3.9-3.1,5.2-3.8s2.9-1.3,4.5-1.7s3.5-0.6,5.5-0.6
	c2.7,0,5,0.5,7.1,1.5s3.6,2.3,4.8,4.1s1.7,3.8,1.7,6c0,2-0.3,3.8-1,5.6s-1.8,3.5-3.2,5.3s-4,4.4-7.7,7.8L32.7,38v0.4h18.7V46z"/>
</svg>
