<?xml version="1.0" encoding="utf-8"?>
<!-- Generator: Adobe Illustrator 23.0.2, SVG Export Plug-In . SVG Version: 6.00 Build 0)  -->
<svg version="1.1" id="Layer_1" xmlns="http://www.w3.org/2000/svg" xmlns:xlink="http://www.w3.org/1999/xlink" x="0px" y="0px"
	 viewBox="0 0 762 457" style="enable-background:new 0 0 762 457;" xml:space="preserve">
<style type="text/css">
	.st0{fill:#2C96F2;}
	.st1{fill:#0A0068;}
	.st2{fill:#A8D2FF;}
	.st3{fill-rule:evenodd;clip-rule:evenodd;fill:#FFFFFF;}
	.st4{fill-rule:evenodd;clip-rule:evenodd;fill:#0A0068;}
	.st5{fill:#979797;}
	.st6{fill-rule:evenodd;clip-rule:evenodd;fill:#A8D2FF;}
	.st7{fill-rule:evenodd;clip-rule:evenodd;fill:#2C96F2;}
	.st8{fill-rule:evenodd;clip-rule:evenodd;fill:#37DA96;}
	.st9{fill-rule:evenodd;clip-rule:evenodd;fill:#FCCF48;}
	.st10{fill-rule:evenodd;clip-rule:evenodd;fill:#F8427B;}
	.st11{fill:#FFFFFF;}
</style>
<rect id="Rectangle" x="547.8" y="108.7" class="st0" width="87" height="9.3"/>
<path id="Combined-Shape" class="st1" d="M468.3,380.3v22.4h-22.5v-22.4H468.3z M467.1,352.3h-20l10-9.6L467.1,352.3z M467.1,327.1
	h-20l10-9.6L467.1,327.1z M521.6,75.1h-25.3h-25.3V48.1H443v27.1h-22.5h-28.1v28h28.1H443v329.4h28.1V103.1h25.3h25.3h25.3v-28
	H521.6z M468.2,73.1l-9.1-9.1l9.1-9.1V73.1z M466.1,75.1H448l9.1-9.1L466.1,75.1z M447.9,52.8h18.3l-9.1,9.1L447.9,52.8z
	 M445.9,54.9L455,64l-9.1,9.1V54.9z M468.2,99.1l-9.1-9.1l9.1-9.1V99.1z M465.2,100.3h-16.3l8.2-8.2L465.2,100.3z M447,78h20.1
	l-10,10L447,78z M445.9,81l9.1,9.1l-9.1,9.1V81z M468.2,124.3l-9.1-9.1l9.1-9.1V124.3z M465.2,125.4h-16.4l8.2-8.2L465.2,125.4z
	 M447,103.2h20l-10,10L447,103.2z M445.9,106.2l9.1,9.1l-9.1,9.1V106.2z M468.2,148.5l-9.1-9.1l9.1-9.1V148.5z M466.2,150.6h-18.4
	l9.2-9.2L466.2,150.6z M448,128.4h18.1l-9,9L448,128.4z M445.9,130.4l9.1,9.1l-9.1,9.1V130.4z M468.2,174.7l-9.1-9.1l9.1-9.1V174.7z
	 M465.3,175.9h-16.5l8.3-8.2L465.3,175.9z M447.1,153.6H467l-10,9.9L447.1,153.6z M445.9,156.5l9.1,9.1l-9.1,9.1V156.5z
	 M468.2,199.8l-9.1-9.1l9.1-9.1V199.8z M465.3,201h-16.6l8.3-8.3L465.3,201z M447.2,178.9h19.7l-9.8,9.8L447.2,178.9z M445.9,181.7
	l9.1,9.1l-9.1,9.1V181.7z M468.2,224.1l-9.1-9.1l9.1-9.1V224.1z M466.3,226.2h-18.5l9.3-9.2L466.3,226.2z M448.1,204H466l-8.9,8.9
	L448.1,204z M445.9,205.9l9.1,9.1l-9.1,9.1V205.9z M468.2,249.2l-9.1-9.1l9.1-9.1V249.2z M466.3,251.4h-18.6l9.3-9.3L466.3,251.4z
	 M448.1,229.2H466l-8.9,8.9L448.1,229.2z M445.9,231.1l9.1,9.1l-9.1,9.1V231.1z M468.2,275.3l-9.1-9.1l9.1-9.1V275.3z M465.4,276.6
	h-16.8l8.4-8.4L465.4,276.6z M447.2,254.4h19.6l-9.8,9.8L447.2,254.4z M445.9,257.2l9.1,9.1l-9.1,9.1V257.2z M468.2,299.6l-9.1-9.1
	l9.1-9.1V299.6z M466.4,301.8h-18.7l9.4-9.3L466.4,301.8z M448.2,279.6h17.7l-8.8,8.8L448.2,279.6z M445.9,281.4l9.1,9.1l-9.1,9.1
	V281.4z M417.7,80v17.5l-8.8-8.7L417.7,80z M415.6,78l-8.7,8.7l-8.7-8.7H415.6z M395.4,98.2V79.3l9.5,9.4L395.4,98.2z M397.4,100.2
	l9.5-9.5l9.5,9.5H397.4z M443,80v17.6l-8.8-8.8L443,80z M440.8,78l-8.7,8.7l-8.7-8.7H440.8z M420.7,98.1V79.3l9.4,9.4L420.7,98.1z
	 M422.6,100.2l9.5-9.5l9.5,9.5H422.6z M493.5,79.9v17.7l-8.9-8.9L493.5,79.9z M491.3,78l-8.7,8.7l-8.7-8.7H491.3z M471.2,98.1V79.4
	l9.3,9.3L471.2,98.1z M473.1,100.2l9.5-9.5l9.5,9.5H473.1z M518.7,79.8v17.8l-8.9-8.9L518.7,79.8z M516.5,78l-8.7,8.7L499,78H516.5z
	 M496.4,98V79.5l9.3,9.3L496.4,98z M498.3,100.2l9.5-9.5l9.5,9.5H498.3z M544,100.2h-22.3V78H544V100.2z M468.3,324.2l-9.1-8.8
	l9.1-8.8L468.3,324.2z M448,304.7h18.1l-9,8.7L448,304.7z M445.8,306.7l9.1,8.8l-9.1,8.8V306.7z M468.3,425l-9.1-8.8l9.1-8.8
	L468.3,425z M467.1,427.9h-20l10-9.6L467.1,427.9z M448,405.5h18.1l-9,8.7L448,405.5z M445.8,407.4l9.1,8.8l-9.1,8.8V407.4z
	 M468.3,349.4l-9.1-8.8l9.1-8.8L468.3,349.4z M448,329.9h18.1l-9,8.7L448,329.9z M445.8,331.9l9.1,8.8l-9.1,8.8V331.9z M468.3,375.6
	l-9.1-8.8l9.1-8.8L468.3,375.6z M466.1,377.5H448l9-8.7L466.1,377.5z M447.1,355.1h20l-10,9.6L447.1,355.1z M468.3,400.8l-9.1-8.8
	l9.1-8.8V400.8z M466.1,402.7H448l9-8.7L466.1,402.7z M447.1,380.3h20l-10,9.6L447.1,380.3z M445.8,383.2l9.1,8.8l-9.1,8.8V383.2z
	 M443,405.5h28.1v-28H443V405.5z M545.4,76l-0.9-0.9L532.7,87l-11.8-11.9l-2,2.1L530.6,89l-11.3,11.3l2,2l11.3-11.3l11.6,11.6
	c0.3,0.3,0.6,0.4,1,0.4h25.4c0.6,0,1.1-0.4,1.3-0.9c0.2-0.5,0.1-1.2-0.3-1.6l-25.4-25.5L545.4,76z M545.4,78.4l21.8,21.8h-21.3
	L534.7,89L545.4,78.4z"/>
<path class="st1" d="M651.8,258.3c1.9,0,3.7,0.8,5,2.1c1.3,1.3,2.1,3.2,2.1,5V434H378.2V265.5c0-3.9,3.2-7.1,7.1-7.1H651.8z
	 M360.5,435.9h312.4c0,10.3-8.5,18.7-18.9,18.7H379.4c-5,0-9.9-2-13.4-5.5S360.5,440.9,360.5,435.9z"/>
<path class="st2" d="M391.5,269.4h255.3v153.5H391.5V269.4z M540,440.6h-51.9c-1.3,0-2.5-0.6-3.5-1.6c-0.9-1.1-1.4-2.5-1.4-4h61.7
	c0,1.5-0.5,2.9-1.5,4C542.5,440,541.3,440.6,540,440.6z"/>
<rect x="401.5" y="277.4" class="st3" width="237.3" height="145.2"/>
<path class="st4" d="M459.6,287.4h37v4h-37V287.4z M588.8,287.4h37v4h-37V287.4z M545.7,287.4h37v4h-37V287.4z"/>
<path class="st5" d="M629.8,356.5h-8.5v-8h0.6v-1.3h7.8V356.5z M616.4,356.5h-9.8v-8h9.8V356.5z M601.7,356.5h-9.8v-8h9.8V356.5z
	 M587,356.5h-9.8v-8h9.8V356.5z M572.4,356.5h-9.8v-8h9.8V356.5z M557.7,356.5h-9.8v-8h9.8V356.5z M543,356.5h-9.8v-8h9.8V356.5z
	 M528.3,356.5h-9.8v-8h9.8V356.5z M513.6,356.5h-9.8v-8h9.8V356.5z M498.9,356.5h-9.8v-8h9.8V356.5z M484.2,356.5h-9.8v-8h9.8V356.5
	z M469.5,356.5h-9.8v-8h9.8V356.5z M454.8,356.5H445v-8h9.8V356.5z M440.1,356.5h-9.8v-8h9.8V356.5z M425.4,356.5H414v-6.4h3.9v-1.6
	h7.5V356.5z M421.8,345.1H414v-10h7.8V345.1z M629.8,342.1H622v-10h7.8V342.1z M421.8,330.1H414v-10h7.8V330.1z M629.8,327.1H622
	v-10h7.8V327.1z M421.8,315.1H414v-10h3.9v-4.7h9.8v8h-5.9V315.1z M629.8,312.1H622v-7.7h1.7v-4h6.2V312.1z M618.8,308.4H609v-8h9.8
	V308.4z M604.1,308.4h-9.8v-8h9.8V308.4z M589.4,308.4h-9.8v-8h9.8V308.4z M574.7,308.4h-9.8v-8h9.8V308.4z M560,308.4h-9.8v-8h9.8
	V308.4z M545.3,308.4h-9.8v-8h9.8V308.4z M530.6,308.4h-9.8v-8h9.8V308.4z M515.9,308.4h-9.8v-8h9.8V308.4z M501.2,308.4h-9.8v-8
	h9.8V308.4z M486.5,308.4h-9.8v-8h9.8V308.4z M471.8,308.4H462v-8h9.8V308.4z M457.1,308.4h-9.8v-8h9.8V308.4z M442.4,308.4h-9.8v-8
	h9.8V308.4z"/>
<path class="st1" d="M587,297l-32.8,16.8c-0.4,0.2-0.6,0.6-0.4,1s0.6,0.6,1,0.5c0.1,0,0.2,0,0.3-0.1l33.6-17.2
	c0.8,0.4,1.7,0.6,2.6,0.6v0c0.7,0,1.4-0.2,2.1-0.4l34.5,5.1h0.3c0.4-0.1,0.8-0.4,0.8-0.9s-0.3-0.8-0.8-0.9l-32.7-4.8
	c1-1.2,1.6-2.8,1.5-4.5c0-0.5-0.4-0.9-0.9-0.9s-0.9,0.4-0.9,0.9c0.1,1.1-0.2,2.3-1,3.1c-0.4,0.4-0.8,0.7-1.2,1l-3.1-0.5
	c-0.1,0-0.3-0.1-0.4-0.1c-0.2,0-0.5,0.1-0.6,0.2c-1.4-0.8-2.3-2.4-2.3-4.1c0-2.7,2.1-4.8,4.7-4.8c0.2,0,0.5-0.1,0.7-0.3
	c0.2-0.2,0.3-0.4,0.3-0.7v-4.4c1.4-0.3,2.6-0.9,3.7-1.9c2-2,2.6-5,1.5-7.6c-0.9-2.2-2.8-3.7-5.1-4.2V116.2h-1.9v151.8
	c-3.7,0.2-6.6,3.3-6.6,7c0,2.8,1.7,5.4,4.3,6.5c0.7,0.3,1.4,0.5,2.2,0.5v3.5c-3.4,0.5-5.8,3.6-5.5,7.1
	C584.8,294.3,585.7,295.9,587,297z"/>
<path class="st4" d="M201.9,397.6v-19.4h-122c-2.8,0-5-2.2-5-5v-225c0-2.8,2.2-5,5-5h323.6c2.8,0,5,2.2,5,5v225c0,2.8-2.2,5-5,5
	H285.9v19.4h20.7c1.7,0,3,1.3,3,3v6.9c0,1.7-1.3,3-3,3H183.4c-1.7,0-3-1.3-3-3v-6.9c0-1.7,1.3-3,3-3H201.9z"/>
<path class="st1" d="M627.8,301.5l-99.2,17.1c-3.2,0.6-5.3,3.6-4.8,6.8c0,0,0,0,0,0l6.6,38.1c0.6,3.2,3.6,5.3,6.8,4.8c0,0,0,0,0,0
	l98.9-17.2c3.2-0.6,5.3-3.6,4.8-6.7l-6.3-38C634.1,303.1,631.1,301,627.8,301.5C627.9,301.5,627.8,301.5,627.8,301.5z"/>
<path id="Shape" class="st1" d="M538,369.5c0.6,0,0.8-0.1,1.4-0.2l94.7-15.8c2.8-0.5,5.2-2,6.8-4.4c1.6-2.3,2.3-5.1,1.8-7.9
	l-5.6-33.1c-1-5.8-6.5-9.6-12.2-8.6l-93.4,16.3c-2.8,0.5-5.2,2-6.9,4.3c-1.6,2.3-2.3,5.2-1.8,7.9l6.1,33.6c0.9,5.1,2.6,7.8,7.7,7.8
	H538z M634.7,308.6l5.6,33.1c0.4,2.1-0.1,4.3-1.4,6.1c-1.3,1.8-3.2,3-5.3,3.4L538.9,367c-4.5,0.8-6.9-1.2-7.7-5.7l-6.1-33.6
	c-0.4-2.1,0.1-4.3,1.4-6.1c1.3-1.8,3.2-3,5.3-3.4l93.4-16.3c0.5-0.1,0.9-0.1,1.4-0.1C630.6,301.8,634,304.7,634.7,308.6z"/>
<path class="st6" d="M94.8,162.8h295.7c1.7,0,3,1.3,3,3v183.8c0,1.7-1.3,3-3,3H94.8c-1.7,0-3-1.3-3-3V165.8
	C91.8,164.2,93.2,162.8,94.8,162.8z"/>
<rect x="105.8" y="177.8" class="st3" width="273.7" height="174.8"/>
<rect x="114.3" y="321.7" class="st6" width="182.2" height="13.1"/>
<rect x="312.3" y="321.7" class="st6" width="57.9" height="13.1"/>
<path class="st4" d="M27,317.4h67.1c2.2,0,4,1.8,4,4v123.2c0,2.2-1.8,4-4,4H27c-2.2,0-4-1.8-4-4V321.4C23,319.2,24.8,317.4,27,317.4
	z"/>
<path class="st3" d="M30.5,330.8h61v90.8h-61V330.8z M59.7,428.9h1.9c2.8,0,5.2,2.3,5.2,5.2c0,2.8-2.3,5.2-5.2,5.2h-1.9
	c-2.8,0-5.2-2.3-5.2-5.2C54.5,431.2,56.8,428.9,59.7,428.9z M49,322.1h25.9c0.6,0,1,0.4,1,1v1.5c0,0.6-0.4,1-1,1H49
	c-0.6,0-1-0.4-1-1v-1.5C48,322.6,48.4,322.1,49,322.1z M80.3,322.1h3.2c0.6,0,1,0.4,1,1v1.5c0,0.6-0.4,1-1,1h-3.2c-0.6,0-1-0.4-1-1
	v-1.5C79.3,322.6,79.8,322.1,80.3,322.1z"/>
<path class="st7" d="M413.5,283.4h41.1v12h-41.1V283.4z M626,306.5l-94.1,16.4c-2,0.4-3.4,2.3-3.1,4.3l5.6,32.2
	c0.4,2,2.3,3.4,4.3,3.1c0,0,0,0,0,0l94.1-16.4c2-0.4,3.4-2.3,3.1-4.3l-5.6-32.2C630,307.5,628,306.2,626,306.5
	C626,306.5,626,306.5,626,306.5L626,306.5z M114.3,195.5h41.1v12.2h-41.1V195.5z M33.3,337.1h41.3v12.2H33.3V337.1z M264.2,421h26.4
	v-11.2h-26.4V421z M264.2,423.8V439c0,0.4-0.1,0.9-0.4,1.2c-0.3,0.3-0.7,0.5-1,0.4c-0.8,0-1.4-0.7-1.4-1.5V316
	c0-0.9,0.6-1.6,1.4-1.6s1.4,0.7,1.4,1.6v6.8h26.4V316c0-0.9,0.6-1.6,1.4-1.6s1.4,0.7,1.4,1.6v8.2c0,0,0,0,0,0.1s0,0,0,0.1v13.9
	c0,0,0,0,0,0.1s0,0,0,0.1v13.9c0,0,0,0,0,0.1c0,0,0,0,0,0.1v13.9c0,0,0,0,0,0.1s0,0,0,0.1v13.9c0,0,0,0,0,0.1c0,0,0,0,0,0.1v13.9
	c0,0,0,0,0,0.1s0,0,0,0.1v13.9c0,0,0,0,0,0.1s0,0,0,0.1v13.9c0,0,0,0,0,0.1s0,0,0,0.1V439c0,0.4-0.1,0.9-0.4,1.2
	c-0.3,0.3-0.7,0.5-1,0.4c-0.8,0-1.4-0.7-1.4-1.5v-15.3H264.2z M264.2,406.9h26.4v-11.2h-26.4V406.9z M264.2,392.9h26.4v-11.2h-26.4
	V392.9z M264.2,378.9h26.4v-11.2h-26.4V378.9z M264.2,364.9h26.4v-11.2h-26.4V364.9z M264.2,350.9h26.4v-11.2h-26.4V350.9z
	 M264.2,336.8h26.4v-11.2h-26.4V336.8z"/>
<path class="st4" d="M203.3,200.3h37v4h-37V200.3z M332.4,200.3h37v4h-37V200.3z M289.4,200.3h37v4h-37V200.3z"/>
<path class="st3" d="M310,247h6.4v6.4H310V247z M262.1,217.3h6.4v6.4h-6.4V217.3z M214.3,247h6.4v6.4h-6.4V247z M313.2,216.3
	c2.3,0,4.2,1.9,4.2,4.2s-1.9,4.2-4.2,4.2s-4.2-1.9-4.2-4.2S310.9,216.3,313.2,216.3z M217.5,216.3c2.3,0,4.2,1.9,4.2,4.2
	s-1.9,4.2-4.2,4.2s-4.2-1.9-4.2-4.2S215.2,216.3,217.5,216.3z"/>
<path class="st4" d="M221.7,219.1H309v1.9h-87.3V219.1z M217,246.9c0-2,20.9-27.8,48.4-27.8c27.5,0,47.8,25.7,47.8,27.8
	c0,1.2,0,1.9,0,1.9c-14.9-18.6-30.8-27.8-47.8-27.8s-33.1,9.3-48.3,27.8C216.2,248.1,216.2,247.5,217,246.9z M317.4,254.3H309V246
	h8.4V254.3z M311,252.3h4.4V248H311V252.3z M269.6,224.6h-8.4v-8.4h8.4V224.6z M263.1,222.6h4.4v-4.4h-4.4V222.6z M221.7,254.3h-8.4
	V246h8.4V254.3z M215.3,252.3h4.4V248h-4.4V252.3z M313.2,225.6c-2.9,0-5.2-2.3-5.2-5.2s2.3-5.2,5.2-5.2s5.2,2.3,5.2,5.2
	S316.1,225.6,313.2,225.6z M313.2,217.3c-1.8,0-3.2,1.4-3.2,3.2s1.4,3.2,3.2,3.2c1.8,0,3.2-1.4,3.2-3.2S315,217.3,313.2,217.3z
	 M217.5,225.6c-2.9,0-5.2-2.3-5.2-5.2s2.3-5.2,5.2-5.2s5.2,2.3,5.2,5.2S220.4,225.6,217.5,225.6z M217.5,217.3
	c-1.8,0-3.2,1.4-3.2,3.2s1.4,3.2,3.2,3.2s3.2-1.4,3.2-3.2S219.3,217.3,217.5,217.3z"/>
<path class="st8" d="M413.5,364.5h60.8v42.1h-60.8V364.5z M115.2,268.5H189v42.1h-73.8V268.5z M33.3,354h54.4v40.3H33.3V354z
	 M713.4,206.3c26.8,0,48.6,21.7,48.6,48.6s-21.7,48.6-48.6,48.6s-48.6-21.7-48.6-48.6S686.6,206.3,713.4,206.3z"/>
<path class="st9" d="M502.7,287.4h37v4h-37V287.4z M489.3,364.5h60.8v42.1h-60.8V364.5z M205.8,268.5h73.8v42.1h-73.8V268.5z
	 M33.3,398.9h54.4v17.8H33.3V398.9z M246.3,200.3h37v4h-37V200.3z M259.2,168.2c-2.1-31.5-3-50.3-2.8-56.4c0.2-6.1,1.6-9.7,4.2-10.7
	h9.9c2.8-0.5,4.4,3.1,4.8,10.7c0.4,7.6-0.6,26.4-3,56.4H259.2z M60.6,71.1c26.8,0,48.6,21.7,48.6,48.6s-21.7,48.6-48.6,48.6
	S12,146.5,12,119.7S33.7,71.1,60.6,71.1z M657.9,157.2c23.8,0,43.1,19.3,43.1,43.1s-19.3,43.1-43.1,43.1s-43.1-19.3-43.1-43.1
	S634.1,157.2,657.9,157.2z M246,18h52v9h-52V18z M257,32h52v9h-52V32z M246,45h52v9h-52V45z M697,397h52v9h-52V397z M708,408h52v9
	h-52V408z M697,421h52v9h-52V421z M338.1,108.6c-2.2-1.5-2.7-4.4-1.3-6.5s4.4-2.7,6.5-1.3c2.2,1.5,2.7,4.4,1.3,6.5
	C343.1,109.5,340.2,110.1,338.1,108.6z M702.2,315.9c-1.5,2.2-4.4,2.7-6.5,1.3c-2.2-1.5-2.7-4.4-1.3-6.5c1.5-2.2,4.4-2.7,6.5-1.3
	c1,0.7,1.7,1.8,2,3C703.2,313.6,702.9,314.9,702.2,315.9z"/>
<path class="st10" d="M565,364.5h60.8v42.1H565V364.5z M296.4,268.5h73.8v42.1h-73.8V268.5z M147.2,22c23.8,0,43.1,19.3,43.1,43.1
	s-19.3,43.1-43.1,43.1s-43.1-19.3-43.1-43.1S123.4,22,147.2,22z M532.7,153.2c13.3,0,24,10.8,24,24s-10.8,24-24,24s-24-10.8-24-24
	S519.4,153.2,532.7,153.2z"/>
<path class="st7" d="M90.1,0c16.6,0,30,13.4,30,30s-13.4,30-30,30s-30-13.4-30-30S73.5,0,90.1,0z M699.9,123.2c16.6,0,30,13.4,30,30
	s-13.4,30-30,30s-30-13.4-30-30S683.3,123.2,699.9,123.2z"/>
<path class="st1" d="M258.4,177c1.2,6.6-3.4,16-3.4,16c4.5,4.6,9.3,23,9.3,23h0.9v-20.8c-1-0.1-1.7-0.9-1.7-1.9c0-1.1,0.9-2,2-2
	c1.1,0,2,0.9,2,2c0,1-0.7,1.8-1.7,1.9V216h0.9c0,0,4.9-18.4,9.3-23c0,0-4.7-9.3-3.4-16h1.4l1-9h-19l1,9H258.4z"/>
<path class="st1" d="M16,261c0,3.2-2,6.2-4.9,7.4s-6.4,0.5-8.7-1.7s-3-5.7-1.7-8.7c1.2-3,4.2-4.9,7.4-4.9c2.1,0,4.1,0.8,5.6,2.3
	C15.2,256.8,16,258.9,16,261z M424,135c-5.5,0-10-4.5-10-10c0-5.5,4.5-10,10-10s10,4.5,10,10C434,130.5,429.5,135,424,135z M735,302
	c-5.5,0-10-4.5-10-10s4.5-10,10-10s10,4.5,10,10S740.5,302,735,302z M681,61c-5.5,0-10-4.5-10-10s4.5-10,10-10s10,4.5,10,10
	S686.5,61,681,61z"/>
<path class="st1" d="M203.2,119.1h-5.3c-2.2,0-3.9-1.5-3.9-3.4s1.8-3.5,3.9-3.5h5.3v-5.3c0-2.2,1.5-3.9,3.4-3.9s3.4,1.8,3.4,3.9v5.3
	h3c2.2,0,3.9,1.5,3.9,3.5s-1.8,3.4-3.9,3.4h-3v3.1c0,1.1-0.4,2.1-1.1,2.8s-1.6,1.1-2.5,1c-1.8,0-3.3-1.7-3.3-3.8V119.1z M53.2,189.1
	h-5.3c-2.2,0-3.9-1.5-3.9-3.5c0-1.9,1.8-3.4,3.9-3.4h5.3v-5.3c0-2.2,1.5-3.9,3.4-3.9s3.4,1.8,3.4,3.9v5.3h3c2.2,0,3.9,1.5,3.9,3.4
	c0,1.9-1.8,3.5-3.9,3.5h-3v3.1c0,1.1-0.4,2.1-1.1,2.8c-0.7,0.7-1.6,1.1-2.5,1c-1.8,0-3.3-1.7-3.3-3.8V189.1z M584.2,49.8h-5.3
	c-2.2,0-3.9-1.5-3.9-3.5c0-1.9,1.8-3.4,3.9-3.4h5.3v-3c0-2.2,1.5-3.9,3.5-3.9c1.9,0,3.4,1.8,3.4,3.9v3h3c2.2,0,3.9,1.5,3.9,3.4
	c0,1.9-1.8,3.5-3.9,3.5h-3v5.4c0,1.1-0.4,2.1-1.1,2.8c-0.7,0.7-1.6,1.1-2.5,1c-1.8,0-3.3-1.7-3.3-3.8V49.8z M694.4,356.9l-1.4,5.3
	c-0.5,1.7-2,2.8-3.6,2.8c-0.3,0.1-0.7,0.1-1,0c-1-0.3-1.8-0.9-2.3-1.9c-0.5-0.9-0.6-2.1-0.3-3.1l1.3-5.1l-3.2-0.9
	c-2.1-0.6-3.4-2.7-2.8-4.7c0.6-2,2.8-3.2,5-2.6l3,0.8l0.7-2.6c0.6-2.1,2.6-3.4,4.6-2.8s3.1,2.8,2.6,5l-0.6,2.4l4.7,1.3
	c1,0.2,1.9,0.9,2.4,1.8c0.5,0.9,0.6,1.9,0.3,2.9c-0.5,1.6-2.1,2.6-3.8,2.6c-0.4,0.1-0.7,0.1-1.1,0L694.4,356.9z M170.5,449.5
	l-1.2,4.7c-0.5,1.7-2,2.8-3.6,2.8c-0.3,0.1-0.7,0.1-1,0c-1-0.3-1.8-0.9-2.3-1.9c-0.5-0.9-0.6-2.1-0.3-3.1l1.2-4.5l-5.4-1.5
	c-2.1-0.6-3.3-2.7-2.7-4.7c0.6-2,2.8-3.2,4.9-2.6l5.2,1.4l0.9-3.2c0.6-2.1,2.6-3.4,4.6-2.8c2,0.6,3.1,2.8,2.6,5l-0.8,3l2.3,0.6
	c2.1,0.3,3.5,2.1,3.3,4.1s-2.2,3.4-4.3,3.1c-0.4,0-0.7,0-1.1,0L170.5,449.5z"/>
<path class="st11" d="M36.1,112.4c-2.2,0-3.9,0.8-5.2,2.3c-1.3,1.6-1.9,3.7-1.9,6.4c0,2.9,0.6,5,1.8,6.5c1.2,1.5,3,2.2,5.3,2.2
	c1,0,2-0.1,2.9-0.3s1.9-0.5,2.9-0.8v3.3c-1.8,0.7-3.9,1-6.3,1c-3.4,0-6.1-1-7.9-3.1c-1.8-2.1-2.8-5-2.8-8.9c0-2.4,0.4-4.6,1.3-6.4
	c0.9-1.8,2.2-3.2,3.9-4.2c1.7-1,3.7-1.5,5.9-1.5c2.4,0,4.6,0.5,6.6,1.5l-1.4,3.2c-0.8-0.4-1.6-0.7-2.5-1
	C38,112.6,37.1,112.4,36.1,112.4z M60.5,126.5c0,2.1-0.8,3.7-2.3,4.9c-1.5,1.2-3.6,1.8-6.2,1.8s-4.8-0.4-6.5-1.2v-3.6
	c1.1,0.5,2.2,0.9,3.4,1.2c1.2,0.3,2.3,0.4,3.4,0.4c1.5,0,2.6-0.3,3.4-0.9c0.7-0.6,1.1-1.3,1.1-2.3c0-0.9-0.3-1.6-1-2.2
	s-2-1.3-4.1-2.2c-2.1-0.9-3.6-1.8-4.5-3c-0.9-1.1-1.3-2.4-1.3-4c0-2,0.7-3.5,2.1-4.6c1.4-1.1,3.3-1.7,5.6-1.7c2.2,0,4.5,0.5,6.7,1.5
	l-1.2,3.1c-2.1-0.9-3.9-1.3-5.6-1.3c-1.2,0-2.2,0.3-2.8,0.8c-0.6,0.5-1,1.2-1,2.1c0,0.6,0.1,1.1,0.4,1.6c0.3,0.4,0.7,0.8,1.3,1.2
	c0.6,0.4,1.6,0.9,3.2,1.5c1.7,0.7,3,1.4,3.8,2s1.4,1.3,1.8,2.1C60.3,124.5,60.5,125.5,60.5,126.5z M78.5,126.5
	c0,2.1-0.8,3.7-2.3,4.9c-1.5,1.2-3.6,1.8-6.2,1.8c-2.7,0-4.8-0.4-6.5-1.2v-3.6c1.1,0.5,2.2,0.9,3.4,1.2c1.2,0.3,2.3,0.4,3.4,0.4
	c1.5,0,2.6-0.3,3.4-0.9c0.7-0.6,1.1-1.3,1.1-2.3c0-0.9-0.3-1.6-1-2.2c-0.7-0.6-2-1.3-4.1-2.2c-2.1-0.9-3.6-1.8-4.5-3
	c-0.9-1.1-1.3-2.4-1.3-4c0-2,0.7-3.5,2.1-4.6c1.4-1.1,3.3-1.7,5.6-1.7c2.2,0,4.5,0.5,6.7,1.5l-1.2,3.1c-2.1-0.9-3.9-1.3-5.6-1.3
	c-1.2,0-2.2,0.3-2.8,0.8c-0.6,0.5-1,1.2-1,2.1c0,0.6,0.1,1.1,0.4,1.6c0.3,0.4,0.7,0.8,1.3,1.2c0.6,0.4,1.6,0.9,3.2,1.5
	c1.7,0.7,3,1.4,3.8,2s1.4,1.3,1.8,2.1C78.3,124.5,78.5,125.5,78.5,126.5z M96.4,114.9c0,1.5-0.4,2.7-1.3,3.7c-0.9,1-2.1,1.6-3.7,2
	v0.1c1.9,0.2,3.3,0.8,4.2,1.8c0.9,0.9,1.4,2.2,1.4,3.7c0,2.2-0.8,4-2.4,5.2s-3.9,1.8-6.8,1.8c-2.6,0-4.8-0.4-6.6-1.3v-3.3
	c1,0.5,2,0.9,3.2,1.1c1.1,0.3,2.2,0.4,3.2,0.4c1.8,0,3.2-0.3,4.1-1c0.9-0.7,1.3-1.7,1.3-3.1c0-1.2-0.5-2.2-1.5-2.8
	c-1-0.6-2.6-0.9-4.7-0.9h-2v-3.1H87c3.7,0,5.6-1.3,5.6-3.9c0-1-0.3-1.8-1-2.3c-0.7-0.5-1.6-0.8-2.9-0.8c-0.9,0-1.7,0.1-2.6,0.4
	c-0.8,0.3-1.8,0.7-2.9,1.5l-1.8-2.6c2.1-1.6,4.6-2.4,7.5-2.4c2.4,0,4.2,0.5,5.5,1.5S96.4,113.1,96.4,114.9z M124.8,74.9h-2.6v-7.1
	h-7.4v7.1h-2.6V59.1h2.6v6.5h7.4v-6.5h2.6V74.9z M134.6,74.9h-2.6V61.3h-4.7v-2.2h12.1v2.2h-4.7V74.9z M148.7,74.9L144,61.7h-0.1
	c0.1,2,0.2,3.8,0.2,5.5v7.7h-2.4V59.1h3.7l4.5,12.6h0.1l4.6-12.6h3.7v15.8h-2.5v-7.8c0-0.8,0-1.8,0.1-3.1c0-1.3,0.1-2,0.1-2.3h-0.1
	L151,74.9H148.7z M162.5,74.9V59.1h2.6v13.6h6.8v2.2H162.5z M179,65c1.6,0,2.9,0.4,3.8,1.3c0.9,0.8,1.4,2,1.4,3.4c0,1.7-0.5,3-1.6,4
	c-1.1,0.9-2.6,1.4-4.6,1.4c-1.8,0-3.2-0.3-4.2-0.9v-2.3c0.6,0.3,1.3,0.6,2,0.8s1.5,0.3,2.1,0.3c1.2,0,2-0.3,2.7-0.8
	c0.6-0.5,0.9-1.3,0.9-2.2c0-1.9-1.2-2.8-3.7-2.8c-0.3,0-0.8,0-1.3,0.1s-0.9,0.1-1.3,0.2l-1.2-0.7l0.6-7.7h8.3v2.3H177l-0.4,3.9
	c0.3,0,0.6-0.1,0.9-0.2C178,65,178.4,65,179,65z M76.6,37l-1.3-4.7c-0.2-0.5-0.4-1.6-0.9-3.4h-0.1c-0.4,1.6-0.6,2.8-0.8,3.5L72.2,37
	h-2.4l-2.8-10h2.2l1.3,4.9c0.3,1.2,0.5,2.3,0.6,3.1h0.1c0.1-0.4,0.2-0.9,0.3-1.5c0.1-0.6,0.2-1,0.3-1.3l1.5-5.3h2.3l1.5,5.3
	c0.1,0.3,0.2,0.7,0.3,1.4s0.2,1.1,0.2,1.4h0.1c0.1-0.7,0.3-1.8,0.6-3.1l1.3-4.9h2.1L79,37H76.6z M91.8,37l-1.3-4.7
	c-0.2-0.5-0.4-1.6-0.9-3.4h-0.1c-0.4,1.6-0.6,2.8-0.8,3.5L87.4,37H85l-2.8-10h2.2l1.3,4.9c0.3,1.2,0.5,2.3,0.6,3.1h0.1
	c0.1-0.4,0.2-0.9,0.3-1.5c0.1-0.6,0.2-1,0.3-1.3l1.5-5.3h2.3l1.5,5.3c0.1,0.3,0.2,0.7,0.3,1.4c0.1,0.6,0.2,1.1,0.2,1.4h0.1
	c0.1-0.7,0.3-1.8,0.6-3.1l1.3-4.9H97l-2.8,10H91.8z M106.9,37l-1.3-4.7c-0.2-0.5-0.4-1.6-0.9-3.4h-0.1c-0.4,1.6-0.6,2.8-0.8,3.5
	l-1.3,4.7h-2.4l-2.8-10h2.2l1.3,4.9c0.3,1.2,0.5,2.3,0.6,3.1h0.1c0.1-0.4,0.2-0.9,0.3-1.5c0.1-0.6,0.2-1,0.3-1.3l1.5-5.3h2.3
	l1.5,5.3c0.1,0.3,0.2,0.7,0.3,1.4s0.2,1.1,0.2,1.4h0.1c0.1-0.7,0.3-1.8,0.6-3.1L110,27h2.1l-2.8,10H106.9z M697.6,251.5
	c0,2.8-0.9,5-2.8,6.5c-1.8,1.5-4.4,2.3-7.8,2.3h-2.8v10.1h-4.4v-27h7.7c3.4,0,5.9,0.7,7.5,2.1C696.8,246.8,697.6,248.8,697.6,251.5z
	 M684.3,256.5h2.3c2.3,0,3.9-0.4,5-1.2c1.1-0.8,1.6-2,1.6-3.7c0-1.6-0.5-2.7-1.4-3.5c-0.9-0.8-2.4-1.1-4.4-1.1h-3V256.5z
	 M724.2,270.4h-4.4v-12.2h-12.4v12.2H703v-27h4.4v11.1h12.4v-11.1h4.4V270.4z M749,251.5c0,2.8-0.9,5-2.8,6.5
	c-1.8,1.5-4.4,2.3-7.8,2.3h-2.8v10.1h-4.4v-27h7.7c3.4,0,5.9,0.7,7.5,2.1C748.1,246.8,749,248.8,749,251.5z M735.6,256.5h2.3
	c2.3,0,3.9-0.4,5-1.2c1.1-0.8,1.6-2,1.6-3.7c0-1.6-0.5-2.7-1.4-3.5c-0.9-0.8-2.4-1.1-4.4-1.1h-3V256.5z M643,213.3h-4.4l-5.8-9.4
	l-5.9,9.4h-4.1l7.7-11.9l-7.2-11.1h4.2l5.4,8.7l5.4-8.7h4.1l-7.3,11.2L643,213.3z M656.2,213.3l-6.8-19.2h-0.1
	c0.2,2.9,0.3,5.5,0.3,8v11.2h-3.5v-23h5.4l6.5,18.3h0.1l6.7-18.3h5.4v23h-3.7v-11.4c0-1.1,0-2.6,0.1-4.5s0.1-3,0.2-3.3h-0.1l-7,19.2
	H656.2z M676.2,213.3v-23h3.8v19.8h9.9v3.2H676.2z M525.8,189.3c-0.8,0-1.5-0.1-2.1-0.3v-2.2c0.5,0.1,1.1,0.2,1.6,0.2
	c1.2,0,1.8-0.7,1.8-2v-14.7h2.8v14.9c0,1.4-0.4,2.4-1.1,3.1C528.1,188.9,527.1,189.3,525.8,189.3z M526.9,166.8
	c0-0.5,0.1-0.9,0.4-1.2c0.3-0.3,0.7-0.4,1.2-0.4c0.5,0,0.9,0.1,1.1,0.4c0.3,0.3,0.4,0.7,0.4,1.2c0,0.5-0.1,0.8-0.4,1.1
	c-0.3,0.3-0.7,0.4-1.1,0.4c-0.5,0-0.9-0.1-1.2-0.4C527.1,167.6,526.9,167.3,526.9,166.8z M542.7,179.7c0,1.3-0.5,2.3-1.4,3
	c-0.9,0.7-2.3,1-4,1c-1.7,0-3.2-0.3-4.2-0.8v-2.4c1.5,0.7,3,1.1,4.3,1.1c1.7,0,2.6-0.5,2.6-1.6c0-0.3-0.1-0.6-0.3-0.8
	c-0.2-0.2-0.5-0.5-0.9-0.7c-0.4-0.2-1-0.5-1.8-0.8c-1.5-0.6-2.5-1.2-3.1-1.8c-0.5-0.6-0.8-1.3-0.8-2.3c0-1.1,0.5-2,1.4-2.6
	c0.9-0.6,2.1-0.9,3.7-0.9c1.5,0,3,0.3,4.4,0.9l-0.9,2.1c-1.4-0.6-2.6-0.9-3.6-0.9c-1.5,0-2.2,0.4-2.2,1.3c0,0.4,0.2,0.8,0.6,1
	c0.4,0.3,1.2,0.7,2.5,1.2c1.1,0.4,1.9,0.8,2.4,1.2c0.5,0.3,0.9,0.8,1.1,1.2C542.6,178.5,542.7,179,542.7,179.7z M683.5,149.5
	c-1.1,0-2,0.4-2.6,1.2c-0.6,0.8-1,1.9-1,3.3c0,1.5,0.3,2.6,0.9,3.4c0.6,0.8,1.5,1.1,2.7,1.1c0.5,0,1-0.1,1.5-0.2
	c0.5-0.1,1-0.2,1.5-0.4v1.7c-0.9,0.4-2,0.5-3.2,0.5c-1.7,0-3.1-0.5-4-1.6c-0.9-1.1-1.4-2.6-1.4-4.6c0-1.3,0.2-2.4,0.7-3.3
	c0.5-0.9,1.1-1.7,2-2.2c0.9-0.5,1.9-0.8,3-0.8c1.2,0,2.3,0.3,3.4,0.8l-0.7,1.6c-0.4-0.2-0.8-0.4-1.3-0.5
	C684.5,149.6,684,149.5,683.5,149.5z M690.8,160h-1.9v-12.9h1.9V160z M701.5,155.5c0,1.5-0.4,2.7-1.1,3.5c-0.8,0.8-1.8,1.3-3.2,1.3
	c-0.8,0-1.6-0.2-2.2-0.6c-0.6-0.4-1.1-0.9-1.5-1.7c-0.3-0.7-0.5-1.6-0.5-2.5c0-1.5,0.4-2.6,1.1-3.5c0.7-0.8,1.8-1.2,3.2-1.2
	c1.3,0,2.3,0.4,3.1,1.3C701.1,152.9,701.5,154,701.5,155.5z M694.9,155.5c0,2.1,0.8,3.2,2.3,3.2c1.5,0,2.3-1.1,2.3-3.2
	c0-2.1-0.8-3.1-2.3-3.1c-0.8,0-1.4,0.3-1.7,0.8S694.9,154.5,694.9,155.5z M710,160l-0.3-1.2h-0.1c-0.3,0.4-0.6,0.8-1.1,1
	s-1.1,0.4-1.7,0.4c-1.1,0-1.9-0.3-2.4-0.8c-0.5-0.6-0.8-1.4-0.8-2.5v-6h1.9v5.6c0,0.7,0.1,1.2,0.4,1.6c0.3,0.3,0.7,0.5,1.3,0.5
	c0.8,0,1.4-0.2,1.8-0.7c0.4-0.5,0.6-1.3,0.6-2.4v-4.6h1.9v9.1H710z M717.3,160.2c-1.1,0-2-0.4-2.6-1.2s-0.9-2-0.9-3.5
	c0-1.5,0.3-2.7,1-3.5c0.6-0.8,1.5-1.3,2.7-1.3c1.2,0,2.1,0.4,2.7,1.3h0.1c-0.1-0.7-0.1-1.2-0.1-1.6v-3.3h1.9V160h-1.5l-0.3-1.2H720
	C719.4,159.8,718.5,160.2,717.3,160.2z M717.8,158.6c0.8,0,1.4-0.2,1.7-0.7s0.5-1.2,0.6-2.2v-0.3c0-1.2-0.2-2-0.6-2.5
	s-0.9-0.7-1.7-0.7c-0.7,0-1.2,0.3-1.6,0.8c-0.4,0.6-0.5,1.3-0.5,2.4c0,1,0.2,1.8,0.5,2.3C716.6,158.4,717.1,158.6,717.8,158.6z
	 M304.8,274.1h56.1v4.7h-56.1V274.1z M304.8,282.5h56.1v2.8h-56.1V282.5z M304.8,288.1h56.1v2.8h-56.1V288.1z M304.8,293.7h56.1v2.8
	h-56.1V293.7z M304.8,300.2h56.1v2.8h-56.1V300.2z M215.1,274.1h56.1v4.7h-56.1V274.1z M215.1,282.5h56.1v2.8h-56.1V282.5z
	 M215.1,288.1h56.1v2.8h-56.1V288.1z M215.1,293.7h56.1v2.8h-56.1V293.7z M215.1,300.2h56.1v2.8h-56.1V300.2z M124.5,274.1h56.1v4.7
	h-56.1V274.1z M124.5,282.5h56.1v2.8h-56.1V282.5z M124.5,288.1h56.1v2.8h-56.1V288.1z M124.5,293.7h56.1v2.8h-56.1V293.7z
	 M124.5,300.2h56.1v2.8h-56.1V300.2z M572.5,370.1h45.8v4.7h-45.8V370.1z M572.5,378.5h45.8v2.8h-45.8V378.5z M572.5,384.1h45.8v2.8
	h-45.8V384.1z M572.5,389.7h45.8v2.8h-45.8V389.7z M572.5,396.3h45.8v2.8h-45.8V396.3z M497.7,370.1h45.8v4.7h-45.8V370.1z
	 M497.7,378.5h45.8v2.8h-45.8V378.5z M497.7,384.1h45.8v2.8h-45.8V384.1z M497.7,389.7h45.8v2.8h-45.8V389.7z M497.7,396.3h45.8v2.8
	h-45.8V396.3z M421,370.1h45.8v4.7H421V370.1z M421,378.5h45.8v2.8H421V378.5z M421,384.1h45.8v2.8H421V384.1z M421,389.7h45.8v2.8
	H421V389.7z M421,396.3h45.8v2.8H421V396.3z M36.2,359.6H85v4.7H36.2V359.6z M36.2,368H85v2.8H36.2V368z M36.2,373.6H85v2.8H36.2
	V373.6z M36.2,379.3H85v2.8H36.2V379.3z M36.2,385.8H85v2.8H36.2V385.8z M36.2,402.7H85v4.7H36.2V402.7z M36.2,411.1H85v2.8H36.2
	V411.1z M592.1,327.4l9.7,6l-9.7,6l-2.3-1.4l7.5-4.6l-7.5-4.6L592.1,327.4z M572.5,327.4l-9.7,6l9.7,6l2.3-1.4l-7.5-4.6l7.5-4.6
	L572.5,327.4z M587.8,325.4l-6.8,18h-3.2l6.8-18H587.8z"/>
</svg>
