<?xml version="1.0" encoding="utf-8"?>
<!-- Generator: Adobe Illustrator 23.0.2, SVG Export Plug-In . SVG Version: 6.00 Build 0)  -->
<svg version="1.1" id="Layer_1" xmlns="http://www.w3.org/2000/svg" xmlns:xlink="http://www.w3.org/1999/xlink" x="0px" y="0px"
	 viewBox="0 0 586 173" style="enable-background:new 0 0 586 173;" xml:space="preserve">
<style type="text/css">
	.st0{fill:#0A0068;}
</style>
<path id="Path-5" class="st0" d="M7.7,0.2l1,0.3c-0.7,2.6-1.4,5.2-2,7.7L5.7,8C6.3,5.4,7,2.8,7.7,0.2z M3.5,17.7l1,0.2
	c-0.5,2.7-1,5.3-1.4,7.9l-1-0.2C2.5,23,3,20.4,3.5,17.7z M0.8,35.6l1,0.1c-0.3,2.7-0.5,5.3-0.6,7.9l-1,0C0.4,41,0.6,38.3,0.8,35.6z
	 M0.1,53.6l1,0c0.1,2.7,0.2,5.3,0.4,8l-1,0.1C0.3,59,0.2,56.3,0.1,53.6z M1.8,71.6l1-0.2c0.4,2.6,1,5.2,1.6,7.8l-1,0.2
	C2.8,76.9,2.3,74.3,1.8,71.6z M6.3,89.2l0.9-0.3c0.9,2.5,1.9,5,3,7.4l-0.9,0.4C8.2,94.2,7.2,91.7,6.3,89.2z M13.9,105.5l0.9-0.5
	c1.3,2.3,2.8,4.5,4.3,6.7l-0.8,0.6C16.7,110.1,15.2,107.9,13.9,105.5z M24.4,120.3l0.8-0.7c1.7,2,3.5,3.9,5.4,5.8l-0.7,0.7
	C27.9,124.3,26.1,122.3,24.4,120.3z M37.3,133l0.6-0.8c2,1.7,4.1,3.3,6.3,4.9l-0.6,0.8C41.4,136.3,39.3,134.7,37.3,133z M51.9,143.6
	l0.5-0.8c2.2,1.4,4.4,2.7,6.8,4c0.1,0,0.1,0,0.1,0.1l-0.5,0.9c-0.1,0-0.1,0-0.1-0.1C56.4,146.3,54.1,145,51.9,143.6z M68,152
	l0.4-0.9c2.3,1,4.8,1.9,7.5,2.8l-0.3,0.9C72.8,153.9,70.3,153,68,152z M85,157.8l0.3-1c2.5,0.7,5,1.4,7.7,2.1l-0.2,1
	C90.1,159.3,87.5,158.6,85,157.8z M102.5,162.2l0.2-1c2.5,0.6,5.2,1.1,7.8,1.6l-0.2,1C107.7,163.3,105.1,162.8,102.5,162.2z
	 M120.2,165.7l0.2-1c2.6,0.4,5.2,0.9,7.9,1.3l-0.1,1C125.5,166.5,122.8,166.1,120.2,165.7z M138,168.3l0.1-1c2.6,0.3,5.3,0.7,7.9,1
	l-0.1,1C143.3,169,140.7,168.6,138,168.3z M156,170.3l0.1-1c2.6,0.2,5.3,0.5,8,0.7l-0.1,1C161.3,170.8,158.6,170.5,156,170.3z
	 M173.9,171.7l0.1-1c2.7,0.2,5.3,0.3,8,0.4l0,1C179.3,171.9,176.6,171.8,173.9,171.7z M191.9,172.4l0-1c2.7,0.1,5.3,0.1,8,0.1l0,1
	C197.3,172.5,194.6,172.5,191.9,172.4z M210,172.5l0-1c2.7,0,5.3-0.1,8-0.2l0,1C215.3,172.4,212.6,172.5,210,172.5z M228,171.9
	l-0.1-1c2.7-0.1,5.3-0.3,8-0.5l0.1,1C233.3,171.6,230.6,171.8,228,171.9z M245.9,170.6l-0.1-1c2.7-0.3,5.3-0.6,7.9-0.9l0.1,1
	C251.3,170,248.6,170.3,245.9,170.6z M263.8,168.3l-0.2-1c2.7-0.4,5.3-0.8,7.9-1.3l0.2,1C269.1,167.5,266.5,167.9,263.8,168.3z
	 M281.6,165l-0.2-1c2.6-0.6,5.2-1.2,7.8-1.9l0.3,1C286.8,163.8,284.2,164.4,281.6,165z M299,160.4l-0.3-1c2.6-0.8,5.1-1.7,7.6-2.6
	l0.3,0.9C304.1,158.7,301.6,159.6,299,160.4z M315.9,154.1l-0.4-0.9c2.5-1.1,4.9-2.3,7.2-3.5l0.5,0.9
	C320.8,151.8,318.4,152.9,315.9,154.1z M331.8,145.4l-0.5-0.8c2.3-1.4,4.5-2.8,6.7-4.3l0.5,0.8C336.3,142.6,334,144,331.8,145.4z
	 M346.8,135.5l-0.6-0.8c2.2-1.5,4.3-3.1,6.5-4.6l0.6,0.8C351.2,132.4,349,134,346.8,135.5z M361.4,124.9l-0.6-0.8
	c2.1-1.6,4.2-3.2,6.3-4.9l0.6,0.8C365.6,121.6,363.5,123.3,361.4,124.9z M375.5,113.7l-0.6-0.8c2-1.7,4.1-3.4,6.1-5.1l0.6,0.8
	C379.6,110.3,377.5,112,375.5,113.7z M389.3,102.1l-0.7-0.8c1.9-1.7,3.9-3.4,6-5.3l0.7,0.8C393.2,98.7,391.2,100.4,389.3,102.1z
	 M402.8,90.2l-0.7-0.7c0.4-0.3,4.7-4.2,6-5.3l0.7,0.7C407.5,86,403.2,89.9,402.8,90.2z M416.3,78.3l-0.7-0.8
	c2.2-1.9,4.2-3.6,6.1-5.2l0.6,0.8C420.5,74.7,418.5,76.4,416.3,78.3z M430,66.7l-0.6-0.8c2.2-1.8,4.3-3.4,6.3-4.9l0.6,0.8
	C434.3,63.3,432.2,64.9,430,66.7z M444.5,56.1l-0.5-0.8c2.4-1.5,4.7-2.9,6.9-4.1l0.5,0.9C449.1,53.2,446.8,54.5,444.5,56.1z
	 M460.4,47.8l-0.3-0.9c2.6-1,5.2-1.7,7.8-2.2l0.2,1C465.5,46.1,462.9,46.8,460.4,47.8z M477.8,44.8l0-1c2.7,0,5.4,0.1,8,0.1l0,1
	C483.2,44.8,480.5,44.8,477.8,44.8z M495.8,45.3l0.1-1c2.7,0.1,5.4,0.3,8,0.5l-0.1,1C501.1,45.6,498.5,45.4,495.8,45.3z M513.7,46.8
	l0.1-1c2.7,0.3,5.4,0.7,7.9,1.1l-0.2,1C519,47.5,516.4,47.2,513.7,46.8z M531.4,49.7l0.2-1c2.7,0.6,5.3,1.2,7.8,1.9l-0.3,1
	C536.6,50.9,534.1,50.3,531.4,49.7z M548.7,54.5l0.3-0.9c2.6,0.9,5.1,1.9,7.5,2.9l-0.4,0.9C553.8,56.3,551.3,55.4,548.7,54.5z
	 M565,61.8l0.5-0.9c2.4,1.4,4.7,2.8,6.8,4.4l-0.6,0.8C569.6,64.6,567.4,63.1,565,61.8z M579.3,72.5l0.7-0.7c1.9,1.9,3.7,4,5.3,6.1
	l-0.8,0.6C582.9,76.4,581.2,74.4,579.3,72.5z"/>
</svg>
