<?xml version="1.0" encoding="utf-8"?>
<!-- Generator: Adobe Illustrator 23.0.2, SVG Export Plug-In . SVG Version: 6.00 Build 0)  -->
<svg version="1.1" id="Layer_1" xmlns="http://www.w3.org/2000/svg" xmlns:xlink="http://www.w3.org/1999/xlink" x="0px" y="0px"
	 viewBox="0 0 729 399" style="enable-background:new 0 0 729 399;" xml:space="preserve">
<style type="text/css">
	.st0{fill:#EBF5FF;}
	.st1{fill-rule:evenodd;clip-rule:evenodd;fill:#EBF5FF;}
	.st2{fill:#0A0068;}
	.st3{fill:#37DA96;}
	.st4{fill:#A9D4FF;}
	.st5{fill-rule:evenodd;clip-rule:evenodd;fill:#F8427B;}
	.st6{fill-rule:evenodd;clip-rule:evenodd;fill:#FFFFFF;fill-opacity:0.4;}
	.st7{fill:#FCCF48;}
	.st8{fill-rule:evenodd;clip-rule:evenodd;fill:#FCCF48;}
	.st9{fill-rule:evenodd;clip-rule:evenodd;fill:#5F4CEF;}
	.st10{fill-rule:evenodd;clip-rule:evenodd;fill:#FA8B55;}
	.st11{fill-rule:evenodd;clip-rule:evenodd;fill:#A8D2FF;}
	.st12{fill:#A8D2FF;}
	.st13{fill-rule:evenodd;clip-rule:evenodd;fill:#673700;}
	.st14{fill-rule:evenodd;clip-rule:evenodd;fill:#4B373E;}
</style>
<path id="Shape" class="st0" d="M535.4,241.4c0,0-7.5-1.9-13.8,3.3c-6.2,5.2-5.6,13-5.6,13l32.6,39c0,0,7.6,1.9,13.8-3.3
	c6.2-5.2,5.6-13.1,5.6-13.1L535.4,241.4z M455.2,342.2c6.7,8,46.2-11.7,80.8-39.6L508,269C474.7,298.4,448,333.7,455.2,342.2z
	 M688.9,68.4c-40.6-56.1-118.5-83.8-191.7-43c-36.1,20.1-69.5,73.1-56.3,113.8c8.1,24.9,30.7,33.1,46.4,33.1c28.1,0,34.5-39,61-29.3
	c42.2,15.6-14.5,63.5,9.7,100.2C623.9,342.9,767.9,177.7,688.9,68.4z M483.5,143c-10.8,0-19.5-8.7-19.5-19.5s8.7-19.5,19.5-19.5
	s19.5,8.7,19.5,19.5S494.3,143,483.5,143z M543,97c-14.4,0-26-11.6-26-26s11.6-26,26-26c14.4,0,26,11.6,26,26S557.4,97,543,97z
	 M627.5,65c18,0,32.5,14.8,32.5,33c0,18.2-14.5,33-32.5,33c-17.9,0-32.5-14.8-32.5-33C595,79.8,609.5,65,627.5,65z M638.9,234
	c-8.1,16.3-27.4,21.1-43.5,13.6c-13.5-6.3-19.5-21.5-16.7-36.2c5.2-27.4,36.5-51.6,90.3-34.9C638.1,180.2,646.4,218.8,638.9,234z"/>
<polygon id="Rectangle" class="st1" points="63,327 642.9,327 664,331.5 664,348 63,348 "/>
<path id="Combined-Shape" class="st2" d="M389,289v27h25.7c2.9,0,5.3,2.5,5.3,5.5c0,3-2.4,5.5-5.3,5.5H284.3c-2.9,0-5.3-2.5-5.3-5.5
	c0-3,2.4-5.5,5.3-5.5H307v-27H199c-3.9,0-7-3.1-7-7V78c0-3.9,3.1-7,7-7h300c3.9,0,7,3.1,7,7v204c0,3.9-3.1,7-7,7H389z"/>
<path class="st0" d="M207.6,80h283.9c2,0,3.6,1.6,3.6,3.6v164.9c0,2-1.6,3.6-3.6,3.6H207.6c-2,0-3.6-1.6-3.6-3.6V83.6
	C204,81.6,205.6,80,207.6,80z"/>
<path class="st3" d="M554.3,282c4,2.9,6.7,8.7,6.7,14.4c0,4.7-2.7,9.6-6.9,12.9c-2.6,2-5.5,3.1-8.3,3.1c-0.9,0-1.7-0.1-2.6-0.3
	c-0.5-0.1-0.9-0.3-1.3-0.4c-0.9,3.5-1.9,6.4-2.9,8.2c-0.7,1.2-2,2-3.4,2h-42.9c-1.4,0-2.7-0.8-3.4-2c-4.4-7.5-7.2-32.1-7.7-43
	c0-1,0.3-2,1-2.8c0.7-0.7,1.7-1.2,2.7-1.2h57.6c1,0,2,0.4,2.7,1.2c0.7,0.7,1.1,1.7,1,2.8c0,1-0.1,2.2-0.2,3.4
	C549.2,279.7,551.9,280.3,554.3,282z M552.4,307.2c3.6-2.7,5.9-7,5.9-10.8c0-4.8-2.3-9.8-5.6-12.2c-2-1.4-4.1-1.8-6.3-1.1l-0.2,0.1
	c-0.6,7.7-1.9,17.9-3.7,25.9c0.4,0.1,0.9,0.3,1.4,0.4C546.5,310.2,549.6,309.3,552.4,307.2z M548.9,323.3c0.7,0,1.3,0.6,1.3,1.3
	s-0.6,1.3-1.3,1.3h-69.6c-0.7,0-1.3-0.6-1.3-1.3s0.6-1.3,1.3-1.3H548.9z"/>
<path class="st4" d="M509.6,267.6c0.4-0.7,0.8-1.3,0.9-1.9c0.1-0.5,0.1-1.2-0.1-1.8c-0.1-0.6-0.4-0.9-0.9-1.5
	c-0.5-0.5-1.2-1.4-1.4-2.3c-0.2-0.9-0.2-1.8,0.2-2.8c0.4-1,1.2-1.5,1.6-1.9c0.5-0.4,0.9-0.9,1.3-1.6c0-0.1,0.1-0.1,0.2-0.1
	c0,0,0,0,0.1,0.1c0.4,0.7,0.5,1.7,0.1,2.5c-0.3,0.8-0.7,1.4-0.7,1.8c-0.1,0.4-0.1,1-0.1,1.5c0,0.5,0.1,0.9,0.5,1.5
	c0.4,0.6,0.9,1.5,0.9,2.4c0,0.9-0.1,1.7-0.4,2.5c-0.4,0.8-1,1.3-1.4,1.8c-0.4,0.5-0.7,1.1-0.8,1.8c0,0.1-0.1,0.1-0.2,0.1
	c-0.1,0-0.1-0.1-0.1-0.1C509.2,269.2,509.3,268.3,509.6,267.6z M520.4,266.2c0.6-1.1,1.4-2.1,1.7-3.1c0.3-1,0.3-2.2,0.1-3.2
	c-0.2-1.1-0.8-1.8-1.6-2.8c-0.8-0.9-1.7-2.2-2-3.7c-0.3-1.4-0.3-2.8,0.4-4.2c0.6-1.4,1.7-2.3,2.4-3.1c0.8-0.8,1.2-1.8,1.7-3
	c0-0.1,0.1-0.1,0.2-0.1c0,0,0.1,0,0.1,0.1c0.4,1.2,0.3,2.7-0.3,3.9c-0.6,1.3-1.3,2.2-1.5,3.1c-0.3,0.9-0.3,1.9-0.3,2.9
	c0,1,0.4,1.8,1.1,2.8c0.7,1,1.5,2.4,1.6,3.7c0.1,1.3,0,2.7-0.5,3.9c-0.6,1.3-1.6,2.1-2.2,3.1c-0.7,0.9-1.1,2.1-1.2,3.2
	c0,0.1-0.1,0.1-0.1,0.1c-0.1,0-0.1-0.1-0.1-0.1C519.6,268.7,519.8,267.3,520.4,266.2z"/>
<circle class="st5" cx="293.5" cy="34.5" r="4.5"/>
<polygon id="Path-42" class="st6" points="299,120.6 320.1,328 509,328.3 553,204 370.5,78 324.4,82.9 "/>
<path class="st7" d="M190.1,54.6c-2.2-1.5-2.7-4.4-1.3-6.5s4.4-2.7,6.5-1.3s2.7,4.4,1.3,6.5S192.2,56.1,190.1,54.6z M554.2,231.9
	c-1.5,2.2-4.4,2.7-6.5,1.3c-2.2-1.5-2.7-4.4-1.3-6.5c1.5-2.2,4.4-2.7,6.5-1.3c1,0.7,1.7,1.8,2,3
	C555.2,229.6,554.9,230.9,554.2,231.9z"/>
<path class="st8" d="M332,83c7.2,0,13,5.8,13,13s-5.8,13-13,13s-13-5.8-13-13S324.8,83,332,83z M319.6,45l3.4,4.3
	c-6.1,1.1-11.6,3.2-16.4,6.2c-4.8,3-9.1,7.2-12.9,12.5l-2.6-6c4.2-4.6,8.5-8.3,13-11C308.5,48.2,313.7,46.3,319.6,45z M340.9,174
	c-0.7-3.5-1.3-7.1-2-10.6c-1.9-8.9-9.8-9.6-9.8-22.8c0-12,9.6-21.7,21.5-21.7s21.5,9.7,21.5,21.7c0,13.2-7.9,13.9-9.8,22.8
	c-0.8,3.5-1.3,7-2,10.6C353.7,174,347.3,174,340.9,174z M350.5,138.7c2.5,0,4.6,2.1,4.6,4.6c0,2.2-1.5,4-3.6,4.5c0,8,0,16,0,24
	c2.3,0,4.6,0,6.9,0c0.6-3,1.1-5.9,1.7-8.9c2-9.2,9.8-10.1,9.8-22.3c0-10.8-8.7-19.6-19.4-19.6s-19.4,8.8-19.4,19.6
	c0,12.2,7.8,13.1,9.8,22.3c0.6,3,1.1,5.9,1.7,8.9c2.3,0,4.6,0,6.9,0c0-8,0-16,0-24c-2.1-0.5-3.6-2.4-3.6-4.5
	C345.9,140.8,348,138.7,350.5,138.7z M350.5,140.8c-1.4,0-2.5,1.1-2.5,2.6c0,1.4,1.1,2.5,2.5,2.5s2.5-1.1,2.5-2.5
	C353,142,351.9,140.8,350.5,140.8L350.5,140.8z M88,4h52v9H88V4z M99,18h52v9H99V18z M88,31h52v9H88V31z M558,39h-23v4h23V39z
	 M553,45h-23v4h23V45z M558,51h-23v4h23V51z M134,383h-23v4h23V383z M129,389h-23v4h23V389z M134,395h-23v4h23V395z M666,164h52v9
	h-52V164z M677,175h52v9h-52V175z M666,188h52v9h-52V188z M193.7,306h31.6c-2.7-14.7,7.7-35.3,7.7-35.3
	c-10-10.1-20.9-50.7-20.9-50.7H210v45.9c2.2,0.3,3.8,2.1,3.8,4.3c0,2.4-1.9,4.4-4.4,4.4c-2.3,0-4.4-1.9-4.4-4.4c0-2.2,1.6-4,3.8-4.3
	V220h-2.1c0,0-10.9,40.6-20.9,50.7C186,270.7,196.4,291.3,193.7,306z"/>
<path class="st9" d="M293.7,67.3l-10.3-25c4.3-3.8,7.8-6.5,10.4-8.1c2.6-1.6,6.9-3.7,12.9-6.2l16.6,21c16.5-2.2,33.6,5.3,42.7,20.4
	c0.6,1,1.9,3.4,3.9,7.1l-38.7,20.7l-34.7,23.1c-2.2-3.6-3.6-5.8-4.1-6.7c-4-6.7-6-14.1-6.2-21.4l-139.1,56.7l-2.5-3.7l141.8-57.9
	c0.1-1.1,0.3-2.3,0.5-3.4L143,142.7l-2.5-3.7l147.8-60.3C289.5,74.7,291.3,70.8,293.7,67.3z M137.2,158.1h4.5L110.1,310h-4.5
	L137.2,158.1z M129.7,158.1h4.5L102.5,310H98L129.7,158.1z"/>
<path class="st5" d="M136.8,327c0.2-1.7,0.2-2.9,0.2-3.8c0-17.2-14.1-31.2-31.5-31.2S74,306,74,323.2c0,0.8,0.1,1.9,0.2,3.4
	L136.8,327z"/>
<ellipse transform="matrix(3.489950e-02 -0.9994 0.9994 3.489950e-02 -12.1114 279.683)" class="st8" cx="138.8" cy="146.1" rx="15.1" ry="15.1"/>
<ellipse transform="matrix(3.489950e-02 -0.9994 0.9994 3.489950e-02 -12.1114 279.683)" class="st5" cx="138.8" cy="146.1" rx="10.5" ry="10.5"/>
<rect x="621.6" y="59.6" transform="matrix(0.9205 -0.3907 0.3907 0.9205 17.5804 260.5283)" class="st10" width="55" height="55"/>
<rect x="564" y="170" class="st11" width="57" height="57"/>
<path class="st2" d="M45.2,185.1h-5.3c-2.2,0-3.9-1.5-3.9-3.5c0-1.9,1.8-3.4,3.9-3.4h5.3v-5.3c0-2.2,1.5-3.9,3.4-3.9
	s3.4,1.8,3.4,3.9v5.3h3c2.2,0,3.9,1.5,3.9,3.4c0,1.9-1.8,3.5-3.9,3.5h-3v3.1c0,1.1-0.4,2.1-1.1,2.8c-0.7,0.7-1.6,1.1-2.5,1
	c-1.8,0-3.3-1.7-3.3-3.8V185.1z M426.2,35.8h-5.3c-2.2,0-3.9-1.5-3.9-3.5c0-1.9,1.8-3.4,3.9-3.4h5.3v-3c0-2.2,1.5-3.9,3.4-3.9
	c1.9,0,3.4,1.8,3.4,3.9v3h3c2.2,0,3.9,1.5,3.9,3.4c0,1.9-1.8,3.5-3.9,3.5h-3v5.4c0,1.1-0.4,2.1-1.1,2.8c-0.7,0.7-1.6,1.1-2.5,1
	c-1.8,0-3.3-1.7-3.3-3.8V35.8z M134.2,81.8h-5.3c-2.2,0-3.9-1.5-3.9-3.5s1.8-3.4,3.9-3.4h5.3v-3c0-2.2,1.5-3.9,3.4-3.9
	s3.4,1.8,3.4,3.9v3h3c2.2,0,3.9,1.5,3.9,3.4s-1.8,3.5-3.9,3.5h-3v5.4c0,1.1-0.4,2.1-1.1,2.8s-1.6,1.1-2.5,1c-1.8,0-3.3-1.7-3.3-3.8
	V81.8z M576.4,342.9l-1.4,5.3c-0.5,1.7-2,2.8-3.6,2.8c-0.3,0.1-0.7,0.1-1,0c-1-0.3-1.8-0.9-2.3-1.9c-0.5-0.9-0.6-2.1-0.3-3.1
	l1.3-5.1l-3.2-0.9c-2.1-0.6-3.4-2.7-2.8-4.7c0.6-2,2.8-3.2,5-2.6l3,0.8l0.7-2.6c0.6-2.1,2.6-3.4,4.6-2.8s3.1,2.8,2.6,5l-0.6,2.4
	l4.7,1.3c1,0.2,1.9,0.9,2.4,1.8c0.5,0.9,0.6,1.9,0.3,2.9c-0.5,1.6-2.1,2.6-3.8,2.6c-0.4,0.1-0.7,0.1-1.1,0L576.4,342.9z
	 M472.5,375.5l-1.2,4.7c-0.5,1.7-2,2.8-3.6,2.8c-0.3,0.1-0.7,0.1-1,0c-1-0.3-1.8-0.9-2.3-1.9s-0.6-2.1-0.3-3.1l1.2-4.5l-5.4-1.5
	c-2.1-0.6-3.3-2.7-2.7-4.7c0.6-2,2.8-3.2,4.9-2.6l5.2,1.4l0.9-3.2c0.6-2.1,2.6-3.4,4.6-2.8s3.1,2.8,2.6,5l-0.8,3l2.3,0.6
	c2.1,0.3,3.5,2.1,3.3,4.1c-0.3,2-2.2,3.4-4.3,3.1c-0.4,0-0.7,0-1.1,0L472.5,375.5z M351.1,111.1c0,1.5,0,2.9,0,4.4
	c0,1.5-2.2,1.5-2.2,0c0-1.5,0-2.9,0-4.4C348.9,109.6,351.1,109.6,351.1,111.1z M365.4,115.6c-0.7,1.3-1.5,2.6-2.2,3.8
	c-0.7,1.3-2.6,0.2-1.9-1.1c0.7-1.3,1.5-2.6,2.2-3.8C364.2,113.2,366.1,114.3,365.4,115.6z M375.6,126.6c-1.3,0.7-2.5,1.5-3.8,2.2
	c-1.3,0.7-2.3-1.2-1.1-1.9c1.3-0.7,2.5-1.5,3.8-2.2C375.7,124,376.8,125.9,375.6,126.6z M378.9,141.4c-1.5,0-2.9,0-4.4,0
	c-1.4,0-1.4-2.2,0-2.2c1.5,0,2.9,0,4.4,0C380.4,139.2,380.4,141.4,378.9,141.4z M374.5,155.8c-1.3-0.7-2.5-1.5-3.8-2.2
	c-1.3-0.7-0.2-2.6,1.1-1.9c1.3,0.7,2.5,1.5,3.8,2.2C376.8,154.7,375.7,156.6,374.5,155.8z M324.4,153.9c1.3-0.7,2.5-1.5,3.8-2.2
	c1.3-0.7,2.3,1.2,1.1,1.9c-1.3,0.7-2.5,1.5-3.8,2.2C324.3,156.6,323.2,154.7,324.4,153.9z M321.1,139.2c1.5,0,2.9,0,4.4,0
	c1.4,0,1.4,2.2,0,2.2c-1.5,0-2.9,0-4.4,0C319.6,141.4,319.6,139.2,321.1,139.2z M325.5,124.7c1.3,0.7,2.5,1.5,3.8,2.2
	c1.3,0.7,0.2,2.6-1.1,1.9c-1.3-0.7-2.5-1.5-3.8-2.2C323.2,125.9,324.3,124,325.5,124.7z M336.5,114.5c0.7,1.3,1.5,2.5,2.2,3.8
	c0.7,1.3-1.2,2.4-1.9,1.1c-0.7-1.3-1.5-2.6-2.2-3.8C333.9,114.3,335.8,113.2,336.5,114.5z M339,175c7.7,0,15.3,0,23,0
	c0,1.2,0,2.5,0,3.7c-7.7,0-15.3,0-23,0C339,177.5,339,176.2,339,175z M340,180.1c7,0,14,0,21,0c0,1.2,0,2.5,0,3.7c-7,0-14,0-21,0
	C340,182.6,340,181.4,340,180.1z M341.9,185.3c5.8,0,11.5,0,17.3,0c0,1.2,0,2.5,0,3.7c-5.8,0-11.5,0-17.3,0
	C341.9,187.8,341.9,186.5,341.9,185.3z M16,280c0,3.2-2,6.2-4.9,7.4s-6.4,0.5-8.7-1.7s-3-5.7-1.7-8.7c1.2-3,4.2-4.9,7.4-4.9
	c2.1,0,4.1,0.8,5.6,2.3S16,277.9,16,280z M424,154c-5.5,0-10-4.5-10-10s4.5-10,10-10s10,4.5,10,10S429.5,154,424,154z M705,261
	c-5.5,0-10-4.5-10-10c0-5.5,4.5-10,10-10s10,4.5,10,10C715,256.5,710.5,261,705,261z M651,20c-5.5,0-10-4.5-10-10s4.5-10,10-10
	s10,4.5,10,10S656.5,20,651,20z M266.4,216.2c1.3,0,2.1,0.8,2.1,2c0,0.3-0.1,0.7-0.1,0.9c-0.5-0.1-1.1-0.2-2-0.2
	c-1.7,0-3.5,0.4-5.1,0.6c-1.8,4.3-3.1,8.1-3.1,9.3c3.2-0.7,6.5-1.2,10.1-1.4c0.5,0.7,0.8,1.5,0.8,2.4c0,0.2,0,0.5-0.1,0.8
	c-1.1,0-2.2-0.1-4.2-0.1c-2.7,0-4.4,0.2-7.8,0.8c-0.9-0.4-1.8-1.3-2.7-2.6c0.7-1.4,1.9-4.3,3.7-9.2c-0.9-0.3-1.5-0.8-1.8-1.5
	c0.2-0.2,1.3-0.5,2.6-0.8c1.2-3.1,1.7-4.5,2.1-6.8c-1.4-0.1-2.2-0.8-2.2-2c0-0.3,0.1-0.8,0.2-1.1c0.8,0.1,1.4,0.2,2.6,0.2
	c5,0,8.9-0.7,10.3-0.7c0.9,0,1.7,1,2,2.8c-1.2-0.1-2-0.1-2.6-0.1c-2.2,0-4,0.3-5.6,0.5c-0.5,0.7-1.1,2-3.2,6.6
	C264.1,216.4,265.5,216.2,266.4,216.2z M277,214.4c1,0.3,2.1,1.6,2.5,2.9c-0.9,2.2-4,6.4-4.3,8.3c1.3-1.4,3.3-3.9,4-4.6
	c1.5-1.6,4.3-4.6,6.3-4.6c1,0,1.7,0.9,2.1,1.6c0,0.1-0.3,0.1-0.9,0.8c-1.1,1.4-3.1,5.4-3.1,7.8c0,1,0.3,1.2,0.8,1.2
	c0.4,0,1-0.3,1.3-0.3c0.1,0.1,0.3,0.4,0.3,0.6c-0.6,0.5-1.9,1.2-2.6,1.2c-2.3,0-2.9-1.4-2.9-3.2c0-1,0.3-2.2,1.7-5.4
	c-0.1,0-1.3,0.6-2.4,1.7c-1.9,1.8-3.3,3.4-4.8,5.6c-0.9,1.2-1.5,2.2-2,2.4c-0.8-0.5-1.2-1.4-1.4-2.3c0-1.5,0.9-4.9,2.2-7.9
	C275.3,216.7,276.7,214.6,277,214.4z M289,223.4c1.5-5.9,2.9-8.6,4.4-8.6c0.6,0,1.2,0.3,2,0.8c-1.3,2.3-1.9,3.7-2.2,4.9
	c-1.4,4.8-3.2,10.8-4,12.8c-1.8,4.7-3.4,6.5-5.8,6.5c-1.7,0-3.6-0.8-4.3-1.7c0-0.3,0.3-0.6,0.5-0.6c0.7,0.7,1.4,1,2.4,1
	C284.7,238.5,285.8,236.2,289,223.4z M293.9,212.5c0-0.1,0-0.3,0.1-0.5c-0.2-0.2-0.4-0.6-0.4-1c0-0.7,0.5-2.8,0.9-3.9
	c0.9,0,3,1.2,3.6,2.1c-1,0.9-3.1,3.5-3.4,4.2C294.4,213.2,293.9,212.8,293.9,212.5z M299,230.1c-2.3-0.2-3.8-2.2-3.8-4.9
	c0-3.2,2.1-7.1,4.9-9.2c1.1-0.8,2.2-1.2,3.1-1.2c0.6,0.3,1.3,1.1,1.9,2.1c0.2,0,0.4,0,0.5,0c1.1,0,1.6,0.9,1.6,2.8
	C307.2,224.7,303.8,229,299,230.1z M300.5,220.6c-1.4,1.8-2.4,4.5-2.4,6.1c0,1,0.4,2,0.8,2.1c3.6-0.8,6.2-4.6,6.2-9.3
	c0-1-0.1-1.6-0.4-2C302.9,218,301.5,219.3,300.5,220.6z M320,224.4c-1.8,5.8-3.6,9.5-6.5,12.5c-1.8,1.9-3.8,3-5.8,3
	c-2,0-4.1-1-4.7-2.1c0-0.2,0.2-0.5,0.4-0.6c0.9,0.8,1.2,1,2.1,1c4.6,0,8.9-5.5,11.1-14.2c-1,1.6-3.2,5-5.1,5.7
	c-1.3-0.1-3-0.9-3.3-2.3c0-1.1,0.1-1.7,0.3-2.5c0.8-3,2.9-8.1,5.4-9.9c0.7,0,2,0.2,2.7,0.9c-0.5,0.4-2.1,2.7-3.9,6.9
	c-0.4,0.9-1.3,3.6-1.3,4.7c0,0.3,0.1,0.5,0.2,0.5c0.7-0.1,2-1.1,3.5-3.4c1.9-2.9,3.1-5.6,5.1-8.9c1.1,0,2.6,0.5,2.9,1
	C321.9,219.2,320.8,221.7,320,224.4z M331.9,223.1c0-8.4,6.3-16.3,13.4-16.3c2.7,0,4.4,1.2,4.4,3.3c0,1.6-1,3.5-2.3,4.6
	c-1-0.1-1.9-1-2.1-2.1c1.4-1.1,2.3-2.5,2.3-3.5c0-0.8-0.6-1.3-1.7-1.3c-1.8,0-4,1.6-5.7,3.9c-2.8,4-4.2,8.1-4.2,12.3
	c0,2.9,1,4.8,2.5,5.2c1.7-0.4,4.5-2.3,7.6-5.2c0.2,0.2,0.3,0.4,0.4,0.6c-2.3,3.1-5.1,5.7-7.1,6.7
	C334.5,231.2,331.9,228.4,331.9,223.1z M347.9,228.4c0.4-2.3,2.2-8,3.6-11.5c0.5-1.2,0.9-1.9,1.4-2.3c1.1,0.2,2.5,0.9,3,1.4
	c-1.1,1.3-1.8,2.8-2.7,5.3c2.1-1.9,3.8-3.5,5.2-5.7c0.1-0.1,0.3-0.1,0.6-0.1c0.6,0,1.2,0.2,1.4,0.5c-0.4,1-0.5,1.9-0.5,2.9
	c0,0.9,0.1,1.5,0.4,2c0,0.2-0.6,1.1-1.2,1.7c-1.1-0.5-2-1.6-2.4-2.8c-3.8,2.6-5.1,4.7-6.2,10.3C349.6,230,348.2,229,347.9,228.4z
	 M371.5,216.6c-0.3,4.9-2.9,6.9-8,8.9c0,0.2,0,0.5,0,0.8c0,1,0.2,2.4,1.4,2.4c2.2,0,4.2-2.2,5.5-3.5c0.2,0.2,0.4,0.3,0.5,0.5
	c-1.8,2.4-4.1,4.1-6,4.5c-2.8-0.3-4.4-2.2-4.4-4.6c0-4.9,4.5-10.7,8.5-10.7C369.8,215,370.6,215.6,371.5,216.6z M369.4,217.6
	c-2.2,0.3-4.7,3.1-5.7,6.8C366.9,222.8,369.2,220.3,369.4,217.6z M383.2,216.9c0.8,0,2.2,0.7,2.2,1c-1.6,3.4-2.7,6.9-2.7,8.9
	c0,1.1,0.2,1.9,0.8,2.2c-0.5,0.3-1.4,0.5-2,0.5c-1.1,0-1.6-0.7-1.6-2.2c0-1.1,0.4-2.7,1.1-4.7c-1.6,3.7-4.3,6.7-6.1,7
	c-1.5-0.1-2.5-1.6-2.5-3.6c0-4.5,4.3-10.6,7.6-10.8c0.8,0.2,2.2,1.6,2.2,2.4c-3.2,0.5-7.1,5.8-7.1,9.5c0,0.4,0.2,0.6,0.4,0.7
	c1.2-0.2,2.6-1.9,4.8-5.5C381.1,220.9,382.3,218.7,383.2,216.9z M390.4,217.5h-1.7c-0.2-0.2-0.4-1.2-0.4-1.8c1,0.1,2,0.1,2.8,0.2
	c1.2-2.4,2.9-4.9,3.6-5.3c0.8,0,2.7,0.6,3.1,1.1c-1.2,1.5-2,2.7-2.9,4.3c0.8,0,1.6,0,2.5-0.1c0.2,0.2,0.3,0.5,0.3,0.8
	c-1,0.4-2.2,0.6-3.6,0.6c-2,3.8-3.2,7.7-3.2,10.2c0,0.9,0.4,1.4,1,1.5c1.2-0.1,2.3-0.6,3.1-1.3c0.1,0.1,0.2,0.3,0.2,0.4
	c-0.4,0.7-2.6,2.1-3.3,2.2c-2-0.1-4.3-1.8-4.3-3.2C387.8,225.2,388.9,221.2,390.4,217.5z M397.5,227c0-0.7,0.2-2.1,1-5.7
	c0.2-0.8,1-3.9,2.9-4.8c0.7,0.1,2,0.8,2.8,2c-1.8,2-2.4,4.2-3.4,6.8c-0.4,1.1-0.9,2.4-0.9,3.3c0,0.7,0,1-0.2,1
	C399.4,229.5,397.5,228.8,397.5,227z M403.2,214c0-0.1,0-0.3,0.1-0.5c-0.2-0.2-0.4-0.7-0.4-1c0-0.7,0.4-2.6,0.9-3.9
	c0.9,0,3,1.2,3.6,2.1c-0.9,0.8-3.1,3.5-3.4,4.2C403.7,214.7,403.2,214.3,403.2,214z M406.2,218.4c0-1.5,0.3-2.6,2.2-2.6
	c0.6,0,1.4,0.1,1.7,0.4c-0.3,1.3-0.4,1.8-0.4,4.5c-0.1,2.7-0.2,4.7-0.8,6.8c0,0.1,0,0.1,0.1,0.1c1.2-0.9,3.2-3.5,4.6-5.9
	c1-1.6,2.3-4.4,3-7.2c0.5,0,1.6,0.4,1.9,0.7c-0.1,3.4-3.3,7.4-5.2,9.5c-1.9,2.2-3.7,3.9-6.4,5.6c-1.1-0.4-1.7-1.1-1.7-1.8
	c0-1,1.1-2.2,1.1-6.7C406.3,220.6,406.2,219.1,406.2,218.4z M418,227c0-0.7,0.2-2.1,1-5.7c0.2-0.8,1-3.9,2.9-4.8
	c0.7,0.1,2,0.8,2.8,2c-1.8,2-2.4,4.2-3.4,6.8c-0.4,1.1-0.9,2.4-0.9,3.3c0,0.7,0,1-0.2,1C419.9,229.5,418,228.8,418,227z M423.8,214
	c0-0.1,0-0.3,0.1-0.5c-0.2-0.2-0.4-0.7-0.4-1c0-0.7,0.4-2.6,0.9-3.9c0.9,0,3,1.2,3.6,2.1c-0.9,0.8-3.1,3.5-3.4,4.2
	C424.2,214.7,423.8,214.3,423.8,214z M428.6,217.5h-1.7c-0.2-0.2-0.4-1.2-0.4-1.8c1,0.1,2,0.1,2.8,0.2c1.2-2.4,2.9-4.9,3.6-5.3
	c0.8,0,2.7,0.6,3.1,1.1c-1.2,1.5-2,2.7-2.9,4.3c0.8,0,1.6,0,2.5-0.1c0.2,0.2,0.3,0.5,0.3,0.8c-1,0.4-2.2,0.6-3.6,0.6
	c-2,3.8-3.2,7.7-3.2,10.2c0,0.9,0.4,1.4,1,1.5c1.2-0.1,2.3-0.6,3.1-1.3c0.1,0.1,0.2,0.3,0.2,0.4c-0.4,0.7-2.6,2.1-3.3,2.2
	c-2-0.1-4.3-1.8-4.3-3.2C425.9,225.2,427,221.2,428.6,217.5z M446.9,224.4c-1.8,5.8-3.6,9.5-6.5,12.5c-1.8,1.9-3.8,3-5.8,3
	c-2,0-4.1-1-4.7-2.1c0-0.2,0.2-0.5,0.4-0.6c0.9,0.8,1.2,1,2.1,1c4.6,0,8.9-5.5,11.1-14.2c-1,1.6-3.2,5-5.1,5.7
	c-1.3-0.1-3-0.9-3.3-2.3c0-1.1,0.1-1.7,0.3-2.5c0.8-3,2.9-8.1,5.4-9.9c0.7,0,2,0.2,2.7,0.9c-0.5,0.4-2.1,2.7-3.9,6.9
	c-0.4,0.9-1.3,3.6-1.3,4.7c0,0.3,0.1,0.5,0.2,0.5c0.7-0.1,2-1.1,3.5-3.4c1.9-2.9,3.1-5.6,5.1-8.9c1,0,2.5,0.5,2.9,1
	C448.9,219.2,447.8,221.7,446.9,224.4z M189.4,308l-2.4,19h45l-2.4-19H189.4z M569,175h47v47h-47V175z"/>
<path id="Ps" class="st12" d="M580,198h1.8c1.7,0,3-0.3,3.9-1s1.3-1.7,1.3-3c0-1.3-0.4-2.3-1.1-3s-1.8-1-3.4-1H580V198z M592,194.1
	c0,2.8-0.8,4.9-2.5,6.4c-1.7,1.5-4,2.2-7.1,2.2h-2.2v9.2H575v-26h7.9c3,0,5.3,0.7,6.8,2C591.2,189.4,592,191.4,592,194.1z
	 M610,205.9c0,2-0.7,3.5-2.1,4.5c-1.4,1-3.5,1.6-6.3,1.6c-1.4,0-2.7-0.1-3.7-0.3s-2-0.5-2.8-0.8v-4.3c1,0.5,2.1,0.8,3.4,1.2
	c1.3,0.3,2.4,0.5,3.3,0.5c2,0,2.9-0.6,2.9-1.7c0-0.4-0.1-0.8-0.4-1s-0.7-0.6-1.3-0.9c-0.6-0.3-1.5-0.7-2.5-1.1
	c-1.5-0.6-2.6-1.2-3.4-1.7s-1.2-1.1-1.6-1.8c-0.3-0.7-0.5-1.5-0.5-2.5c0-1.7,0.7-3,2-4c1.4-0.9,3.3-1.4,5.8-1.4c2.4,0,4.7,0.5,7,1.5
	l-1.6,3.8c-1-0.4-1.9-0.8-2.8-1c-0.9-0.3-1.7-0.4-2.6-0.4c-1.6,0-2.4,0.4-2.4,1.3c0,0.5,0.3,0.9,0.8,1.2c0.5,0.3,1.6,0.9,3.4,1.5
	c1.5,0.6,2.7,1.2,3.4,1.7c0.7,0.5,1.2,1.1,1.6,1.8C609.8,204.1,610,205,610,205.9z"/>
<rect x="625.9" y="275.1" transform="matrix(0.2588 -0.9659 0.9659 0.2588 192.2334 853.7539)" class="st5" width="53" height="53"/>
<g>
	<path class="st13" d="M639.9,80.3c0.2,1.5,0.6,5.4,1.1,11.5l6.4-2.7c-3.8-4.3-5.9-6.8-6.4-7.4C640.5,81.1,640.1,80.7,639.9,80.3z"
		/>
	<path class="st13" d="M661.4,56.6l-42.8,18.2l18.2,42.8l42.8-18.2L661.4,56.6z M655.4,68.1c1.8-0.8,3.2-0.3,3.9,1.6
		c0.4,0.9,0.4,1.7,0.2,2.3c-0.3,0.7-0.8,1.2-1.8,1.6c-1.8,0.8-3.2,0.2-3.9-1.6C653,70.2,653.5,68.9,655.4,68.1z M654.9,98.2
		l-4.2-4.9l-9,3.8l0.6,6.4l-5.7,2.4l-1.4-27.6l6.4-2.7l18.9,20.2L654.9,98.2z M654.7,75.9l5.5-2.3l8.2,19.3l-5.5,2.3L654.7,75.9z"/>
</g>
<g>
	<path class="st14" d="M658,301.5c-1.2-0.3-2.2-0.1-3.1,0.6c-0.9,0.7-1.6,2-2,3.7c-0.5,1.7-0.5,3.1-0.1,4.2c0.4,1,1.2,1.7,2.4,2.1
		c1.3,0.4,2.4,0.3,3.2-0.3c0.8-0.6,1.5-1.7,2-3.4l0.1-0.5c0.5-1.9,0.6-3.4,0.1-4.4C660.3,302.6,659.4,301.9,658,301.5z"/>
	<path class="st14" d="M636.5,274.1l-11.6,43.5l43.5,11.6l11.6-43.5L636.5,274.1z M640.7,312.5l-4.8-1.3l6.5-24.1l4.8,1.3
		L640.7,312.5z M663,318.1l-3.9-1l-0.3-2.7l-0.2-0.1c-1.6,1.5-3.6,2-6,1.3c-2.2-0.6-3.7-1.9-4.5-3.9c-0.8-2-0.8-4.5,0-7.5
		c0.8-3,2.1-5.2,3.8-6.6c1.7-1.4,3.7-1.7,5.9-1.1c2.3,0.6,3.9,2,4.6,4.1l0.2,0c0.1-1.4,0.3-2.7,0.6-3.8l1.6-5.9l5.1,1.4L663,318.1z"
		/>
</g>
</svg>
