<?xml version="1.0" encoding="utf-8"?>
<!-- Generator: Adobe Illustrator 23.0.2, SVG Export Plug-In . SVG Version: 6.00 Build 0)  -->
<svg version="1.1" id="Layer_1" xmlns="http://www.w3.org/2000/svg" xmlns:xlink="http://www.w3.org/1999/xlink" x="0px" y="0px"
	 viewBox="0 0 52 52" style="enable-background:new 0 0 52 52;" xml:space="preserve">
<style type="text/css">
	.st0{fill:#2C96F2;}
	.st1{filter:url(#Adobe_OpacityMaskFilter);}
	.st2{fill-rule:evenodd;clip-rule:evenodd;fill:#FFFFFF;}
	.st3{mask:url(#mask-2_1_);fill:#FFFFFF;}
</style>
<path class="st0" d="M26,0L26,0c14.4,0,26,11.6,26,26l0,0c0,14.4-11.6,26-26,26l0,0C11.6,52,0,40.4,0,26l0,0C0,11.6,11.6,0,26,0z"/>
<defs>
	<filter id="Adobe_OpacityMaskFilter" filterUnits="userSpaceOnUse" x="8.3" y="9.6" width="29.6" height="44">
		<feColorMatrix  type="matrix" values="1 0 0 0 0  0 1 0 0 0  0 0 1 0 0  0 0 0 1 0"/>
	</filter>
</defs>
<mask maskUnits="userSpaceOnUse" x="8.3" y="9.6" width="29.6" height="44" id="mask-2_1_">
	<g class="st1">
		<path id="path-1_1_" class="st2" d="M26,0L26,0c14.4,0,26,11.6,26,26l0,0c0,14.4-11.6,26-26,26l0,0C11.6,52,0,40.4,0,26l0,0
			C0,11.6,11.6,0,26,0z"/>
	</g>
</mask>
<path class="st3" d="M36.7,19.7c0,2.7-0.8,5-2.4,6.8s-3.9,3.2-6.8,3.9v0.2c3.5,0.4,6.1,1.5,7.9,3.1s2.7,3.9,2.7,6.8
	c0,4.1-1.5,7.3-4.5,9.6s-7.3,3.4-12.8,3.4c-4.6,0-8.8-0.8-12.4-2.3v-7.7c1.7,0.8,3.5,1.5,5.5,2.1s4,0.8,5.9,0.8c3,0,5.2-0.5,6.6-1.5
	s2.1-2.6,2.1-4.9c0-2-0.8-3.4-2.5-4.3s-4.3-1.3-7.9-1.3h-3.3v-6.9h3.3c3.3,0,5.7-0.4,7.3-1.3s2.3-2.4,2.3-4.5c0-3.2-2-4.9-6.1-4.9
	c-1.4,0-2.8,0.2-4.3,0.7s-3.1,1.3-4.8,2.4l-4.2-6.2c3.9-2.8,8.6-4.2,14-4.2c4.4,0,7.9,0.9,10.5,2.7S36.7,16.5,36.7,19.7z"/>
</svg>
