<?xml version="1.0" encoding="utf-8"?>
<!-- Generator: Adobe Illustrator 23.0.2, SVG Export Plug-In . SVG Version: 6.00 Build 0)  -->
<svg version="1.1" id="Layer_1" xmlns="http://www.w3.org/2000/svg" xmlns:xlink="http://www.w3.org/1999/xlink" x="0px" y="0px"
	 viewBox="0 0 29 145" style="enable-background:new 0 0 29 145;" xml:space="preserve">
<style type="text/css">
	.st0{fill:#0A0068;}
</style>
<path id="Path-3" class="st0" d="M3.9,0.8l0.9,0.4c-1.1,2.3-2,4.8-2.6,7.4l-1-0.2C1.8,5.8,2.7,3.2,3.9,0.8z M0.2,18.6l1,0
	c0,2.5,0.2,5.2,0.6,7.9l-1,0.1C0.4,23.8,0.2,21.1,0.2,18.6z M2.8,36.5l1-0.3c0.6,2.5,1.4,5,2.3,7.6l-0.9,0.3
	C4.2,41.5,3.4,38.9,2.8,36.5z M8.6,53.6l0.9-0.4c1,2.4,2,4.8,3.2,7.3L11.8,61C10.6,58.5,9.6,56,8.6,53.6z M16.2,69.9l0.9-0.5
	c0.2,0.4,0.4,0.7,0.6,1.1c1.1,2.1,2.1,4.1,3,6.1l-0.9,0.4c-0.9-2-1.9-4-3-6.1C16.5,70.6,16.3,70.3,16.2,69.9z M23.4,86.3l0.9-0.3
	c0.9,2.6,1.7,5.2,2.3,7.7l-1,0.2C25.1,91.4,24.3,88.9,23.4,86.3z M27.5,103.7l1-0.1c0.3,2.8,0.4,5.4,0.3,8.1l-1,0
	C27.9,109,27.8,106.4,27.5,103.7z M26.5,121.4l1,0.2c-0.7,2.6-1.5,5.2-2.6,7.6l-0.9-0.4C25,126.5,25.8,124,26.5,121.4z M18.9,137.4
	l0.8,0.6c-1.6,2.1-3.3,4.2-5.3,6.1l-0.7-0.7C15.7,141.5,17.4,139.5,18.9,137.4z"/>
</svg>
