<?xml version="1.0" encoding="utf-8"?>
<!-- Generator: Adobe Illustrator 23.0.2, SVG Export Plug-In . SVG Version: 6.00 Build 0)  -->
<svg version="1.1" id="Layer_1" xmlns="http://www.w3.org/2000/svg" xmlns:xlink="http://www.w3.org/1999/xlink" x="0px" y="0px"
	 viewBox="0 0 52 52" style="enable-background:new 0 0 52 52;" xml:space="preserve">
<style type="text/css">
	.st0{fill:#FA8B55;}
	.st1{filter:url(#Adobe_OpacityMaskFilter);}
	.st2{fill-rule:evenodd;clip-rule:evenodd;fill:#FFFFFF;}
	.st3{mask:url(#mask-2_1_);fill:#FFFFFF;}
</style>
<path class="st0" d="M26,0L26,0c14.4,0,26,11.6,26,26l0,0c0,14.4-11.6,26-26,26l0,0C11.6,52,0,40.4,0,26l0,0C0,11.6,11.6,0,26,0z"/>
<defs>
	<filter id="Adobe_OpacityMaskFilter" filterUnits="userSpaceOnUse" x="18" y="12.2" width="32.3" height="42.8">
		<feColorMatrix  type="matrix" values="1 0 0 0 0  0 1 0 0 0  0 0 1 0 0  0 0 0 1 0"/>
	</filter>
</defs>
<mask maskUnits="userSpaceOnUse" x="18" y="12.2" width="32.3" height="42.8" id="mask-2_1_">
	<g class="st1">
		<path id="path-1_1_" class="st2" d="M26,0L26,0c14.4,0,26,11.6,26,26l0,0c0,14.4-11.6,26-26,26l0,0C11.6,52,0,40.4,0,26l0,0
			C0,11.6,11.6,0,26,0z"/>
	</g>
</mask>
<path class="st3" d="M50.3,46.1h-5.2V55h-8.8v-8.9H18v-6.3l18.8-27.7h8.3v26.9h5.2V46.1z M36.3,39.1v-7.3c0-1.2,0-3,0.1-5.3
	s0.2-3.6,0.2-4h-0.2c-0.7,1.6-1.6,3.2-2.6,4.7L26,39.1H36.3z"/>
</svg>
