<?xml version="1.0" encoding="utf-8"?>
<!-- Generator: Adobe Illustrator 23.0.2, SVG Export Plug-In . SVG Version: 6.00 Build 0)  -->
<svg version="1.1" id="Layer_1" xmlns="http://www.w3.org/2000/svg" xmlns:xlink="http://www.w3.org/1999/xlink" x="0px" y="0px"
	 viewBox="0 0 728 407" style="enable-background:new 0 0 728 407;" xml:space="preserve">
<style type="text/css">
	.st0{fill-rule:evenodd;clip-rule:evenodd;fill:#5F4CEF;}
	.st1{fill-rule:evenodd;clip-rule:evenodd;fill:#FA8B55;}
	.st2{fill-rule:evenodd;clip-rule:evenodd;fill:#37DA96;}
	.st3{fill-rule:evenodd;clip-rule:evenodd;fill:#FCCF48;}
	.st4{fill:#FFFFFF;}
	.st5{fill-rule:evenodd;clip-rule:evenodd;fill:#F8427B;}
	.st6{fill-rule:evenodd;clip-rule:evenodd;fill:#FFFFFF;}
	.st7{fill-rule:evenodd;clip-rule:evenodd;fill:#2C96F2;}
	.st8{fill:#0A0068;}
	.st9{fill:#2A2A2A;}
	.st10{fill:#A8D2FF;}
	.st11{fill-rule:evenodd;clip-rule:evenodd;fill:#A8D2FF;}
	.st12{fill-rule:evenodd;clip-rule:evenodd;fill:#0A0068;}
	.st13{fill:#FCCF48;}
</style>
<circle id="Oval" class="st0" cx="637" cy="88" r="44"/>
<circle class="st1" cx="127" cy="354" r="49"/>
<circle class="st2" cx="284.5" cy="350.5" r="51.5"/>
<circle class="st3" cx="512.5" cy="71.5" r="47.5"/>
<path class="st4" d="M279.6,332.5h-5.5v33.7l-10.2-2.8v7.7l15.8,4.3h0.2v0L279.6,332.5z M310,322.5h-24v60l20.4-6.8L310,322.5z
	 M305.8,338.6l1.2-6h-18l0.9,21.6h9.9v13.5l-9.3,3.5v7.4l13.9-3.8l1.4-26h-11.5v-10.2H305.8z M256,319.5h59l-5.4,62.9l-24.2,7.1
	l-24.1-7.1L256,319.5z"/>
<path id="Combined-Shape" class="st4" d="M114.4,339h-3v-7.5h-4v7.5h-3v-17h3v6.8h4V322h3V339z M122.3,339h-3v-14.2h-3.1V322h9.3
	v2.8h-3.1V339z M133,339l-3.1-14.5h-0.1c0.1,1.1,0.2,2.1,0.2,3.1V339h-2.8v-17h4.7l2.8,13.4h0.1l2.8-13.4h4.7v17h-2.9v-11.5
	c0-1,0.1-1.9,0.2-2.9h-0.1l-3.1,14.5H133z M145.1,339v-17h3v14.2h4.2v2.8H145.1z M140.2,359.5l0.5-5.4H113l1.5,16.4h19.1l-0.7,7
	l-6.2,1.6l-6.1-1.6l-0.4-4.3h-5.5l0.7,8.5l11.3,3.1h0.1v0l11.2-3l1.6-16.7h-20.1l-0.5-5.5H140.2z M105.4,345h43l-3.9,44l-17.7,5
	l-17.5-5L105.4,345z"/>
<circle class="st5" cx="433.5" cy="186.5" r="43.5"/>
<path class="st6" d="M433.9,204c-18.8,0-34-7.8-34-17.5s15.2-17.5,34-17.5s34,7.8,34,17.5S452.7,204,433.9,204z M422.1,192.4
	c0.9,0,1.7-0.3,2.5-0.9c0.8-0.6,1.4-1.5,1.8-2.7s0.7-2.4,0.7-3.7c0-1.3-0.3-2.3-0.9-3c-0.6-0.7-1.4-1.1-2.4-1.1
	c-1.1,0-1.9,0.5-2.5,1.4h-0.1l0.1-1.2h-3l-3.4,15.9h3.8l0.5-2.4c0.3-1.3,0.5-2.5,0.6-3.6h0.1C420.4,191.9,421.2,192.4,422.1,192.4z
	 M422.4,183.9c0.6,0,0.8,0.5,0.8,1.4c0,0.7-0.1,1.3-0.3,1.9c-0.2,0.6-0.4,1.1-0.7,1.5c-0.3,0.4-0.6,0.6-0.9,0.6
	c-0.3,0-0.5-0.1-0.6-0.4s-0.2-0.6-0.2-1c0-0.7,0.1-1.3,0.3-1.9c0.2-0.6,0.4-1.1,0.7-1.5C421.8,184.1,422.1,183.9,422.4,183.9z
	 M434.3,192.2h3.8l1.3-5.9c0.2-0.8,0.2-1.5,0.2-2.2c0-1-0.3-1.8-0.8-2.3s-1.2-0.8-2.2-0.8c-1.1,0-2,0.4-2.7,1.3h-0.1
	c0.3-0.8,0.6-1.7,0.9-2.8l0.5-2.4h-3.8l-3.2,15.2h3.8l1.1-5.4c0.4-1.9,1-2.9,1.8-2.9c0.2,0,0.4,0.1,0.5,0.2c0.1,0.1,0.2,0.3,0.2,0.6
	c0,0.4-0.1,0.9-0.2,1.4L434.3,192.2z M446.9,192.4c0.9,0,1.7-0.3,2.5-0.9c0.8-0.6,1.4-1.5,1.8-2.7s0.7-2.4,0.7-3.7
	c0-1.3-0.3-2.3-0.9-3c-0.6-0.7-1.4-1.1-2.4-1.1c-1.1,0-1.9,0.5-2.5,1.4H446l0.1-1.2h-3l-3.4,15.9h3.8l0.5-2.4
	c0.3-1.3,0.5-2.5,0.6-3.6h0.1C445.2,191.9,446,192.4,446.9,192.4z M447.2,183.9c0.6,0,0.8,0.5,0.8,1.4c0,0.7-0.1,1.3-0.3,1.9
	c-0.2,0.6-0.4,1.1-0.7,1.5s-0.6,0.6-0.9,0.6c-0.3,0-0.5-0.1-0.6-0.4s-0.2-0.6-0.2-1c0-0.7,0.1-1.3,0.3-1.9c0.2-0.6,0.4-1.1,0.7-1.5
	S446.9,183.9,447.2,183.9z"/>
<circle class="st7" cx="51.5" cy="335.5" r="40.5"/>
<path class="st4" d="M41.9,312c-0.9,0-1.5,0.4-2,1.1c-0.5,0.7-0.7,1.7-0.7,3c0,2.6,1,3.9,2.9,3.9c0.6,0,1.2-0.1,1.7-0.3
	c0.6-0.2,1.1-0.4,1.7-0.6v3.1c-1.1,0.5-2.4,0.8-3.8,0.8c-2,0-3.5-0.6-4.6-1.8c-1.1-1.2-1.6-2.9-1.6-5.2c0-1.4,0.3-2.6,0.8-3.7
	s1.3-1.9,2.2-2.5c1-0.6,2.1-0.9,3.4-0.9c1.4,0,2.8,0.3,4.1,1l-1.1,2.9c-0.5-0.2-1-0.4-1.5-0.6C43,312.1,42.5,312,41.9,312z
	 M56.8,318.7c0,0.8-0.2,1.6-0.6,2.2c-0.4,0.7-1,1.2-1.8,1.5c-0.8,0.4-1.7,0.5-2.8,0.5c-0.9,0-1.6-0.1-2.2-0.2
	c-0.6-0.1-1.2-0.3-1.9-0.7v-3.3c0.7,0.4,1.4,0.6,2.1,0.8s1.4,0.3,2,0.3c0.5,0,0.9-0.1,1.2-0.3c0.2-0.2,0.4-0.4,0.4-0.7
	c0-0.2,0-0.3-0.1-0.5c-0.1-0.1-0.3-0.3-0.5-0.4c-0.2-0.1-0.8-0.4-1.8-0.9c-0.9-0.4-1.5-0.8-1.9-1.2c-0.4-0.4-0.8-0.8-1-1.3
	c-0.2-0.5-0.3-1.1-0.3-1.7c0-1.3,0.4-2.2,1.3-2.9c0.9-0.7,2.1-1.1,3.7-1.1c1.4,0,2.8,0.3,4.2,1l-1.1,2.8c-1.2-0.6-2.3-0.9-3.2-0.9
	c-0.5,0-0.8,0.1-1,0.3s-0.3,0.4-0.3,0.6c0,0.3,0.1,0.5,0.4,0.7c0.3,0.2,1,0.6,2.2,1.2c1.1,0.5,1.9,1.1,2.4,1.7
	C56.6,317,56.8,317.8,56.8,318.7z M67.5,318.7c0,0.8-0.2,1.6-0.6,2.2c-0.4,0.7-1,1.2-1.8,1.5c-0.8,0.4-1.7,0.5-2.8,0.5
	c-0.9,0-1.6-0.1-2.2-0.2c-0.6-0.1-1.2-0.3-1.9-0.7v-3.3c0.7,0.4,1.4,0.6,2.1,0.8c0.7,0.2,1.4,0.3,2,0.3c0.5,0,0.9-0.1,1.2-0.3
	c0.2-0.2,0.4-0.4,0.4-0.7c0-0.2,0-0.3-0.1-0.5c-0.1-0.1-0.3-0.3-0.5-0.4c-0.2-0.1-0.8-0.4-1.8-0.9c-0.9-0.4-1.5-0.8-1.9-1.2
	c-0.4-0.4-0.8-0.8-1-1.3c-0.2-0.5-0.3-1.1-0.3-1.7c0-1.3,0.4-2.2,1.3-2.9c0.9-0.7,2.1-1.1,3.7-1.1c1.4,0,2.8,0.3,4.2,1l-1.1,2.8
	c-1.2-0.6-2.3-0.9-3.2-0.9c-0.5,0-0.8,0.1-1,0.3c-0.2,0.2-0.3,0.4-0.3,0.6c0,0.3,0.1,0.5,0.4,0.7c0.3,0.2,1,0.6,2.2,1.2
	c1.1,0.5,1.9,1.1,2.4,1.7C67.3,317,67.5,317.8,67.5,318.7z M61.5,341.8l0.8-6.3H39.8l0.4,4.3h16.4l-16.1,3.7l0.5,5.3h15.6l-0.6,5.7
	l-5,1.3l-5-1.3l-0.3-3.5h-4.5l0.6,7l9.2,2.5h0.1v0l9.1-2.5l1.3-13.6H51.1L61.5,341.8z M33.5,328h35l-3.2,36L51,368l-14.3-4L33.5,328
	z"/>
<path class="st4" d="M612,84l19,20l-9.1-20H612z M637.5,107L648,84h-21L637.5,107z M621.7,81l6.3-11h-8.1L611,81H621.7z M643,104
	l19-20h-9.9L643,104z M627,81h21l-6.3-11h-8.4L627,81z M651.3,81H662l-8.9-11H645L651.3,81z M656.6,65.8l12,15.4
	c0.3,0.4,0.4,0.8,0.4,1.2c0,0.5-0.2,0.9-0.5,1.2l-30,30.8c-0.4,0.4-0.9,0.6-1.5,0.6s-1.1-0.2-1.5-0.6l-30-30.8
	c-0.3-0.3-0.5-0.7-0.5-1.2c0-0.5,0.1-0.9,0.4-1.2l12-15.4c0.4-0.5,0.9-0.8,1.6-0.8h36C655.7,65,656.2,65.3,656.6,65.8z"/>
<path class="st8" d="M513.2,376.6h10.2c4,0,6.9,0.6,8.8,1.8c1.9,1.2,2.9,3,2.9,5.5c0,1.6-0.4,3-1.3,4.2s-1.9,1.9-3.3,2.2v0.2
	c1.8,0.5,3.1,1.3,3.9,2.4c0.8,1.1,1.2,2.6,1.2,4.4c0,2.7-1,4.7-3,6.3s-4.7,2.3-8.1,2.3h-11.4V376.6z M521.1,387.9h2.4
	c1.1,0,2-0.2,2.6-0.7c0.6-0.5,0.9-1.2,0.9-2.1c0-1.6-1.2-2.5-3.7-2.5h-2.2V387.9z M521.1,393.6v6.1h2.8c2.5,0,3.7-1,3.7-3.1
	c0-1-0.3-1.7-1-2.2s-1.6-0.8-2.9-0.8H521.1z M555.1,405.9l-1.5-3h-0.2c-1.1,1.3-2.1,2.2-3.2,2.7s-2.5,0.7-4.2,0.7
	c-2.1,0-3.8-0.6-5-1.9c-1.2-1.3-1.8-3.1-1.8-5.4c0-2.4,0.8-4.2,2.5-5.4c1.7-1.2,4.1-1.8,7.3-2l3.8-0.1v-0.3c0-1.9-0.9-2.8-2.8-2.8
	c-1.7,0-3.8,0.6-6.3,1.7l-2.3-5.2c2.6-1.4,6-2,10-2c2.9,0,5.2,0.7,6.7,2.2s2.4,3.5,2.4,6v14.8H555.1z M549.3,400.7
	c0.9,0,1.8-0.3,2.4-0.9c0.7-0.6,1-1.4,1-2.3v-1.8l-1.8,0.1c-2.6,0.1-3.9,1-3.9,2.8C547.1,400.1,547.8,400.7,549.3,400.7z
	 M576.1,406.3c-3.7,0-6.5-1-8.4-3c-1.9-2-2.9-4.9-2.9-8.6c0-3.8,1-6.7,3.1-8.7c2.1-2.1,5-3.1,8.8-3.1c2.6,0,5.1,0.6,7.4,1.7
	l-2.3,5.8c-0.9-0.4-1.8-0.7-2.6-1c-0.8-0.2-1.6-0.4-2.5-0.4c-1.3,0-2.2,0.5-2.9,1.5c-0.7,1-1,2.4-1,4.2c0,3.6,1.3,5.4,4,5.4
	c2.3,0,4.5-0.7,6.6-2v6.2C581.4,405.6,579,406.3,576.1,406.3z M595.5,393.1c0.9-1.5,1.8-2.7,2.4-3.5l5.1-6.4h8.7l-7.9,9.6l8.4,13
	h-8.9l-5-8.1l-2.5,1.9v6.2h-7.9v-31.1h7.9V387c0,2.1-0.1,4.1-0.4,6.1H595.5z M636.4,406.3c-3.8,0-6.7-1-8.8-3
	c-2.1-2-3.1-4.9-3.1-8.6c0-3.8,1-6.8,2.9-8.8c1.9-2,4.7-3.1,8.3-3.1c3.4,0,6,0.9,7.9,2.7s2.8,4.3,2.8,7.7v3.5h-14
	c0.1,1.3,0.5,2.3,1.4,3c0.9,0.7,2.1,1.1,3.6,1.1c1.4,0,2.6-0.1,3.8-0.4c1.2-0.3,2.4-0.7,3.7-1.3v5.6c-1.2,0.6-2.5,1.1-3.8,1.3
	S638.3,406.3,636.4,406.3z M636,388.1c-0.9,0-1.7,0.3-2.3,0.9c-0.6,0.6-1,1.5-1.1,2.7h6.7c0-1.1-0.3-2-0.9-2.6
	C637.8,388.5,637,388.1,636,388.1z M665.1,405.9v-12.4c0-1.5-0.2-2.6-0.6-3.4c-0.4-0.8-1.1-1.1-2.1-1.1c-1.3,0-2.3,0.5-2.9,1.6
	c-0.6,1.1-0.9,2.9-0.9,5.4v9.9h-7.8v-22.6h5.9l1,2.8h0.5c0.7-1.1,1.6-1.9,2.8-2.4c1.2-0.5,2.5-0.8,4.1-0.8c2.5,0,4.5,0.7,5.8,2.2
	c1.4,1.5,2.1,3.5,2.1,6.1v14.7H665.1z M685.3,406.3c-1.6,0-3-0.5-4.2-1.4c-1.2-0.9-2.1-2.3-2.8-4.1s-1-3.9-1-6.3
	c0-3.7,0.7-6.6,2.2-8.6s3.5-3.1,6.1-3.1c1.3,0,2.4,0.3,3.3,0.8c1,0.5,1.8,1.4,2.6,2.6h0.2c-0.3-1.8-0.4-3.5-0.4-5.3v-6.1h7.9v31.1
	h-5.9l-1.7-2.9h-0.3C689.9,405.2,687.9,406.3,685.3,406.3z M688.5,400.1c1.3,0,2.1-0.4,2.6-1.2s0.8-2,0.8-3.6v-0.6
	c0-2-0.3-3.4-0.9-4.3c-0.6-0.8-1.5-1.3-2.7-1.3c-1,0-1.8,0.5-2.4,1.4s-0.8,2.3-0.8,4.1c0,1.8,0.3,3.1,0.9,4S687.4,400.1,688.5,400.1
	z M83.1,282.4h-7.8v-29.2h17.3v6.3h-9.5v5.6h8.8v6.3h-8.8V282.4z M110.6,259.4c0.7,0,1.3,0.1,1.9,0.2l0.4,0.1l-0.7,7.4
	c-0.6-0.2-1.5-0.2-2.7-0.2c-1.7,0-2.9,0.4-3.7,1.2s-1.2,1.9-1.2,3.4v11.1h-7.8v-22.6h5.8l1.2,3.6h0.4c0.7-1.2,1.6-2.2,2.7-2.9
	C108.2,259.7,109.4,259.4,110.6,259.4z M137.7,271.1c0,3.7-1,6.6-3,8.7c-2,2.1-4.8,3.1-8.4,3.1c-3.4,0-6.2-1.1-8.2-3.2
	c-2-2.1-3-5-3-8.6c0-3.7,1-6.6,3-8.6c2-2,4.8-3.1,8.4-3.1c2.2,0,4.2,0.5,5.9,1.4c1.7,0.9,3,2.3,3.9,4.1
	C137.3,266.6,137.7,268.7,137.7,271.1z M123.1,271.1c0,1.9,0.3,3.4,0.8,4.4c0.5,1,1.4,1.5,2.6,1.5c1.2,0,2.1-0.5,2.6-1.5
	c0.5-1,0.7-2.5,0.7-4.4c0-1.9-0.3-3.4-0.8-4.4c-0.5-1-1.4-1.5-2.6-1.5c-1.2,0-2.1,0.5-2.6,1.5C123.3,267.6,123.1,269.1,123.1,271.1z
	 M156.5,282.4v-12.4c0-1.5-0.2-2.6-0.6-3.4s-1.1-1.1-2.1-1.1c-1.3,0-2.3,0.5-2.9,1.6c-0.6,1.1-0.9,2.9-0.9,5.4v9.9h-7.8v-22.6h5.9
	l1,2.8h0.5c0.7-1.1,1.6-1.9,2.8-2.4c1.2-0.5,2.5-0.8,4.1-0.8c2.5,0,4.5,0.7,5.8,2.2c1.4,1.5,2.1,3.5,2.1,6.1v14.7H156.5z
	 M180.7,276.6c1.1,0,2.3-0.3,3.8-0.8v5.7c-1.1,0.5-2.1,0.8-3,1c-1,0.2-2.1,0.3-3.3,0.3c-2.6,0-4.5-0.6-5.7-1.9s-1.7-3.3-1.7-5.9
	v-9.3H168v-3.2l3.5-2.5l2-4.8h5.1v4.5h5.6v5.9h-5.6v8.8C178.6,275.9,179.3,276.6,180.7,276.6z M210,282.8c-3.8,0-6.7-1-8.8-3
	c-2.1-2-3.1-4.9-3.1-8.6c0-3.8,1-6.8,2.9-8.8c1.9-2,4.7-3.1,8.3-3.1c3.4,0,6,0.9,7.9,2.7s2.8,4.3,2.8,7.7v3.5h-14
	c0.1,1.3,0.5,2.3,1.4,3c0.9,0.7,2.1,1.1,3.6,1.1c1.4,0,2.6-0.1,3.8-0.4c1.2-0.3,2.4-0.7,3.7-1.3v5.6c-1.2,0.6-2.5,1.1-3.8,1.3
	C213.4,282.7,211.8,282.8,210,282.8z M209.5,264.7c-0.9,0-1.7,0.3-2.3,0.9c-0.6,0.6-1,1.5-1.1,2.7h6.7c0-1.1-0.3-2-0.9-2.6
	S210.5,264.7,209.5,264.7z M238.6,282.4v-12.4c0-1.5-0.2-2.6-0.6-3.4c-0.4-0.8-1.1-1.1-2.1-1.1c-1.3,0-2.3,0.5-2.9,1.6
	c-0.6,1.1-0.9,2.9-0.9,5.4v9.9h-7.8v-22.6h5.9l1,2.8h0.5c0.7-1.1,1.6-1.9,2.8-2.4s2.5-0.8,4.1-0.8c2.5,0,4.5,0.7,5.8,2.2
	c1.4,1.5,2.1,3.5,2.1,6.1v14.7H238.6z M258.8,282.8c-1.6,0-3-0.5-4.2-1.4s-2.1-2.3-2.8-4.1s-1-3.9-1-6.3c0-3.7,0.7-6.6,2.2-8.6
	s3.5-3.1,6.1-3.1c1.3,0,2.4,0.3,3.3,0.8c1,0.5,1.8,1.4,2.6,2.6h0.2c-0.3-1.8-0.4-3.5-0.4-5.3v-6.1h7.9v31.1h-5.9l-1.7-2.9h-0.3
	C263.5,281.7,261.5,282.8,258.8,282.8z M262,276.6c1.3,0,2.1-0.4,2.6-1.2s0.8-2,0.8-3.6v-0.6c0-2-0.3-3.4-0.9-4.3s-1.5-1.3-2.7-1.3
	c-1,0-1.8,0.5-2.4,1.4s-0.8,2.3-0.8,4.1c0,1.8,0.3,3.1,0.9,4S260.9,276.6,262,276.6z M636.9,332.2v21.5h19.4c2.3,0,4.1,1.8,4.1,4.1
	c0,2.2-1.8,4.1-4.1,4.1H555.1c-2.3,0-4.1-1.8-4.1-4.1c0-2.3,1.9-4.1,4.1-4.1h18.4v-21.5h-83c-3.9,0-7-3.1-7-7V169.3c0-3.9,3.1-7,7-7
	H721c3.9,0,7,3.1,7,7v155.8c0,3.9-3.1,7-7,7H636.9z M205.1,208.8v21.5h19.4c2.3,0,4.1,1.8,4.1,4.1c0,2.2-1.8,4.1-4.1,4.1H123.3
	c-2.3,0-4.1-1.8-4.1-4.1c0-2.3,1.9-4.1,4.1-4.1h18.4v-21.5h-83c-3.9,0-7-3.1-7-7V45.9c0-3.9,3.1-7,7-7h230.5c3.9,0,7,3.1,7,7v155.8
	c0,3.9-3.1,7-7,7H205.1z"/>
<path id="Rectangle" class="st9" d="M496.2,169.5h220c2,0,3.6,1.6,3.6,3.6V300c0,2-1.6,3.6-3.6,3.6h-220c-2,0-3.6-1.6-3.6-3.6V173.1
	C492.7,171.1,494.3,169.5,496.2,169.5z"/>
<path class="st10" d="M64.4,46.1h220c2,0,3.6,1.6,3.6,3.6v126.9c0,2-1.6,3.6-3.6,3.6h-220c-2,0-3.6-1.6-3.6-3.6V49.6
	C60.9,47.7,62.5,46.1,64.4,46.1z"/>
<rect x="68" y="53.2" class="st6" width="211.8" height="126.9"/>
<rect x="75.2" y="62.4" class="st11" width="146.3" height="52.2"/>
<polygon class="st7" points="77.2,86 80.8,90.4 93,83.8 100,92.1 108.5,85.5 116.4,81.9 140.7,87.1 146.3,81.9 161.6,86 175.7,93.8 
	185.8,87.1 195.8,97.1 203.2,95.6 212,100.4 219.5,86 219.5,112.6 77.2,112.6 "/>
<rect x="75.2" y="126.9" class="st2" width="43" height="46"/>
<rect x="128.4" y="126.9" class="st5" width="43" height="46"/>
<rect x="177.5" y="126.9" class="st7" width="43" height="46"/>
<rect x="227.7" y="126.9" class="st3" width="43" height="46"/>
<path class="st6" d="M77.2,98.2l12.6,2.6L108.3,87l3.7,4.6l18.9-10.7l12.6,10.7l6.5-4.6l3.9,6.1l9.7-7.7L180,99.3l8.7-6.1
	c3.4,3.5,5.7,5.5,7,6.1c1.3,0.6,2.2,0.1,2.8-1.5l5.6,6.1l4.3-3l5.9,4.6l5.3,4.6v2.6H77.2V98.2z M80.3,133h32.7v5.5H80.3V133z
	 M80.3,141.8h32.7v3.3H80.3V141.8z M80.3,148.3h32.7v3.3H80.3V148.3z M80.3,154.9h32.7v3.3H80.3V154.9z M80.3,161.5h32.7v3.3H80.3
	V161.5z M133.5,133h32.7v5.5h-32.7V133z M133.5,141.8h32.7v3.3h-32.7V141.8z M133.5,148.3h32.7v3.3h-32.7V148.3z M133.5,154.9h32.7
	v3.3h-32.7V154.9z M133.5,161.5h32.7v3.3h-32.7V161.5z M182.6,133h32.7v5.5h-32.7V133z M182.6,141.8h32.7v3.3h-32.7V141.8z
	 M182.6,148.3h32.7v3.3h-32.7V148.3z M182.6,154.9h32.7v3.3h-32.7V154.9z M182.6,161.5h32.7v3.3h-32.7V161.5z M232.8,133h32.7v5.5
	h-32.7V133z M232.8,141.8h32.7v3.3h-32.7V141.8z M232.8,148.3h32.7v3.3h-32.7V148.3z M232.8,154.9h32.7v3.3h-32.7V154.9z
	 M232.8,161.5h32.7v3.3h-32.7V161.5z"/>
<path class="st12" d="M228.7,62.4h42v5.5h-42V62.4z M228.7,71.2h42v3.3h-42V71.2z M228.7,77.7h42V81h-42V77.7z M228.7,84.3h42v3.3
	h-42V84.3z M228.7,90.9h42v3.3h-42V90.9z M228.7,97.4h42v3.3h-42V97.4z M228.7,104h42v3.3h-42V104z M228.7,110.6h42v3.3h-42V110.6z
	 M228.7,117.1h42v3.3h-42V117.1z"/>
<rect x="492.7" y="171.5" class="st11" width="227.1" height="20.5"/>
<rect x="526.4" y="218.6" class="st3" width="49.1" height="6.1"/>
<rect x="553" y="290.2" class="st3" width="35.8" height="6.1"/>
<path class="st2" d="M582.7,218.6h32.7v6.1h-32.7V218.6z M620.6,278h49.1v6.1h-49.1V278z"/>
<path class="st0" d="M621.6,218.6h40.9v6.1h-40.9V218.6z M656.4,232.9h40.9v6.1h-40.9V232.9z"/>
<rect x="669.7" y="218.6" class="st7" width="40.9" height="6.1"/>
<path class="st4" d="M584.2,200.2l10.8,6.7l-10.8,6.7l-2.5-1.6l8.3-5.1l-8.3-5.1L584.2,200.2z M543.3,241.1l10.8,6.7l-10.8,6.7
	l-2.5-1.6l8.3-5.1l-8.3-5.1L543.3,241.1z M539.7,239.1l-7.7,19.4h-3.6l7.7-19.4H539.7z M518.2,194.1h3.1v111.5h-3.1V194.1z
	 M542.3,200.2l-10.8,6.7l10.8,6.7l2.5-1.6l-8.3-5.1l8.3-5.1L542.3,200.2z M595,232.9h54.2v6.1H595V232.9z M548.9,203.3h26.6v9.2
	h-26.6V203.3z M493.7,198.2h18.4v6.1h-18.4V198.2z M500.9,218.6h12.3v6.1h-12.3V218.6z M500.9,228.8h12.3v6.1h-12.3V228.8z
	 M500.9,239.1h12.3v6.1h-12.3V239.1z M500.9,278h12.3v6.1h-12.3V278z M500.9,288.2h12.3v6.1h-12.3V288.2z M500.9,298.4h12.3v6.1
	h-12.3V298.4z M493.7,259.5h18.4v6.1h-18.4V259.5z M658.4,256.5h54.2v6.1h-54.2V256.5z"/>
<path class="st5" d="M597,256.5h54.2v6.1H597V256.5z M554.1,278h58.3v6.1h-58.3V278z"/>
<path class="st11" d="M554.1,232.9h32.7v6.1h-32.7V232.9z M554.1,256.5h32.7v6.1h-32.7V256.5z M554.1,266.7h32.7v6.1h-32.7V266.7z"
	/>
<ellipse class="st5" cx="507" cy="181.3" rx="6.1" ry="5.6"/>
<ellipse class="st3" cx="524.4" cy="181.3" rx="6.1" ry="5.6"/>
<ellipse class="st2" cx="543.8" cy="181.3" rx="6.1" ry="5.6"/>
<path class="st6" d="M495.5,54.1c0-4.6,0-7.5,0-8.5c0-1.6,1.4-4.3,4.8-5.1c5.4-1.3,6.4-1.2,11.9-1.2c3.5,0,7.9,0.2,11.1,1.2
	s5.6,2.5,5.6,5.1c0,1.7,0,8.2,0,19.4c-0.1,1.9-0.7,3.6-1.9,5c-1.2,1.4-3,2.1-5.3,2.1c-9.3,0-15.4,0-18.3,0c-2.9,0-4.8-0.1-7.7,3.2
	c-1.9,2.2-2.9,5-2.9,8.2v5.7h-8.1c-2.3-1.1-3.8-2.3-4.5-3.8c-0.7-1.5-1.3-3.6-1.9-6.3c-0.4-3.5-0.4-6.9,0-10.2
	c0.5-4.9,1.9-9.1,4.7-10.7c2.7-1.6,3.6-1.7,7.8-1.8c7-0.3,14.2-0.3,21.6,0v-2.4H495.5z M502.6,50.3c1.8,0,3.3-1.5,3.3-3.3
	s-1.5-3.3-3.3-3.3s-3.3,1.5-3.3,3.3S500.8,50.3,502.6,50.3z M529.1,92.4c0,4.6,0,7.5,0,8.5c0,1.6-1.4,4.3-4.8,5.1
	c-5.4,1.3-6.4,1.2-11.9,1.2c-3.5,0-7.9-0.2-11.1-1.2c-3.2-1-5.6-2.5-5.6-5.1c0-1.7,0-8.2,0-19.4c0.1-1.9,0.7-3.6,1.9-5
	c1.2-1.4,3-2.1,5.3-2.1c9.3,0,15.4,0,18.3,0c2.9,0,4.8,0.1,7.7-3.2c1.9-2.2,2.9-5,2.9-8.2v-5.7h8.1c2.3,1.1,3.8,2.3,4.5,3.8
	c0.7,1.5,1.3,3.6,1.9,6.3c0.4,3.5,0.4,6.9,0,10.2c-0.5,4.9-1.9,9.1-4.7,10.7s-3.6,1.7-7.8,1.8c-7,0.3-14.2,0.3-21.6,0v2.4H529.1z
	 M522,96.2c-1.8,0-3.3,1.5-3.3,3.3s1.5,3.3,3.3,3.3c1.8,0,3.3-1.5,3.3-3.3S523.9,96.2,522,96.2z"/>
<path class="st13" d="M336,67h52v9h-52V67z M347,81h52v9h-52V81z M336,94h52v9h-52V94z M411,353h52v9h-52V353z M422,364h52v9h-52
	V364z M411,377h52v9h-52V377z"/>
<path class="st8" d="M16,236c0,3.2-2,6.2-4.9,7.4s-6.4,0.5-8.7-1.7s-3-5.7-1.7-8.7c1.2-3,4.2-4.9,7.4-4.9c2.1,0,4.1,0.8,5.6,2.3
	S16,233.9,16,236z M236,356c0,3.2-2,6.2-4.9,7.4c-3,1.2-6.4,0.5-8.7-1.7c-2.3-2.3-3-5.7-1.7-8.7c1.2-3,4.2-4.9,7.4-4.9
	c2.1,0,4.1,0.8,5.6,2.3S236,353.9,236,356z M354,180c-5.5,0-10-4.5-10-10s4.5-10,10-10s10,4.5,10,10S359.5,180,354,180z M715,127
	c-5.5,0-10-4.5-10-10s4.5-10,10-10s10,4.5,10,10S720.5,127,715,127z M611,36c-5.5,0-10-4.5-10-10s4.5-10,10-10s10,4.5,10,10
	S616.5,36,611,36z"/>
<path class="st13" d="M158.1,14.6c-2.2-1.5-2.7-4.4-1.3-6.5s4.4-2.7,6.5-1.3s2.7,4.4,1.3,6.5S160.2,16.1,158.1,14.6z M572.2,131.9
	c-1.5,2.2-4.4,2.7-6.5,1.3c-2.2-1.5-2.7-4.4-1.3-6.5c1.5-2.2,4.4-2.7,6.5-1.3c1,0.7,1.7,1.8,2,3
	C573.2,129.6,572.9,130.9,572.2,131.9z"/>
<path class="st8" d="M14.2,163.1H8.9c-2.2,0-3.9-1.5-3.9-3.5c0-1.9,1.8-3.4,3.9-3.4h5.3v-5.3c0-2.2,1.5-3.9,3.4-3.9
	c1.9,0,3.4,1.8,3.4,3.9v5.3h3c2.2,0,3.9,1.5,3.9,3.4c0,1.9-1.8,3.5-3.9,3.5h-3v3.1c0,1.1-0.4,2.1-1.1,2.8c-0.7,0.7-1.6,1.1-2.5,1
	c-1.8,0-3.3-1.7-3.3-3.8V163.1z M395.2,13.8h-5.3c-2.2,0-3.9-1.5-3.9-3.4s1.8-3.5,3.9-3.5h5.3v-3c0-2.2,1.5-3.9,3.4-3.9
	c1.9,0,3.4,1.8,3.4,3.9v3h3c2.2,0,3.9,1.5,3.9,3.5s-1.8,3.4-3.9,3.4h-3v5.4c0,1.1-0.4,2.1-1.1,2.8s-1.6,1.1-2.5,1
	c-1.8,0-3.3-1.7-3.3-3.8V13.8z M464.4,283.9l-1.4,5.3c-0.5,1.7-2,2.8-3.6,2.8c-0.3,0.1-0.7,0.1-1,0c-1-0.3-1.8-0.9-2.3-1.9
	c-0.5-0.9-0.6-2.1-0.3-3.1l1.3-5.1l-3.2-0.9c-2.1-0.6-3.4-2.7-2.8-4.7c0.6-2,2.8-3.2,5-2.6l3,0.8l0.7-2.6c0.6-2.1,2.6-3.4,4.6-2.8
	c2,0.6,3.1,2.8,2.6,5l-0.6,2.4l4.7,1.3c1,0.2,1.9,0.9,2.4,1.8s0.6,1.9,0.3,2.9c-0.5,1.6-2.1,2.6-3.8,2.6c-0.4,0.1-0.7,0.1-1.1,0
	L464.4,283.9z M360.5,316.5l-1.2,4.7c-0.5,1.7-2,2.8-3.6,2.8c-0.3,0.1-0.7,0.1-1,0c-1-0.3-1.8-0.9-2.3-1.9s-0.6-2.1-0.3-3.1l1.2-4.5
	l-5.4-1.5c-2.1-0.6-3.3-2.7-2.7-4.7c0.6-2,2.8-3.2,4.9-2.6l5.2,1.4l0.9-3.2c0.6-2.1,2.6-3.4,4.6-2.8s3.1,2.8,2.6,5l-0.8,3l2.3,0.6
	c2.1,0.3,3.5,2.1,3.3,4.1c-0.3,2-2.2,3.4-4.3,3.1c-0.4,0-0.7,0-1.1,0L360.5,316.5z"/>
</svg>
