<?xml version="1.0" encoding="utf-8"?>
<!-- Generator: Adobe Illustrator 23.0.2, SVG Export Plug-In . SVG Version: 6.00 Build 0)  -->
<svg version="1.1" id="Layer_1" xmlns="http://www.w3.org/2000/svg" xmlns:xlink="http://www.w3.org/1999/xlink" x="0px" y="0px"
	 viewBox="0 0 594 451" style="enable-background:new 0 0 594 451;" xml:space="preserve">
<style type="text/css">
	.st0{fill:#EBF5FF;}
	.st1{fill:#2C96F2;}
	.st2{fill:#0A0068;}
	.st3{fill-rule:evenodd;clip-rule:evenodd;fill:#0A0068;}
	.st4{fill-rule:evenodd;clip-rule:evenodd;fill:#FFFFFF;}
	.st5{fill-rule:evenodd;clip-rule:evenodd;fill:#A8D2FF;}
	.st6{fill:#FCCF48;}
	.st7{fill-rule:evenodd;clip-rule:evenodd;fill:#FA8B55;}
	.st8{fill:#FA8B55;}
	.st9{fill-rule:evenodd;clip-rule:evenodd;fill:#37DA96;}
	.st10{fill:#F8427B;}
	.st11{fill:#FFFFFF;}
</style>
<path id="Combined-Shape" class="st0" d="M387.5,405.5c2.5,9,11.7,14.3,20.7,12l20.9-5.6c9-2.4,14.4-11.7,12-20.7l-3.4-12.8
	c-0.8-4.1,1-8.3,4.4-10.7c3.1-2.1,6.1-4.5,9-7c3.1-2.8,7.6-3.4,11.4-1.6l11.6,6.7c3.9,2.3,8.5,2.9,12.8,1.7c4.3-1.2,8-4,10.3-7.9
	l10.9-18.7c4.6-8.1,1.8-18.5-6.2-23.3l-11.5-6.6c-2.1-1.4-3.6-3.5-4.2-5.9c-0.4-1.6-0.5-3.2-0.2-4.7c0.7-3.7,1.3-7.5,1.5-11.3
	c0.3-4.2,3-7.9,7-9.3l13.1-3.5c9-2.4,14.4-11.7,11.9-20.7l-5.6-20.9c-2.4-9-11.7-14.4-20.7-12l-13.1,3.5c-4.1,0.8-8.3-1-10.7-4.5
	c-2.2-3.1-4.5-6.1-7-9c-1-1.2-1.8-2.7-2.2-4.2c-0.7-2.4-0.4-4.9,0.7-7.2l6.7-11.6c2.2-3.9,2.8-8.5,1.7-12.9c-1.1-4.4-4-8.1-7.9-10.3
	l-18.8-10.9c-3.9-2.3-8.5-2.9-12.8-1.7c-4.3,1.2-8,4-10.3,7.9l-6.7,11.5c-2.3,3.5-6.5,5.3-10.6,4.6c-3.7-0.7-7.5-1.2-11.3-1.4
	c-4.2-0.3-7.8-3.1-9.2-7l-3.5-12.9c-2.5-9-11.8-14.4-20.8-11.9l-20.9,5.6c-9,2.4-14.3,11.5-12.1,20.5l3.5,12.9
	c0.8,4.1-1,8.3-4.4,10.7c-3.2,2.1-6.2,4.4-9,6.9c-3.2,2.8-7.7,3.4-11.4,1.5l-11.4-6.6c-8.1-4.6-18.4-1.9-23.1,6.2l-10.8,18.8
	c-2.3,3.9-2.9,8.5-1.7,12.9c1.2,4.3,4,8,7.9,10.3l11.6,6.7c3.4,2.4,5,6.5,4.3,10.6c-0.7,3.7-1.2,7.5-1.4,11.3c-0.3,4.2-3,7.9-7,9.3
	l-12.8,3.4c-9,2.4-14.4,11.7-12,20.7l5.6,20.9c2.5,9,11.8,14.4,20.8,11.9l12.7-3.4c4.1-0.8,8.3,1,10.7,4.5c2.1,3.1,4.5,6.2,6.9,9
	c2.8,3.1,3.4,7.6,1.6,11.4l-6.7,11.5c-4.6,8.1-1.8,18.5,6.2,23.3l18.7,10.8c3.9,2.3,8.5,2.9,12.8,1.7c4.3-1.2,8-4,10.3-7.9l6.7-11.6
	c2.4-3.5,6.7-5.2,10.8-4.3c3.7,0.7,7.5,1.3,11.3,1.5c4.2,0.3,7.8,3.1,9.2,7L387.5,405.5z M395.7,328.9c-26.5,7-53.6-8.7-60.7-35.2
	c-5.2-19.4,1.8-40.1,17.7-52.3c15.9-12.2,37.7-13.6,55.1-3.5c17.4,10.1,27,29.7,24.4,49.6C429.5,307.4,415.1,323.8,395.7,328.9z
	 M231.2,192.8c1.6,4.6,6.4,7.1,11,5.9l11.3-3c4.9-1.3,7.8-6.3,6.5-11.2l-1.8-6.9c-0.4-2.2,0.5-4.4,2.4-5.7c1.6-1.2,3.3-2.5,4.8-3.8
	c1.7-1.4,4.1-1.8,6.1-0.8l6.2,3.6c4.4,2.5,9.9,1,12.5-3.3l5.7-9.9c1.2-2.1,1.5-4.5,0.9-6.9c-0.6-2.4-2.2-4.4-4.3-5.6l-6.2-3.6
	c-1.1-0.7-1.9-1.9-2.3-3.2c-0.2-0.8-0.2-1.7-0.1-2.6c0.4-2,0.7-4,0.9-6.1c0.2-2.2,1.7-4.2,3.8-4.9l6.8-1.8c4.8-1.3,7.7-6.4,6.4-11.2
	l-2.9-10.9c-1.4-4.8-6.4-7.6-11.2-6.3l-6.8,1.8c-2.2,0.3-4.5-0.6-5.7-2.5c-1.2-1.6-2.5-3.3-3.8-4.8c-0.5-0.7-1-1.4-1.2-2.3
	c-0.5-1.3-0.4-2.7,0.2-4l3.6-6.2c1.2-2.1,1.5-4.6,0.9-6.9c-0.6-2.3-2.1-4.3-4.2-5.6l-9.9-5.7c-4.4-2.5-9.9-1-12.5,3.3l-3.6,6.2
	c-1.2,1.9-3.5,2.8-5.7,2.4c-2-0.4-4-0.6-6-0.8c-2.2-0.2-4.1-1.7-4.9-3.8l-1.9-6.9c-1.4-4.9-6.4-7.7-11.2-6.4l-11.2,3
	c-4.8,1.3-7.7,6.3-6.4,11.2l1.9,6.9c0.3,2.2-0.6,4.4-2.4,5.7c-1.7,1.1-3.4,2.4-4.9,3.7c-1.7,1.5-4.1,1.8-6.1,0.8l-6.2-3.6
	c-2.1-1.2-4.6-1.6-6.9-0.9s-4.3,2.2-5.5,4.3l-5.7,9.9c-1.2,2.1-1.6,4.6-0.9,6.9c0.6,2.4,2.1,4.4,4.2,5.6l6.2,3.6
	c1.1,0.7,1.9,1.9,2.2,3.2c0.2,0.8,0.2,1.7,0.1,2.6c-0.4,2-0.6,4.1-0.8,6.1c-0.2,2.3-1.6,4.2-3.7,5l-6.8,1.8
	c-4.9,1.3-7.8,6.3-6.5,11.2l2.9,10.9c0.5,2.5,2.1,4.7,4.2,6c2.2,1.3,4.8,1.7,7.3,1l6.8-1.8c2.2-0.4,4.4,0.6,5.7,2.4
	c1.2,1.7,2.4,3.3,3.7,4.9c0.6,0.6,1,1.4,1.2,2.3c0.4,1.3,0.3,2.7-0.3,3.8l-3.6,6.2c-1.2,2.1-1.5,4.6-0.9,7c0.6,2.3,2.1,4.3,4.2,5.5
	l9.9,5.7c2.1,1.2,4.6,1.6,6.9,0.9c2.3-0.6,4.3-2.2,5.5-4.3l3.6-6.2c1.3-1.8,3.5-2.7,5.7-2.4c2,0.4,4.1,0.7,6.1,0.8
	c2.2,0.3,4.1,1.8,4.9,3.9L231.2,192.8z M235.5,151.6c-14.2,3.8-28.8-4.7-32.7-19c-2.8-10.5,0.9-21.6,9.5-28.2
	c8.6-6.6,20.3-7.3,29.6-1.9c9.4,5.5,14.5,16,13.1,26.8S246,148.8,235.5,151.6z"/>
<path class="st1" d="M449,71v15h15c0-4-1.6-7.8-4.4-10.6C456.8,72.6,453,71,449,71z M167,253v15h15c0-4-1.6-7.8-4.4-10.6
	C174.8,254.6,171,253,167,253z"/>
<path class="st2" d="M449,88c0,0,4.7,7.9,7.4,13c4.7-2.7,7.5-7.6,7.6-13H449z M167,270c0,0,4.7,7.9,7.4,13c4.7-2.7,7.5-7.6,7.6-13
	H167z"/>
<path class="st3" d="M239,76h3v11h-3v25c0,3.3-2.7,6-6,6h-90c-3.3,0-6-2.7-6-6V50c0-3.3,2.7-6,6-6h90c3.3,0,6,2.7,6,6V76z"/>
<path class="st4" d="M146,51h79v61h-79V51z M232,86c-2.2,0-4-1.8-4-4s1.8-4,4-4s4,1.8,4,4S234.2,86,232,86z"/>
<path class="st3" d="M264,179h-3v-11h3v-11c0-2.8,2.2-5,5-5h145c2.8,0,5,2.2,5,5v99c0,2.8-2.2,5-5,5h-52v9h8c1.7,0,3,1.3,3,3
	s-1.3,3-3,3h-54c-1.7,0-3-1.3-3-3s1.3-3,3-3h7v-9h-54c-2.8,0-5-2.2-5-5V179z"/>
<path class="st4" d="M275,161h134c1.7,0,3,1.3,3,3v82c0,1.7-1.3,3-3,3H275c-1.7,0-3-1.3-3-3v-82C272,162.3,273.3,161,275,161z"/>
<path class="st5" d="M149,97h72v7h-72V97z M282,235h90v6h-90V235z M376,235h27v6h-27V235z"/>
<path class="st6" d="M69,208h52v9H69V208z M80,222h52v9H80V222z M69,235h52v9H69V235z M531,164h52v9h-52V164z M542,175h52v9h-52V175
	z M531,188h52v9h-52V188z M221.1,208.6c-2.2-1.5-2.7-4.4-1.3-6.5s4.4-2.7,6.5-1.3c2.2,1.5,2.7,4.4,1.3,6.5
	C226.1,209.5,223.2,210.1,221.1,208.6z M555.2,325.9c-1.5,2.2-4.4,2.7-6.5,1.3c-2.2-1.5-2.7-4.4-1.3-6.5c1.5-2.2,4.4-2.7,6.5-1.3
	c1,0.7,1.7,1.8,2,3C556.2,323.6,555.9,324.9,555.2,325.9z"/>
<path class="st2" d="M281.6,295.7c1.6-1.6,2.4-3.5,2.4-5.7s-0.8-4.1-2.3-5.7s-3.4-2.3-5.7-2.3s-4.1,0.8-5.7,2.3s-2.3,3.4-2.3,5.7
	s0.8,4.1,2.3,5.7s3.4,2.3,5.7,2.3S280.1,297.2,281.6,295.7z M293,304.7c0,0.6-0.2,1.2-0.7,1.6s-1,0.7-1.6,0.7
	c-0.6,0-1.2-0.2-1.6-0.7l-6.2-6.2c-2.2,1.5-4.5,2.2-7.2,2.2c-1.7,0-3.4-0.3-4.9-1c-1.6-0.7-2.9-1.6-4.1-2.7s-2-2.5-2.7-4.1
	c-0.7-1.6-1-3.2-1-4.9c0-1.7,0.3-3.4,1-4.9c0.7-1.6,1.6-2.9,2.7-4.1s2.5-2,4.1-2.7c1.6-0.7,3.2-1,4.9-1c1.7,0,3.4,0.3,4.9,1
	c1.6,0.7,2.9,1.6,4.1,2.7s2,2.5,2.7,4.1c0.7,1.6,1,3.2,1,4.9c0,2.6-0.7,5-2.2,7.2l6.2,6.2C292.8,303.5,293,304.1,293,304.7z"/>
<path class="st3" d="M184,300v-3h18v3h21c3.9,0,7,3.1,7,7v87c0,3.9-3.1,7-7,7h-61c-3.9,0-7-3.1-7-7v-87c0-3.9,3.1-7,7-7H184z"/>
<path class="st4" d="M162,308h62v78h-62V308z M193,398c-2.2,0-4-1.8-4-4s1.8-4,4-4s4,1.8,4,4S195.2,398,193,398z"/>
<path class="st3" d="M400,347h-4v-13h4v-31c0-2.8,2.2-5,5-5h117c2.8,0,5,2.2,5,5v80c0,2.8-2.2,5-5,5H405c-2.8,0-5-2.2-5-5V347z
	 M391,390h145c1.7,0,3,1.3,3,3v3c0,1.7-1.3,3-3,3H391c-1.7,0-3-1.3-3-3v-3C388,391.3,389.3,390,391,390z"/>
<path class="st4" d="M409,304h109c1.7,0,3,1.3,3,3v72c0,1.7-1.3,3-3,3H409c-1.7,0-3-1.3-3-3v-72C406,305.3,407.3,304,409,304z"/>
<path class="st2" d="M572,263.5c0,2.6,1.6,5,4,6c2.4,1,5.2,0.4,7.1-1.4c1.9-1.9,2.4-4.7,1.4-7.1c-1-2.4-3.4-4-6-4
	c-1.7,0-3.4,0.7-4.6,1.9C572.7,260.1,572,261.8,572,263.5z M238,160c4.4,0,8-3.6,8-8s-3.6-8-8-8s-8,3.6-8,8S233.6,160,238,160z
	 M8,247c4.4,0,8-3.6,8-8s-3.6-8-8-8s-8,3.6-8,8S3.6,247,8,247z M52,50c4.4,0,8-3.6,8-8s-3.6-8-8-8s-8,3.6-8,8S47.6,50,52,50z
	 M87.2,163.1h-5.3c-2.2,0-3.9-1.5-3.9-3.5c0-1.9,1.8-3.4,3.9-3.4h5.3v-5.3c0-2.2,1.5-3.9,3.4-3.9s3.4,1.8,3.4,3.9v5.3h3
	c2.2,0,3.9,1.5,3.9,3.4c0,1.9-1.8,3.5-3.9,3.5h-3v3.1c0,1.1-0.4,2.1-1.1,2.8c-0.7,0.7-1.6,1.1-2.5,1c-1.8,0-3.3-1.7-3.3-3.8V163.1z
	 M468.2,13.8h-5.3c-2.2,0-3.9-1.5-3.9-3.4s1.8-3.5,3.9-3.5h5.3v-3c0-2.2,1.5-3.9,3.4-3.9c1.9,0,3.4,1.8,3.4,3.9v3h3
	c2.2,0,3.9,1.5,3.9,3.5s-1.8,3.4-3.9,3.4h-3v5.4c0,1.1-0.4,2.1-1.1,2.8s-1.6,1.1-2.5,1c-1.8,0-3.3-1.7-3.3-3.8V13.8z M568.4,410.9
	l-1.4,5.3c-0.5,1.7-2,2.8-3.6,2.8c-0.3,0.1-0.7,0.1-1,0c-1-0.3-1.8-0.9-2.3-1.9c-0.5-0.9-0.6-2.1-0.3-3.1l1.3-5.1l-3.2-0.9
	c-2.1-0.6-3.4-2.7-2.8-4.7c0.6-2,2.8-3.2,5-2.6l3,0.8l0.7-2.6c0.6-2.1,2.6-3.4,4.6-2.8s3.1,2.8,2.6,5l-0.6,2.4l4.7,1.3
	c1,0.2,1.9,0.9,2.4,1.8c0.5,0.9,0.6,1.9,0.3,2.9c-0.5,1.6-2.1,2.6-3.8,2.6c-0.4,0.1-0.7,0.1-1.1,0L568.4,410.9z M464.5,443.5
	l-1.2,4.7c-0.5,1.7-2,2.8-3.6,2.8c-0.3,0.1-0.7,0.1-1,0c-1-0.3-1.8-0.9-2.3-1.9s-0.6-2.1-0.3-3.1l1.2-4.5l-5.4-1.5
	c-2.1-0.6-3.3-2.7-2.7-4.7c0.6-2,2.8-3.2,4.9-2.6l5.2,1.4l0.9-3.2c0.6-2.1,2.6-3.4,4.6-2.8s3.1,2.8,2.6,5l-0.8,3l2.3,0.6
	c2.1,0.3,3.5,2.1,3.3,4.1c-0.3,2-2.2,3.4-4.3,3.1c-0.4,0-0.7,0-1.1,0L464.5,443.5z M149,71h22v2h-22V71z M149,74h22v2h-22V74z
	 M149,77h22v2h-22V77z M149,86h22v2h-22V86z M149,89h22v2h-22V89z M149,92h22v2h-22V92z M149,81h22v3h-22V81z M174,71h22v2h-22V71z
	 M174,74h22v2h-22V74z M174,77h22v2h-22V77z M174,86h22v2h-22V86z M174,89h22v2h-22V89z M174,92h22v2h-22V92z M174,81h22v3h-22V81z
	 M199,71h22v2h-22V71z M199,74h22v2h-22V74z M199,77h22v2h-22V77z M199,86h22v2h-22V86z M199,89h22v2h-22V89z M199,92h22v2h-22V92z
	 M199,81h22v3h-22V81z M282,217h23v2h-23V217z M282,225h23v2h-23V225z M282,229h28v2h-28V229z M282,221h20v2h-20V221z M313,217h23v2
	h-23V217z M313,225h23v2h-23V225z M313,229h28v2h-28V229z M313,221h20v2h-20V221z M345,217h23v2h-23V217z M345,225h23v2h-23V225z
	 M345,229h28v2h-28V229z M345,221h20v2h-20V221z M195,325h25v2h-25V325z M195,329h25v2h-25V329z M195,339h25v2h-25V339z M195,343h25
	v2h-25V343z M195,333h25v4h-25V333z M166,348h25v2h-25V348z M166,352h25v2h-25V352z M166,362h25v2h-25V362z M166,366h25v2h-25V366z
	 M166,356h25v4h-25V356z M166,372h54v3h-54V372z M166,377h54v3h-54V377z M412,333h102v6H412V333z M412,342h32v2h-32V342z M412,347
	h32v2h-32V347z M412,358h32v2h-32V358z M412,362h32v2h-32V362z M412,351h32v4h-32V351z M447,342h32v2h-32V342z M447,347h32v2h-32
	V347z M447,358h32v2h-32V358z M447,362h32v2h-32V362z M447,351h32v4h-32V351z M482,342h32v2h-32V342z M482,347h32v2h-32V347z
	 M482,358h32v2h-32V358z M482,362h32v2h-32V362z M482,351h32v4h-32V351z"/>
<path class="st3" d="M488,49h35c2.2,0,4,1.8,4,4v67c0,2.2-1.8,4-4,4h-35c-2.2,0-4-1.8-4-4V53C484,50.8,485.8,49,488,49z"/>
<path class="st4" d="M488,57h35v52h-35V57z M500,113h12c1.1,0,2,0.9,2,2v1c0,1.1-0.9,2-2,2h-12c-1.1,0-2-0.9-2-2v-1
	C498,113.9,498.9,113,500,113z M499,52h14c0.6,0,1,0.4,1,1s-0.4,1-1,1h-14c-0.6,0-1-0.4-1-1S498.4,52,499,52z M517,52h1
	c0.6,0,1,0.4,1,1s-0.4,1-1,1h-1c-0.6,0-1-0.4-1-1S516.4,52,517,52z"/>
<path class="st7" d="M149,58h72v10h-72V58z M282,194h27v19h-27V194z M313,194h27v19h-27V194z M345,194h27v19h-27V194z M376,194h27
	v19h-27V194z M195,348h25v20h-25V348z M490,96h31v10h-31V96z"/>
<path class="st3" d="M369,49h40c1.7,0,3,1.3,3,3v54c0,1.7-1.3,3-3,3h-40c-1.7,0-3-1.3-3-3V52C366,50.3,367.3,49,369,49z"/>
<rect x="370" y="53" class="st4" width="38" height="53"/>
<path class="st8" d="M377.6,63.1c0.1,0.1,0.1,0.1,0.1,0.2c0,0.1,0,0.1-0.1,0.2l-2.4,2.4c-0.1,0.1-0.1,0.1-0.2,0.1
	c-0.1,0-0.1,0-0.2-0.1l-1.4-1.4c-0.1-0.1-0.1-0.1-0.1-0.2c0-0.1,0-0.1,0.1-0.2l0.4-0.4c0.1-0.1,0.1-0.1,0.2-0.1s0.1,0,0.2,0.1
	l0.8,0.8l1.8-1.8c0.1-0.1,0.1-0.1,0.2-0.1s0.1,0,0.2,0.1L377.6,63.1z M377.6,73.1c0.1,0.1,0.1,0.1,0.1,0.2c0,0.1,0,0.1-0.1,0.2
	l-2.4,2.4c-0.1,0.1-0.1,0.1-0.2,0.1c-0.1,0-0.1,0-0.2-0.1l-1.4-1.4c-0.1-0.1-0.1-0.1-0.1-0.2c0-0.1,0-0.1,0.1-0.2l0.4-0.4
	c0.1-0.1,0.1-0.1,0.2-0.1s0.1,0,0.2,0.1l0.8,0.8l1.8-1.8c0.1-0.1,0.1-0.1,0.2-0.1s0.1,0,0.2,0.1L377.6,73.1z M377.6,80.1
	c0.1,0.1,0.1,0.1,0.1,0.2s0,0.1-0.1,0.2l-2.4,2.4c-0.1,0.1-0.1,0.1-0.2,0.1c-0.1,0-0.1,0-0.2-0.1l-1.4-1.4c-0.1-0.1-0.1-0.1-0.1-0.2
	s0-0.1,0.1-0.2l0.4-0.4c0.1-0.1,0.1-0.1,0.2-0.1s0.1,0,0.2,0.1l0.8,0.8l1.8-1.8c0.1-0.1,0.1-0.1,0.2-0.1s0.1,0,0.2,0.1L377.6,80.1z
	 M377.6,89.1c0.1,0.1,0.1,0.1,0.1,0.2s0,0.1-0.1,0.2l-2.4,2.4c-0.1,0.1-0.1,0.1-0.2,0.1c-0.1,0-0.1,0-0.2-0.1l-1.4-1.4
	c-0.1-0.1-0.1-0.1-0.1-0.2s0-0.1,0.1-0.2l0.4-0.4c0.1-0.1,0.1-0.1,0.2-0.1s0.1,0,0.2,0.1l0.8,0.8l1.8-1.8c0.1-0.1,0.1-0.1,0.2-0.1
	s0.1,0,0.2,0.1L377.6,89.1z"/>
<path class="st9" d="M282,171h121v19H282V171z M166,325h25v20h-25V325z M166,314h54v8h-54V314z M412,319h102v11H412V319z M490,61h31
	v32h-31V61z M381,63h22v3h-22V63z M381,73h22v3h-22V73z M381,80h22v3h-22V80z M381,89h22v3h-22V89z M386,51v-4.7
	c0.8-0.8,1.7-1.3,2.5-1.3c0.8,0,1.7,0.4,2.5,1.2V51h6.9v6h-19v-6H386z M387,51h3.1v-4.1c-0.5-0.4-1-0.6-1.5-0.6s-1,0.2-1.5,0.6V51z"
	/>
<path class="st2" d="M333.5,94c0-4.1-3.5-7.6-10.7-10.5H242v-2h81.2l0.2,0.1c8,3.1,12.1,7.3,12.1,12.4v58h-2V94z M261,174.5h-58.9
	c-5.8,1.6-8.6,4.4-8.6,8.5v115h-2V183c0-5.2,3.5-8.7,10.2-10.5l0.1,0H261V174.5z M344,276v53.9c1.9,6.9,5.2,10.1,10,10.1h44v2h-44
	c-5.8,0-9.9-4-12-11.7l0-0.1V276H344z"/>
<path id="Path-37" class="st2" d="M419,204.5h5v-3h-5V204.5z M430,204.5h5v-3h-5V204.5z M441,204.5h5v-3h-5V204.5z M452,204.5h5v-3
	h-5V204.5z M463,204.5h5v-3h-5V204.5z M474,204.5h5v-3h-5V204.5z M485,204.5h5v-3h-5V204.5z M496,204.5h5v-3h-5V204.5z M507.5,202
	l0-5l-3,0l0,5L507.5,202z M507.4,191l0-5l-3,0l0,5L507.4,191z M507.4,180l0-5l-3,0l0,5L507.4,180z M507.3,169l0-5l-3,0l0,5
	L507.3,169z M507.2,158l0-5l-3,0l0,5L507.2,158z M507.1,147l0-5l-3,0l0,5L507.1,147z M507.1,136l0-5l-3,0l0,5L507.1,136z M507,125
	l0-1l-3,0l0,1L507,125z"/>
<path class="st10" d="M446.7,73c-8.1,0-14.7,6.7-14.7,15s6.6,15,14.7,15c2.6,0,5.1-0.7,7.3-2c-2.7-5.1-7.3-13-7.3-13V73z M164.7,255
	c-8.1,0-14.7,6.7-14.7,15s6.6,15,14.7,15c2.6,0,5.1-0.7,7.3-2c-2.7-5.1-7.3-13-7.3-13V255z M157,173c-12.2,0-22-7.4-22-16.5
	s9.8-16.5,22-16.5s22,7.4,22,16.5c0,3.6-2.8,8-8.5,13.4c-0.4,1.7-0.2,3.2,0.3,4.3s2,2.6,4.3,4.6c-3.4-0.4-5.9-1-7.5-1.7
	s-3.7-2.2-6.4-4.4C159.4,172.9,158,173,157,173z M265,63h12v-9h7v14h-3.3c-0.1,0.4,0,0.8,0.2,1.2s0.6,1,1.1,1.7
	c-0.9-0.3-1.6-0.6-2.1-1s-1.1-1-1.8-2H265V63z M256,47h19v14h-13.2c-0.7,1-1.3,1.6-1.8,2s-1.2,0.7-2.1,1c0.6-0.7,0.9-1.3,1.1-1.7
	s0.3-0.9,0.2-1.2H256V47z M297,120h-8.5v0c-0.2,0-0.3,0-0.5,0c-4.4,0-8-3.6-8-8c0-4.4,3.6-8,8-8c-0.6-0.8-1-1.9-1-3c0-2.8,2.2-5,5-5
	c1.6,0,3.1,0.8,4,2h1.1c0.7-4.5,4.6-8,9.4-8c5.2,0,9.5,4.3,9.5,9.5c0,1.1-0.2,2.1-0.5,3v0.5c4.2,0.5,7.5,4.1,7.5,8.4
	s-3.3,7.9-7.5,8.4v0.1h-9.3l-4.6,4.6L297,120z M297,131h9.2l-4.6,4.6L297,131z M297,143h9.2l-4.6,4.6L297,143z M472,242.4
	c0-0.3,0-0.6,0-0.9c0-9.7,7.8-17.5,17.5-17.5c7.7,0,14.3,5,16.6,11.9c1.6-1.8,3.9-2.9,6.4-2.9c4.7,0,8.5,3.8,8.5,8.5
	c0,0.9-0.1,1.7-0.4,2.5c7.4,0.1,13.4,6.1,13.4,13.5c0,7.3-5.8,13.2-13,13.5v0h-47v-0.1c-7.3-0.8-13-6.9-13-14.4
	C461,249.7,465.7,244,472,242.4z M445.3,241.7l4.6,4.6l-4.6,4.6V241.7z M435.3,241.7l4.6,4.6l-4.6,4.6V241.7z M424.3,241.7l4.6,4.6
	l-4.6,4.6V241.7z M333.7,360.4c6.3,1.6,11,7.3,11,14.1c0,7.5-5.7,13.7-13,14.4v0.1h-47v0c-7.2-0.3-13-6.2-13-13.5
	c0-7.4,6-13.4,13.4-13.5c-0.2-0.8-0.4-1.6-0.4-2.5c0-4.7,3.8-8.5,8.5-8.5c2.6,0,4.9,1.1,6.4,2.9c2.3-6.9,8.9-11.9,16.6-11.9
	c9.7,0,17.5,7.8,17.5,17.5C333.7,359.8,333.7,360.1,333.7,360.4z M256,359.7l4.6,4.6l-4.6,4.6V359.7z M246,359.7l4.6,4.6l-4.6,4.6
	V359.7z M235,359.7l4.6,4.6l-4.6,4.6V359.7z M456.9,170c-1.2,0.7-2.5,1-3.9,1c-3,0-5.6-1.6-7-4c-1,0.7-2.2,1-3.5,1
	c-3.6,0-6.5-2.9-6.5-6.5c0-3.4,2.6-6.1,5.8-6.5c-1.1-1.2-1.8-2.8-1.8-4.5c0-3.6,2.9-6.5,6.5-6.5c0.8,0,1.6,0.1,2.3,0.4
	c1.1-2,3.2-3.4,5.7-3.4c2.5,0,4.7,1.4,5.7,3.5c1-0.3,2.1-0.5,3.3-0.5c1,0,2.1,0.1,3,0.4c0.8-1.4,2.3-2.4,4-2.4c2.5,0,4.4,2,4.5,4.4
	c1.4-1.5,3.3-2.4,5.5-2.4c4.1,0,7.5,3.4,7.5,7.5c0,2.6-1.3,4.8-3.2,6.2c0.8,1.1,1.2,2.4,1.2,3.8c0,3.6-2.9,6.5-6.5,6.5
	c-0.7,0-1.3-0.1-1.9-0.3c-1.4,1.4-3.4,2.3-5.6,2.3c-1.4,0-2.7-0.4-3.9-1c-1.4,2.9-3.7,5.2-7.1,6.7c-3.6,1.7-7.2,2.5-11,2.4
	c3.2-1.5,5.2-3,5.9-4.7C456.5,172.2,456.8,171,456.9,170z"/>
<path class="st11" d="M153.7,156.2l5.8-1.6l-0.6-2.1c-0.2-0.8-0.7-1.3-1.4-1.7s-1.5-0.5-2.3-0.3c-0.8,0.2-1.4,0.7-1.8,1.4
	s-0.5,1.4-0.3,2.2L153.7,156.2z M163.8,154.6l1.8,6.7c0.1,0.3,0,0.6-0.1,0.9c-0.2,0.3-0.4,0.5-0.7,0.5l-11.3,3
	c-0.3,0.1-0.6,0-0.9-0.1c-0.3-0.2-0.5-0.4-0.5-0.7l-1.8-6.7c-0.1-0.3,0-0.6,0.1-0.9c0.2-0.3,0.4-0.5,0.7-0.5l0.4-0.1l-0.6-2.2
	c-0.4-1.4-0.2-2.8,0.6-4.1c0.8-1.3,1.9-2.1,3.3-2.5c1.4-0.4,2.8-0.2,4.1,0.5c1.3,0.7,2.2,1.8,2.5,3.3l0.6,2.2l0.4-0.1
	c0.3-0.1,0.6,0,0.9,0.1C163.6,154,163.7,154.3,163.8,154.6z M295.7,117.3c-0.1,0.5-0.7,0.8-1.2,0.7l-1.2-0.3
	c-0.5-0.1-0.8-0.7-0.7-1.2l0.2-0.7c0-0.2-0.1-0.5-0.3-0.6c-0.2-0.1-0.4-0.3-0.5-0.4c-0.2-0.2-0.4-0.2-0.7-0.1l-0.7,0.4
	c-0.2,0.1-0.5,0.2-0.7,0.1c-0.3-0.1-0.5-0.2-0.6-0.5l-0.6-1.1c-0.3-0.5-0.1-1.1,0.4-1.4l0.7-0.4c0.1-0.1,0.2-0.2,0.2-0.3
	c0-0.1,0-0.2,0-0.3c0-0.2-0.1-0.4-0.1-0.7c0-0.2-0.2-0.5-0.4-0.5l-0.8-0.2c-0.5-0.1-0.8-0.7-0.7-1.2l0.3-1.2
	c0.1-0.5,0.7-0.8,1.2-0.7l0.8,0.2c0.2,0,0.5-0.1,0.6-0.3c0.1-0.2,0.3-0.4,0.4-0.5c0.1-0.1,0.1-0.2,0.1-0.2c0-0.1,0-0.3,0-0.4
	l-0.4-0.7c-0.1-0.2-0.2-0.5-0.1-0.8c0.1-0.3,0.2-0.5,0.5-0.6l1.1-0.6c0.2-0.1,0.5-0.2,0.7-0.1c0.3,0.1,0.5,0.2,0.6,0.5l0.4,0.7
	c0.1,0.2,0.4,0.3,0.6,0.3c0.2,0,0.4-0.1,0.7-0.1c0.2,0,0.5-0.2,0.5-0.4l0.2-0.8c0.1-0.5,0.7-0.8,1.2-0.7l1.2,0.3
	c0.5,0.1,0.8,0.7,0.7,1.2l-0.2,0.8c0,0.2,0.1,0.5,0.3,0.6c0.2,0.1,0.4,0.3,0.5,0.4c0.2,0.2,0.4,0.2,0.7,0.1l0.7-0.4
	c0.5-0.3,1.1-0.1,1.3,0.4l0.6,1.1c0.1,0.2,0.2,0.5,0.1,0.8c-0.1,0.3-0.2,0.5-0.5,0.6l-0.7,0.4c-0.2,0.1-0.3,0.4-0.2,0.6
	c0,0.2,0.1,0.4,0.1,0.7c0,0.2,0.2,0.5,0.4,0.5l0.7,0.2c0.5,0.1,0.8,0.7,0.7,1.2l-0.3,1.2c-0.1,0.5-0.7,0.8-1.2,0.7l-0.7-0.2
	c-0.2,0-0.5,0.1-0.6,0.3c-0.1,0.2-0.3,0.4-0.4,0.5c-0.2,0.2-0.2,0.4-0.1,0.7l0.4,0.7c0.3,0.5,0.1,1.1-0.4,1.4l-1.1,0.6
	c-0.2,0.1-0.5,0.2-0.7,0.1c-0.3-0.1-0.5-0.2-0.6-0.5l-0.4-0.7c-0.1-0.2-0.4-0.3-0.6-0.3c-0.2,0-0.4,0.1-0.7,0.1
	c-0.2,0-0.5,0.2-0.5,0.4L295.7,117.3z M295.3,112.8c1.5,0.4,3.1-0.5,3.5-2.1c0.3-1.1-0.1-2.3-1-3.1c-0.9-0.7-2.2-0.8-3.2-0.2
	s-1.6,1.7-1.4,2.9S294.1,112.5,295.3,112.8z M306.3,104.5c-0.1,0.3-0.5,0.5-0.8,0.4l-0.8-0.2c-0.4-0.1-0.6-0.5-0.5-0.8l0.1-0.5
	c0-0.2,0-0.3-0.2-0.4c-0.1-0.1-0.2-0.2-0.4-0.3c-0.1-0.1-0.3-0.1-0.5-0.1l-0.5,0.3c-0.3,0.2-0.7,0.1-0.9-0.3l-0.4-0.7
	c-0.1-0.2-0.1-0.3-0.1-0.5c0-0.2,0.2-0.3,0.3-0.4l0.5-0.3c0.1-0.1,0.1-0.1,0.2-0.2c0-0.1,0-0.1,0-0.2c0-0.2-0.1-0.3-0.1-0.5
	c0-0.2-0.1-0.3-0.3-0.4l-0.5-0.1c-0.4-0.1-0.6-0.5-0.5-0.8l0.2-0.8c0.1-0.4,0.5-0.6,0.8-0.5l0.5,0.1c0.2,0,0.3,0,0.4-0.2
	c0.1-0.1,0.2-0.2,0.3-0.4c0,0,0.1-0.1,0.1-0.2c0-0.1,0-0.2,0-0.3l-0.3-0.5c-0.1-0.2-0.1-0.3-0.1-0.5c0-0.2,0.2-0.3,0.3-0.4l0.7-0.4
	c0.3-0.2,0.7-0.1,0.9,0.3l0.3,0.5c0.1,0.1,0.3,0.2,0.4,0.2c0.1,0,0.3,0,0.5-0.1c0.2,0,0.3-0.1,0.4-0.3l0.1-0.5
	c0.1-0.4,0.5-0.6,0.8-0.5l0.8,0.2c0.4,0.1,0.6,0.5,0.5,0.8l-0.1,0.5c0,0.2,0,0.3,0.2,0.4c0.1,0.1,0.3,0.2,0.4,0.3
	c0.1,0.1,0.3,0.1,0.5,0.1l0.5-0.3c0.2-0.1,0.3-0.1,0.5-0.1c0.2,0,0.3,0.2,0.4,0.3l0.4,0.7c0.1,0.2,0.1,0.3,0.1,0.5
	c0,0.2-0.2,0.3-0.3,0.4l-0.5,0.3c-0.1,0.1-0.1,0.1-0.2,0.2c0,0.1,0,0.1,0,0.2c0,0.2,0,0.3,0.1,0.5c0,0.2,0.1,0.3,0.3,0.4l0.5,0.1
	c0.4,0.1,0.6,0.5,0.5,0.8l-0.2,0.8c0,0.2-0.2,0.4-0.3,0.5c-0.2,0.1-0.4,0.1-0.5,0.1l-0.5-0.1c-0.2,0-0.3,0-0.4,0.2
	c-0.1,0.1-0.2,0.2-0.3,0.4c0,0-0.1,0.1-0.1,0.2c0,0.1,0,0.2,0,0.3l0.3,0.5c0.1,0.2,0.1,0.3,0.1,0.5c0,0.2-0.2,0.3-0.3,0.4l-0.7,0.4
	c-0.2,0.1-0.3,0.1-0.5,0.1c-0.2,0-0.3-0.2-0.4-0.3l-0.3-0.5c-0.1-0.1-0.3-0.2-0.4-0.2c-0.2,0-0.3,0-0.5,0.1c-0.2,0-0.3,0.1-0.4,0.3
	L306.3,104.5z M306,101.4c1.1,0.3,2.2-0.4,2.4-1.4c0.2-0.8-0.1-1.6-0.7-2.1c-0.6-0.5-1.5-0.5-2.2-0.1c-0.7,0.4-1.1,1.2-1,2
	C304.6,100.6,305.2,101.2,306,101.4z M496.5,260.1l4.5-16.9l-10.9-2.9l-4.5,16.9L496.5,260.1z M489.8,263.5c0.5,0.1,1,0.1,1.4-0.2
	s0.7-0.6,0.9-1.1c0.1-0.5,0.1-1-0.2-1.4c-0.3-0.5-0.6-0.7-1.1-0.9s-1-0.1-1.4,0.2c-0.5,0.3-0.7,0.6-0.9,1.2c-0.1,0.5-0.1,1,0.2,1.4
	C488.9,263,489.2,263.3,489.8,263.5z M501.4,239.4c0.5,0.1,1,0.4,1.4,0.8c0.4,0.4,0.7,0.9,0.8,1.4s0.1,1.1,0,1.6l-5.5,20.5
	c-0.1,0.5-0.4,1-0.8,1.4c-0.4,0.4-0.9,0.7-1.4,0.8s-1.1,0.2-1.6,0l-9.7-2.6c-0.5-0.1-1-0.4-1.4-0.8c-0.4-0.4-0.7-0.9-0.8-1.4
	c-0.1-0.5-0.1-1.1,0-1.6l5.5-20.5c0.1-0.5,0.4-1,0.8-1.4s0.9-0.7,1.4-0.8c0.5-0.2,1.1-0.2,1.6,0L501.4,239.4z M317.6,370.6
	c1.4,0,3,0.2,4.8,0.6c1.9,0.5,3.5,1.2,4.8,2c1.4,1,2.2,2,2.2,3.2v4.2h-10v-4.2c0-2.3-1.1-4.2-3.3-5.8
	C316.5,370.7,317,370.6,317.6,370.6z M304.4,370.6c1.4,0,3,0.2,4.8,0.6c1.9,0.5,3.5,1.2,4.7,2c1.4,1,2.2,2,2.2,3.2v4.2h-23.4v-4.2
	c0-1.2,0.7-2.3,2.2-3.2c1.2-0.8,2.8-1.5,4.8-2C301.3,370.9,302.9,370.6,304.4,370.6z M304.4,367.4c-0.9,0-1.7-0.2-2.5-0.7
	s-1.4-1.1-1.8-1.8s-0.7-1.6-0.7-2.5c0-0.9,0.2-1.7,0.7-2.5s1.1-1.4,1.8-1.8s1.6-0.7,2.5-0.7c0.9,0,1.7,0.2,2.5,0.7s1.4,1.1,1.8,1.8
	c0.4,0.8,0.7,1.6,0.7,2.5c0,0.9-0.2,1.7-0.7,2.5c-0.4,0.8-1,1.4-1.8,1.8S305.2,367.4,304.4,367.4z M317.6,367.4
	c-0.9,0-1.7-0.2-2.5-0.7s-1.4-1.1-1.8-1.8s-0.7-1.6-0.7-2.5c0-0.9,0.2-1.7,0.7-2.5s1.1-1.4,1.8-1.8s1.6-0.7,2.5-0.7
	c0.9,0,1.7,0.2,2.5,0.7s1.4,1.1,1.8,1.8s0.7,1.6,0.7,2.5c0,0.9-0.2,1.7-0.7,2.5s-1.1,1.4-1.8,1.8S318.5,367.4,317.6,367.4z
	 M470.7,153.7V152l-6.7,4.2l-6.7-4.2v1.7l6.7,4.1L470.7,153.7z M470.7,150.3c0.5,0,0.8,0.2,1.2,0.5c0.3,0.3,0.5,0.7,0.5,1.2v10
	c0,0.5-0.2,0.8-0.5,1.2c-0.3,0.3-0.7,0.5-1.2,0.5h-13.4c-0.5,0-0.8-0.2-1.2-0.5c-0.3-0.3-0.5-0.7-0.5-1.2v-10c0-0.5,0.2-0.8,0.5-1.2
	c0.3-0.3,0.7-0.5,1.2-0.5H470.7z"/>
</svg>
