<?xml version="1.0" encoding="utf-8"?>
<!-- Generator: Adobe Illustrator 23.0.2, SVG Export Plug-In . SVG Version: 6.00 Build 0)  -->
<svg version="1.1" id="Layer_1" xmlns="http://www.w3.org/2000/svg" xmlns:xlink="http://www.w3.org/1999/xlink" x="0px" y="0px"
	 viewBox="0 0 52 52" style="enable-background:new 0 0 52 52;" xml:space="preserve">
<style type="text/css">
	.st0{fill:#FCCF48;}
	.st1{filter:url(#Adobe_OpacityMaskFilter);}
	.st2{fill-rule:evenodd;clip-rule:evenodd;fill:#FFFFFF;}
	.st3{mask:url(#mask-2_1_);fill:#FFFFFF;}
</style>
<path class="st0" d="M26,0L26,0c14.4,0,26,11.6,26,26l0,0c0,14.4-11.6,26-26,26l0,0C11.6,52,0,40.4,0,26l0,0C0,11.6,11.6,0,26,0z"/>
<defs>
	<filter id="Adobe_OpacityMaskFilter" filterUnits="userSpaceOnUse" x="21.9" y="3.2" width="28.6" height="43.4">
		<feColorMatrix  type="matrix" values="1 0 0 0 0  0 1 0 0 0  0 0 1 0 0  0 0 0 1 0"/>
	</filter>
</defs>
<mask maskUnits="userSpaceOnUse" x="21.9" y="3.2" width="28.6" height="43.4" id="mask-2_1_">
	<g class="st1">
		<path id="path-1_1_" class="st2" d="M26,0L26,0c14.4,0,26,11.6,26,26l0,0c0,14.4-11.6,26-26,26l0,0C11.6,52,0,40.4,0,26l0,0
			C0,11.6,11.6,0,26,0z"/>
	</g>
</mask>
<path class="st3" d="M37,18.6c4.1,0,7.4,1.2,9.9,3.5s3.7,5.5,3.7,9.6c0,4.8-1.5,8.5-4.4,11s-7.2,3.9-12.7,3.9
	c-4.8,0-8.6-0.8-11.5-2.3v-7.8c1.5,0.8,3.3,1.5,5.4,2s4,0.8,5.8,0.8c5.5,0,8.3-2.3,8.3-6.8c0-4.3-2.9-6.5-8.6-6.5
	c-1,0-2.2,0.1-3.4,0.3s-2.3,0.4-3,0.7L22.8,25l1.6-21.8h23.2v7.7H32.3l-0.8,8.4l1-0.2C33.8,18.8,35.2,18.6,37,18.6z"/>
</svg>
