<?xml version="1.0" encoding="utf-8"?>
<!-- Generator: Adobe Illustrator 23.0.2, SVG Export Plug-In . SVG Version: 6.00 Build 0)  -->
<svg version="1.1" id="Layer_1" xmlns="http://www.w3.org/2000/svg" xmlns:xlink="http://www.w3.org/1999/xlink" x="0px" y="0px"
	 viewBox="0 0 619 467" style="enable-background:new 0 0 619 467;" xml:space="preserve">
<style type="text/css">
	.st0{fill:#0A0068;}
	.st1{fill:#5F4CEF;}
	.st2{fill:#E4F1FF;}
	.st3{fill:#A8D2FF;}
	.st4{fill:#C0E2FF;}
	.st5{fill:#2C96F2;}
	.st6{fill:#FFFFFF;}
	.st7{fill-rule:evenodd;clip-rule:evenodd;fill:#F8427B;}
	.st8{fill-rule:evenodd;clip-rule:evenodd;fill:#FCCF48;}
	.st9{fill-rule:evenodd;clip-rule:evenodd;fill:#37DA96;}
	.st10{fill-rule:evenodd;clip-rule:evenodd;fill:#FFFFFF;}
	.st11{fill-rule:evenodd;clip-rule:evenodd;fill:#2C96F2;}
	.st12{fill-rule:evenodd;clip-rule:evenodd;fill:#0A0068;}
	.st13{fill:#FCCF48;}
</style>
<path id="Shape" class="st0" d="M283,55.1h23.8v24.7h-26.6C280.4,71.5,281.3,63.2,283,55.1L283,55.1z M283,109.8h23.8V85.1h-26.6
	C280.4,93.4,281.3,101.7,283,109.8L283,109.8z M306.8,49.8V18c-9.7,1.9-17.9,14.2-22.6,31.8H306.8z M341.4,109.8h26.3
	c3.6-7.7,5.6-16.1,5.9-24.7h-29.8C343.8,93.4,343,101.7,341.4,109.8L341.4,109.8z M341.4,55.1c1.6,8.1,2.4,16.4,2.5,24.7h29.8
	c-0.3-8.6-2.4-17-5.9-24.7H341.4z M340.2,49.8H365c-8.7-14.9-23-25.7-39.7-30C331.8,26.3,337,36.7,340.2,49.8z M306.8,146.8V115
	h-22.6C288.9,132.6,297.2,144.9,306.8,146.8L306.8,146.8z M334.7,49.8c-4.7-17.5-13-29.9-22.6-31.8v31.8H334.7z M338.7,85.1h-26.6
	v24.7H336C337.6,101.7,338.5,93.4,338.7,85.1L338.7,85.1z M245.2,85.1c0.3,8.6,2.4,17,6,24.7h26.3c-1.6-8.1-2.4-16.4-2.5-24.7H245.2
	z M278.7,115H254c8.7,14.9,23,25.8,39.7,30C287.2,138.6,281.9,128.1,278.7,115L278.7,115z M340.2,115c-3.2,13.1-8.5,23.5-15,30
	c16.7-4.3,31-15.1,39.7-30H340.2z M278.7,49.8c3.2-13.1,8.5-23.5,14.9-30c-16.7,4.3-31,15.1-39.7,30H278.7z M336,55.1h-23.9v24.7
	h26.6C338.5,71.5,337.6,63.2,336,55.1L336,55.1z M251.2,55.1c-3.6,7.8-5.6,16.2-6,24.7H275c0.1-8.3,0.9-16.6,2.5-24.7H251.2z
	 M312.1,115v31.8c9.7-1.9,18-14.2,22.6-31.8H312.1z"/>
<polygon id="Rectangle" class="st0" points="91.9,122.9 195.1,86.7 214.1,141.5 111,177.8 "/>
<path class="st1" d="M91.9,122.9l61.1,9.3l-42,45.5L91.9,122.9z M195.1,86.7L153,132.3l61.1,9.3L195.1,86.7z M91.9,122.9l39.6-52.7
	l63.6,16.4L91.9,122.9z"/>
<polygon class="st2" points="91.9,122.9 89,114.6 192.2,78.4 195.1,86.7 153,132.3 "/>
<path id="Combined-Shape" class="st3" d="M173.3,97.1l-57.9,20.3c-1,0.4-2.1-0.2-2.5-1.2c-0.3-1,0.2-2.1,1.2-2.5L172,93.4
	c1-0.4,2.1,0.2,2.5,1.2c0.2,0.5,0.1,1-0.1,1.5C174.1,96.5,173.7,96.9,173.3,97.1z M175.9,104.8L118,125.1c-1,0.4-2.1-0.2-2.5-1.2
	c-0.4-1,0.2-2.1,1.2-2.5l57.9-20.3c1-0.4,2.1,0.2,2.5,1.2C177.5,103.3,176.9,104.4,175.9,104.8z"/>
<ellipse id="Oval" transform="matrix(0.6995 -0.7146 0.7146 0.6995 69.6214 341.2158)" class="st2" cx="440.6" cy="87.8" rx="14.9" ry="14.9"/>
<path class="st2" d="M488.9,131.5l4.8,3.3c2,1.4,2.6,4.2,1.2,6.3l-23.7,34.7c-1.4,2-4.2,2.6-6.2,1.2l-4.8-3.3L488.9,131.5z
	 M495.9,84.6L485.1,79c0,0-28.9-13.9-25.3-22.6l-14.9,36.1l40.7,17L495.9,84.6z"/>
<path class="st4" d="M488.9,131.5l-4.9-3.4c-2-1.4-4.8-0.9-6.3,1.2L454.1,164c-1.4,2.1-0.9,4.9,1.2,6.3l4.8,3.3L488.9,131.5z
	 M475.4,134.4l-11.1-3.8c0,0-30.6-10.7-34.3-2l14.9-36.1l40.7,17L475.4,134.4z"/>
<path class="st5" d="M539.7,132c0,0-9.6,25.1-25.5,18.6l-43-18l10.3-24.9L539.7,132z M436.5,89l-13.4,32.4c-1.1,2.8,0.2,6,2.9,7.1
	l0,0c2.8,1.1,5.9-0.2,7.1-3l13.4-32.4L436.5,89z"/>
<path class="st3" d="M539.7,132c0,0,10.9-24.6-4.9-31.2l-43-17.9l-10.3,24.9L539.7,132z M436.5,89l13.4-32.4
	c1.2-2.8,4.3-4.1,7.1-2.9l0,0c2.8,1.2,4.1,4.3,2.9,7.1l-13.4,32.4L436.5,89z"/>
<path class="st1" d="M64,298.9l-6.9,20.3l-33.8-11.3l17.3-51.3l33.8,11.3l-1.2,3.7l3.8,1.3l3.6-10.6c1.1-3.4-0.7-7-4.1-8.2
	l-29.2-9.8c-3.4-1.1-7.1,0.7-8.2,4.1l-21.8,64.3c-1.1,3.4,0.7,7,4.1,8.2l29.2,9.8c3.4,1.1,7.1-0.7,8.2-4.1l8.9-26.4L64,298.9z
	 M56.5,255.1l6.2,2c0.2,0.1,0.4,0.2,0.5,0.4c0.1,0.2,0.1,0.4,0,0.6c-0.1,0.2-0.2,0.4-0.4,0.5c-0.2,0.1-0.4,0.1-0.6,0l-6.2-2
	c-0.3-0.1-0.5-0.3-0.5-0.6c-0.1-0.3,0-0.6,0.3-0.8C56,255,56.3,255,56.5,255.1L56.5,255.1z M37.1,322.1c-1.2-0.4-2.1-1.5-2.2-2.8
	c-0.1-1.3,0.6-2.5,1.8-3.1c1.2-0.6,2.6-0.4,3.6,0.5s1.4,2.2,0.9,3.5C40.6,321.7,38.8,322.6,37.1,322.1L37.1,322.1z"/>
<path class="st0" d="M475.7,220c2.4,0,4.6,0.9,6.3,2.6c1.7,1.7,2.6,4,2.6,6.3v211.3h-351V228.9c0-4.9,4-8.9,8.9-8.9H475.7z
	 M111,443.3h390c0,13.1-10.6,23.7-23.6,23.7H134.7c-6.3,0-12.3-2.5-16.7-6.9C113.5,455.6,111,449.6,111,443.3z"/>
<path class="st6" d="M150,234h320v191.4H150V234z M336.2,448h-64.9c-1.6,0-3.2-0.8-4.3-2.1c-1.1-1.4-1.8-3.2-1.8-5.1h77.2
	c0,1.9-0.7,3.8-1.8,5.1S337.9,448,336.2,448z"/>
<rect x="368.5" y="281.4" class="st7" width="76" height="52.6"/>
<rect x="274.1" y="281.4" class="st8" width="76" height="52.6"/>
<path class="st9" d="M178.5,345.3h266v23.7h-266V345.3z M178.5,281.4h76V334h-76V281.4z"/>
<path class="st10" d="M377.8,287.6h57.5v5.8h-57.5V287.6z M377.8,298.1h57.5v3.5h-57.5V298.1z M377.8,305.1h57.5v3.5h-57.5V305.1z
	 M377.8,312h57.5v3.5h-57.5V312z M377.8,320.2h57.5v3.5h-57.5V320.2z M284.3,287.6h57.5v5.8h-57.5V287.6z M284.3,298.1h57.5v3.5
	h-57.5V298.1z M284.3,305.1h57.5v3.5h-57.5V305.1z M284.3,312h57.5v3.5h-57.5V312z M284.3,320.2h57.5v3.5h-57.5V320.2z M187.8,287.6
	h57.5v5.8h-57.5V287.6z M187.8,298.1h57.5v3.5h-57.5V298.1z M187.8,305.1h57.5v3.5h-57.5V305.1z M187.8,312h57.5v3.5h-57.5V312z
	 M187.8,320.2h57.5v3.5h-57.5V320.2z"/>
<rect x="179" y="252" class="st11" width="50" height="15"/>
<path class="st12" d="M235,256h47v5h-47V256z M397,256h47v5h-47V256z M343,256h47v5h-47V256z M178.5,380.4h77v3.1h-77V380.4z
	 M178.5,387.6h77v3.1h-77V387.6z M178.5,403.1h77v3.1h-77V403.1z M178.5,409.3h77v3.1h-77V409.3z M178.5,393.8h77v6.2h-77V393.8z
	 M274.1,380.4h76v3.1h-76V380.4z M274.1,387.6h76v3.1h-76V387.6z M274.1,403.1h76v3.1h-76V403.1z M274.1,409.3h76v3.1h-76V409.3z
	 M274.1,393.8h76v6.2h-76V393.8z M368.5,380.4h76v3.1h-76V380.4z M368.5,387.6h76v3.1h-76V387.6z M368.5,403.1h76v3.1h-76V403.1z
	 M368.5,409.3h76v3.1h-76V409.3z M368.5,393.8h76v6.2h-76V393.8z M516.2,363.2c0,2.7,1.6,5.1,4.1,6.2s5.4,0.5,7.3-1.5
	c1.9-1.9,2.5-4.8,1.4-7.3c-1-2.5-3.5-4.1-6.2-4.1c-1.8,0-3.5,0.7-4.7,2C516.9,359.8,516.2,361.5,516.2,363.2z M567.6,105.9
	c0,2.7,1.6,5.1,4.1,6.2c2.5,1,5.4,0.5,7.3-1.5c1.9-1.9,2.5-4.8,1.4-7.3c-1-2.5-3.5-4.1-6.2-4.1c-1.8,0-3.5,0.7-4.7,2
	C568.3,102.5,567.6,104.2,567.6,105.9z M244.7,195c4.5,0,8.2-3.7,8.2-8.2s-3.7-8.2-8.2-8.2c-4.5,0-8.2,3.7-8.2,8.2
	S240.2,195,244.7,195z M8.2,408c4.5,0,8.2-3.7,8.2-8.2s-3.7-8.2-8.2-8.2S0,395.2,0,399.8S3.7,408,8.2,408z M53.5,71.5
	c4.5,0,8.2-3.7,8.2-8.2S58,55,53.5,55s-8.2,3.7-8.2,8.2S48.9,71.5,53.5,71.5z M58.5,167.8H53c-2.2,0-4-1.6-4-3.5c0-2,1.8-3.5,4-3.5
	h5.4v-5.4c0-2.2,1.6-4.1,3.5-4.1c2,0,3.5,1.8,3.5,4.1v5.4h3.1c2.2,0,4,1.6,4,3.5c0,2-1.8,3.5-4,3.5h-3.1v3.2c0,1.1-0.4,2.1-1.1,2.9
	c-0.7,0.7-1.6,1.1-2.6,1c-1.9,0-3.4-1.8-3.4-3.9V167.8z M450.5,14.2h-5.4c-2.2,0-4-1.6-4-3.5s1.8-3.5,4-3.5h5.4v-3
	c0-2.2,1.6-4.1,3.5-4.1s3.5,1.8,3.5,4.1v3h3.1c2.2,0,4,1.6,4,3.5s-1.8,3.5-4,3.5h-3.1v5.5c0,1.1-0.4,2.1-1.1,2.9
	c-0.7,0.7-1.6,1.1-2.6,1c-1.9,0-3.4-1.8-3.4-3.9V14.2z M553.5,422.6l-1.5,5.5c-0.5,1.7-2,2.9-3.7,2.8c-0.4,0.1-0.7,0.1-1.1,0
	c-1-0.3-1.8-1-2.3-1.9c-0.5-1-0.6-2.1-0.3-3.2l1.4-5.2l-3.3-0.9c-2.2-0.6-3.5-2.8-2.8-4.8c0.6-2.1,2.9-3.3,5.1-2.7l3.1,0.8l0.7-2.7
	c0.6-2.2,2.7-3.5,4.7-2.9c2,0.6,3.2,2.9,2.7,5.1l-0.7,2.5l4.9,1.3c1.1,0.3,2,0.9,2.5,1.8c0.5,0.9,0.6,2,0.3,3
	c-0.5,1.6-2.1,2.7-3.9,2.7c-0.4,0.1-0.8,0.1-1.2,0L553.5,422.6z M611.3,363.6l-1.3,4.8c-0.5,1.7-2,2.9-3.7,2.8c-0.3,0.1-0.7,0.1-1,0
	c-1-0.3-1.9-1-2.4-1.9c-0.5-1-0.6-2.1-0.3-3.2l1.2-4.6l-5.6-1.5c-2.2-0.6-3.4-2.7-2.8-4.8c0.6-2.1,2.9-3.3,5-2.7l5.3,1.5l0.9-3.3
	c0.6-2.2,2.7-3.5,4.8-2.9c2,0.6,3.2,2.9,2.6,5.1l-0.8,3.1l2.3,0.6c2.2,0.3,3.7,2.2,3.4,4.3c-0.3,2.1-2.3,3.5-4.4,3.2
	c-0.4,0-0.8,0-1.1,0L611.3,363.6z M354.1,199l-1.3,4.8c-0.5,1.7-2,2.9-3.7,2.8c-0.3,0.1-0.7,0.1-1,0c-1-0.3-1.9-1-2.4-1.9
	c-0.5-1-0.6-2.1-0.3-3.2l1.2-4.6l-5.6-1.5c-2.2-0.6-3.4-2.7-2.8-4.8c0.6-2.1,2.9-3.3,5-2.7l5.3,1.5l0.9-3.3c0.6-2.2,2.7-3.5,4.8-2.9
	c2,0.6,3.2,2.9,2.6,5.1l-0.8,3.1l2.3,0.6c2.2,0.3,3.7,2.2,3.4,4.3c-0.3,2.1-2.3,3.5-4.4,3.2c-0.4,0-0.8,0-1.1,0L354.1,199z
	 M81.7,283.8L80,284c-0.3-0.8-0.7-1.7-1.2-2.4l1.1-1.3c0.3-0.4,0.3-1-0.1-1.3l-2.2-1.9c-0.4-0.3-1-0.3-1.3,0.1l-1.1,1.3
	c-0.8-0.4-1.7-0.7-2.5-0.8l-0.1-1.7c0-0.3-0.1-0.5-0.3-0.7c-0.2-0.2-0.4-0.3-0.7-0.2l-2.9,0.2c-0.2,0-0.5,0.1-0.6,0.3
	c-0.2,0.2-0.2,0.4-0.2,0.7l0.1,1.7c-0.8,0.3-1.7,0.7-2.4,1.2l-1.3-1.1c-0.4-0.3-1-0.3-1.3,0.1l-1.9,2.2c-0.2,0.2-0.3,0.4-0.2,0.7
	s0.1,0.5,0.3,0.7l1.3,1.1c-0.4,0.8-0.7,1.7-0.9,2.5l-1.7,0.1c-0.3,0-0.5,0.1-0.6,0.3c-0.2,0.2-0.2,0.4-0.2,0.7l0.2,2.9
	c0,0.5,0.5,0.9,1,0.9l1.7-0.1c0.3,0.8,0.7,1.7,1.2,2.4l-1.2,1.4c-0.3,0.4-0.3,1,0.1,1.3l2.2,1.9c0.2,0.2,0.4,0.3,0.7,0.2
	c0.3,0,0.5-0.1,0.7-0.3l1.1-1.3c0.8,0.4,1.7,0.7,2.5,0.9l0.1,1.7c0,0.3,0.1,0.5,0.3,0.7c0.2,0.2,0.4,0.2,0.7,0.2l2.9-0.2
	c0.5-0.1,0.9-0.5,0.9-1l-0.1-1.7c0.8-0.3,1.6-0.7,2.4-1.2l1.3,1.1c0.2,0.2,0.4,0.3,0.7,0.2c0.3,0,0.5-0.1,0.7-0.3l1.9-2.2
	c0.3-0.4,0.3-1-0.1-1.3l-1.3-1.1c0.4-0.8,0.7-1.7,0.9-2.5l1.7-0.1c0.3,0,0.5-0.1,0.6-0.3c0.2-0.2,0.2-0.4,0.2-0.7l-0.2-2.9
	c0-0.3-0.1-0.5-0.3-0.7C82.3,283.9,82,283.8,81.7,283.8L81.7,283.8z M71.3,291.7c-1.9,0.1-3.7-0.9-4.6-2.7c-0.9-1.7-0.6-3.8,0.7-5.3
	c1.3-1.5,3.3-2,5.1-1.3s3.1,2.3,3.2,4.2C75.9,289.3,73.9,291.5,71.3,291.7L71.3,291.7z M594.9,297.4h-3.2c-1-0.1-1.8-0.8-2.2-1.7
	c-0.3-0.9-0.6-1.7-1-2.5c-0.4-0.9-0.3-2,0.3-2.7l2.3-2.3c0.8-0.8,1.2-1.8,1.2-2.9c0-1.1-0.4-2.1-1.2-2.9l-3.6-3.7
	c-1.6-1.6-4.1-1.6-5.7,0l-2.2,2.3c-0.4,0.4-1,0.6-1.6,0.6c-0.4,0-0.8-0.1-1.1-0.2c-0.8-0.4-1.7-0.7-2.5-1c-0.9-0.3-1.6-1.2-1.7-2.2
	V275c0-2.2-1.8-4-4-4h-5.2c-2.2,0-4,1.8-4,4v3.2c-0.1,1-0.8,1.8-1.7,2.2c-0.9,0.3-1.7,0.6-2.5,1c-0.3,0.2-0.7,0.2-1.1,0.2
	c-0.6,0-1.2-0.2-1.6-0.6l-2.2-2.2c-1.6-1.6-4.1-1.6-5.7,0l-3.6,3.7c-0.8,0.8-1.2,1.8-1.2,2.9s0.4,2.1,1.2,2.9l2.2,2.3
	c0.6,0.8,0.8,1.8,0.3,2.7c-0.4,0.8-0.7,1.7-1,2.5c-0.3,0.9-1.2,1.6-2.2,1.7H537c-2.2,0-4,1.8-4,4v5.2c0,2.2,1.8,4,4,4h3.2
	c1,0.1,1.8,0.8,2.2,1.7c0.3,0.8,0.7,1.7,1,2.5c0.4,0.9,0.3,2-0.3,2.7l-2.2,2.2c-0.8,0.8-1.2,1.8-1.2,2.9c0,1.1,0.4,2.1,1.2,2.9
	l3.6,3.7c1.6,1.6,4.1,1.6,5.7,0l2.3-2.3c0.4-0.4,1-0.6,1.6-0.6c0.4,0,0.8,0.1,1.1,0.2c0.8,0.4,1.7,0.7,2.5,1
	c0.9,0.3,1.6,1.2,1.7,2.2v3.2c0,2.2,1.8,4,4,4h5.2c2.2,0,4-1.8,4-4v-3.2c0.1-1,0.8-1.8,1.7-2.2c0.9-0.3,1.7-0.6,2.5-1
	c0.3-0.2,0.7-0.2,1.1-0.2c0.6,0,1.2,0.2,1.6,0.6l2.2,2.3c1.6,1.6,4.1,1.6,5.7,0l3.6-3.7c0.8-0.8,1.2-1.8,1.2-2.9
	c0-1.1-0.4-2.1-1.2-2.9l-2.2-2.2c-0.6-0.8-0.7-1.8-0.3-2.7c0.4-0.8,0.7-1.7,1-2.5c0.3-0.9,1.2-1.6,2.2-1.7h3.2c2.2,0,4-1.8,4-4v-5.2
	C599,299.2,597.2,297.4,594.9,297.4L594.9,297.4z M577.8,304c0,6.5-5.3,11.8-11.9,11.8c-6.5,0-11.8-5.3-11.8-11.9
	c0-6.5,5.3-11.8,11.8-11.8C572.5,292.1,577.8,297.4,577.8,304L577.8,304z"/>
<path class="st13" d="M10,257.9l1.3-3.9l18.7,6.3l-1.3,3.9L10,257.9z M12.1,267.4l1.3-3.9l14,4.8l-1.3,3.9L12.1,267.4z M18.8,278.4
	l1.3-3.9l4.7,1.6l-1.3,3.9L18.8,278.4z M289,256h47v5h-47V256z M50,379h53.7v9.2H50V379z M61.3,393.4H115v9.2H61.3V393.4z M50,406.8
	h53.7v9.2H50V406.8z M546,182h53.7v9.3H546V182z M557.3,193.3H611v9.3h-53.7V193.3z M546,206.7h53.7v9.3H546V206.7z M176.4,193.8
	c-2.2-1.5-2.8-4.5-1.3-6.7c1.5-2.2,4.5-2.8,6.7-1.3c2.2,1.5,2.8,4.5,1.3,6.7S178.6,195.3,176.4,193.8z M519.2,313.9
	c-1.5,2.2-4.5,2.8-6.7,1.3c-2.2-1.5-2.8-4.5-1.3-6.7c1.5-2.2,4.5-2.8,6.7-1.3c1.1,0.7,1.8,1.8,2,3.1
	C520.2,311.5,519.9,312.8,519.2,313.9z M108.8,313.9c-1.5,2.2-4.5,2.8-6.7,1.3s-2.8-4.5-1.3-6.7c1.5-2.2,4.5-2.8,6.7-1.3
	c1.1,0.7,1.8,1.8,2,3.1C109.8,311.5,109.5,312.8,108.8,313.9z M406.3,170.5c-1.5,2.2-4.5,2.8-6.7,1.3c-2.2-1.5-2.8-4.5-1.3-6.7
	c1.5-2.2,4.5-2.8,6.7-1.3c1.1,0.7,1.8,1.8,2,3.1C407.3,168.2,407,169.5,406.3,170.5z M542.3,271.4c0.1-0.2,0.2-0.3,0.4-0.4h1.6
	c0.7,0,1.4-0.3,1.9-0.8s0.8-1.2,0.8-1.9v-2.6c0-1.5-1.2-2.7-2.7-2.7h-1.6c-0.2,0-0.4-0.2-0.4-0.4c-0.2-0.4-0.3-0.9-0.5-1.3
	c-0.1-0.2-0.1-0.4,0-0.6l1.1-1.1c1-1,1-2.7,0-3.8l-1.8-1.8c-0.5-0.5-1.2-0.8-1.9-0.8c-0.7,0-1.4,0.3-1.9,0.8l-1.1,1.1
	c-0.1,0.1-0.2,0.1-0.3,0.1c-0.1,0-0.2,0-0.3-0.1c-0.4-0.2-0.9-0.4-1.3-0.5c-0.2-0.1-0.3-0.2-0.4-0.5v-1.6c0-1.5-1.2-2.7-2.7-2.7
	h-2.6c-1.5,0-2.7,1.2-2.7,2.7v1.6c-0.1,0.2-0.2,0.4-0.4,0.5c-0.4,0.2-0.9,0.3-1.3,0.5c-0.1,0-0.2,0.1-0.3,0.1c-0.1,0-0.2,0-0.3-0.1
	l-1.1-1.1c-0.5-0.5-1.2-0.8-1.9-0.8c-0.7,0-1.4,0.3-1.9,0.8l-1.8,1.8c-1,1-1,2.7,0,3.8l1.1,1.1c0.1,0.2,0.1,0.4,0,0.6
	c-0.2,0.4-0.4,0.9-0.6,1.3c-0.1,0.2-0.2,0.3-0.4,0.4h-1.6c-1.5,0-2.7,1.2-2.7,2.7v2.6c0,1.5,1.2,2.7,2.7,2.7h1.6
	c0.2,0.1,0.4,0.2,0.4,0.4c0.2,0.5,0.3,0.9,0.6,1.3c0.1,0.2,0.1,0.4,0,0.6l-1.1,1.1c-1,1-1,2.7,0,3.8l1.8,1.8c1,1,2.7,1,3.8,0
	l1.1-1.1c0.1-0.1,0.2-0.1,0.3-0.1c0.1,0,0.2,0,0.3,0c0.4,0.2,0.9,0.4,1.3,0.6c0.2,0.1,0.3,0.2,0.4,0.4v1.6c0,1.5,1.2,2.7,2.7,2.7
	h2.6c1.5,0,2.7-1.2,2.7-2.7v-1.6c0-0.2,0.2-0.4,0.4-0.4c0.4-0.2,0.9-0.3,1.3-0.6c0.1,0,0.2,0,0.3,0c0.1,0,0.2,0,0.3,0.1l1.1,1.1
	c1,1,2.7,1,3.8,0l1.8-1.8c1-1,1-2.7,0-3.8l-1.1-1.1c-0.1-0.2-0.1-0.4,0-0.6C542,272.3,542.2,271.8,542.3,271.4L542.3,271.4z
	 M535.2,267c0,2.1-1.3,4-3.2,4.8c-1.9,0.8-4.2,0.4-5.7-1.1s-1.9-3.7-1.1-5.7c0.8-1.9,2.7-3.2,4.8-3.2
	C532.9,261.8,535.2,264.2,535.2,267L535.2,267z"/>
</svg>
