<?xml version="1.0" encoding="utf-8"?>
<!-- Generator: Adobe Illustrator 23.0.2, SVG Export Plug-In . SVG Version: 6.00 Build 0)  -->
<svg version="1.1" id="Layer_1" xmlns="http://www.w3.org/2000/svg" xmlns:xlink="http://www.w3.org/1999/xlink" x="0px" y="0px"
	 viewBox="0 0 52 52" style="enable-background:new 0 0 52 52;" xml:space="preserve">
<style type="text/css">
	.st0{fill:#F8427B;}
	.st1{filter:url(#Adobe_OpacityMaskFilter);}
	.st2{fill-rule:evenodd;clip-rule:evenodd;fill:#FFFFFF;}
	.st3{mask:url(#mask-2_1_);fill:#FFFFFF;}
</style>
<path class="st0" d="M26,0L26,0c14.4,0,26,11.6,26,26l0,0c0,14.4-11.6,26-26,26l0,0C11.6,52,0,40.4,0,26l0,0C0,11.6,11.6,0,26,0z"/>
<defs>
	<filter id="Adobe_OpacityMaskFilter" filterUnits="userSpaceOnUse" x="8.1" y="9.7" width="30.2" height="43.9">
		<feColorMatrix  type="matrix" values="1 0 0 0 0  0 1 0 0 0  0 0 1 0 0  0 0 0 1 0"/>
	</filter>
</defs>
<mask maskUnits="userSpaceOnUse" x="8.1" y="9.7" width="30.2" height="43.9" id="mask-2_1_">
	<g class="st1">
		<path id="path-1_1_" class="st2" d="M26,0L26,0c14.4,0,26,11.6,26,26l0,0c0,14.4-11.6,26-26,26l0,0C11.6,52,0,40.4,0,26l0,0
			C0,11.6,11.6,0,26,0z"/>
	</g>
</mask>
<path class="st3" d="M8.1,34.8c0-8.5,1.8-14.8,5.4-18.9s9-6.2,16.1-6.2c2.4,0,4.4,0.1,5.7,0.4v7.2c-1.7-0.4-3.5-0.6-5.2-0.6
	c-3.1,0-5.6,0.5-7.6,1.4s-3.4,2.3-4.4,4.2s-1.6,4.4-1.7,7.8h0.4c1.9-3.3,5-5,9.3-5c3.8,0,6.8,1.2,9,3.6s3.3,5.7,3.3,10
	c0,4.6-1.3,8.2-3.9,10.9s-6.2,4-10.7,4c-3.2,0-5.9-0.7-8.3-2.2S11.3,47.8,10,45S8.1,38.8,8.1,34.8z M23.6,46.3
	c1.9,0,3.4-0.6,4.5-1.9s1.6-3.1,1.6-5.6c0-2.1-0.5-3.7-1.5-4.9s-2.4-1.8-4.4-1.8c-1.8,0-3.4,0.6-4.7,1.8s-1.9,2.6-1.9,4.2
	c0,2.3,0.6,4.3,1.8,5.9S21.7,46.3,23.6,46.3z"/>
</svg>
