<?xml version="1.0" encoding="utf-8"?>
<!-- Generator: Adobe Illustrator 23.0.2, SVG Export Plug-In . SVG Version: 6.00 Build 0)  -->
<svg version="1.1" id="Layer_1" xmlns="http://www.w3.org/2000/svg" xmlns:xlink="http://www.w3.org/1999/xlink" x="0px" y="0px"
	 viewBox="0 0 60 60" style="enable-background:new 0 0 60 60;" xml:space="preserve">
<style type="text/css">
	.st0{fill:none;}
	.st1{fill:#FFFFFF;}
</style>
<rect class="st0" width="60" height="60"/>
<path class="st1" d="M54.2,41.9l-1.3-0.3L52.8,41c0-0.2,0-0.4-0.1-0.5l-0.1-0.7l1.1-0.6c0.3-0.2,0.5-0.4,0.6-0.7
	c0.1-0.3,0-0.6-0.1-0.8l-0.7-1.3c-0.3-0.6-1-0.7-1.6-0.5l-1.1,0.6L50.3,36c-0.1-0.1-0.3-0.2-0.4-0.3l-0.6-0.4l0.4-1.3
	c0.2-0.6-0.2-1.2-0.8-1.4l-1.4-0.3c-0.6-0.2-1.2,0.2-1.4,0.8l-0.4,1.3l-0.6,0.1c-0.2,0-0.3,0-0.5,0.1L44,34.8l-0.6-1.2
	c-0.2-0.3-0.4-0.5-0.6-0.6c-0.3-0.1-0.6,0-0.8,0.1l-1.3,0.7c-0.3,0.2-0.5,0.4-0.6,0.7c-0.1,0.3,0,0.6,0.1,0.8l0.6,1.2l-0.4,0.5
	c-0.1,0.1-0.2,0.3-0.3,0.4L39.8,38l-1.4-0.4c-0.3-0.1-0.6,0-0.8,0.1c-0.3,0.2-0.5,0.4-0.6,0.7l-0.5,1.4c-0.1,0.3,0,0.6,0.1,0.8
	c0.2,0.3,0.4,0.5,0.6,0.6l1.3,0.4l0.1,0.6c0,0.2,0,0.4,0.1,0.5l0.1,0.6L37.6,44c-0.6,0.3-0.7,1-0.5,1.6l0.7,1.3
	c0.2,0.3,0.4,0.5,0.7,0.6c0.3,0.1,0.6,0,0.8-0.1l1.1-0.6l0.5,0.5c0.1,0.1,0.3,0.2,0.4,0.3l0.6,0.4L41.9,49c-0.2,0.6,0.2,1.2,0.8,1.4
	l1.4,0.4c0.6,0.2,1.2-0.2,1.4-0.8l0.4-1.3l0.6-0.1c0.2,0,0.4,0,0.5-0.1l0.6-0.1l0.6,1.2c0.2,0.3,0.4,0.5,0.6,0.6
	c0.3,0.1,0.6,0,0.8-0.1l1.3-0.7c0.6-0.3,0.7-1,0.5-1.6l-0.6-1.1l0.4-0.5c0.1-0.1,0.2-0.3,0.3-0.4l0.4-0.6l1.3,0.4
	c0.6,0.2,1.2-0.2,1.4-0.8l0.4-1.4C55.1,42.7,54.8,42.1,54.2,41.9z M49,42.5c-0.5,1.9-2.3,2.9-4.1,2.4c-1.3-0.4-2.3-1.5-2.5-2.8
	c-0.2-1.3,0.5-2.7,1.7-3.3c1.2-0.6,2.7-0.6,3.7,0.3C48.9,39.8,49.4,41.2,49,42.5z M17.3,34.9l3,15.9H5v-5.7c0-1.2,0.6-2.3,1.5-3.1
	C9.8,39.3,13.5,37,17.3,34.9z M25.9,37.5l6.1-4.4v-2.8c0.6-0.9,0.9-1.9,1.1-3.1c0.5,0,1-0.6,1.7-2.9c0.8-2.9,0-3.4-0.7-3.4
	c1.9-8.5-3-8.5-3-8.5c-0.4-1.8-3-3.6-5.3-3.2c-2.4,0.6-7.3,0-7.3,0c0,0.6,0.3,1.3,0.8,1.8c-4.3,2.6-3.3,8.3-2.9,10
	c-0.7,0-1.5,0.6-0.6,3.4c0.6,2.1,1.2,2.8,1.7,2.8c0.2,1.1,0.6,2.1,1.1,3.1V33l6,4.4l-2.2,2.9l1.6,2.5l-1.3,8.1h5.2l-1.2-8.1l1.6-2.5
	L25.9,37.5z M39.9,49.2c-0.6,0.2-1.1,0.2-1.7,0c-0.7-0.2-1.4-0.7-1.9-1.4l-0.7-1.3c-0.7-1.2-0.5-2.8,0.6-3.7
	c-0.6-0.3-0.9-0.6-1.2-1.2c-0.4-0.6-0.5-1.5-0.3-2.3l0.4-1.4c0.2-0.6,0.5-1,0.9-1.5c-0.9-0.6-1.9-1.1-2.9-1.6l-3,16h10.2
	C40.1,50.4,39.9,49.8,39.9,49.2z"/>
</svg>
