<?xml version="1.0" encoding="utf-8"?>
<!-- Generator: Adobe Illustrator 23.0.2, SVG Export Plug-In . SVG Version: 6.00 Build 0)  -->
<svg version="1.1" id="Layer_1" xmlns="http://www.w3.org/2000/svg" xmlns:xlink="http://www.w3.org/1999/xlink" x="0px" y="0px"
	 viewBox="0 0 50 50" style="enable-background:new 0 0 50 50;" xml:space="preserve">
<style type="text/css">
	.st0{fill:none;}
	.st1{fill:#F8427B;}
</style>
<rect class="st0" width="50" height="50"/>
<path id="Combined-Shape" class="st1" d="M45,32.1l-4,4.4v-2.6h-8.4c1.8-0.8,3.4-2.2,4.8-3.5H41v-2.6L45,32.1z M39.5,20.9
	c0,7.1-5.8,12.9-12.9,12.9H5L6.6,32L5,30.3h21.6c5.1,0,9.3-4.2,9.3-9.3s-4.2-9.3-9.3-9.3s-9.3,4.2-9.3,9.3c0,1,0.2,2.1,0.5,3.1
	l2.4-1l-2.3,5.8l-5.8-2.3l2.4-1c-0.5-1.5-0.9-3-0.9-4.5c0-1.5,0.3-2.8,0.7-4.1c0.1-0.2,0.1-0.3,0.2-0.5c0-0.1,0.1-0.2,0.1-0.3
	c0.4-1.1,1.1-2.3,2-3.3c2.4-2.9,5.9-4.7,9.9-4.7C33.7,8,39.5,13.8,39.5,20.9z M13.5,15.3c-1.6-1.2-2.6-3.1-2.7-5.2
	c0-3.6,2.9-6.5,6.5-6.5c0.8,0,1.6,0.2,2.4,0.4l1.1-2.4l1.9,5.7l0.1,0.3l-3.4,1.1L17,9.5l1-2.3c-0.3-0.1-0.4-0.1-0.7-0.1
	c-1.6,0-2.9,1.3-2.9,2.9c0,0.9,0.3,1.6,1,2.1c0.1,0.1,0.2,0.1,0.3,0.2c-0.8,1-1.4,2-1.8,3.1C13.7,15.3,13.6,15.3,13.5,15.3z"/>
</svg>
