<?xml version="1.0" encoding="utf-8"?>
<!-- Generator: Adobe Illustrator 23.0.2, SVG Export Plug-In . SVG Version: 6.00 Build 0)  -->
<svg version="1.1" id="Layer_1" xmlns="http://www.w3.org/2000/svg" xmlns:xlink="http://www.w3.org/1999/xlink" x="0px" y="0px"
	 viewBox="0 0 60 60" style="enable-background:new 0 0 60 60;" xml:space="preserve">
<style type="text/css">
	.st0{fill:none;}
	.st1{fill:#FFFFFF;}
</style>
<rect class="st0" width="60" height="60"/>
<path class="st1" d="M18.5,54.9l-0.4-1.6h-2.7l-0.5,1.6h-2.4l2.7-8.4h3l2.7,8.4H18.5z M17.6,51.5l-0.4-1.4c-0.1-0.3-0.2-0.7-0.3-1.2
	c-0.1-0.5-0.2-0.9-0.2-1.1c0,0.2-0.1,0.5-0.2,1c-0.1,0.5-0.3,1.4-0.7,2.6H17.6z M25.3,50h3.6v4.5c-1,0.3-2.1,0.5-3.2,0.5
	c-1.3,0-2.3-0.4-3-1.1c-0.8-0.7-1.1-1.9-1.1-3.2c0-1.4,0.4-2.4,1.2-3.1c0.8-0.7,1.9-1.2,3.2-1.2c0.5,0,1,0.1,1.5,0.2
	s0.9,0.2,1.3,0.4L28,48.7c-0.6-0.3-1.3-0.5-2-0.5c-0.7,0-1.2,0.2-1.6,0.7c-0.4,0.5-0.6,1.1-0.6,1.9c0,0.8,0.2,1.4,0.5,1.8
	c0.3,0.4,0.8,0.6,1.4,0.6c0.3,0,0.7,0,0.9-0.1v-1.3h-1.5L25.3,50L25.3,50z M30.5,54.9v-8.4h2.3v8.4H30.5z M34.6,54.9v-8.4h2.3V53
	h3.2v1.9H34.6z M46.5,54.9h-5v-8.4h5v1.9h-2.7v1.3h2.5v1.9h-2.5V53h2.7V54.9z M52.5,39.2L48,44.1v-2.9h-9.4c2.1-0.9,3.8-2.4,5.4-3.9
	h4.1v-2.9L52.5,39.2z M46.3,26.7c0,8-6.5,14.5-14.5,14.5H7.5l1.9-2.1l-1.9-1.9h24.3c5.8,0,10.5-4.7,10.5-10.5s-4.7-10.5-10.5-10.5
	S21.3,21,21.3,26.8c0,1.2,0.2,2.3,0.6,3.5l2.6-1.1L22,35.7l-6.5-2.5l2.7-1.2c-0.6-1.7-1-3.3-1-5.1c0-1.7,0.3-3.1,0.8-4.6
	c0.1-0.2,0.1-0.4,0.2-0.6c0-0.1,0.1-0.2,0.1-0.3c0.5-1.3,1.3-2.5,2.3-3.7c2.6-3.2,6.7-5.3,11.2-5.3C39.8,12.2,46.3,18.7,46.3,26.7z
	 M17.1,20.4c-1.8-1.4-2.9-3.5-3-5.9c0-4,3.2-7.3,7.3-7.3c0.9,0,1.8,0.2,2.6,0.5L25.4,5l2.2,6.4l0.1,0.3l-3.8,1.3l-2.7,1l1.2-2.5
	c-0.3-0.1-0.5-0.1-0.8-0.1c-1.8,0-3.2,1.5-3.2,3.2c0,1,0.4,1.8,1.1,2.3c0.1,0.1,0.2,0.1,0.3,0.2c-0.9,1.1-1.6,2.3-2.1,3.5
	C17.3,20.5,17.2,20.4,17.1,20.4z"/>
</svg>
