<?xml version="1.0" encoding="utf-8"?>
<!-- Generator: Adobe Illustrator 23.0.2, SVG Export Plug-In . SVG Version: 6.00 Build 0)  -->
<svg version="1.1" id="Layer_1" xmlns="http://www.w3.org/2000/svg" xmlns:xlink="http://www.w3.org/1999/xlink" x="0px" y="0px"
	 viewBox="0 0 60 60" style="enable-background:new 0 0 60 60;" xml:space="preserve">
<style type="text/css">
	.st0{fill-rule:evenodd;clip-rule:evenodd;fill:none;}
	.st1{fill-rule:evenodd;clip-rule:evenodd;fill:#FFFFFF;}
</style>
<rect class="st0" width="60" height="60"/>
<path id="Combined-Shape" class="st1" d="M10.1,17.7h8.4v6.8c-2.1,0.3-3.5,0.6-4.5,0.9s-2.3,0.9-3.9,1.7
	C10.1,27.1,10.1,17.7,10.1,17.7z M21.3,24V13.2h8.6v10.5c-1.9,0-3.3,0-4.3,0C24.6,23.7,23.1,23.8,21.3,24z M32.6,23.7V7.9h8.6v16.6
	c-1.6-0.3-3-0.4-4.3-0.6S34.1,23.7,32.6,23.7z M44.5,27.6l-0.1-0.3l3.9-1l0.2,0.1c1.6,0.7,2.8,1.4,3.8,2.2c1.1,0.8,1.9,2.1,2.6,3.6
	v0.1v11.1l-0.1,0.2c-0.5,1-1.1,1.7-1.6,2.2c-0.5,0.5-1.3,1.1-2.6,1.8l-0.2,0.1l-2.9-0.3v2.3l-0.5,0.1c-3.6,1.2-6.5,1.9-8.6,2.2
	c-2.2,0.3-5.4,0.3-9.7,0.1h-0.6v-4.2l-2.3,3.6h-0.4c-2.1-0.1-4.2-0.4-6.6-0.7c-3.7-0.5-5.1-0.9-8.7-2.6C7.6,47,5.8,45.7,5,44l0-0.2
	v-9.6v-0.1C5.6,32,7.3,30.3,9.8,29c3.4-1.8,7.1-2.5,15.5-3C30.7,25.6,37,26.2,44.5,27.6L44.5,27.6z M47,28L47,28l-14.2,4.2l17.6,3.9
	c0.9-0.4,1.6-0.9,2.2-1.5c0.4-0.4,0.8-1,1.2-1.7v-0.5c-0.6-1.4-1.3-2.4-2.1-2.9c-0.9-0.7-2-1.3-3.3-1.9L47,28z M30.6,33.2v6.7
	l1.1-1.7l16.1,3.5V46l2,0.2v-8.7L30.6,33.2z M6.3,35.3c1.3,1.7,2.8,2.8,4.8,3.6c3.4,1.4,4.5,1.4,8,2c1.5,0.3,3.6,0.5,6.6,0.5v8v-8
	l3.6-5.7v-3.9l12.2-3.5c-6.1-1.1-11.5-1.5-16-1.1c-8.4,0.7-11.9,1.4-15.1,3c-2.1,1.1-3.4,2.5-4,4.2V35.3z M29.3,42v-3.6L27,42v5
	l1-1.5v-1.7L29.3,42L29.3,42z M29.8,43.7c1.4,0.2,3.7,0.1,6.9-0.2c3-0.3,5.6-0.7,7.9-1.1l-12.3-2.8L29.8,43.7z"/>
</svg>
