<?xml version="1.0" encoding="utf-8"?>
<!-- Generator: Adobe Illustrator 23.0.2, SVG Export Plug-In . SVG Version: 6.00 Build 0)  -->
<svg version="1.1" id="Layer_1" xmlns="http://www.w3.org/2000/svg" xmlns:xlink="http://www.w3.org/1999/xlink" x="0px" y="0px"
	 viewBox="0 0 14 11" style="enable-background:new 0 0 14 11;" xml:space="preserve">
<style type="text/css">
	.st0{fill:#FFFFFF;}
</style>
<path id="check" class="st0" d="M13.7,1.7c0.2,0.2,0.2,0.4,0.2,0.6s-0.1,0.4-0.2,0.6L6,10.6c-0.2,0.2-0.4,0.2-0.6,0.2
	s-0.4-0.1-0.6-0.2L0.3,6.2C0.2,6,0.1,5.8,0.1,5.6S0.2,5.1,0.3,5l1.2-1.2c0.2-0.2,0.4-0.2,0.6-0.2s0.4,0.1,0.6,0.2l2.6,2.6l5.9-5.9
	c0.2-0.2,0.4-0.2,0.6-0.2s0.4,0.1,0.6,0.2L13.7,1.7z"/>
</svg>
