<?xml version="1.0" encoding="utf-8"?>
<!-- Generator: Adobe Illustrator 23.0.2, SVG Export Plug-In . SVG Version: 6.00 Build 0)  -->
<svg version="1.1" id="Layer_1" xmlns="http://www.w3.org/2000/svg" xmlns:xlink="http://www.w3.org/1999/xlink" x="0px" y="0px"
	 viewBox="0 0 60 60" style="enable-background:new 0 0 60 60;" xml:space="preserve">
<style type="text/css">
	.st0{fill:none;}
	.st1{fill:#FFFFFF;}
</style>
<rect class="st0" width="60" height="60"/>
<path class="st1" d="M14.3,30.5c-1.4,0-2.6,0.8-3,2.1c-0.5,1.3-0.2,2.7,0.7,3.6s2.4,1.3,3.6,0.7c1.3-0.6,2.1-1.8,2.1-3
	c0-0.4,0.4-0.8,0.8-0.8s0.8,0.4,0.8,0.8c0,2.8-2.2,4.9-4.9,4.9s-4.9-2.2-4.9-4.9s2.2-4.9,4.9-4.9c0.4,0,0.8,0.4,0.8,0.8
	C15.1,30.1,14.7,30.5,14.3,30.5z M4.2,36.5c-1-0.2-1.7-1-1.7-2.1V33c0-1,0.7-1.9,1.7-2.1l1.2-0.2c0.2-0.5,0.3-0.9,0.6-1.3l-0.7-1
	c-0.6-0.8-0.5-2,0.2-2.7l1-1c0.7-0.7,1.8-0.8,2.7-0.2l1,0.7c0.4-0.2,0.9-0.4,1.3-0.6l0.2-1.2c0.1-0.4,0.5-0.7,1-0.6
	c0.4,0.1,0.7,0.5,0.7,0.9l-0.3,1.7c-0.1,0.3-0.3,0.6-0.6,0.6c-0.7,0.2-1.4,0.5-2,0.8c-0.3,0.2-0.6,0.1-0.9,0l-1.4-1
	c-0.2-0.1-0.5-0.1-0.6,0.1l-1,1c-0.1,0.1-0.1,0.4,0,0.6l1,1.4c0.2,0.3,0.2,0.6,0,0.9c-0.3,0.6-0.6,1.2-0.8,1.9
	c-0.1,0.3-0.3,0.5-0.6,0.6l-1.7,0.3c-0.2,0-0.4,0.2-0.4,0.5v1.4c0,0.2,0.2,0.4,0.4,0.5l1.7,0.3c0.3,0,0.5,0.2,0.6,0.5
	c0.2,0.7,0.4,1.3,0.8,1.9c0.1,0.3,0.1,0.6-0.1,0.9l-1,1.4c0,0.2,0,0.5,0.2,0.6l1,1c0.1,0.2,0.4,0.2,0.6,0.1l1.4-1
	c0.3-0.2,0.6-0.2,0.9,0c0.6,0.3,1.2,0.6,1.9,0.8c0.3,0.1,0.5,0.3,0.6,0.6l0.3,1.7c0,0.2,0.2,0.4,0.5,0.4h1.4c0.2,0,0.4-0.2,0.5-0.4
	l0.3-1.7c0.1-0.3,0.3-0.6,0.6-0.6c0.7-0.2,1.3-0.4,1.9-0.8c0.3-0.2,0.6-0.1,0.9,0l1.4,1c0.2,0.1,0.5,0.1,0.6-0.1l1-1
	c0.2-0.2,0.2-0.4,0.1-0.6l-1-1.4c-0.2-0.3-0.2-0.6,0-0.9c0.3-0.6,0.6-1.2,0.8-1.9c0.1-0.3,0.3-0.5,0.6-0.6l1.7-0.3
	c0.3-0.1,0.6,0,0.8,0.3c0.2,0.2,0.2,0.5,0.1,0.8c-0.1,0.3-0.4,0.5-0.6,0.5l-1.2,0.2c-0.2,0.5-0.3,0.9-0.6,1.3l0.7,1
	c0.6,0.8,0.5,2-0.2,2.7l-1,1c-0.7,0.7-1.8,0.8-2.7,0.2l-1-0.7c-0.4,0.2-0.9,0.4-1.3,0.6l-0.2,1.2c-0.2,1-1,1.7-2.1,1.7h-1.4
	c-1,0-1.9-0.7-2.1-1.7l-0.4-1.1c-0.5-0.2-0.9-0.3-1.3-0.6l-1,0.7c-0.8,0.6-2,0.5-2.7-0.2l-1-1C4.8,41,4.7,39.8,5.2,39l0.7-1
	c-0.2-0.4-0.4-0.9-0.6-1.3L4.2,36.5z M32.8,23.5c0.9,0.4,1.4,1.5,1.2,2.5l-0.4,1.3c-0.3,1-1.2,1.7-2.2,1.6l-1-0.1
	c-0.2,0.3-0.5,0.6-0.7,0.8c-0.3,0.3-0.5,0.5-0.8,0.7l0.1,1c0.1,1-0.6,2-1.6,2.2l-1.3,0.4c-1,0.3-2-0.2-2.5-1.1l-0.6-1
	c-0.7-0.1-1.4-0.3-2.1-0.6l-0.9,0.6c-0.8,0.6-2,0.5-2.7-0.2l-1-1c-0.7-0.7-0.8-1.9-0.2-2.7l0.6-0.9c-0.3-0.7-0.5-1.4-0.6-2.1
	l-0.9-0.4c-0.9-0.4-1.4-1.5-1.1-2.5l0.4-1.3c0.3-1,1.2-1.7,2.2-1.6l1,0.1c0.4-0.6,1-1.1,1.5-1.5l-0.1-1c-0.1-1,0.6-2,1.6-2.2
	l1.3-0.4c1-0.3,2,0.2,2.5,1.2l0.5,0.9c0.7,0.1,1.4,0.3,2.1,0.6l0.8-0.6c0.8-0.6,2-0.5,2.7,0.2l1,1c0.7,0.7,0.8,1.9,0.2,2.7l-0.6,0.9
	c0.3,0.7,0.5,1.4,0.6,2.1L32.8,23.5z M32.3,25.5L32.3,25.5c0.1-0.2,0-0.4-0.2-0.5l-1.4-0.6c-0.3-0.1-0.5-0.4-0.5-0.7
	c0-0.8-0.3-1.7-0.6-2.4c-0.1-0.3-0.1-0.6,0.1-0.9l0.9-1.2c0.1-0.2,0.1-0.4-0.1-0.6l-1-1c-0.2-0.2-0.4-0.2-0.6-0.1l-1.2,0.9
	c-0.3,0.2-0.6,0.2-0.9,0.1c-0.8-0.4-1.6-0.6-2.4-0.6c-0.3,0-0.6-0.2-0.7-0.5L23.1,16c-0.1-0.2-0.3-0.3-0.5-0.2l-1.3,0.4
	c-0.2,0.1-0.4,0.2-0.3,0.5v1.4c0,0.3-0.1,0.6-0.4,0.8c-0.7,0.5-1.3,1.1-1.8,1.8c-0.1,0.2-0.4,0.4-0.7,0.4L16.7,21
	c-0.2,0-0.4,0.1-0.5,0.3l-0.4,1.3c-0.1,0.2,0,0.4,0.2,0.5l1.4,0.6c0.3,0.1,0.5,0.4,0.5,0.7c0,0.8,0.3,1.7,0.6,2.4
	c0.1,0.3,0.1,0.6-0.1,0.8l-0.9,1.2c-0.1,0.2-0.1,0.4,0,0.6l1,1c0.2,0.2,0.4,0.2,0.6,0.1l1.2-0.9c0.3-0.2,0.6-0.2,0.9-0.1
	c0.8,0.4,1.6,0.6,2.4,0.6c0.3,0,0.6,0.2,0.7,0.5l0.6,1.4c0.1,0.2,0.3,0.3,0.5,0.2l1.3-0.4c0.2-0.1,0.4-0.2,0.3-0.5l0.2-1.2
	c0-0.3,0.1-0.6,0.4-0.8c0.7-0.5,1.3-1.1,1.8-1.8c0.2-0.3,0.5-0.4,0.8-0.4l1.5,0.1c0.2,0,0.4-0.1,0.5-0.3L32.3,25.5z M24.6,20.1
	c1.9,0,3.4,1.6,3.4,3.4c0,1.9-1.6,3.4-3.4,3.4c-1.9,0-3.4-1.6-3.4-3.4C21.2,21.6,22.7,20.1,24.6,20.1z M24.6,25.4
	c1,0,1.9-0.8,1.9-1.9c0-0.8-0.5-1.4-1.2-1.7s-1.5-0.1-2,0.4c-0.5,0.5-0.7,1.3-0.4,2C23.2,24.9,23.8,25.4,24.6,25.4z M31.4,35.8
	c-1.1,0-1.9,0.4-2.5,1.1c-0.6,0.7-0.9,1.8-0.9,3c0,1.4,0.3,2.5,0.9,3.1c0.6,0.7,1.4,1.1,2.6,1.1c0.5,0,1,0,1.4-0.1
	c0.4-0.1,0.9-0.2,1.4-0.4v1.6c-0.9,0.3-1.9,0.5-2.9,0.5c-1.7,0-2.9-0.5-3.8-1.5s-1.3-2.5-1.3-4.2c0-1.2,0.2-2.2,0.7-3
	c0.5-0.9,1.1-1.6,1.9-2c0.8-0.4,1.8-0.7,2.8-0.7c1.2,0,2.2,0.2,3.1,0.7L34,36.6c-0.4-0.2-0.8-0.3-1.2-0.5
	C32.5,35.9,31.8,35.8,31.4,35.8z M41.4,45.6l-3.2-9.3h-0.1c0.1,1.4,0.1,2.7,0.1,3.9v5.4h-1.7V34.4H39l3.1,8.9l0,0l3.2-8.9H48v11.2
	h-1.8v-5.5c0-0.6,0-1.3,0-2.2s0.1-1.5,0.1-1.7h-0.1L43,45.6H41.4z M57.5,42.6c0,1-0.4,1.8-1.1,2.4c-0.7,0.6-1.7,0.9-2.9,0.9
	c-1.3,0-2.3-0.2-3.1-0.6v-1.8c0.5,0.2,1.1,0.4,1.7,0.6c0.6,0.2,1.1,0.2,1.6,0.2c0.7,0,1.3-0.1,1.6-0.4c0.3-0.3,0.5-0.7,0.5-1.1
	s-0.2-0.8-0.5-1.1c-0.3-0.3-1-0.6-2-1.1c-1-0.4-1.8-0.9-2.2-1.4c-0.4-0.5-0.6-1.2-0.6-2c0-1,0.3-1.7,1-2.2c0.7-0.5,1.6-0.8,2.7-0.8
	c1.1,0,2.2,0.2,3.2,0.7l-0.6,1.5c-1-0.4-1.9-0.6-2.7-0.6c-0.6,0-1.1,0.1-1.4,0.4c-0.3,0.3-0.5,0.6-0.5,1c0,0.3,0.1,0.6,0.2,0.8
	c0.1,0.2,0.3,0.4,0.6,0.6c0.3,0.2,0.8,0.4,1.5,0.7c0.8,0.3,1.5,0.7,1.8,1c0.3,0.3,0.7,0.6,0.9,1C57.3,41.7,57.5,42.1,57.5,42.6z"/>
</svg>
