<?xml version="1.0" encoding="utf-8"?>
<!-- Generator: Adobe Illustrator 23.0.2, SVG Export Plug-In . SVG Version: 6.00 Build 0)  -->
<svg version="1.1" id="Layer_1" xmlns="http://www.w3.org/2000/svg" xmlns:xlink="http://www.w3.org/1999/xlink" x="0px" y="0px"
	 viewBox="0 0 60 60" style="enable-background:new 0 0 60 60;" xml:space="preserve">
<style type="text/css">
	.st0{fill:none;}
	.st1{fill:#FFFFFF;}
</style>
<rect class="st0" width="60" height="60"/>
<path id="Combined-Shape" class="st1" d="M51.8,17.8c0.9,0.9,0.9,2.4,0,3.1l-9,9c-0.7,0.7-2.5,0.7-3.1,0c-0.9-0.9-0.9-2.4,0-3.1
	l7.4-7.4L39.7,12c-0.9-0.9-0.9-2.4,0-3.2c0.9-0.9,2.4-0.9,3.1,0L51.8,17.8z M20.4,8.8c0.9,0.9,0.9,2.4,0,3.2L13,19.4l7.4,7.4
	c0.9,0.9,0.9,2.4,0,3.1c-0.7,0.7-2.5,0.7-3.1,0l-9-9c-0.9-0.9-0.9-2.4,0-3.1l9-9C18.1,7.9,19.5,7.9,20.4,8.8z M35,7.4
	c1.2,0.3,1.8,1.6,1.5,2.8L27.9,30c-0.2,1-1.6,1.8-2.8,1.5c-1.2-0.3-1.8-1.6-1.5-2.8l8.5-19.8C32.6,7.6,33.7,7,35,7.4z M13.4,42.7
	c-0.7,0-1.3,0.3-1.8,1s-0.7,1.6-0.7,2.7c0,2.4,0.9,3.5,2.7,3.5c0.4,0,1.1-0.1,1.6-0.2c0.4-0.1,1-0.3,1.6-0.5V52
	c-1,0.5-2.1,0.7-3.4,0.7c-1.8,0-3.3-0.5-4.3-1.6s-1.6-2.8-1.6-4.7c0-1.2,0.2-2.4,0.7-3.3c0.4-1,1.2-1.7,2-2.1c0.9-0.5,1.9-0.9,3-0.9
	c1.3,0,2.6,0.2,3.7,0.9l-0.8,2.5c-0.5-0.2-0.9-0.3-1.4-0.5S13.8,42.7,13.4,42.7z M30.3,46.3c0,2-0.5,3.6-1.5,4.6s-2.4,1.6-4.4,1.6
	c-1.9,0-3.4-0.5-4.4-1.6c-1-1.1-1.6-2.7-1.6-4.6c0-2,0.5-3.5,1.5-4.6s2.5-1.6,4.4-1.6s3.4,0.5,4.4,1.6
	C29.8,42.7,30.3,44.3,30.3,46.3z M22,46.3c0,2.4,0.9,3.5,2.5,3.5c0.9,0,1.5-0.2,1.8-0.9c0.3-0.6,0.6-1.5,0.6-2.7
	c0-1.2-0.2-2-0.6-2.7c-0.3-0.6-1-0.9-1.8-0.9C22.8,42.7,22,43.9,22,46.3z M42.8,46.1c0,2-0.6,3.6-1.7,4.7s-2.7,1.7-4.7,1.7h-3.9
	V40.3h4.3c1.9,0,3.4,0.5,4.5,1.5C42.4,42.7,42.8,44.2,42.8,46.1z M39.5,46.2c0-1.1-0.2-1.9-0.6-2.5c-0.3-0.6-1.1-0.9-2-0.9h-1v6.8
	h0.7c1,0,1.7-0.2,2.1-0.9C39.2,48.2,39.5,47.3,39.5,46.2z M52.3,52.5h-7.2V40.3h7.2V43h-3.9V45h3.6v2.7h-3.6v2.1h3.9V52.5z"/>
</svg>
