<?xml version="1.0" encoding="utf-8"?>
<!-- Generator: Adobe Illustrator 23.0.2, SVG Export Plug-In . SVG Version: 6.00 Build 0)  -->
<svg version="1.1" id="Layer_1" xmlns="http://www.w3.org/2000/svg" xmlns:xlink="http://www.w3.org/1999/xlink" x="0px" y="0px"
	 viewBox="0 0 60 60" style="enable-background:new 0 0 60 60;" xml:space="preserve">
<style type="text/css">
	.st0{fill-rule:evenodd;clip-rule:evenodd;fill:none;}
	.st1{fill-rule:evenodd;clip-rule:evenodd;fill:#FFFFFF;}
</style>
<rect class="st0" width="60" height="60"/>
<path class="st1" d="M29.5,20c-5.1,0.2-9.1,4.3-9.5,9.3L12.9,26l-7.6,3.6C5.1,29.7,5,29.9,5,30.1V30C5,16.4,15.9,5.3,29.5,5
	c0,0.1,0,0.1,0,0.2l3.5,7.4l-3.4,7.2C29.5,19.9,29.5,19.9,29.5,20z M30.5,20l3.5-7.4L30.6,5C44.1,5.3,55,16.4,55,30
	c0,0.1,0,0.3,0,0.4c0-0.1,0-0.1,0-0.1c-0.1-0.3-0.4-0.4-0.7-0.2l-7.4,3.4L40,30.2c0-0.1,0-0.1,0-0.2C40,24.7,35.8,20.3,30.5,20z
	 M39.9,31.3l7,3.3l7.8-3.6c0.2-0.1,0.3-0.2,0.3-0.4C54.7,44.1,43.7,54.9,30.1,55c0.1,0,0.1,0,0.2,0c0.2-0.1,0.4-0.4,0.2-0.7
	l-3.4-7.2l3.3-7.1C35.3,39.8,39.3,36.1,39.9,31.3z M29.3,40L26,47.1l3.6,7.6c0.1,0.2,0.3,0.3,0.4,0.3h-0.1C16.2,55,5.1,43.9,5,30.1
	c0,0.1,0,0.1,0,0.2c0.1,0.2,0.4,0.4,0.7,0.2l7.2-3.4l7.1,3.3C20.2,35.5,24.3,39.6,29.3,40z M42.8,43.5v-4.1c0-0.1,0-0.2-0.1-0.3
	C42.5,39,42.4,39,42.3,39h-5.9c-0.1,0-0.2,0-0.3,0.1C36,39.2,36,39.3,36,39.4v6.3l1.8-1.8h4.5c0.1,0,0.2,0,0.3-0.1
	C42.7,43.7,42.8,43.6,42.8,43.5z M44.6,40.8h-0.9v4.1h-5.9v0.9c0,0.1,0,0.2,0.1,0.3s0.2,0.1,0.3,0.1h5L45,48v-6.8
	c0-0.1,0-0.2-0.1-0.3C44.8,40.8,44.7,40.8,44.6,40.8z M23.6,13.5L23,14c0.9,1.4,0.5,3.2-0.9,4.2S19,18.8,18,17.5s-0.9-3.1,0.3-4.2
	c1.2-1.1,3.1-1.1,4.2,0.1l0.6-0.5v-0.7l0,0c-1.8-1.4-4.3-1.3-5.9,0.4s-1.7,4.2-0.2,5.9c1.5,1.7,4,2.1,5.9,0.8
	c0.1-0.1,0.2-0.2,0.3-0.3c1.6-1.3,2-3.5,1.1-5.3L23.6,13.5z M20.4,14.6c0.2,0,0.4,0.1,0.6,0.2l0.9-0.8c-0.8-0.8-2.1-0.7-2.9,0
	c-0.8,0.8-0.9,2-0.2,2.9c0.7,0.9,2,1.1,2.9,0.5c0.9-0.6,1.3-1.9,0.7-2.9l-0.9,0.8c0,0.1,0,0.2,0,0.3c0,0.6-0.5,1-1,1
	c-0.6,0-1-0.5-1-1C19.4,15,19.8,14.6,20.4,14.6z M23.3,12.8l0.2-0.1l0.1-0.1l1.2-1l0,0l0.1-0.1v-0.4c0,0,0-0.1-0.1-0.1h-0.1
	l-1.4,1.1v0.1v0.1L23.3,12.8z M25.9,12.2C25.9,12.2,25.8,12.1,25.9,12.2L25.3,12c0,0,0,0.1-0.1,0.1h-0.1l-1.1,1l0,0.1l-0.2,0.1
	l0.4,0.1h0.2l0,0c0,0,0,0,0.1,0l1.4-1.1C25.9,12.3,25.9,12.3,25.9,12.2z M22,14.1l-0.9,0.7l-0.8,0.7l-0.1,0.1c0,0.1,0,0.1,0,0.2
	l0.1,0.1c0.1,0,0.1,0,0.2,0l0.8-0.7l0.9-0.8l2.9-2.4l0.1-0.1c0-0.1,0-0.1,0-0.2l-0.1-0.1c-0.1,0-0.1,0-0.2,0l0,0L22,14.1z
	 M14.6,37.1c0,0.2,0.2,0.4,0.4,0.4s0.4-0.2,0.4-0.4v-0.4c0-0.1-0.1-0.3-0.2-0.3c0-0.6,0.2-1.1,0.5-1.4c0.6-0.6,1.4-0.6,1.4-0.6l0,0
	c0,0,0.8,0,1.4,0.6c0.3,0.3,0.5,0.8,0.5,1.4c-0.1,0.1-0.2,0.2-0.2,0.3v0.4c0,0.1,0.1,0.3,0.2,0.3c0,0.2-0.1,0.5-0.4,0.8
	c-0.3,0.2-0.7,0.4-1.2,0.3c-0.1-0.1-0.2-0.2-0.3-0.2c-0.2,0-0.3,0.1-0.3,0.3s0.1,0.3,0.3,0.3c0.1,0,0.2-0.1,0.3-0.1s0.1,0,0.2,0
	c0.5,0,1-0.1,1.3-0.4c0.4-0.3,0.5-0.8,0.5-1c0.1-0.1,0.2-0.2,0.2-0.3v-0.4c0-0.1-0.1-0.3-0.2-0.3c0-0.7-0.3-1.2-0.6-1.6
	C18,34,17.1,34,17.1,34c-0.1,0-1,0-1.6,0.7c-0.4,0.4-0.6,0.9-0.6,1.6c-0.1,0.1-0.2,0.2-0.2,0.3L14.6,37.1L14.6,37.1z M22,42.4
	c0-0.2-0.1-0.4-0.2-0.6c-0.1-0.2-0.2-0.3-0.3-0.4c-0.1-0.2-0.3-0.3-0.5-0.3c-0.1,0-2.5-1.1-2.6-1.2v-0.6c0,0,0,0,0-0.1l0.1-0.3
	c-0.3,0.1-0.6,0.2-1,0.2c0,0,0,0-0.1,0c-0.1,0.1-0.2,0.1-0.4,0.1c-0.3,0-0.6-0.3-0.6-0.6S16.7,38,17,38c0.2,0,0.3,0.1,0.5,0.2
	c0.4,0,0.7-0.1,0.9-0.3c0.1-0.1,0.2-0.3,0.3-0.4c-0.1-0.1-0.2-0.3-0.2-0.4v-0.4c0-0.2,0.1-0.3,0.2-0.5c-0.1-0.4-0.2-0.8-0.4-1.1
	c-0.3-0.3-0.7-0.4-0.9-0.5h-0.2h-0.1c-0.2,0-0.7,0.1-1,0.5c-0.2,0.3-0.4,0.6-0.4,1.1c0.1,0.1,0.2,0.3,0.2,0.5v0.4
	c0,0.3-0.2,0.5-0.5,0.6l0,0v0.1c0.1,0.3,0.2,0.6,0.3,0.8c0,0.1,0.1,0.2,0.1,0.3s0,0.1,0.1,0.2v0.1v0.5C15.6,39.9,13.1,41,13,41
	c-0.2,0.1-0.4,0.2-0.5,0.3s-0.2,0.3-0.3,0.4C12.1,42,12,42.2,12,42.4V43h10.1L22,42.4L22,42.4z M40.6,22.3c0-0.2-0.2-0.5-0.5-0.5
	h-0.5c-0.3,0-0.5,0.2-0.5,0.5V24h1.6L40.6,22.3L40.6,22.3z M42,21.3c-0.3,0-0.5,0.2-0.5,0.5V24h1.6v-2.2c0-0.2-0.2-0.5-0.5-0.5H42z
	 M44.5,20.2c-0.3,0-0.5,0.2-0.5,0.5V24h1.6v-3.4c0-0.2-0.2-0.5-0.5-0.5h-0.6V20.2z M46.4,18.5V24H48v-5.5c0-0.2-0.2-0.5-0.5-0.5H47
	C46.7,18,46.4,18.2,46.4,18.5z M47.2,16.4l0.5,0.3c0.2,0.1,0.3,0,0.3-0.1v-1.4c0-0.2-0.1-0.2-0.3-0.2l-1.5,0.5
	c-0.2,0.1-0.2,0.2,0,0.3l0.5,0.3c-3.2,3.3-7.6,4.3-7.7,4.4l0.2,0.5C39.4,21,43.9,19.9,47.2,16.4z M24.8,28.8c-0.4,0-0.7,0.1-0.9,0.4
	c-0.2,0.3-0.3,0.7-0.3,1.3c0,1.1,0.4,1.7,1.3,1.7c0.4,0,0.8-0.1,1.3-0.3v0.9c-0.4,0.2-0.9,0.3-1.4,0.3c-0.7,0-1.3-0.2-1.7-0.7
	s-0.6-1.1-0.6-1.9c0-0.5,0.1-1,0.3-1.4c0.2-0.4,0.5-0.7,0.8-0.9c0.4-0.2,0.8-0.3,1.2-0.3c0.5,0,1,0.1,1.5,0.4L26,29.2
	c-0.2-0.1-0.4-0.2-0.6-0.2C25.1,28.8,24.9,28.8,24.8,28.8z M28.1,30.2h0.3c0.3,0,0.6-0.1,0.7-0.2s0.2-0.3,0.2-0.5s-0.1-0.4-0.2-0.5
	c-0.2-0.1-0.4-0.2-0.8-0.2H28L28.1,30.2L28.1,30.2z M28.1,31.1V33H27v-5h1.5c0.7,0,1.2,0.1,1.5,0.4s0.5,0.6,0.5,1.1
	c0,0.3-0.1,0.6-0.2,0.8c-0.2,0.2-0.4,0.4-0.7,0.5c0.8,1.1,1.2,1.8,1.5,2.2h-1.2l-1.2-1.9H28.1z M33.8,33l-1.2-3.9l0,0
	c0,0.8,0.1,1.3,0.1,1.6V33h-0.9v-5h1.4l1.2,3.8l0,0l1.3-3.8h1.4v5h-1v-2.4c0-0.1,0-0.2,0-0.4s0-0.5,0-1.2l0,0l-1.3,4H33.8z"/>
</svg>
