<?xml version="1.0" encoding="utf-8"?>
<!-- Generator: Adobe Illustrator 23.0.2, SVG Export Plug-In . SVG Version: 6.00 Build 0)  -->
<svg version="1.1" id="Layer_1" xmlns="http://www.w3.org/2000/svg" xmlns:xlink="http://www.w3.org/1999/xlink" x="0px" y="0px"
	 viewBox="0 0 60 60" style="enable-background:new 0 0 60 60;" xml:space="preserve">
<style type="text/css">
	.st0{fill:none;}
	.st1{fill:#FFFFFF;}
</style>
<rect class="st0" width="60" height="60"/>
<path id="Combined-Shape" class="st1" d="M49.5,33.3V13.8c0-0.2-0.1-0.4-0.2-0.5c-0.1-0.1-0.3-0.2-0.5-0.2H11.2
	c-0.2,0-0.4,0.1-0.5,0.2c-0.2,0.1-0.2,0.3-0.2,0.5v19.6c0,0.2,0.1,0.4,0.2,0.5c0.1,0.1,0.3,0.2,0.5,0.2h37.5c0.2,0,0.4-0.1,0.5-0.2
	C49.3,33.7,49.5,33.5,49.5,33.3z M52.5,13.8v25.5c0,1.1-0.3,1.9-1.1,2.6c-0.7,0.7-1.6,1.1-2.6,1.1H35.9c0,0.6,0.1,1.2,0.4,1.8
	c0.2,0.6,0.5,1.2,0.7,1.7c0.2,0.5,0.4,0.8,0.4,1.1c0,0.4-0.1,0.7-0.4,1.1c-0.3,0.3-0.6,0.4-1.1,0.4H23.9c-0.4,0-0.7-0.1-1.1-0.4
	s-0.4-0.6-0.4-1.1c0-0.2,0.1-0.5,0.4-1.1c0.2-0.4,0.5-1.1,0.7-1.7s0.4-1.3,0.4-1.8H11.2c-1.1,0-1.9-0.3-2.6-1.1
	c-0.7-0.7-1.1-1.6-1.1-2.6V13.8c0-1.1,0.3-1.9,1.1-2.6s1.6-1.1,2.6-1.1h37.5c1.1,0,1.9,0.3,2.6,1.1C52.1,11.8,52.5,12.8,52.5,13.8z
	 M38.1,14.1c0.5,0,0.9,0.2,1.3,0.5c0.4,0.2,0.6,0.6,0.6,1.2c0,0.4-0.2,0.9-0.5,1.6c-2.3,4.4-4,7-4.9,8c-0.6,0.6-1.5,0.9-2.3,0.9
	s-1.7-0.3-2.3-0.9c-0.6-0.6-0.9-1.5-0.9-2.3c0-0.9,0.3-1.7,0.9-2.2l6.7-6.1C37.1,14.2,37.6,14.1,38.1,14.1z M28.5,25
	c0.3,0.5,0.6,0.9,1.2,1.4c0.5,0.4,1.1,0.6,1.6,0.8v0.7c0,1.5-0.4,2.7-1.4,3.7S27.7,33,26.2,33c-0.8,0-1.7-0.2-2.3-0.5
	c-0.6-0.3-1.2-0.7-1.6-1.4c-0.4-0.6-0.7-1.3-0.9-1.9c-0.2-0.7-0.3-1.5-0.3-2.3c0,0,0.2,0.1,0.4,0.3c0.2,0.2,0.4,0.3,0.6,0.4
	s0.4,0.3,0.6,0.4s0.4,0.2,0.5,0.2c0.3,0,0.5-0.1,0.6-0.4c0.2-0.4,0.4-0.8,0.6-1.2c0.2-0.3,0.5-0.6,0.7-0.8c0.2-0.2,0.5-0.4,0.9-0.5
	c0.3-0.1,0.7-0.2,1.1-0.3C27.6,24.9,28,25.1,28.5,25z"/>
</svg>
