<?xml version="1.0" encoding="utf-8"?>
<!-- Generator: Adobe Illustrator 23.0.2, SVG Export Plug-In . SVG Version: 6.00 Build 0)  -->
<svg version="1.1" id="Layer_1" xmlns="http://www.w3.org/2000/svg" xmlns:xlink="http://www.w3.org/1999/xlink" x="0px" y="0px"
	 viewBox="0 0 50 50" style="enable-background:new 0 0 50 50;" xml:space="preserve">
<style type="text/css">
	.st0{fill:none;}
	.st1{fill:#FA8B55;}
</style>
<rect class="st0" width="50" height="50"/>
<path class="st1" d="M14.9,14.8c-3-1.2-3.2-1.8-3.2-2.5c0-0.9,0.8-1.4,2.1-1.4c1.9,0,3,0.7,3.5,1l1.6,1l2-5.2l-1.2-0.7
	c-1-0.7-2.2-1-3.4-1.2H16V2.1h-5.1v3.8L10.6,6c-3,1-5,3.6-5,6.8c0,4.2,3.3,6.1,6.6,7.4c2.6,1,2.9,1.9,2.9,2.7c0,1.3-1.3,1.8-2.5,1.8
	c-1.4,0-3-0.5-4.1-1.2l-1.6-1.1L5,27.6l1,0.7c1,0.8,2.7,1.3,4.4,1.6h0.3v3.6h5.2v-3.9l0.2-0.1c3.2-1,5.2-3.8,5.2-7
	C21.2,17.9,17.9,16,14.9,14.8z M42.6,41L42.6,41c-0.2-0.2-0.6-0.2-0.8,0c-1.1,1-2.7,1.5-4.1,1.5c-2.2,0-4.3-1.1-5.4-3H38
	c0.3,0,0.6-0.2,0.6-0.5v-1.6c0-0.3-0.3-0.5-0.6-0.5h-6.7c-0.1-0.3-0.1-0.7-0.1-1s0-0.6,0.1-1h6.6c0.3,0,0.6-0.2,0.6-0.5v-1.6
	c0-0.3-0.3-0.5-0.6-0.5h-5.6c1.1-1.8,3.2-3,5.4-3c1.5,0,3,0.6,4.1,1.5c0.2,0.2,0.6,0.2,0.8,0l2.2-1.7c0.1-0.1,0.2-0.2,0.2-0.4
	c0-0.1-0.1-0.3-0.2-0.4c-1.8-1.5-4.4-2.5-7-2.5c-4.3,0-8.3,2.6-9.8,6.5h-2.4c-0.3,0-0.6,0.2-0.6,0.5v1.6c0,0.3,0.3,0.5,0.6,0.5h1.7
	c0,0.4-0.1,0.7-0.1,1s0,0.6,0.1,1h-1.7c-0.3,0-0.6,0.2-0.6,0.5V39c0,0.3,0.3,0.5,0.6,0.5H28c1.5,3.8,5.5,6.5,9.8,6.5
	c2.7,0,5.1-1,7-2.6c0.1-0.1,0.2-0.2,0.2-0.4c0-0.1-0.1-0.3-0.2-0.4L42.6,41z"/>
</svg>
