<?xml version="1.0" encoding="utf-8"?>
<!-- Generator: Adobe Illustrator 23.0.2, SVG Export Plug-In . SVG Version: 6.00 Build 0)  -->
<svg version="1.1" id="Layer_1" xmlns="http://www.w3.org/2000/svg" xmlns:xlink="http://www.w3.org/1999/xlink" x="0px" y="0px"
	 viewBox="0 0 16 19" style="enable-background:new 0 0 16 19;" xml:space="preserve">
<style type="text/css">
	.st0{fill:#FFFFFF;}
</style>
<path id="file_text-" class="st0" d="M14.7,4.4c0.2,0.2,0.3,0.4,0.5,0.8c0.1,0.3,0.2,0.6,0.2,0.9v11.6c0,0.3-0.1,0.5-0.3,0.7
	c-0.2,0.2-0.4,0.3-0.7,0.3H1c-0.3,0-0.5-0.1-0.7-0.3C0.1,18.1,0,17.9,0,17.6V1.5C0,1.3,0.1,1,0.3,0.9S0.7,0.6,1,0.6h9
	c0.3,0,0.6,0.1,0.9,0.2s0.6,0.3,0.8,0.5L14.7,4.4z M10.3,1.9v3.8h3.8c-0.1-0.2-0.1-0.3-0.2-0.4l-3.1-3.1C10.6,2.1,10.5,2,10.3,1.9z
	 M14.1,17.3V7H10C9.7,7,9.5,6.9,9.3,6.7S9,6.3,9,6V1.9H1.3v15.4H14.1z M3.9,8.6c0-0.1,0-0.2,0.1-0.2C4,8.3,4.1,8.3,4.2,8.3h7.1
	c0.1,0,0.2,0,0.2,0.1c0.1,0.1,0.1,0.1,0.1,0.2v0.6c0,0.1,0,0.2-0.1,0.2c-0.1,0.1-0.1,0.1-0.2,0.1H4.2c-0.1,0-0.2,0-0.2-0.1
	C3.9,9.4,3.9,9.3,3.9,9.2V8.6z M11.2,10.9c0.1,0,0.2,0,0.2,0.1c0.1,0.1,0.1,0.1,0.1,0.2v0.6c0,0.1,0,0.2-0.1,0.2
	c-0.1,0.1-0.1,0.1-0.2,0.1H4.2c-0.1,0-0.2,0-0.2-0.1c-0.1-0.1-0.1-0.1-0.1-0.2v-0.6c0-0.1,0-0.2,0.1-0.2c0.1-0.1,0.1-0.1,0.2-0.1
	H11.2z M11.2,13.4c0.1,0,0.2,0,0.2,0.1c0.1,0.1,0.1,0.1,0.1,0.2v0.6c0,0.1,0,0.2-0.1,0.2c-0.1,0.1-0.1,0.1-0.2,0.1H4.2
	c-0.1,0-0.2,0-0.2-0.1c-0.1-0.1-0.1-0.1-0.1-0.2v-0.6c0-0.1,0-0.2,0.1-0.2c0.1-0.1,0.1-0.1,0.2-0.1H11.2z"/>
</svg>
