<?xml version="1.0" encoding="utf-8"?>
<!-- Generator: Adobe Illustrator 23.0.2, SVG Export Plug-In . SVG Version: 6.00 Build 0)  -->
<svg version="1.1" id="Layer_1" xmlns="http://www.w3.org/2000/svg" xmlns:xlink="http://www.w3.org/1999/xlink" x="0px" y="0px"
	 viewBox="0 0 1534 108" style="enable-background:new 0 0 1534 108;" xml:space="preserve">
<style type="text/css">
	.st0{fill:#FFFFFF;fill-opacity:0.2141;}
</style>
<path id="GetStartedForFree" class="st0" d="M96.6,33.5H68.2c0-4-2-6.9-5.9-8.5c-3-1.3-7-2-12.2-2c-9.5,0-15.5,1.7-18.1,5.2
	c-2,2.6-2.9,8.6-2.9,18.1v17.1c0,8.8,1.7,14.6,5,17.5c2.8,2.4,8.1,3.6,16,3.6c7.3,0,12.1-1.1,14.5-3.4c2.4-2.3,3.6-7.1,3.6-14.3
	H48.9V47.2h47.7v18.3c0,17.5-3,28.8-9,34s-18.5,7.8-37.5,7.8c-17.8,0-30.2-2.4-37.2-7.3C4.5,94.2,0.3,83.3,0.3,67.2V40.1
	c0-16.1,4.4-27.2,13.3-33c7.1-4.7,19.3-7,36.5-7c15.4,0,26.6,2,33.5,6C92.3,11.1,96.6,20.2,96.6,33.5z M131.9,60.1h23.7
	c0-5.2-0.9-8.6-2.7-10s-4.9-2.2-9.5-2.2c-4.4,0-7.4,0.8-9,2.4C132.7,52,131.9,55.2,131.9,60.1z M179.6,73.4h-47.7
	c0,6.7,0.7,11.2,2.2,13.5s4.7,3.4,9.7,3.4c4.4,0,7.3-0.3,8.7-1c2.1-1,3.1-3.3,3.1-6.9h24.1c0,10.4-3.4,17.3-10.2,20.9
	c-4.9,2.5-13.4,3.8-25.6,3.8c-14.2,0-23.7-2.8-28.6-8.3s-7.4-15.4-7.4-29.5c0-14.6,2.3-24.5,6.9-29.7c5-5.7,14.7-8.5,29.1-8.5
	c13.9,0,23.4,2.6,28.4,7.9s7.5,15.4,7.5,30.3v4.1H179.6z M247.4,32.5v17.6h-27.9V83c0,2.3,0.4,4,1.1,5c0.7,1,2.2,1.5,4.3,1.5
	c2.3,0,4-0.9,4.9-2.8s1.4-4.1,1.4-6.7v-4h19.3v6.6c0,9.7-2.1,16.3-6.2,19.7c-3.7,3.2-10.7,4.8-20.9,4.8c-9.2,0-15.9-1.1-19.9-3.4
	c-5.5-3.1-8.3-8.9-8.3-17.4V50.1h-9V32.5h9V17h24.1v15.5H247.4z M397.2,33.9h-26.9c0-4.9-1.1-8-3.2-9.2s-6.3-1.8-12.5-1.8
	c-7.1,0-11.7,0.7-13.9,2.2c-1.8,1.2-2.7,3.5-2.7,6.9c0,4.2,1.7,6.9,5,8.1c1.4,0.6,4.8,1.4,10.1,2.4l26.9,5.3
	c13.3,2.5,20,10.7,20,24.5c0,14.8-2.7,24.4-8,28.6c-5.4,4.2-17.8,6.4-37.5,6.4c-16.4,0-27.5-1.9-33.3-5.6
	C313.7,96.8,310,87,310,72.3h27c0,5.2,1.1,8.5,3.4,9.9s7,2.1,14.2,2.1c7,0,11.7-0.6,14-1.8c2.3-1.2,3.5-4,3.5-8.4
	c0-2.7-0.7-4.8-2-6.2c-1.9-2-5.5-3.3-10.8-4.1l-26.7-3.9c-6.8-1-12-3.3-15.5-6.9c-4.7-4.7-7-11.7-7-21.1c0-13.3,4-22.2,11.9-26.7
	c6.2-3.5,17-5.3,32.6-5.3c15,0,25.5,1.7,31.5,5.2c7.4,4.3,11.1,12.4,11.1,24.4V33.9z M469.3,32.5v17.6h-27.9V83c0,2.3,0.4,4,1.1,5
	s2.2,1.5,4.3,1.5c2.3,0,4-0.9,4.9-2.8s1.4-4.1,1.4-6.7v-4h19.3v6.6c0,9.7-2.1,16.3-6.2,19.7c-3.7,3.2-10.7,4.8-20.9,4.8
	c-9.2,0-15.9-1.1-19.9-3.4c-5.5-3.1-8.3-8.9-8.3-17.4V50.1h-9V32.5h9V17h24.1v15.5H469.3z M529.6,95.1h-0.8
	c-0.8,4.6-3.5,7.8-8.1,9.8c-3.5,1.5-7.8,2.2-13,2.2c-9.1,0-15.7-1.5-19.6-4.5c-4.7-3.5-7-9.8-7-18.6c0-8.6,2.1-14.6,6.4-18
	s11-5.1,20.2-5.1c5.5,0,9.6,0.4,12.2,1.1c4.1,1.2,6.7,3.6,7.8,7.1h1.1V57.6c0-4.3-0.5-7.1-1.4-8.5c-1.5-2.2-4.6-3.4-9.4-3.4
	c-2.7,0-4.6,0.2-5.7,0.6c-2.8,0.9-4.2,3.3-4.2,7.1H484c0-9.7,3.4-16.1,10.1-19.2c4.5-2.1,12.4-3.1,23.8-3.1
	c13.3,0,22.2,1.6,26.7,4.9c5.5,3.9,8.3,11.9,8.3,24.1V106h-24.1L529.6,95.1z M528.8,82.3c0-2.8-1-4.6-3.1-5.3
	c-2.1-0.7-5.4-1.1-10-1.1c-3.5,0-6,0.4-7.4,1.1c-2.1,1.1-3.1,3.2-3.1,6.3c0,2.5,0.7,4.5,2.2,6s4.2,2.2,8.3,2.2
	c5.2,0,8.7-0.6,10.5-1.8C527.9,88.7,528.8,86.2,528.8,82.3z M592.4,32.5v10.8c1.7-4.1,4.1-7.2,7.3-9.2s7-3,11.6-3
	c7.5,0,12.6,2.9,15.3,8.8c1.9,4,2.8,10.3,2.8,18.9v5.9h-21.7v-3.6c0-3.2-0.4-5.7-1.3-7.7c-1.1-2.5-3-3.8-5.6-3.8
	c-3.3,0-5.5,1.2-6.7,3.5s-1.8,5.3-1.8,8.8V106h-24.1V32.5H592.4z M695.1,32.5v17.6h-27.9V83c0,2.3,0.4,4,1.1,5
	c0.7,1,2.2,1.5,4.3,1.5c2.3,0,4-0.9,4.9-2.8s1.4-4.1,1.4-6.7v-4h19.3v6.6c0,9.7-2.1,16.3-6.2,19.7c-3.7,3.2-10.7,4.8-20.9,4.8
	c-9.2,0-15.9-1.1-19.9-3.4c-5.5-3.1-8.3-8.9-8.3-17.4V50.1h-9V32.5h9V17H667v15.5H695.1z M730.1,60.1h23.7c0-5.2-0.9-8.6-2.7-10
	s-4.9-2.2-9.5-2.2c-4.4,0-7.4,0.8-9,2.4S730.1,55.2,730.1,60.1z M777.9,73.4h-47.7c0,6.7,0.7,11.2,2.2,13.5s4.7,3.4,9.7,3.4
	c4.4,0,7.3-0.3,8.7-1c2.1-1,3.1-3.3,3.1-6.9H778c0,10.4-3.4,17.3-10.2,20.9c-4.9,2.5-13.4,3.8-25.6,3.8c-14.2,0-23.7-2.8-28.6-8.3
	S706,83.5,706,69.3c0-14.6,2.3-24.5,6.9-29.7c5-5.7,14.7-8.5,29.1-8.5c13.9,0,23.4,2.6,28.3,7.9s7.5,15.4,7.5,30.3v4.1H777.9z
	 M838.5,69.3c0-7.6-0.8-12.7-2.4-15.5c-1.6-2.8-5.1-4.2-10.5-4.2c-5.1,0-8.5,1.4-10.1,4.2s-2.4,7.9-2.4,15.4c0,8.4,0.7,13.7,2.2,16
	c1.4,2.3,4.9,3.4,10.3,3.4c5.5,0,9-1.1,10.6-3.4C837.7,82.9,838.5,77.6,838.5,69.3z M838.5,43V1h24.1v105h-24.1l0.6-12.7H838
	c-1.3,5.2-3.8,8.9-7.6,11.1c-3.3,1.9-7.7,2.8-13.4,2.8c-9.1,0-16-2.1-20.6-6.3c-4.9-4.5-7.3-11.5-7.3-21V63
	c0-11.3,2.1-19.4,6.4-24.4c4.2-5,11.4-7.5,21.5-7.5c4.9,0,9.2,0.9,12.7,2.6c3.5,1.7,6.3,4.8,8.1,9.3C837.8,43,838.5,43,838.5,43z
	 M929.8,1h74.5v23h-46.5v20.6h42.8v23h-42.8V106h-28V1z M1050.7,31.1c15.3,0,25.3,2.4,29.9,7.3s6.9,15.2,6.9,30.9
	c0,15.3-2.3,25.4-7,30.4c-4.7,4.9-14.6,7.4-29.8,7.4c-14.7,0-24.5-2.6-29.4-7.7s-7.3-15.2-7.3-30.1c0-15.4,2.3-25.6,6.9-30.7
	C1025.6,33.6,1035.5,31.1,1050.7,31.1z M1063.5,69.3c0-7.6-0.8-12.7-2.4-15.5s-5.1-4.2-10.5-4.2c-5.1,0-8.5,1.4-10.1,4.2
	s-2.4,7.9-2.4,15.4c0,8.4,0.7,13.7,2.2,16c1.4,2.3,4.9,3.4,10.3,3.4c5.5,0,9-1.1,10.6-3.4C1062.7,82.9,1063.5,77.6,1063.5,69.3z
	 M1124.2,32.5v10.8c1.7-4.1,4.1-7.2,7.3-9.2s7-3,11.6-3c7.5,0,12.6,2.9,15.3,8.8c1.9,4,2.8,10.3,2.8,18.9v5.9h-21.7v-3.6
	c0-3.2-0.4-5.7-1.3-7.7c-1.1-2.5-3-3.8-5.6-3.8c-3.3,0-5.5,1.2-6.7,3.5s-1.8,5.3-1.8,8.8V106H1100V32.5H1124.2z M1223.6,1h74.5v23
	h-46.5v20.6h42.8v23h-42.8V106h-28V1z M1334.8,32.5v10.8c1.7-4.1,4.1-7.2,7.3-9.2c3.2-2,7-3,11.6-3c7.5,0,12.6,2.9,15.3,8.8
	c1.9,4,2.8,10.3,2.8,18.9v5.9H1350v-3.6c0-3.2-0.4-5.7-1.3-7.7c-1.1-2.5-3-3.8-5.6-3.8c-3.3,0-5.5,1.2-6.7,3.5s-1.8,5.3-1.8,8.8V106
	h-24.1V32.5H1334.8z M1403.7,60.1h23.7c0-5.2-0.9-8.6-2.7-10s-4.9-2.2-9.5-2.2c-4.4,0-7.4,0.8-9,2.4S1403.7,55.2,1403.7,60.1z
	 M1451.4,73.4h-47.7c0,6.7,0.7,11.2,2.2,13.5s4.7,3.4,9.7,3.4c4.4,0,7.3-0.3,8.7-1c2.1-1,3.1-3.3,3.1-6.9h24.1
	c0,10.4-3.4,17.3-10.2,20.9c-4.9,2.5-13.4,3.8-25.6,3.8c-14.2,0-23.7-2.8-28.6-8.3s-7.4-15.4-7.4-29.5c0-14.6,2.3-24.5,6.9-29.7
	c5-5.7,14.7-8.5,29.1-8.5c13.9,0,23.4,2.6,28.3,7.9c5,5.3,7.5,15.4,7.5,30.3L1451.4,73.4L1451.4,73.4z M1485.3,60.1h23.7
	c0-5.2-0.9-8.6-2.7-10s-4.9-2.2-9.5-2.2c-4.4,0-7.4,0.8-9,2.4S1485.3,55.2,1485.3,60.1z M1533,73.4h-47.7c0,6.7,0.7,11.2,2.2,13.5
	s4.7,3.4,9.7,3.4c4.4,0,7.3-0.3,8.7-1c2.1-1,3.1-3.3,3.1-6.9h24.1c0,10.4-3.4,17.3-10.2,20.9c-4.9,2.5-13.4,3.8-25.6,3.8
	c-14.2,0-23.7-2.8-28.6-8.3s-7.4-15.4-7.4-29.5c0-14.6,2.3-24.5,6.9-29.7c5-5.7,14.7-8.5,29.1-8.5c13.9,0,23.4,2.6,28.3,7.9
	c5,5.3,7.5,15.4,7.5,30.3L1533,73.4L1533,73.4z"/>
</svg>
