<?xml version="1.0" encoding="utf-8"?>
<!-- Generator: Adobe Illustrator 23.0.2, SVG Export Plug-In . SVG Version: 6.00 Build 0)  -->
<svg version="1.1" id="Layer_1" xmlns="http://www.w3.org/2000/svg" xmlns:xlink="http://www.w3.org/1999/xlink" x="0px" y="0px"
	 viewBox="0 0 16 17" style="enable-background:new 0 0 16 17;" xml:space="preserve">
<style type="text/css">
	.st0{fill:#FFFFFF;}
</style>
<path id="globe" class="st0" d="M3.8,1.9c1.2-0.7,2.5-1,3.9-1s2.7,0.3,3.9,1c1.2,0.7,2.1,1.6,2.8,2.8c0.7,1.2,1,2.5,1,3.9
	s-0.3,2.7-1,3.9c-0.7,1.2-1.6,2.1-2.8,2.8c-1.2,0.7-2.5,1-3.9,1s-2.7-0.3-3.9-1S1.7,13.6,1,12.4C0.3,11.3,0,10,0,8.6s0.3-2.7,1-3.9
	S2.7,2.6,3.8,1.9z M10.2,6.3C10.3,6.3,10.3,6.3,10.2,6.3c0.1-0.1,0.1-0.1,0.1-0.2c0,0,0-0.1,0-0.1c0,0,0.1-0.1,0.2-0.2
	c0.1,0,0.3-0.1,0.5-0.1c0.2-0.1,0.4,0,0.5,0.1c0,0,0-0.1,0.1-0.1c0.1-0.1,0.1-0.1,0.1-0.1c0,0,0.1,0,0.2,0c0.1,0,0.1,0,0.2-0.1
	l0-0.2c-0.1,0-0.1,0-0.2-0.1c0-0.1-0.1-0.1-0.1-0.2c0,0,0,0-0.1,0.1c0,0,0-0.1,0-0.1s-0.1,0-0.1,0c0,0-0.1,0-0.1,0
	c-0.1,0-0.1,0-0.2-0.1c0,0-0.1-0.1-0.1-0.2c0-0.1,0-0.1,0-0.2c0,0,0-0.1-0.1-0.1c-0.1,0-0.1-0.1-0.1-0.1c0,0,0,0,0-0.1s0,0,0-0.1
	s0,0,0-0.1c0,0,0,0-0.1,0c0,0,0,0-0.1,0.1c0,0-0.1,0.1-0.1,0.1s0,0.1,0,0.1c0,0,0,0-0.1,0c0,0,0,0,0,0c0,0,0,0,0,0c0,0,0,0-0.1,0
	c0,0,0,0-0.1,0c0,0-0.1,0-0.1,0c0.1,0,0.1-0.1,0-0.1c-0.1,0-0.1,0-0.2,0c0.1,0,0.1-0.1,0.1-0.1c0-0.1,0-0.1-0.1-0.1h0.1
	c0,0,0-0.1-0.1-0.1C10.2,4,10.1,4,10.1,4c-0.1,0-0.1,0-0.1-0.1c-0.1,0-0.2-0.1-0.3-0.1s-0.3,0-0.3,0c0,0,0,0.1,0,0.1
	c0,0,0,0.1,0,0.1c0,0.1,0,0.1,0,0.1c0,0,0,0.1-0.1,0.1c0,0-0.1,0.1-0.1,0.1c0,0,0,0.1,0.1,0.2s0.1,0.1,0.1,0.2
	c0,0.1-0.1,0.1-0.2,0.2C9.2,5,9.1,5.1,9.1,5.1c0,0.1,0,0.1,0,0.2c0,0.1,0.1,0.1,0.1,0.2c0,0,0,0,0,0c0,0,0,0,0,0c0,0,0,0-0.1,0
	s0,0-0.1,0l0,0c-0.1,0-0.1,0-0.2-0.1S8.7,5.4,8.7,5.3C8.6,5.1,8.6,5,8.5,5C8.4,4.9,8.3,4.9,8.2,5c0-0.1-0.2-0.2-0.4-0.3
	c-0.2-0.1-0.4-0.1-0.6,0c0,0,0-0.1,0-0.2c0-0.1-0.1-0.1-0.2-0.1c0,0,0-0.1,0-0.2c0-0.1,0-0.1,0-0.1C7.1,4,7.1,4,7.2,3.9
	c0,0,0,0,0.1-0.1c0-0.1,0.1-0.1,0.1-0.1c0,0,0-0.1,0-0.1c0.2,0,0.4,0,0.5-0.1c0,0,0.1-0.1,0.1-0.2c0-0.1,0.1-0.1,0.1-0.2
	c0.1,0,0.1-0.1,0.1-0.1c0,0,0.1,0,0.1,0.1c0.1,0,0.1,0.1,0.1,0.1c0.1,0,0.1,0,0.2-0.1s0-0.1-0.1-0.2c0.1,0,0.1-0.1,0-0.2
	c0,0-0.1-0.1-0.1-0.1c-0.1,0-0.2,0-0.3,0.1c-0.1,0,0,0.1,0,0.1c0,0,0,0-0.1,0.1C8.2,2.9,8.1,3,8,3S7.9,3.1,7.9,3c0,0,0-0.1-0.1-0.1
	c0-0.1-0.1-0.1-0.1-0.1c-0.1,0-0.1,0.1-0.2,0.2c0-0.1,0-0.1-0.1-0.2c-0.1,0-0.2-0.1-0.2-0.1c0.1-0.1,0.1-0.2-0.1-0.3
	c0,0-0.1,0-0.2-0.1c-0.1,0-0.2,0-0.2,0c0,0-0.1,0.1-0.1,0.1s0,0.1,0.1,0.1c0,0,0.1,0,0.1,0.1c0,0,0.1,0,0.1,0c0,0,0.1,0,0.1,0
	c0.1,0.1,0.1,0.1,0.1,0.1c0,0,0,0-0.1,0c0,0-0.1,0-0.1,0c0,0-0.1,0-0.1,0c0,0,0,0.1,0,0.1c0,0.1,0,0.1,0,0.1c0,0-0.1-0.1-0.1-0.2
	c0-0.1,0-0.1-0.1-0.2c0,0.1,0,0.1-0.3,0.1l-0.1,0c0,0-0.1,0-0.2,0C6.1,3,6,3,6,3c-0.1,0-0.1,0-0.1-0.1c0-0.1,0-0.1,0-0.2
	c0,0,0,0,0,0c0,0-0.1-0.1-0.1-0.1c0,0-0.1-0.1-0.1-0.1C5.3,2.6,5,2.7,4.7,2.9c0,0,0.1,0,0.1,0c0,0,0.1,0,0.1-0.1s0.1,0,0.1-0.1
	c0.2-0.1,0.4-0.1,0.4-0.1l0.1-0.1c0.1,0.1,0.2,0.2,0.2,0.3c0,0-0.1,0-0.3,0C5.3,2.9,5.2,3,5.2,3c0,0.1,0.1,0.1,0.1,0.2
	c0,0-0.1-0.1-0.1-0.1C5.1,3,5,3,5,3c0,0-0.1,0-0.2-0.1c-0.1,0-0.2,0-0.2,0c-1,0.5-1.8,1.3-2.4,2.2c0,0,0.1,0.1,0.1,0.1
	c0,0,0,0,0.1,0.1s0,0.1,0,0.1c0,0,0,0,0.1,0c0.1,0.1,0.1,0.1,0,0.2c0,0,0.2,0.1,0.4,0.3C3.2,6,3.3,6.1,3.3,6.1c0,0.1,0,0.1-0.1,0.2
	c0,0,0,0-0.1-0.1C3,6.1,3,6.1,3,6.1c0,0,0,0.1,0,0.2C3,6.4,3,6.5,3.1,6.5C3,6.5,3,6.5,3,6.6C3,6.7,3,6.8,3,7s0,0.2,0,0.2l0,0
	C3,7.3,3,7.4,3,7.6s0.1,0.2,0.2,0.2c-0.1,0,0,0.2,0.2,0.4c0,0.1,0.1,0.1,0.1,0.1c0,0,0.1,0,0.1,0.1s0.1,0.1,0.2,0.1
	c0,0,0.1,0.1,0.1,0.1c0,0,0.1,0.1,0.1,0.2C4,8.9,4.1,9,4.1,9c0,0,0,0.1,0.1,0.2c0.1,0.1,0.1,0.2,0.1,0.2c0,0,0,0,0,0c0,0,0,0,0,0
	c0,0,0.1,0.1,0.2,0.1c0.1,0,0.1,0.1,0.2,0.1c0,0,0,0.1,0,0.1c0,0,0,0.1,0,0.1c0,0,0,0,0.1,0c0-0.1-0.1-0.3-0.2-0.6
	C4.4,9.2,4.3,9.1,4.3,9.1c0,0,0-0.1-0.1-0.2c0-0.1,0-0.1,0-0.1c0,0,0,0,0.1,0s0.1,0,0.1,0s0.1,0,0.1,0c0,0,0,0,0,0c0,0,0,0.1,0,0.2
	c0,0.1,0.1,0.1,0.1,0.2c0,0.1,0.1,0.1,0.2,0.2c0.1,0.1,0.1,0.1,0.1,0.1c0,0,0.1,0.1,0.1,0.2s0.1,0.1,0,0.1c0.1,0,0.1,0,0.2,0.1
	c0.1,0.1,0.1,0.1,0.2,0.2c0,0.1,0.1,0.1,0.1,0.3c0,0.1,0,0.2,0.1,0.2c0,0,0,0.1,0.1,0.1c0,0,0.1,0.1,0.1,0.1L5.9,11
	C6,11,6,11.1,6,11.1c0,0,0.1,0,0.2,0.1c0.1,0.1,0.2,0.1,0.2,0.1c0.1,0,0.1,0,0.2,0s0.1,0,0.1,0s0.1,0,0.1,0c0.1,0,0.2,0,0.3,0.2
	c0.1,0.1,0.2,0.2,0.2,0.2c0.2,0.1,0.4,0.2,0.6,0.1c0,0,0,0,0,0.1c0,0,0,0.1,0.1,0.2c0,0.1,0.1,0.1,0.1,0.1c0,0,0,0.1,0.1,0.1
	c0,0,0.1,0.1,0.2,0.2c0.1,0.1,0.1,0.1,0.2,0.2c0,0,0.1-0.1,0.1-0.1c0,0.1,0,0.1,0.1,0.2c0.1,0.1,0.1,0.1,0.2,0.1
	C9,12.7,9,12.6,9,12.4c-0.2,0.1-0.4,0-0.5-0.2c0,0,0,0,0-0.1c0,0,0-0.1,0-0.1c0,0,0-0.1,0-0.1s0-0.1,0-0.1c0,0,0,0,0.1,0
	c0.1,0,0.1,0,0.1,0c0,0,0-0.1,0-0.1c0-0.1,0-0.1,0-0.1c0-0.1,0-0.1-0.1-0.2c-0.1-0.1-0.1-0.1-0.1-0.2c0,0.1-0.1,0.1-0.2,0.1
	c-0.1,0-0.1,0-0.2-0.1c0,0,0,0,0,0.1c0,0,0,0.1,0,0.1c-0.1,0-0.1,0-0.2,0c0,0,0-0.1,0-0.2c0-0.1,0-0.2,0-0.2c0,0,0-0.1,0.1-0.1
	s0.1-0.1,0.1-0.1c0,0,0-0.1,0-0.1c0,0,0-0.1,0-0.1c0,0-0.1,0-0.2,0c-0.1,0-0.2,0.1-0.3,0.2c0,0,0,0.1,0,0.1c0,0.1,0,0.1-0.1,0.1
	c0,0-0.1,0.1-0.1,0.1c0,0-0.1,0-0.2,0c-0.1,0-0.2,0-0.2-0.1c-0.1-0.1-0.2-0.2-0.2-0.3c-0.1-0.1-0.1-0.3-0.1-0.4c0-0.1,0-0.2,0-0.3
	s0-0.2,0-0.3c0-0.1,0-0.1-0.1-0.2c0,0,0.1,0,0.1-0.1c0-0.1,0.1-0.1,0.1-0.1c0,0,0,0,0,0c0,0,0,0,0,0c0,0,0,0,0,0c0,0,0,0,0-0.1
	c0,0,0,0,0,0c0,0,0,0,0,0c0,0,0.1,0,0.3,0c0.1,0,0.2,0,0.3,0c0.1,0.1,0.2,0.1,0.2,0c0,0,0,0,0-0.1c0-0.1,0-0.1,0-0.1
	c0,0.2,0.1,0.2,0.3,0.1C7.9,9,7.9,9,8,9c0.1,0,0.1,0,0.2,0.1c0,0,0,0,0.1,0.1s0,0,0.1,0c0,0,0,0,0.1,0s0.1,0,0.1-0.1
	c0.1,0.1,0.1,0.2,0.1,0.2c0.1,0.3,0.1,0.4,0.2,0.4c0,0,0.1,0,0.1,0s0,0,0-0.1c0-0.1,0-0.1,0-0.1c0,0,0-0.1,0-0.1l0-0.1V9.2l0-0.1
	C8.8,9.1,8.7,9,8.7,9c0-0.1,0-0.1,0-0.2c0-0.1,0.1-0.1,0.2-0.2c0,0,0,0,0.1,0s0.1,0,0.2-0.1s0.1-0.1,0.1-0.1
	c0.1-0.1,0.2-0.2,0.2-0.4c0,0,0.1,0,0.1-0.1c0,0,0,0-0.1,0c0,0-0.1,0-0.1-0.1s0,0,0,0c0.1,0,0.1-0.1,0-0.2c0,0,0.1-0.1,0.1-0.1
	s0-0.1,0.1-0.1c0.1,0.1,0.1,0.1,0.2,0c0.1-0.1,0.1-0.1,0-0.2c0,0,0.1-0.1,0.2-0.1c0.1,0,0.2-0.1,0.2-0.1c0,0,0.1,0,0.1,0
	s0-0.1,0-0.1s0-0.1,0-0.1c0,0,0.1-0.1,0.2-0.1c0.1,0,0.1,0,0.1-0.1l0.2-0.1c0,0,0,0,0,0c0.1,0,0.2,0,0.3-0.1c0.1-0.1,0-0.1-0.1-0.2
	c0,0,0-0.1,0-0.1s-0.1,0-0.2-0.1c0,0,0.1,0,0.1,0s0.1,0,0.1,0C11.1,6.1,11,6,10.9,6c-0.1,0-0.3,0-0.4,0.1c0,0,0,0-0.1,0.1
	C10.3,6.2,10.3,6.3,10.2,6.3L10.2,6.3z"/>
</svg>
