<?xml version="1.0" encoding="utf-8"?>
<!-- Generator: Adobe Illustrator 23.0.2, SVG Export Plug-In . SVG Version: 6.00 Build 0)  -->
<svg version="1.1" id="Layer_1" xmlns="http://www.w3.org/2000/svg" xmlns:xlink="http://www.w3.org/1999/xlink" x="0px" y="0px"
	 viewBox="0 0 24 25" style="enable-background:new 0 0 24 25;" xml:space="preserve">
<style type="text/css">
	.st0{fill:#0A0068;}
</style>
<path id="Home" class="st0" d="M23.8,12.5c0.1,0.2,0.2,0.3,0.2,0.5s-0.1,0.4-0.2,0.5c-0.1,0.1-0.2,0.1-0.2,0.2s-0.2,0.1-0.3,0.1
	c-0.1,0-0.2,0-0.3-0.1s-0.2-0.1-0.2-0.2l-1-1.1v11.2c0,0.2-0.1,0.4-0.2,0.5s-0.3,0.2-0.5,0.2h-5.2c-0.2,0-0.4-0.1-0.5-0.2
	S15,24,15,23.8v-7.5H9l0,7.5c0,0.2-0.1,0.4-0.2,0.5s-0.3,0.2-0.5,0.2H3c-0.2,0-0.4-0.1-0.5-0.2S2.3,24,2.3,23.8V12.5l-1,1.1
	c-0.2,0.1-0.3,0.2-0.5,0.2s-0.4-0.1-0.5-0.2C0,13.4,0,13.3,0,13.1s0.1-0.4,0.2-0.5L11.5,0.7c0.1-0.1,0.2-0.1,0.3-0.2
	s0.2-0.1,0.3-0.1c0.1,0,0.2,0,0.3,0.1s0.2,0.1,0.2,0.2L23.8,12.5z M20.2,11.1C20.2,11,20.3,11,20.2,11.1L12,2.4L3.8,11
	c0,0,0,0.1,0,0.1s0,0.1,0,0.1V23h3.7l0-7.5c0-0.2,0.1-0.4,0.2-0.5s0.3-0.2,0.5-0.2h7.5c0.2,0,0.4,0.1,0.5,0.2s0.2,0.3,0.2,0.5V23
	h3.8V11.1z"/>
</svg>
