<?xml version="1.0" encoding="utf-8"?>
<!-- Generator: Adobe Illustrator 23.0.2, SVG Export Plug-In . SVG Version: 6.00 Build 0)  -->
<svg version="1.1" id="Layer_1" xmlns="http://www.w3.org/2000/svg" xmlns:xlink="http://www.w3.org/1999/xlink" x="0px" y="0px"
	 viewBox="0 0 50 50" style="enable-background:new 0 0 50 50;" xml:space="preserve">
<style type="text/css">
	.st0{fill:none;}
	.st1{fill:#2C96F2;}
</style>
<rect class="st0" width="50" height="50"/>
<path class="st1" d="M45,16.3H31.7v28.8h-4.5V31.8h-4.4v13.3h-4.4V16.3H5v-4.5h40V16.3z M25,0.9c1.2,0,2.3,0.4,3.2,1.3
	c0.9,0.8,1.3,1.9,1.3,3.1s-0.4,2.3-1.3,3.2s-2,1.3-3.2,1.3s-2.3-0.4-3.2-1.3c-0.9-0.9-1.3-2-1.3-3.2s0.4-2.3,1.3-3.1
	C22.7,1.3,23.8,0.9,25,0.9z"/>
</svg>
