<?xml version="1.0" encoding="utf-8"?>
<!-- Generator: Adobe Illustrator 23.0.2, SVG Export Plug-In . SVG Version: 6.00 Build 0)  -->
<svg version="1.1" id="Layer_1" xmlns="http://www.w3.org/2000/svg" xmlns:xlink="http://www.w3.org/1999/xlink" x="0px" y="0px"
	 viewBox="0 0 320 599" style="enable-background:new 0 0 320 599;" xml:space="preserve">
<style type="text/css">
	.st0{opacity:0.3;fill-opacity:0.5;enable-background:new    ;}
	.st1{fill-rule:evenodd;clip-rule:evenodd;fill:#FFFFFF;stroke:#0A0068;stroke-width:2;}
	.st2{fill-rule:evenodd;clip-rule:evenodd;fill:#FFFFFF;stroke:#5AA9FF;stroke-width:2;}
	.st3{fill-rule:evenodd;clip-rule:evenodd;fill:#FFFFFF;stroke:#7ED321;stroke-width:2;}
</style>
<polygon id="Path-21" class="st0" points="301.4,374.2 18.5,497.1 18.1,496.2 299.6,373.9 27.5,128.7 214.1,16 214.6,16.8 
	29.2,128.8 "/>
<path id="Rectangle" class="st1" d="M253.3,588.9l15.5,7.7l-0.3-15.2L253.3,588.9z"/>
<rect x="286.5" y="362.5" transform="matrix(0.3746 -0.9272 0.9272 0.3746 -161.1621 514.1211)" class="st2" width="28" height="28"/>
<rect x="212.4" y="207.4" transform="matrix(0.454 -0.891 0.891 0.454 -71.9445 315.4971)" class="st2" width="18" height="18"/>
<circle id="Oval" class="st3" cx="214.4" cy="16.4" r="15"/>
<path class="st1" d="M1.9,487.2l15.6,23.6l12-21.7L1.9,487.2z"/>
<path class="st1" d="M14.1,141.2l27.3-7l-16.6-18.5L14.1,141.2z"/>
<circle class="st3" cx="70.5" cy="360.5" r="10"/>
</svg>
