<?xml version="1.0" encoding="utf-8"?>
<!-- Generator: Adobe Illustrator 23.0.2, SVG Export Plug-In . SVG Version: 6.00 Build 0)  -->
<svg version="1.1" id="Layer_1" xmlns="http://www.w3.org/2000/svg" xmlns:xlink="http://www.w3.org/1999/xlink" x="0px" y="0px"
	 viewBox="0 0 20 13" style="enable-background:new 0 0 20 13;" xml:space="preserve">
<style type="text/css">
	.st0{fill:#FFFFFF;}
</style>
<path id="laptop" class="st0" d="M4.2,10.4c-0.4,0-0.8-0.2-1.1-0.5C2.7,9.6,2.6,9.3,2.6,8.8V1.8c0-0.4,0.2-0.8,0.5-1.1
	c0.3-0.3,0.7-0.5,1.1-0.5h10.9c0.4,0,0.8,0.2,1.1,0.5c0.3,0.3,0.5,0.7,0.5,1.1v7.1c0,0.4-0.2,0.8-0.5,1.1c-0.3,0.3-0.7,0.5-1.1,0.5
	H4.2z M3.9,1.8v7.1C3.9,8.9,3.9,9,4,9C4,9.1,4.1,9.1,4.2,9.1h10.9c0.1,0,0.2,0,0.2-0.1c0.1-0.1,0.1-0.1,0.1-0.2V1.8
	c0-0.1,0-0.2-0.1-0.2s-0.1-0.1-0.2-0.1H4.2C4.1,1.4,4,1.5,4,1.5S3.9,1.7,3.9,1.8z M0,11.1h19.3v1c0,0.3-0.2,0.5-0.5,0.7
	S18.1,13,17.7,13H1.6c-0.4,0-0.8-0.1-1.1-0.3C0.2,12.5,0,12.3,0,12V11.1z M10.4,12c0.1,0,0.2-0.1,0.2-0.2s-0.1-0.2-0.2-0.2H8.8
	c-0.1,0-0.2,0.1-0.2,0.2S8.7,12,8.8,12H10.4z"/>
</svg>
