<?xml version="1.0" encoding="utf-8"?>
<!-- Generator: Adobe Illustrator 23.0.2, SVG Export Plug-In . SVG Version: 6.00 Build 0)  -->
<svg version="1.1" id="Layer_1" xmlns="http://www.w3.org/2000/svg" xmlns:xlink="http://www.w3.org/1999/xlink" x="0px" y="0px"
	 viewBox="0 0 176 68" style="enable-background:new 0 0 176 68;" xml:space="preserve">
<style type="text/css">
	.st0{fill:#74D20E;}
	.st1{fill:#0A0068;}
</style>
<path id="Combined-Shape" class="st0" d="M143.2,43.4c0.7,1.2,0.7,2.7,0,3.9l-7.1,13.6c-0.7,1.3-2.2,2.2-3.8,2.2h-4.4
	c-0.9,0-1.8-0.5-2.2-1.2c-0.4-0.6-0.4-1.4-0.1-2.1l6.9-13.2c0.4-0.8,0.4-1.7,0-2.5l-6.9-13.2c-0.3-0.7-0.3-1.4,0.1-2.1
	c0.4-0.7,1.3-1.2,2.2-1.2h4.4c1.6,0,3.2,0.9,3.8,2.2L143.2,43.4z M141.4,46.3c0.3-0.7,0.3-1.4,0-2.1l-7.1-13.6
	c-0.3-0.7-1.2-1.1-2.1-1.1h-4.4c-0.2,0-0.4,0.1-0.5,0.2c0,0.1,0,0.1,0,0.1l6.9,13.2c0.7,1.4,0.7,3,0,4.3l-6.9,13.2c0,0,0,0.1,0,0.1
	c0.1,0.1,0.2,0.2,0.5,0.2h4.4c0.9,0,1.7-0.4,2.1-1.1L141.4,46.3z M159,43.4c0.7,1.2,0.7,2.7,0,3.9l-7.1,13.6
	c-0.7,1.3-2.2,2.2-3.8,2.2h-4.4c-0.9,0-1.8-0.5-2.2-1.2c-0.4-0.6-0.4-1.4-0.1-2.1l6.9-13.2c0.4-0.8,0.4-1.7,0-2.5l-6.9-13.2
	c-0.3-0.7-0.3-1.4,0.1-2.1c0.4-0.7,1.3-1.2,2.2-1.2h4.4c1.6,0,3.2,0.9,3.8,2.2L159,43.4z M157.2,46.3c0.3-0.7,0.3-1.4,0-2.1
	l-7.1-13.6c-0.3-0.7-1.2-1.1-2.1-1.1h-4.4c-0.2,0-0.4,0.1-0.5,0.2c0,0.1,0,0.1,0,0.1l6.9,13.2c0.7,1.4,0.7,3,0,4.3l-6.9,13.2
	c0,0,0,0.1,0,0.1c0.1,0.1,0.2,0.2,0.5,0.2h4.4c0.9,0,1.7-0.4,2.1-1.1L157.2,46.3z M174.8,43.4c0.7,1.2,0.7,2.7,0,3.9l-7.1,13.6
	c-0.7,1.3-2.2,2.2-3.8,2.2h-4.4c-0.9,0-1.8-0.5-2.2-1.2c-0.4-0.6-0.4-1.4-0.1-2.1l6.9-13.2c0.4-0.8,0.4-1.7,0-2.5l-6.9-13.2
	c-0.3-0.7-0.3-1.4,0.1-2.1c0.4-0.7,1.3-1.2,2.2-1.2h4.4c1.6,0,3.2,0.9,3.8,2.2L174.8,43.4z M173,46.3c0.3-0.7,0.3-1.4,0-2.1
	l-7.1-13.6c-0.3-0.7-1.2-1.1-2.1-1.1h-4.4c-0.2,0-0.4,0.1-0.5,0.2c0,0.1,0,0.1,0,0.1l6.9,13.2c0.7,1.4,0.7,3,0,4.3L159,60.7
	c0,0,0,0.1,0,0.1c0.1,0.1,0.2,0.2,0.5,0.2h4.4c0.9,0,1.7-0.4,2.1-1.1L173,46.3z M93.2,39.9c0,0,0.8,1.1-0.3,1.6s-1.5-0.8-1.5-0.8
	c-3.1-7.1-3.2-15-0.3-22.2c2.9-7.2,8.3-12.8,15.4-15.9c14.7-6.3,31.7,0.4,38.1,15.1c0.4,1,0.8,2.1,1.2,3.2c0.2,0.5-0.1,1.1-0.7,1.2
	c-0.5,0.2-1.1-0.1-1.2-0.7c-0.3-1-0.7-2-1.1-3c-5.9-13.6-21.8-20-35.4-14.1c-6.6,2.9-11.7,8.1-14.4,14.8
	C90.3,26,90.4,33.3,93.2,39.9z M117.3,14c0.5,0,0.9,0.3,1,0.8l2.9,18.3c0.1,1-0.1,2-0.8,2.8s-1.6,1.2-2.5,1.3c-0.1,0-0.2,0-0.2,0
	c-1,0-1.9-0.4-2.6-1.1c-0.7-0.8-1.1-1.8-1-2.9l2.2-18.4C116.4,14.4,116.8,14,117.3,14z M118.9,34.6c0.3-0.3,0.4-0.8,0.3-1.2
	l-1.8-11.2l-1.3,11.2c-0.1,0.5,0.1,0.9,0.4,1.3c0.3,0.3,0.8,0.5,1.2,0.5C118.3,35.2,118.7,35,118.9,34.6z M123.8,17.1
	c0-0.2,0-0.3,0.1-0.5l3.1-5.3c-2.7-1.4-5.8-2.1-9-2.1c-3.4,0-6.6,0.9-9.4,2.4l2.9,5c0.1,0.2,0.1,0.3,0.1,0.5c0,0.3-0.2,0.7-0.5,0.9
	c-0.2,0.1-0.3,0.1-0.5,0.1c-0.3,0-0.7-0.2-0.9-0.5l-2.9-5c-2.3,1.6-4.3,3.6-5.8,6l4.8,2.8c0.3,0.2,0.5,0.5,0.5,0.9
	c0,0.2,0,0.3-0.1,0.5c-0.2,0.3-0.5,0.5-0.9,0.5c-0.2,0-0.3,0-0.5-0.1l-4.8-2.8c-1.2,2.4-2,5.1-2.1,8h5.5c0.6,0,1,0.4,1,1s-0.4,1-1,1
	H98c0.1,2.8,0.9,5.5,2.1,8l4.8-2.7c0.5-0.3,1.1-0.1,1.4,0.4c0.1,0.2,0.1,0.3,0.1,0.5c0,0.3-0.2,0.7-0.5,0.9l-4.8,2.8
	c0,0,0.3,0-0.6,0.5S99.4,41,99.4,41c-2.2-3.4-3.4-7.4-3.4-11.8c0-12.2,9.9-22.1,22.1-22.1c9,0,17.1,5.4,20.4,13.8
	c0.2,0.5,0,1.1-0.6,1.3c-0.5,0.2-1.1,0-1.3-0.6c-0.2-0.6-0.5-1.1-0.8-1.7l-5.4,3.1c-0.2,0.1-0.3,0.1-0.5,0.1c-0.3,0-0.7-0.2-0.9-0.5
	c-0.1-0.2-0.1-0.3-0.1-0.5c0-0.3,0.2-0.7,0.5-0.9l5.4-3.1c-1.6-2.5-3.7-4.5-6.1-6l-3.1,5.3c-0.2,0.3-0.5,0.5-0.9,0.5
	c-0.2,0-0.3,0-0.5-0.1C124,17.8,123.8,17.5,123.8,17.1z"/>
<path id="Fame-Boost" class="st1" d="M2.1,12.8h14.3c0.7,0,1.3,0.4,1.7,1.2c0.1,0.2,0.1,0.5,0.1,0.6v0c0,0.8-0.4,1.4-1.3,1.8
	c-0.2,0.1-0.4,0.1-0.7,0.1H2.4c-1.1,0-1.8-0.5-2-1.4c0-0.1,0-0.3,0-0.4v-0.1c0-0.8,0.4-1.3,1.3-1.7C1.8,12.8,1.9,12.8,2.1,12.8z
	 M0.3,16.1L0.3,16.1C0.8,16.7,1.4,17,2.1,17H4c0,0,0,0,0,0v18.3c0,1.1-0.5,1.8-1.4,2c-0.1,0-0.2,0-0.3,0H2.1c-0.7,0-1.2-0.4-1.6-1.1
	c-0.1-0.2-0.2-0.5-0.2-0.7V16.1z M4.6,23.2h11.7c0.9,0,1.5,0.5,1.9,1.4c0,0.2,0,0.3,0,0.4c0,0.9-0.5,1.5-1.4,1.8c-0.2,0-0.3,0-0.4,0
	H4.6c0,0,0,0,0,0L4.6,23.2C4.5,23.2,4.5,23.2,4.6,23.2z M29.3,12.8h0.2c0.8,0,1.4,0.4,1.8,1.3l9.1,19.5c0.4,0.8,0.6,1.4,0.6,1.7v0.1
	c0,0.8-0.4,1.4-1.2,1.8c-0.3,0.1-0.5,0.2-0.8,0.2h-0.1c-1,0-1.6-0.6-2-1.7c-0.1-0.2-2.5-5.3-7.3-15.5c-1.5-3.2-2.3-4.8-2.3-4.9
	c0-0.1,0-0.3,0-0.4v-0.1c0-0.8,0.4-1.5,1.3-1.9C28.9,12.8,29.1,12.8,29.3,12.8z M26.8,15.4L26.8,15.4c0.1,0.3,0.6,1.3,1.5,3.2
	c0,0.1,0.3,0.7,0.8,1.7c0,0-2.4,5.3-7.3,15.8c-0.1,0.3-0.4,0.6-0.7,0.9c-0.4,0.3-0.8,0.4-1.2,0.4h-0.1c-0.8,0-1.5-0.4-1.9-1.3
	c-0.1-0.2-0.1-0.5-0.1-0.7v-0.1c0-0.3,0.2-0.9,0.6-1.7L26.8,15.4z M32.5,27.7c0,0,0.4,0.8,1.1,2.3c0.1,0.1,0.4,0.7,0.8,1.8l0,0h-10
	c0,0,0,0,0,0c1.2-2.5,1.8-3.8,1.9-4H32.5z M46.3,12.8L46.3,12.8c0.7,0,1.3,0.3,1.8,1c1.6,1.6,3.4,3.4,5.3,5.3
	c-1.1,1.1-1.6,1.7-1.6,1.8c-0.2,0.4-0.3,0.8-0.3,1.1v0.4h0c-4.4-4.4-6.6-6.6-6.6-6.7c-0.2-0.3-0.2-0.6-0.2-0.9v-0.1
	c0-0.7,0.4-1.2,1.1-1.6C45.9,12.8,46.1,12.8,46.3,12.8z M61.1,12.8L61.1,12.8c0.9,0,1.4,0.4,1.8,1.3c0.1,0.2,0.1,0.3,0.1,0.4v21.2
	c0,0.6-0.3,1.1-0.9,1.5c-0.3,0.2-0.5,0.2-0.8,0.2h-0.2c-0.6,0-1.1-0.3-1.5-0.9c-0.2-0.3-0.2-0.6-0.2-0.9V14.7c0-0.8,0.4-1.4,1.2-1.8
	C60.7,12.8,60.9,12.8,61.1,12.8z M58.8,14.4L58.8,14.4l0,5.3c-2.6,2.6-3.9,4-4,4c-0.3,0.2-0.6,0.3-0.9,0.3h-0.2
	c-0.8,0-1.3-0.4-1.7-1.3c0-0.2-0.1-0.4-0.1-0.6v0c0-0.6,0.3-1.2,1-1.8C54.8,18.4,56.7,16.4,58.8,14.4z M44.5,16.1L44.5,16.1l3.7,3.7
	v15.7c0,0.8-0.4,1.4-1.3,1.8c-0.2,0.1-0.3,0.1-0.4,0.1h-0.3c-0.5,0-1-0.3-1.4-0.9c-0.2-0.3-0.3-0.6-0.3-0.9V16.1z M69.4,12.8h0.1
	c0.8,0,1.3,0.4,1.7,1.3c0.1,0.2,0.1,0.5,0.1,0.8v18.3c0,0,0,0,0,0h-1.8c-0.7,0-1.3,0.3-1.8,0.9h0V14.6c0-0.8,0.4-1.3,1.3-1.7
	C69.1,12.8,69.3,12.8,69.4,12.8z M71,12.8h12.7c0.7,0,1.3,0.4,1.7,1.2c0.1,0.2,0.1,0.5,0.1,0.6v0c0,0.8-0.4,1.4-1.3,1.8
	c-0.2,0.1-0.4,0.1-0.7,0.1H71.9c0,0,0,0,0,0v-1.9C71.8,13.9,71.6,13.3,71,12.8L71,12.8z M71.9,23.2h11.7c0.9,0,1.5,0.5,1.9,1.4
	c0,0.2,0,0.3,0,0.4c0,0.9-0.5,1.5-1.4,1.8c-0.2,0-0.3,0-0.4,0H71.9c0,0,0,0,0,0L71.9,23.2C71.8,23.2,71.9,23.2,71.9,23.2z
	 M69.4,33.7h14.3c0.7,0,1.2,0.4,1.6,1.1c0.1,0.2,0.2,0.5,0.2,0.7v0c0,0.8-0.4,1.4-1.3,1.8c-0.2,0.1-0.4,0.1-0.5,0.1H69.4
	c-0.7,0-1.2-0.4-1.6-1.1c-0.1-0.2-0.2-0.5-0.2-0.7v-0.1c0-0.7,0.3-1.2,1-1.6C68.9,33.8,69.1,33.7,69.4,33.7z M2.1,42.7H11
	c0.7,0,1.2,0.4,1.6,1.1c0.1,0.2,0.2,0.5,0.2,0.7v0.1c0,0.7-0.4,1.3-1.1,1.7c-0.2,0.1-0.5,0.1-0.9,0.1H4V63c0,0,0,0,0,0H2.4
	c-0.9,0-1.6,0.3-2.1,0.9h0V44.5c0-0.8,0.4-1.3,1.3-1.7C1.8,42.7,1.9,42.7,2.1,42.7z M12.7,42.9c1.5,0.4,2.7,1.1,3.6,2.1
	c1.2,1.4,1.9,3,1.9,4.8c0,3.2-1.6,5.4-4.7,6.5c-1.1,0.3-2.1,0.5-3,0.5H4.6c0,0,0,0,0,0v-3.7c0,0,0,0,0,0h6.2c1.4,0,2.5-0.6,3.3-1.7
	c0.3-0.5,0.4-1.1,0.4-1.7c0-1.2-0.6-2.2-1.7-2.9c-0.3-0.1-0.5-0.2-0.6-0.3v0c0.8-0.5,1.2-1.2,1.2-2.1C13.3,44,13.1,43.4,12.7,42.9
	L12.7,42.9z M16.2,55.4L16.2,55.4c0.7,0.7,1.1,1.4,1.4,2.2c0.3,0.8,0.5,1.6,0.5,2.4v0.5c0,1.5-0.6,2.9-1.7,4.3
	c-0.8,0.8-1.3,1.3-1.6,1.4c-1.2,0.8-2.4,1.1-3.6,1.1H2c-0.6,0-1.1-0.3-1.5-1c-0.1-0.3-0.2-0.6-0.2-0.9c0-0.8,0.4-1.4,1.3-1.8
	c0.2-0.1,0.4-0.1,0.5-0.1h8.6c1.7,0,2.8-0.8,3.5-2.3c0.1-0.5,0.2-0.9,0.2-1.2c0-1.1-0.5-2-1.4-2.8c-0.1-0.1-0.2-0.2-0.4-0.2v0
	c0,0,0.3-0.1,1-0.3c0.7-0.3,1.4-0.6,2-0.9C15.8,55.8,16,55.6,16.2,55.4z M34.9,42.7h0.2c3.1,0,5.9,1.2,8.5,3.5
	c2.5,2.5,3.7,5.5,3.7,8.8c0,0.8-0.4,1.4-1.3,1.8c-0.2,0.1-0.4,0.1-0.5,0.1h-0.2c-0.7,0-1.3-0.4-1.7-1.2c-0.1-0.2-0.1-0.7-0.1-1.6
	c-0.1-0.8-0.3-1.4-0.5-2.1c-0.9-2.3-2.5-3.9-4.7-4.8c-1.1-0.5-2.3-0.7-3.7-0.7c-0.3,0-0.7-0.2-1.1-0.6c-0.3-0.4-0.5-0.8-0.5-1.3
	c0-0.7,0.3-1.3,1-1.7C34.4,42.7,34.7,42.7,34.9,42.7z M33.4,42.8L33.4,42.8c-0.5,0.5-0.8,1.1-0.8,1.8c0,0.8,0.3,1.4,1,1.9v0
	c-1.5,0.3-2.6,0.7-3.6,1.4c-1.6,1.1-2.7,2.6-3.3,4.5c-0.3,0.9-0.4,1.8-0.4,2.9c-0.1,0.5-0.4,0.9-0.7,1.2c-0.4,0.3-0.7,0.4-1.1,0.4
	h-0.1c-0.8,0-1.3-0.4-1.7-1.3c-0.1-0.2-0.1-0.4-0.1-0.5v-0.2c0-3.1,1.1-5.9,3.4-8.4c0.9-0.9,1.8-1.6,2.6-2.1c0.7-0.4,1.5-0.8,2.1-1
	c0.6-0.2,1.4-0.4,2.4-0.6L33.4,42.8z M26.5,56.3L26.5,56.3c0.3,1.5,0.8,2.7,1.6,3.7c1.8,2.3,4.2,3.5,7.2,3.5c0.3,0,0.7,0.2,1.1,0.6
	c0.3,0.4,0.5,0.8,0.5,1.2v0.2c0,0.7-0.3,1.2-1,1.6c-0.3,0.1-0.5,0.2-0.8,0.2c-3.4,0-6.3-1.2-8.8-3.7c-0.8-0.9-1.4-1.6-1.7-2.2
	c-0.4-0.6-0.7-1.3-1.1-2.3c-0.4-1.3-0.6-2.1-0.6-2.6h0c0.5,0.5,1.1,0.8,1.8,0.8C25.3,57.4,25.9,57,26.5,56.3z M43.5,56.3L43.5,56.3
	c0.6,0.7,1.2,1,2,1c0.6,0,1.2-0.3,1.7-0.8h0c-0.1,1-0.4,1.9-0.7,2.8c-0.3,0.8-0.8,1.7-1.4,2.7c-0.3,0.5-0.8,1.1-1.5,1.8
	c-1.1,1-1.9,1.6-2.6,1.9c-0.4,0.2-1,0.5-1.8,0.9c-0.8,0.3-1.7,0.5-2.6,0.6v0c0.5-0.5,0.8-1.1,0.8-1.8c0-0.7-0.3-1.4-1-1.9v0
	c0.7-0.1,1.3-0.3,2-0.5c0.6-0.3,1.2-0.6,1.8-1c0.5-0.4,1.1-0.9,1.6-1.6c0.5-0.6,0.8-1.1,1-1.6c0.4-1,0.7-1.7,0.7-1.9
	C43.4,56.8,43.4,56.6,43.5,56.3z M64.1,42.7h0.2c3.1,0,5.9,1.2,8.5,3.5c2.5,2.5,3.7,5.5,3.7,8.8c0,0.8-0.4,1.4-1.3,1.8
	c-0.2,0.1-0.4,0.1-0.5,0.1h-0.2c-0.7,0-1.3-0.4-1.7-1.2c-0.1-0.2-0.1-0.7-0.1-1.6c-0.1-0.8-0.3-1.4-0.5-2.1
	c-0.9-2.3-2.5-3.9-4.7-4.8c-1.1-0.5-2.3-0.7-3.7-0.7c-0.3,0-0.7-0.2-1.1-0.6c-0.3-0.4-0.5-0.8-0.5-1.3c0-0.7,0.3-1.3,1-1.7
	C63.6,42.7,63.8,42.7,64.1,42.7z M62.6,42.8L62.6,42.8c-0.5,0.5-0.8,1.1-0.8,1.8c0,0.8,0.3,1.4,1,1.9v0c-1.5,0.3-2.6,0.7-3.6,1.4
	c-1.6,1.1-2.7,2.6-3.3,4.5c-0.3,0.9-0.4,1.8-0.4,2.9c-0.1,0.5-0.4,0.9-0.7,1.2c-0.4,0.3-0.7,0.4-1.1,0.4h-0.1
	c-0.8,0-1.3-0.4-1.7-1.3c-0.1-0.2-0.1-0.4-0.1-0.5v-0.2c0-3.1,1.1-5.9,3.4-8.4c0.9-0.9,1.8-1.6,2.6-2.1c0.7-0.4,1.5-0.8,2.1-1
	c0.6-0.2,1.4-0.4,2.4-0.6L62.6,42.8z M55.7,56.3L55.7,56.3c0.3,1.5,0.8,2.7,1.6,3.7c1.8,2.3,4.2,3.5,7.2,3.5c0.3,0,0.7,0.2,1.1,0.6
	c0.3,0.4,0.5,0.8,0.5,1.2v0.2c0,0.7-0.3,1.2-1,1.6c-0.3,0.1-0.5,0.2-0.8,0.2c-3.4,0-6.3-1.2-8.8-3.7c-0.8-0.9-1.4-1.6-1.7-2.2
	c-0.4-0.6-0.7-1.3-1.1-2.3C52.2,57.9,52,57,52,56.6h0c0.5,0.5,1.1,0.8,1.8,0.8C54.5,57.4,55.1,57,55.7,56.3z M72.6,56.3L72.6,56.3
	c0.6,0.7,1.2,1,2,1c0.6,0,1.2-0.3,1.7-0.8h0c-0.1,1-0.4,1.9-0.7,2.8c-0.3,0.8-0.8,1.7-1.4,2.7c-0.3,0.5-0.8,1.1-1.5,1.8
	c-1.1,1-1.9,1.6-2.6,1.9c-0.4,0.2-1,0.5-1.8,0.9c-0.8,0.3-1.7,0.5-2.6,0.6v0c0.5-0.5,0.8-1.1,0.8-1.8c0-0.7-0.3-1.4-1-1.9v0
	c0.7-0.1,1.3-0.3,2-0.5c0.6-0.3,1.2-0.6,1.8-1c0.5-0.4,1.1-0.9,1.6-1.6c0.5-0.6,0.8-1.1,1-1.6c0.4-1,0.7-1.7,0.7-1.9
	C72.6,56.8,72.6,56.6,72.6,56.3z M88,42.7h5.4c0.7,0,1.3,0.4,1.6,1.1c0.1,0.2,0.1,0.4,0.1,0.6v0.3c0,0.5-0.3,1-0.9,1.4
	c-0.3,0.2-0.7,0.3-1.2,0.3H88c-1,0-1.8,0.4-2.5,1.2c-0.3,0.3-0.4,0.7-0.5,0.9h0c-0.2-0.4-0.6-0.8-1.3-1.1c-0.3-0.1-0.5-0.1-0.7-0.1
	c-0.6,0-1.1,0.2-1.6,0.7c0,0,0,0,0,0c0.1-0.5,0.3-1,0.5-1.5c0.2-0.5,0.7-1.1,1.3-1.9C84.6,43.4,86.2,42.7,88,42.7z M82.8,47.9H83
	c0.7,0,1.3,0.4,1.7,1.2c0.1,0.3,0.1,0.7,0.1,1.1c0.2,0.8,0.5,1.4,0.9,1.8c0.6,0.5,1,0.8,1.3,0.8v0c-0.8,0.5-1.2,1.2-1.2,2
	c0,0.6,0.2,1.1,0.6,1.6v0c-0.3,0-0.9-0.3-1.7-0.7c-0.5-0.3-1-0.7-1.6-1.2c-1.4-1.5-2.1-3.1-2.1-4.9v-0.2c0-0.7,0.4-1.2,1.1-1.6
	C82.4,48,82.6,47.9,82.8,47.9z M88.1,53.1h0.1c1.8,0,3.4,0.7,4.8,2c0.8,0.8,1.4,1.6,1.7,2.5c0.3,0.9,0.5,1.7,0.5,2.4v0.5
	c0,0.6-0.3,1.1-1,1.5c-0.3,0.1-0.6,0.2-0.9,0.2c-0.8,0-1.3-0.4-1.7-1.1c-0.1,0-0.1-0.5-0.2-1.4c-0.2-0.9-0.6-1.5-1.2-2
	c-0.6-0.5-1.4-0.7-2.4-0.7c-0.4-0.1-0.8-0.3-1.1-0.6c-0.3-0.4-0.4-0.8-0.4-1.2v-0.1c0-0.7,0.4-1.3,1.1-1.6
	C87.6,53.2,87.8,53.1,88.1,53.1z M91.3,61.4L91.3,61.4c0.6,0.8,1.2,1.2,2,1.2h0.1c0.6,0,1.1-0.2,1.6-0.6h0v0c0,0.2-0.2,0.8-0.6,1.6
	c-0.9,1.6-2.2,2.7-3.8,3.3c-0.8,0.3-1.6,0.4-2.6,0.4H83c-0.9,0-1.5-0.4-1.9-1.3c0-0.2,0-0.3,0-0.5v-0.1c0-0.8,0.4-1.3,1.2-1.7
	c0.2-0.1,0.4-0.1,0.6-0.1h5.2c1.4,0,2.4-0.6,3.1-1.9C91.2,61.5,91.3,61.4,91.3,61.4z M101.6,42.7h10.6c0.7,0,1.2,0.3,1.6,1
	c0.2,0.3,0.2,0.6,0.2,0.9v8.9h0c-0.5-0.6-1.1-0.9-1.8-0.9H112c-0.6,0-1.2,0.3-1.8,0.9h0v-7.1h-8.4c-1.1,0-1.8-0.5-2-1.4
	c0-0.1,0-0.3,0-0.4v-0.1c0-0.8,0.4-1.3,1.3-1.7C101.2,42.7,101.4,42.7,101.6,42.7z M113.6,42.7h9c0.7,0,1.2,0.4,1.6,1.1
	c0.1,0.2,0.2,0.5,0.2,0.7v0.2c0,0.5-0.2,0.9-0.6,1.3c-0.3,0.3-0.8,0.5-1.5,0.5h-7.8c0,0,0,0,0,0v-2
	C114.4,43.8,114.2,43.2,113.6,42.7L113.6,42.7z M112.1,53.1c0.8,0,1.3,0.4,1.7,1.2c0.1,0.2,0.1,0.4,0.1,0.7v10.4
	c0,0.8-0.4,1.4-1.3,1.8c-0.2,0.1-0.4,0.1-0.5,0.1H112c-0.7,0-1.3-0.4-1.7-1.2c-0.1-0.2-0.1-0.5-0.1-0.8V55c0-0.8,0.4-1.4,1.2-1.8
	C111.7,53.2,111.9,53.1,112.1,53.1z"/>
</svg>
