<?xml version="1.0" encoding="utf-8"?>
<!-- Generator: Adobe Illustrator 23.0.2, SVG Export Plug-In . SVG Version: 6.00 Build 0)  -->
<svg version="1.1" id="Layer_1" xmlns="http://www.w3.org/2000/svg" xmlns:xlink="http://www.w3.org/1999/xlink" x="0px" y="0px"
	 viewBox="0 0 19 15" style="enable-background:new 0 0 19 15;" xml:space="preserve">
<style type="text/css">
	.st0{fill: #5AA9FF;}
</style>
<path id="mail_outline" class="st0" d="M9.2,6.4l7.3-4.6H1.8L9.2,6.4z M16.5,12.8V3.7L9.2,8.2L1.8,3.7v9.2H16.5z M16.5,0
	c0.5,0,0.9,0.2,1.3,0.5s0.5,0.8,0.5,1.3v11c0,0.5-0.2,0.9-0.5,1.3s-0.8,0.5-1.3,0.5H1.8c-0.5,0-0.9-0.2-1.3-0.5
	C0.2,13.8,0,13.3,0,12.8v-11c0-0.5,0.2-0.9,0.5-1.3C0.9,0.2,1.3,0,1.8,0H16.5z"/>
</svg>
