<?xml version="1.0" encoding="utf-8"?>
<!-- Generator: Adobe Illustrator 23.0.2, SVG Export Plug-In . SVG Version: 6.00 Build 0)  -->
<svg version="1.1" id="Layer_1" xmlns="http://www.w3.org/2000/svg" xmlns:xlink="http://www.w3.org/1999/xlink" x="0px" y="0px"
	 viewBox="0 0 60 60" style="enable-background:new 0 0 60 60;" xml:space="preserve">
<style type="text/css">
	.st0{fill:none;}
	.st1{fill:#FFFFFF;}
</style>
<rect class="st0" width="60" height="60"/>
<path id="Combined-Shape" class="st1" d="M29,52.6c0.4,0,0.6,0,1,0s0.7,0,1,0l0.2-15.9c1.8-1.2,3.8-2.4,5.8-3.6l1.2-0.8v18.9
	c0.7-0.3,1.5-0.6,2.2-1l-0.1-18.8l3-2l4.1,4.7v10.5c3.3-3.9,5.3-9,5.3-14.5C52.6,17.5,42.5,7.4,30,7.4S7.4,17.5,7.4,30
	c0,5.4,1.9,10.4,5,14.2l0.1-4.5l7.1-4.3v14.5c0.7,0.4,1.5,0.7,2.2,1l0.2-16.5l4.9-3.7l2.4,2.4L29,52.6L29,52.6z M30,55
	C16.2,55,5,43.8,5,30S16.2,5,30,5s25,11.2,25,25S43.8,55,30,55z M46.9,16.6c0.5,0,0.8,0.4,0.8,0.7v10.5c0,0.3-0.2,0.6-0.5,0.7
	c-0.3,0.2-0.6,0.1-0.8-0.2L44,25.9L32.4,33c-0.4,0.2-0.8,0.1-1-0.2l-3.4-5l-14.4,9.3c-0.1,0.1-0.3,0.1-0.4,0.1
	c-0.2,0-0.5-0.1-0.6-0.3c-0.2-0.3-0.2-0.7,0-1l15.5-16.5c0.2-0.2,0.4-0.2,0.6-0.2c0.2,0,0.4,0.1,0.5,0.3l4.3,5.7l6.1-4.1l-2.4-3.5
	c-0.2-0.2-0.2-0.5-0.1-0.8c0.1-0.3,0.4-0.4,0.6-0.4h9V16.6z M46.2,26.1v-7.9h-6.9l2,2.8c0.1,0.2,0.2,0.4,0.1,0.5
	c0,0.2-0.2,0.4-0.4,0.5l-7.3,4.9c-0.4,0.2-0.8,0.2-1-0.2l-4.1-5.5L18,32.5l9.8-6.3c0.4-0.2,0.8-0.1,1,0.2l3.4,5l11.5-7
	c0.3-0.2,0.6-0.2,0.9,0.1L46.2,26.1z M18.7,18.7c1.1,0.5,2.5,1.3,2.5,3c0,1.3-0.8,2.3-2,2.7h-0.1V26H17v-1.4h-0.1
	c-0.6-0.1-1.3-0.4-1.7-0.6l-0.4-0.3l0.7-2.1l0.6,0.5c0.5,0.3,1,0.5,1.5,0.5c0.5,0,1-0.2,1-0.7c0-0.3-0.2-0.6-1.1-1
	c-1.3-0.5-2.5-1.3-2.5-2.9c0-1.2,0.7-2.2,1.9-2.6h0.1v-1.5h2v1.4h0.1c0.5,0.1,0.9,0.3,1.4,0.5l0.5,0.3l-0.7,2l-0.6-0.4
	c-0.2-0.1-0.6-0.4-1.4-0.4c-0.5,0-0.8,0.2-0.8,0.5C17.5,18,17.5,18.3,18.7,18.7z"/>
</svg>
