<?xml version="1.0" encoding="utf-8"?>
<!-- Generator: Adobe Illustrator 23.0.2, SVG Export Plug-In . SVG Version: 6.00 Build 0)  -->
<svg version="1.1" id="Layer_1" xmlns="http://www.w3.org/2000/svg" xmlns:xlink="http://www.w3.org/1999/xlink" x="0px" y="0px"
	 viewBox="0 0 17.1 19.2" style="enable-background:new 0 0 17.1 19.2;" xml:space="preserve">
<style type="text/css">
	.st0{fill:#FFFFFF;}
</style>
<path class="st0" d="M15.9,5.8C16,5.9,16,6,16,6.1v1.1c0,0.2-0.1,0.3-0.2,0.4s-0.2,0.2-0.4,0.2h-1.1c-0.2,0-0.3-0.1-0.4-0.2
	s-0.2-0.2-0.2-0.4V7l-1.1,0.6v3.1c0,0.2-0.1,0.3-0.2,0.4s-0.2,0.2-0.4,0.2H5.1c-0.2,0-0.3-0.1-0.4-0.2s-0.2-0.2-0.2-0.4V6.1
	c0-0.2,0.1-0.3,0.2-0.4s0.2-0.2,0.4-0.2H9V4.4H1.4c-0.4,0-0.7,0.1-1,0.4C0.1,5.1,0,5.4,0,5.8v12c0,0.4,0.1,0.7,0.4,1s0.6,0.4,1,0.4
	h14.3c0.4,0,0.7-0.1,1-0.4s0.4-0.6,0.4-1v-12c0-0.2-0.1-0.5-0.2-0.7L15.9,5.8z M3.4,17.6c0,0.2-0.1,0.3-0.2,0.4S3,18.1,2.9,18.1H1.7
	c-0.2,0-0.3-0.1-0.4-0.2s-0.2-0.2-0.2-0.4v-1.1c0-0.2,0.1-0.3,0.2-0.4s0.2-0.2,0.4-0.2h1.1c0.2,0,0.3,0.1,0.4,0.2s0.2,0.2,0.2,0.4
	V17.6z M3.4,14.1c0,0.2-0.1,0.3-0.2,0.4S3,14.7,2.9,14.7H1.7c-0.2,0-0.3-0.1-0.4-0.2s-0.2-0.2-0.2-0.4V13c0-0.2,0.1-0.3,0.2-0.4
	s0.2-0.2,0.4-0.2h1.1c0.2,0,0.3,0.1,0.4,0.2s0.2,0.2,0.2,0.4V14.1z M3.4,10.7c0,0.2-0.1,0.3-0.2,0.4S3,11.3,2.9,11.3H1.7
	c-0.2,0-0.3-0.1-0.4-0.2s-0.2-0.2-0.2-0.4V9.6c0-0.2,0.1-0.3,0.2-0.4S1.6,9,1.7,9h1.1C3,9,3.1,9.1,3.2,9.2s0.2,0.2,0.2,0.4V10.7z
	 M3.4,7.3c0,0.2-0.1,0.3-0.2,0.4S3,7.9,2.9,7.9H1.7c-0.2,0-0.3-0.1-0.4-0.2S1.1,7.5,1.1,7.3V6.2c0-0.2,0.1-0.3,0.2-0.4
	s0.2-0.2,0.4-0.2h1.1c0.2,0,0.3,0.1,0.4,0.2S3.4,6,3.4,6.2V7.3z M12.6,17.6c0,0.2-0.1,0.3-0.2,0.4s-0.2,0.2-0.4,0.2H5.1
	c-0.2,0-0.3-0.1-0.4-0.2s-0.2-0.2-0.2-0.4V13c0-0.2,0.1-0.3,0.2-0.4s0.2-0.2,0.4-0.2H12c0.2,0,0.3,0.1,0.4,0.2s0.2,0.2,0.2,0.4V17.6
	z M16,17.6c0,0.2-0.1,0.3-0.2,0.4s-0.2,0.2-0.4,0.2h-1.1c-0.2,0-0.3-0.1-0.4-0.2s-0.2-0.2-0.2-0.4v-1.1c0-0.2,0.1-0.3,0.2-0.4
	s0.2-0.2,0.4-0.2h1.1c0.2,0,0.3,0.1,0.4,0.2s0.2,0.2,0.2,0.4V17.6z M16,14.1c0,0.2-0.1,0.3-0.2,0.4s-0.2,0.2-0.4,0.2h-1.1
	c-0.2,0-0.3-0.1-0.4-0.2s-0.2-0.2-0.2-0.4V13c0-0.2,0.1-0.3,0.2-0.4s0.2-0.2,0.4-0.2h1.1c0.2,0,0.3,0.1,0.4,0.2S16,12.8,16,13V14.1z
	 M16,10.7c0,0.2-0.1,0.3-0.2,0.4s-0.2,0.2-0.4,0.2h-1.1c-0.2,0-0.3-0.1-0.4-0.2s-0.2-0.2-0.2-0.4V9.6c0-0.2,0.1-0.3,0.2-0.4
	S14.1,9,14.3,9h1.1c0.2,0,0.3,0.1,0.4,0.2S16,9.4,16,9.6V10.7z M17,3.7c0.1,0.1,0.1,0.1,0.1,0.2c0,0,0,0.1-0.1,0.2l0,0l-6.7,3.7
	c-0.1,0.1-0.2,0-0.2,0S10,7.7,10,7.6V0.2C10,0.1,10.1,0,10.1,0s0,0,0.1,0h0.1L17,3.7z"/>
</svg>
