<?xml version="1.0" encoding="utf-8"?>
<!-- Generator: Adobe Illustrator 23.0.2, SVG Export Plug-In . SVG Version: 6.00 Build 0)  -->
<svg version="1.1" id="Layer_1" xmlns="http://www.w3.org/2000/svg" xmlns:xlink="http://www.w3.org/1999/xlink" x="0px" y="0px"
	 viewBox="0 0 60 60" style="enable-background:new 0 0 60 60;" xml:space="preserve">
<style type="text/css">
	.st0{fill:none;}
	.st1{fill:#FFFFFF;}
</style>
<rect class="st0" width="60" height="60"/>
<path id="Combined-Shape" class="st1" d="M38,31.9c0.1,0.1,0.3,0.2,0.5,0.2s0.3-0.1,0.5-0.2c0.1-0.1,0.2-0.3,0.2-0.5
	s-0.1-0.3-0.2-0.5c-0.1-0.1-0.3-0.2-0.5-0.2s-0.3,0.1-0.5,0.2s-0.2,0.3-0.2,0.5C37.8,31.6,37.9,31.8,38,31.9z M45,31.9
	c0.1,0.1,0.3,0.2,0.5,0.2s0.3-0.1,0.5-0.2c0.1-0.1,0.2-0.3,0.2-0.5s-0.1-0.3-0.2-0.5s-0.3-0.2-0.5-0.2s-0.3,0.1-0.4,0.3
	s-0.2,0.3-0.2,0.5C44.9,31.6,44.9,31.8,45,31.9z M31.9,35.2c0.5,0,0.9,0.2,1.2,0.5s0.5,0.7,0.5,1.2v7.2c0,0.5-0.2,0.9-0.5,1.2
	s-0.7,0.5-1.2,0.5s-0.9-0.2-1.2-0.5s-0.5-0.7-0.5-1.2v-7.2c0-0.5,0.2-0.9,0.5-1.2S31.4,35.2,31.9,35.2z M49.7,35.5v11.1
	c0,0.5-0.2,0.9-0.5,1.3c-0.4,0.4-0.8,0.5-1.3,0.5h-1.3v3.8c0,0.5-0.2,0.9-0.5,1.2S45.3,54,44.9,54c-0.5,0-0.9-0.2-1.2-0.5
	s-0.5-0.7-0.5-1.2v-3.8h-2.3v3.8c0,0.5-0.2,0.9-0.5,1.2S39.6,54,39.1,54s-0.9-0.2-1.2-0.5s-0.5-0.7-0.5-1.2v-3.8h-1.2
	c-0.5,0-0.9-0.2-1.3-0.5c-0.4-0.4-0.5-0.8-0.5-1.3V35.5H49.7z M45.8,28.7c1.2,0.6,2.1,1.5,2.9,2.6c0.7,1.1,1.1,2.3,1.1,3.6H34.2
	c0-1.3,0.4-2.5,1.1-3.6c0.7-1.1,1.7-2,2.9-2.6L37,26.5c-0.1-0.1-0.1-0.3,0.1-0.3c0.1-0.1,0.3,0,0.3,0.1l1.2,2.2
	c1.1-0.5,2.2-0.7,3.4-0.7s2.3,0.2,3.4,0.7l1.2-2.2c0.1-0.1,0.2-0.2,0.3-0.1s0.2,0.2,0.1,0.3L45.8,28.7z M53.8,36.9v7.2
	c0,0.5-0.2,0.9-0.5,1.2s-0.7,0.5-1.2,0.5s-0.9-0.2-1.2-0.5s-0.5-0.7-0.5-1.2v-7.2c0-0.5,0.2-0.9,0.5-1.2c0.3-0.3,0.7-0.5,1.2-0.5
	s0.9,0.2,1.2,0.5C53.6,36,53.8,36.4,53.8,36.9z M29.5,26.3c-0.4,1.4-1.1,2.8-2.1,4.2c-1.4,2.2-2.9,3.3-4.3,3.3
	c-0.5,0-1.3-0.2-2.3-0.5c-1-0.4-1.8-0.5-2.5-0.5c-0.7,0-1.5,0.2-2.4,0.6C15,33.8,14.3,34,13.7,34c-1.7,0-3.4-1.4-5-4.3
	c-1.7-3.1-2.5-5.9-2.5-8.6c0-2.5,0.6-4.6,1.9-6.3c1.3-1.6,2.8-2.4,4.8-2.4c0.8,0,1.8,0.2,3,0.5c1.2,0.3,1.9,0.5,2.3,0.5
	c0.5,0,1.3-0.2,2.4-0.6s2.1-0.6,2.9-0.6c1.3,0,2.5,0.4,3.6,1.1c0.6,0.4,1.2,1,1.7,1.7c-0.9,0.7-1.5,1.4-1.9,2
	c-0.7,1-1.1,2.2-1.1,3.5c0,1.4,0.4,2.6,1.2,3.7C27.6,25.3,28.5,26,29.5,26.3z M23.2,6.7c0,0.7-0.2,1.4-0.5,2.3
	c-0.3,0.8-0.9,1.6-1.6,2.3c-0.6,0.6-1.2,1-1.8,1.2c-0.4,0.1-1,0.2-1.7,0.3c0-1.7,0.5-3.1,1.3-4.3c0.8-1.2,2.2-2,4.2-2.5
	c0,0,0,0.1,0,0.2c0,0.1,0,0.2,0,0.2s0,0.1,0,0.2C23.2,6.6,23.2,6.7,23.2,6.7z"/>
</svg>
