<?xml version="1.0" encoding="utf-8"?>
<!-- Generator: Adobe Illustrator 23.0.2, SVG Export Plug-In . SVG Version: 6.00 Build 0)  -->
<svg version="1.1" id="Layer_1" xmlns="http://www.w3.org/2000/svg" xmlns:xlink="http://www.w3.org/1999/xlink" x="0px" y="0px"
	 viewBox="0 0 17 16" style="enable-background:new 0 0 17 16;" xml:space="preserve">
<style type="text/css">
	.st0{fill:#FFFFFF;}
</style>
<path class="st0" d="M2.1,4.9c0,1.1,0.1,1.8,0.3,2.4C2.6,7.8,2.9,8,3.4,8c0.9,0,1.4-1,1.4-3.1S4.3,1.7,3.4,1.7c-0.5,0-0.8,0.3-1,0.8
	S2.1,3.8,2.1,4.9z M6.9,4.9c0,1.6-0.3,2.9-0.9,3.7C5.4,9.4,4.5,9.8,3.4,9.8c-1.1,0-1.9-0.4-2.5-1.3C0.3,7.7,0,6.4,0,4.9
	C0,1.6,1.1,0,3.4,0c1.1,0,2,0.4,2.6,1.3C6.6,2.1,6.9,3.3,6.9,4.9z M12.2,11.1c0,1.1,0.1,1.8,0.3,2.4c0.2,0.5,0.5,0.8,1,0.8
	c0.9,0,1.4-1.1,1.4-3.2C14.9,9,14.5,8,13.5,8c-0.5,0-0.8,0.3-1,0.8S12.2,10,12.2,11.1z M17,11.1c0,1.6-0.3,2.9-0.9,3.7
	c-0.6,0.8-1.4,1.2-2.6,1.2c-1.1,0-1.9-0.4-2.5-1.3c-0.6-0.8-0.9-2.1-0.9-3.6c0-3.2,1.1-4.9,3.4-4.9c1.1,0,1.9,0.4,2.5,1.3
	C16.7,8.3,17,9.5,17,11.1z M13.8,0.2L5.2,15.8H3.1l8.6-15.6H13.8z"/>
</svg>
