<?xml version="1.0" encoding="utf-8"?>
<!-- Generator: Adobe Illustrator 23.0.2, SVG Export Plug-In . SVG Version: 6.00 Build 0)  -->
<svg version="1.1" id="Layer_1" xmlns="http://www.w3.org/2000/svg" xmlns:xlink="http://www.w3.org/1999/xlink" x="0px" y="0px"
	 viewBox="0 0 18 17" style="enable-background:new 0 0 18 17;" xml:space="preserve">
<style type="text/css">
	.st0{fill:#FFFFFF;}
</style>
<path id="local_phone" class="st0" d="M4,7.2c0.7,1.3,1.5,2.5,2.6,3.5c1,1,2.2,1.9,3.5,2.6l2-2c0.1-0.1,0.3-0.2,0.4-0.3
	c0.2,0,0.3,0,0.5,0c1,0.3,2.1,0.5,3.3,0.5c0.2,0,0.5,0.1,0.6,0.3c0.2,0.2,0.3,0.4,0.3,0.6v3.2c0,0.2-0.1,0.5-0.3,0.6
	c-0.2,0.2-0.4,0.3-0.6,0.3c-2.1,0-4.1-0.4-6.1-1.2c-1.9-0.8-3.5-1.9-5-3.3C3.9,10.5,2.8,8.9,2,7C1.2,5.1,0.8,3.1,0.8,1
	c0-0.2,0.1-0.5,0.3-0.6C1.2,0.1,1.4,0,1.7,0h3.2c0.2,0,0.5,0.1,0.6,0.3C5.7,0.5,5.8,0.7,5.8,1c0,1.2,0.2,2.3,0.5,3.3
	c0,0.2,0.1,0.3,0,0.5c0,0.2-0.1,0.3-0.2,0.4L4,7.2z"/>
</svg>
