<?xml version="1.0" encoding="utf-8"?>
<!-- Generator: Adobe Illustrator 23.0.2, SVG Export Plug-In . SVG Version: 6.00 Build 0)  -->
<svg version="1.1" id="Layer_1" xmlns="http://www.w3.org/2000/svg" xmlns:xlink="http://www.w3.org/1999/xlink" x="0px" y="0px"
	 viewBox="0 0 304 248" style="enable-background:new 0 0 304 248;" xml:space="preserve">
<style type="text/css">
	.st0{opacity:0.3;fill-opacity:0.5;enable-background:new    ;}
	.st1{fill-rule:evenodd;clip-rule:evenodd;fill:#FFFFFF;stroke:#5AA9FF;stroke-width:2;}
	.st2{fill-rule:evenodd;clip-rule:evenodd;fill:#FFFFFF;stroke:#7ED321;stroke-width:2;}
	.st3{fill-rule:evenodd;clip-rule:evenodd;fill:#FFFFFF;stroke:#0A0068;stroke-width:2;}
</style>
<path id="Path-9" class="st0" d="M165.8,127.5l-0.2,0.1L165.8,127.5L165.8,127.5z M292.7,10.6l0.7,0.7l-127,117l-0.2,0.1L25.7,178.7
	l-0.3-0.9l140.4-50.2L292.7,10.6z"/>
<rect id="Rectangle" x="157" y="119" transform="matrix(0.9272 -0.3746 0.3746 0.9272 -35.8676 71.5132)" class="st1" width="18" height="18"/>
<circle id="Oval" class="st2" cx="293" cy="11" r="10"/>
<path class="st3" d="M31,168l-14.1,10l13.6,6.9L31,168z"/>
<rect x="4.9" y="67.9" transform="matrix(0.829 -0.5592 0.5592 0.829 -40.6187 20.9069)" class="st1" width="18" height="18"/>
<circle class="st2" cx="201" cy="237" r="10"/>
</svg>
