<?xml version="1.0" encoding="utf-8"?>
<!-- Generator: Adobe Illustrator 23.0.2, SVG Export Plug-In . SVG Version: 6.00 Build 0)  -->
<svg version="1.1" id="Layer_1" xmlns="http://www.w3.org/2000/svg" xmlns:xlink="http://www.w3.org/1999/xlink" x="0px" y="0px"
	 viewBox="0 0 53 73" style="enable-background:new 0 0 53 73;" xml:space="preserve">
<style type="text/css">
	.st0{fill-rule:evenodd;clip-rule:evenodd;fill:#0A0068;}
</style>
<path class="st0" d="M4.4,12.7c-0.3-1.2-1.5-1.9-2.7-1.6c-1.2,0.3-1.9,1.5-1.6,2.7l14.5,57.5c0.3,1,1.2,1.7,2.2,1.7
	c0.2,0,0.4,0,0.5-0.1c1.2-0.3,1.9-1.5,1.6-2.7L4.4,12.7z M52.9,28.3c-2.4-8.7-4.9-17.4-7.3-26.2c-0.3-0.9-0.7-2-2.5-2.1
	c-13.8-1-22.8,12.3-36.5,11.3c-1.1-0.1-1.8,0.4-1.5,1.4c2.4,8.7,4.9,17.5,7.3,26.2c0.4,1.4,1.4,1.9,2.5,2.1
	c13.8,1,22.8-12.3,36.5-11.3C52.5,29.8,53.2,29.2,52.9,28.3z M42.1,3.3c0.7,2.4,1.4,4.8,2,7.2c-2.9,0.1-5.4,0.7-8.2,1.6
	c-0.7-2.4-1.4-4.8-2-7.2C36.7,4,39.3,3.4,42.1,3.3z M13.8,30.3c-0.8-2.7-1.5-5.5-2.3-8.2c3-0.1,5.7-0.7,8.6-1.8
	c-0.7-2.4-1.4-4.8-2-7.2c2.8-1.2,5.4-2.6,8-4.1c0.7,2.4,1.4,4.8,2,7.2c-2.6,1.5-5.2,2.9-8,4.1c0.8,2.7,1.5,5.5,2.3,8.2
	C19.5,29.6,16.8,30.2,13.8,30.3z M24.4,35.9c-0.7-2.4-1.4-4.9-2.1-7.3c2.7-1.2,5.3-2.6,7.9-4.1c0.7,2.4,1.4,4.9,2.1,7.3
	C29.7,33.3,27.2,34.7,24.4,35.9z M30.3,24.4c-0.8-2.7-1.5-5.5-2.3-8.2c2.6-1.5,5.2-2.9,8-4c0.8,2.7,1.5,5.5,2.3,8.2
	C35.5,21.6,32.9,23,30.3,24.4z M40.4,27.7c-0.7-2.4-1.4-4.9-2.1-7.3c2.7-1,5.2-1.5,8.1-1.6c0.7,2.4,1.4,4.9,2.1,7.3
	C45.7,26.2,43.1,26.7,40.4,27.7z"/>
</svg>
