<?xml version="1.0" encoding="utf-8"?>
<!-- Generator: Adobe Illustrator 23.0.2, SVG Export Plug-In . SVG Version: 6.00 Build 0)  -->
<svg version="1.1" id="Layer_1" xmlns="http://www.w3.org/2000/svg" xmlns:xlink="http://www.w3.org/1999/xlink" x="0px" y="0px"
	 viewBox="0 0 17 18" style="enable-background:new 0 0 17 18;" xml:space="preserve">
<style type="text/css">
	.st0{fill:#FCCF48;}
</style>
<path id="search" class="st0" d="M10.2,11.1c0.9-0.9,1.3-1.9,1.3-3.2s-0.4-2.3-1.3-3.2S8.3,3.4,7.1,3.4S4.8,3.9,3.9,4.7
	C3,5.6,2.6,6.7,2.6,7.9s0.4,2.3,1.3,3.2c0.9,0.9,1.9,1.3,3.2,1.3S9.4,12,10.2,11.1z M16.7,16.3c0,0.3-0.1,0.6-0.4,0.9
	c-0.3,0.3-0.6,0.4-0.9,0.4c-0.4,0-0.7-0.1-0.9-0.4l-3.4-3.4c-1.2,0.8-2.5,1.2-4,1.2c-1,0-1.9-0.2-2.7-0.6c-0.9-0.4-1.6-0.9-2.3-1.5
	c-0.6-0.6-1.1-1.4-1.5-2.3C0.2,9.8,0,8.9,0,7.9s0.2-1.9,0.6-2.7c0.4-0.9,0.9-1.6,1.5-2.3c0.6-0.6,1.4-1.1,2.3-1.5s1.8-0.6,2.7-0.6
	S8.9,1,9.8,1.4s1.6,0.9,2.3,1.5c0.6,0.6,1.1,1.4,1.5,2.3C14,6.1,14.1,7,14.1,7.9c0,1.5-0.4,2.8-1.2,4l3.4,3.4
	C16.6,15.6,16.7,15.9,16.7,16.3z"/>
</svg>
