<?xml version="1.0" encoding="utf-8"?>
<!-- Generator: Adobe Illustrator 23.0.2, SVG Export Plug-In . SVG Version: 6.00 Build 0)  -->
<svg version="1.1" id="Layer_1" xmlns="http://www.w3.org/2000/svg" xmlns:xlink="http://www.w3.org/1999/xlink" x="0px" y="0px"
	 viewBox="0 0 50 50" style="enable-background:new 0 0 50 50;" xml:space="preserve">
<style type="text/css">
	.st0{fill:none;}
	.st1{fill:#FCCF48;}
</style>
<rect class="st0" width="50" height="50"/>
<path id="search" class="st1" d="M28.3,21.6c1.6-1.6,2.3-3.4,2.3-5.7s-0.7-4.1-2.3-5.7c-1.6-1.6-3.4-2.3-5.6-2.3s-4.1,0.9-5.7,2.3
	c-1.6,1.6-2.3,3.6-2.3,5.7s0.7,4.1,2.3,5.7c1.6,1.6,3.4,2.3,5.7,2.3S26.9,23.2,28.3,21.6z M40,31c0,0.5-0.2,1.1-0.7,1.6
	s-1.1,0.7-1.6,0.7c-0.7,0-1.3-0.2-1.6-0.7l-6.1-6.1c-2.2,1.4-4.5,2.2-7.2,2.2c-1.8,0-3.4-0.4-4.9-1.1c-1.6-0.7-2.9-1.6-4.1-2.7
	c-1.1-1.1-2-2.5-2.7-4.1c-0.7-1.4-1.1-3.1-1.1-4.9s0.4-3.4,1.1-4.9c0.7-1.6,1.6-2.9,2.7-4.1c1.1-1.1,2.5-2,4.1-2.7s3.2-1.1,4.9-1.1
	s3.2,0.4,4.9,1.1s2.9,1.6,4.1,2.7c1.1,1.1,2,2.5,2.7,4.1s0.9,3.2,0.9,4.9c0,2.7-0.7,5-2.2,7.2l6.1,6.1C39.8,29.7,40,30.2,40,31z"/>
</svg>
