<?xml version="1.0" encoding="utf-8"?>
<!-- Generator: Adobe Illustrator 23.0.2, SVG Export Plug-In . SVG Version: 6.00 Build 0)  -->
<svg version="1.1" id="Layer_1" xmlns="http://www.w3.org/2000/svg" xmlns:xlink="http://www.w3.org/1999/xlink" x="0px" y="0px"
	 viewBox="0 0 60 60" style="enable-background:new 0 0 60 60;" xml:space="preserve">
<style type="text/css">
	.st0{fill:none;}
	.st1{fill:#FFFFFF;}
</style>
<rect class="st0" width="60" height="60"/>
<path id="Combined-Shape" class="st1" d="M33.4,12.8c2.5,2.5,3.7,5.7,3.7,9.2s-1.4,6.7-3.7,9.2c-2.5,2.5-5.7,3.7-9.2,3.7
	s-6.7-1.4-9.2-3.7C10,26,10,17.9,15.1,12.9c2.5-2.5,5.7-3.7,9.2-3.7C27.8,9,31,10.3,33.4,12.8z M32.1,29.7c2-2,3.3-4.9,3.3-7.8
	s-1.1-5.8-3.3-7.8c-2-2-4.9-3.3-7.8-3.3S18.6,12,16.5,14c-4.3,4.3-4.3,11.3,0,15.6c2,2,4.9,3.3,7.8,3.3S30,31.8,32.1,29.7z
	 M51.7,45.3c1.1,1.1,1.1,3.1,0,4.2c-0.6,0.6-1.2,0.9-2,0.9c-0.8,0-1.5-0.3-2-0.9L39.2,41c-0.9-0.9-1.1-2.3-0.6-3.4l-3.1-3.1
	c-3.1,2.8-7,4.3-11.3,4.3c-4.5,0-8.7-1.8-12-5c-3.1-3.2-4.9-7.5-4.9-12s1.8-8.7,5-11.9s7.5-5,11.9-5c4.5,0,8.7,1.8,12,5
	c6.3,6.3,6.6,16.6,0.7,23.2l3.1,3.1c1.1-0.6,2.5-0.3,3.4,0.6L51.7,45.3z M13.6,32.5c2.8,2.8,6.6,4.4,10.6,4.4s7.8-1.6,10.6-4.4
	c5.9-5.9,5.9-15.4,0-21.3c-2.8-2.8-6.6-4.4-10.6-4.4c-4,0-7.8,1.6-10.6,4.4s-4.4,6.6-4.4,10.6C9.3,25.9,10.8,29.7,13.6,32.5z
	 M50.5,48.1c0.5-0.5,0.5-1.1,0-1.5L42,38.1c-0.2-0.2-0.5-0.3-0.8-0.3s-0.6,0.1-0.8,0.3c-0.5,0.5-0.5,1.1,0,1.5l8.5,8.5
	C49.4,48.4,50.1,48.4,50.5,48.1z M32,24.8c0.6,0,0.9,0.5,0.9,0.9c0,0.6-0.5,0.9-0.9,0.9h-15c-0.6,0-0.9-0.5-0.9-0.9
	c0-0.6,0.5-0.9,0.9-0.9h0.9V22c0-0.6,0.5-0.9,0.9-0.9c0.6,0,0.9,0.5,0.9,0.9v2.8h1.9v-6.6c0-0.6,0.5-0.9,0.9-0.9
	c0.6,0,0.9,0.5,0.9,0.9v6.6h1.9V22c0-0.6,0.5-0.9,0.9-0.9c0.6,0,0.9,0.5,0.9,0.9v2.8H29v-8.5c0-0.6,0.5-0.9,0.9-0.9
	c0.6,0,0.9,0.5,0.9,0.9v8.5C30.8,24.8,32,24.8,32,24.8z M15.4,51.7c0,1-0.3,1.8-1.1,2.4c-0.8,0.6-1.7,0.9-3.1,0.9S9,54.8,8.2,54.3
	v-1.7c0.6,0.2,1,0.5,1.7,0.6c0.7,0.1,1.1,0.2,1.6,0.2c0.7,0,1.2-0.1,1.6-0.5s0.6-0.7,0.6-1.1c0-0.5-0.1-0.8-0.5-1.1
	c-0.3-0.3-1-0.7-2-1c-1-0.5-1.8-0.9-2.1-1.5c-0.3-0.6-0.7-1.1-0.7-1.9c0-0.9,0.3-1.7,1-2.3c0.7-0.6,1.6-0.8,2.7-0.8s2.1,0.2,3.3,0.7
	l-0.6,1.5c-1-0.5-1.9-0.7-2.7-0.7c-0.6,0-1,0.1-1.4,0.3c-0.3,0.2-0.5,0.6-0.5,1c0,0.3,0.1,0.6,0.2,0.8s0.3,0.5,0.6,0.6
	c0.2,0.1,0.8,0.5,1.6,0.7c0.8,0.3,1.5,0.7,1.8,1c0.3,0.3,0.7,0.7,0.9,1C15.5,50.5,15.4,51.2,15.4,51.7z M24,54.8h-6.4V43.5H24V45
	h-4.5v3.1h4.3v1.6h-4.3v3.5H24V54.8z M36.5,49.1c0,1.8-0.5,3.3-1.4,4.3c-0.9,1-2.3,1.6-4,1.6s-3.1-0.5-4-1.5c-0.9-1-1.4-2.5-1.4-4.3
	c0-1.8,0.5-3.3,1.4-4.3c0.9-1,2.3-1.5,4-1.5s2.9,0.5,3.8,1.5C35.9,46,36.5,47.3,36.5,49.1z M27.9,49.1c0,1.4,0.2,2.5,0.8,3.2
	c0.6,0.7,1.4,1.1,2.5,1.1c1.1,0,1.9-0.3,2.5-1c0.6-0.7,0.9-1.9,0.9-3.3s-0.2-2.5-0.8-3.2c-0.6-0.7-1.4-1.1-2.5-1.1s-1.9,0.3-2.5,1.1
	C28.2,46.7,27.9,47.8,27.9,49.1z"/>
</svg>
