<?xml version="1.0" encoding="utf-8"?>
<!-- Generator: Adobe Illustrator 23.0.2, SVG Export Plug-In . SVG Version: 6.00 Build 0)  -->
<svg version="1.1" id="Layer_1" xmlns="http://www.w3.org/2000/svg" xmlns:xlink="http://www.w3.org/1999/xlink" x="0px" y="0px"
	 viewBox="0 0 500 500" style="enable-background:new 0 0 500 500;" xml:space="preserve">
<style type="text/css">
	.st0{fill:none;}
	.st1{fill:#A8D2FF;}
	.st2{fill:#0A0068;}
	.st3{fill:#FFFFFF;}
	.st4{fill:#F8427B;}
	.st5{fill-rule:evenodd;clip-rule:evenodd;fill:#5AA9FF;}
	.st6{fill:#EEEEEE;}
	.st7{fill-rule:evenodd;clip-rule:evenodd;fill:#EEEEEE;}
	.st8{fill-rule:evenodd;clip-rule:evenodd;fill:#2C96F2;}
	.st9{fill-rule:evenodd;clip-rule:evenodd;fill:#0A0068;}
	.st10{fill-rule:evenodd;clip-rule:evenodd;fill:#37DA96;}
	.st11{fill:#2C96F2;}
	.st12{fill:#979797;}
	.st13{fill:#FCCF48;}
	.st14{fill:#5AA9FF;}
	.st15{fill-rule:evenodd;clip-rule:evenodd;fill:#FFFFFF;}
	.st16{fill-rule:evenodd;clip-rule:evenodd;fill:#D8D8D8;}
	.st17{fill-rule:evenodd;clip-rule:evenodd;fill:#2A2B2D;}
	.st18{fill-rule:evenodd;clip-rule:evenodd;fill:#FCCF48;}
	.st19{opacity:0.2;}
	.st20{fill:#FA8B55;}
</style>
<rect class="st0" width="500" height="500"/>
<g id="Combined-Shape">
	<path class="st1" d="M262.6,69l-6.9-12.9l52.9,1.8l-28,44.9l-7.1-13.3l-91.4,48.8l-13.7-19L56.1,174.1l-10.2-20.9l129.9-63.4
		l13.3,18.4L262.6,69z"/>
</g>
<g id="Group-25" transform="translate(135.000000, 85.000000)">
	<g id="Path">
		<path class="st2" d="M313.1,39.8H17.5c-4.4,0-7.9,3.6-7.9,7.9v187h311.6v-187c0-2.1-0.8-4.1-2.3-5.6S315.2,39.8,313.1,39.8z"/>
	</g>
	<g id="Rectangle">
		<rect x="25.2" y="52.6" class="st3" width="282.3" height="169.4"/>
	</g>
	<g>
		<path class="st2" d="M-9.9,236.2c0,5.6,2.2,10.9,6.1,14.9c4,4,9.3,6.1,14.9,6.1h304.7c11.6,0,21-9.4,21-21H-9.9z"/>
	</g>
	<g>
		<path class="st3" d="M189.8,241.5h-58c-1.5,0-2.8-0.6-3.9-1.8c-1.1-1.1-1.6-2.7-1.6-4.2h68.9c0,1.6-0.6,3.2-1.6,4.3
			C192.6,240.9,191.3,241.5,189.8,241.5L189.8,241.5z"/>
	</g>
	<g>
		<path class="st4" d="M51.2,65.9c0,0.6-0.2,1.1-0.6,1.5c-0.4,0.3-1.1,0.6-1.9,0.6c-0.7,0-1.4-0.2-1.9-0.4v-1.4
			c0.5,0.2,0.9,0.3,1.2,0.4c0.3,0.1,0.6,0.2,0.9,0.2c0.3,0,0.6-0.1,0.7-0.2c0.2-0.1,0.2-0.3,0.2-0.6c0-0.2,0-0.2-0.1-0.3
			s-0.2-0.2-0.3-0.3c-0.2-0.1-0.5-0.2-0.9-0.5c-0.4-0.2-0.7-0.4-1-0.6c-0.2-0.2-0.4-0.4-0.5-0.6s-0.2-0.6-0.2-0.9
			c0-0.6,0.2-1.1,0.6-1.5c0.4-0.3,1-0.6,1.7-0.6c0.3,0,0.7,0.1,1.1,0.2s0.6,0.2,1.1,0.3l-0.6,1.2c-0.4-0.2-0.6-0.2-0.9-0.3
			S49.3,62,49.1,62c-0.2,0-0.5,0.1-0.6,0.2c-0.2,0.1-0.2,0.3-0.2,0.5c0,0.2,0,0.2,0.1,0.3c0.1,0.1,0.2,0.2,0.3,0.2s0.4,0.2,1,0.5
			c0.6,0.3,1.1,0.6,1.3,1S51.2,65.4,51.2,65.9z M56.4,67.8h-4v-7h4v1.2h-2.5v1.5h2.3v1.2h-2.3v1.8h2.5V67.8z M62.1,67.8l-0.5-1.6
			h-2.5l-0.5,1.6H57l2.4-7h1.8l2.4,7H62.1z M61.3,64.9c-0.5-1.5-0.7-2.3-0.8-2.5s-0.1-0.4-0.1-0.5c-0.1,0.4-0.4,1.4-0.9,3H61.3z
			 M66.1,65.1v2.7h-1.5v-7h2c1,0,1.6,0.2,2.1,0.5c0.5,0.3,0.6,0.9,0.6,1.5c0,0.4-0.1,0.8-0.3,1.1c-0.2,0.2-0.6,0.6-1,0.7
			c1.1,1.5,1.7,2.6,2,3h-1.6L66.9,65h-0.8V65.1z M66.1,63.9h0.5c0.5,0,0.8-0.1,1.1-0.2c0.2-0.2,0.3-0.4,0.3-0.7s-0.1-0.6-0.3-0.7
			C67.3,62.1,67,62,66.5,62h-0.5V63.9z M73.9,62c-0.6,0-1,0.2-1.3,0.6s-0.5,1-0.5,1.7c0,1.5,0.6,2.3,1.8,2.3c0.5,0,1.1-0.2,1.8-0.4
			v1.2c-0.6,0.2-1.2,0.3-1.9,0.3c-1,0-1.8-0.3-2.3-0.9c-0.6-0.6-0.8-1.5-0.8-2.7c0-0.7,0.2-1.4,0.4-1.9c0.2-0.5,0.6-1,1.1-1.2
			c0.5-0.2,1.1-0.4,1.7-0.4s1.4,0.2,2,0.5l-0.5,1.2c-0.2-0.2-0.5-0.2-0.8-0.3C74.2,62.1,74.2,62,73.9,62z M82.9,67.8h-1.5v-3h-2.7v3
			h-1.5v-7h1.5v2.7h2.7v-2.7h1.5V67.8z M60,69.8h22.5c0.4,0,0.7,0.3,0.7,0.7l0,0c0,0.4-0.3,0.7-0.7,0.7H60c-0.4,0-0.7-0.3-0.7-0.7
			l0,0C59.3,70.1,59.6,69.8,60,69.8z M53.3,69.8h2.3c0.4,0,0.7,0.3,0.7,0.7l0,0c0,0.4-0.3,0.7-0.7,0.7h-2.3c-0.4,0-0.7-0.3-0.7-0.7
			l0,0C52.6,70.1,52.9,69.8,53.3,69.8z"/>
	</g>
	<g>
		<rect x="265.7" y="60" class="st5" width="36.7" height="11.2"/>
	</g>
	<g>
		<path class="st6" d="M261.2,71.4H93.5V60h167.8L261.2,71.4L261.2,71.4z M95.1,69.7h164.6v-8.1H95.1V69.7z"/>
	</g>
	<g>
		<rect x="153.3" y="90" class="st7" width="149" height="4.5"/>
	</g>
	<g>
		<rect x="190" y="97.5" class="st7" width="112.3" height="4.5"/>
	</g>
	<g>
		<rect x="212.5" y="77.3" class="st8" width="89.9" height="4.5"/>
	</g>
	<g>
		<rect x="35" y="122.3" class="st7" width="88.3" height="4.5"/>
	</g>
	<g>
		<rect x="56.8" y="129.8" class="st7" width="66.7" height="4.5"/>
	</g>
	<g>
		<rect x="70.2" y="109.6" class="st8" width="53.2" height="4.5"/>
	</g>
	<g>
		<rect x="112.1" y="115.6" class="st9" width="11.2" height="4.5"/>
	</g>
	<g>
		<rect x="35" y="156.1" class="st7" width="88.3" height="4.5"/>
	</g>
	<g>
		<rect x="56.8" y="163.6" class="st7" width="66.7" height="4.5"/>
	</g>
	<g>
		<rect x="70.2" y="143.3" class="st8" width="53.2" height="4.5"/>
	</g>
	<g>
		<rect x="112.1" y="149.3" class="st9" width="11.2" height="4.5"/>
	</g>
	<g>
		<rect x="35" y="187.5" class="st7" width="88.3" height="4.5"/>
	</g>
	<g>
		<rect x="56.8" y="195" class="st7" width="66.7" height="4.5"/>
	</g>
	<g>
		<rect x="70.2" y="174.8" class="st8" width="53.2" height="4.5"/>
	</g>
	<g>
		<rect x="112.1" y="180.8" class="st9" width="11.2" height="4.5"/>
	</g>
	<g>
		<rect x="70.2" y="205.5" class="st8" width="53.2" height="4.5"/>
	</g>
	<g>
		<rect x="112.1" y="211.5" class="st9" width="11.2" height="4.5"/>
	</g>
	<g>
		<rect x="212.5" y="83.3" class="st10" width="89.9" height="4.5"/>
	</g>
	<g>
		<rect x="153.3" y="122.3" class="st7" width="149" height="4.5"/>
	</g>
	<g>
		<rect x="190" y="129.8" class="st7" width="112.3" height="4.5"/>
	</g>
	<g>
		<rect x="190" y="109.6" class="st8" width="112.3" height="4.5"/>
	</g>
	<g>
		<rect x="212.5" y="115.6" class="st10" width="89.9" height="4.5"/>
	</g>
	<g>
		<rect x="153.3" y="122.3" class="st7" width="149" height="4.5"/>
	</g>
	<g>
		<rect x="190" y="129.8" class="st7" width="112.3" height="4.5"/>
	</g>
	<g>
		<rect x="190" y="109.6" class="st8" width="112.3" height="4.5"/>
	</g>
	<g>
		<rect x="212.5" y="115.6" class="st10" width="89.9" height="4.5"/>
	</g>
	<g>
		<rect x="153.3" y="155.3" class="st7" width="149" height="4.5"/>
	</g>
	<g>
		<rect x="190" y="162.8" class="st7" width="112.3" height="4.5"/>
	</g>
	<g>
		<rect x="190" y="142.6" class="st8" width="112.3" height="4.5"/>
	</g>
	<g>
		<rect x="227.5" y="177.8" class="st8" width="74.9" height="4.5"/>
	</g>
	<g>
		<rect x="257.5" y="184.5" class="st7" width="44.9" height="4.5"/>
	</g>
	<g>
		<rect x="212.5" y="190.5" class="st7" width="89.9" height="4.5"/>
	</g>
	<g>
		<rect x="212.5" y="148.6" class="st10" width="89.9" height="4.5"/>
	</g>
	<g>
		<rect x="173.6" y="174.8" class="st7" width="19.5" height="10.5"/>
	</g>
	<g>
		<path class="st11" d="M206.5,178.9c0,0.1-0.1,0.2-0.2,0.3l-2.4,2.3l0.6,3.3c0,0,0,0.1,0,0.2c0,0.1,0,0.2-0.1,0.2
			c-0.1,0.1-0.1,0.1-0.2,0.1c-0.1,0-0.2,0-0.2-0.1l-3.1-1.5l-3.1,1.5c-0.1,0.1-0.2,0.1-0.2,0.1c-0.1,0-0.2,0-0.2-0.1
			c-0.1-0.1-0.1-0.2-0.1-0.2c0,0,0-0.1,0-0.2l0.6-3.3l-2.4-2.3c-0.1-0.1-0.2-0.2-0.2-0.3c0-0.2,0.2-0.2,0.4-0.3l3.4-0.5l1.5-3
			c0.1-0.2,0.2-0.2,0.3-0.2c0.2,0,0.2,0.1,0.3,0.2l1.5,3l3.4,0.5C206.4,178.6,206.5,178.7,206.5,178.9z"/>
	</g>
	<g>
		<rect x="227.5" y="207.8" class="st8" width="74.9" height="4.5"/>
	</g>
	<g>
		<rect x="257.5" y="214.5" class="st7" width="44.9" height="4.5"/>
	</g>
	<g>
		<rect x="173.6" y="204.8" class="st7" width="19.5" height="10.5"/>
	</g>
	<g>
		<path class="st11" d="M206.5,208.8c0,0.1-0.1,0.2-0.2,0.3l-2.4,2.3l0.6,3.3c0,0,0,0.1,0,0.2c0,0.1,0,0.2-0.1,0.2
			c-0.1,0.1-0.1,0.1-0.2,0.1c-0.1,0-0.2,0-0.2-0.1l-3.1-1.5l-3.1,1.5c-0.1,0.1-0.2,0.1-0.2,0.1c-0.1,0-0.2,0-0.2-0.1
			c-0.1-0.1-0.1-0.2-0.1-0.2c0,0,0-0.1,0-0.2l0.6-3.3l-2.4-2.3c-0.1-0.1-0.2-0.2-0.2-0.3c0-0.2,0.2-0.2,0.4-0.3l3.4-0.5l1.5-3
			c0.1-0.2,0.2-0.2,0.3-0.2s0.2,0.1,0.3,0.2l1.5,3l3.4,0.5C206.4,208.6,206.5,208.7,206.5,208.8z"/>
	</g>
	<g id="Mask">
		<rect x="34.9" y="78.1" class="st7" width="88.3" height="20.2"/>
	</g>
	<g id="Path-13">
		<polygon class="st10" points="85.5,89.7 79.6,93 84.5,94.2 		"/>
	</g>
	<g id="Path-8">
		<path class="st12" d="M68.3,91.9l2.7,1.5l2.6,1.1c0.7,0.9,1.1,1.5,1.1,1.9v2h-0.2v-2c0-0.3-0.3-1-1-1.8L71,93.5l-2.7-1.4h-2.2
			L66,92.1v-1.2l-1.2-1.1l-1.5-1.5v-2.6l-1.6-2l-2.8-3.3l-2.1-0.9l-2.2-1.3l0.1-0.2l2.2,1.3l2.2,0.9l2.8,3.3l1.6,2v2.6l1.5,1.5
			l1.3,1.1v1.1L68.3,91.9z"/>
	</g>
	<g id="Path-10">
		<path class="st13" d="M74.5,83.3l-1.7-5.3l0.7-0.2l1.5,4.7l5.9-0.6H81l7,2.7l2.2,1.3h6.1l13.5,7.7l2.1-3.4l7.9-0.8l4.2-1.7
			l0.2,0.7l-4.2,1.7H120l-7.6,0.7l-2.3,3.6l-13.9-7.9h-6.1L90,86.6l-2.2-1.3l-6.9-2.7L74.5,83.3z M120,89.5L120,89.5L120,89.5
			L120,89.5z"/>
	</g>
	<g id="Path-11">
		<polygon class="st8" points="88.8,78.1 88.8,79.8 88.8,81.6 90.1,83.2 90.7,83.2 90.7,82.2 92.2,82.7 93.9,82.7 96.2,81.6 
			96.2,79.8 93.9,81.6 91.3,80.6 90.1,79.8 		"/>
	</g>
	<g id="Path-14">
		<path class="st10" d="M98.6,83.2c0.5,0,1.3-0.3,2.4-1l1.4,0.5l4.4,0.5l-4.1,0.9H100C98.6,83.4,98.2,83.2,98.6,83.2z"/>
	</g>
	<g id="Path-15">
		<polygon class="st10" points="117.2,79.9 117.8,86.6 118.8,87.7 118,82.2 		"/>
	</g>
	<g id="Path-16">
		<polygon class="st10" points="120,84.8 120,86.6 122.6,86.6 		"/>
	</g>
	<g id="Path-17">
		<polygon class="st8" points="89.4,83.8 88.8,84.8 89.4,85.7 91.6,85.7 95.4,85.7 92.1,84.1 		"/>
	</g>
	<g id="Path-18">
		<polygon class="st12" points="35,89.1 35,89.1 40.9,86 41.1,86.1 41.1,88.2 48.5,91.3 48.5,91.4 46.4,93.6 48.5,94.6 50.5,97.2 
			50.5,98.9 50.3,98.9 50.3,97.3 48.4,94.6 46.3,93.7 46.2,93.6 48.4,91.4 40.9,88.3 40.9,88.2 40.9,86.2 		"/>
	</g>
	<g id="Path-19">
		<path class="st10" d="M36.9,77.9l4.1,2.7l3.8-0.6c1,0.9,1.8,1.1,2.6,0.6c1.1-0.6,3.1-0.1,3.1-0.6c0-0.4,0.6-1.1,1.9-2H36.9z"/>
	</g>
	<g>
		<path class="st2" d="M40,66.6c0.6-0.6,0.9-1.4,0.9-2.3c0-0.9-0.3-1.6-0.9-2.3c-0.6-0.6-1.4-0.9-2.3-0.9c-0.9,0-1.6,0.3-2.3,0.9
			c-0.6,0.6-0.9,1.4-0.9,2.3c0,0.9,0.3,1.6,0.9,2.3c0.6,0.6,1.4,0.9,2.3,0.9C38.7,67.6,39.4,67.2,40,66.6z M44.7,70.4
			c0,0.2-0.1,0.5-0.2,0.6c-0.2,0.2-0.4,0.2-0.6,0.2c-0.2,0-0.5-0.1-0.6-0.2l-2.5-2.5c-0.9,0.6-1.8,0.9-2.9,0.9
			c-0.6,0-1.4-0.2-1.9-0.4c-0.6-0.2-1.1-0.6-1.6-1.1c-0.5-0.5-0.8-1-1.1-1.6s-0.4-1.3-0.4-1.9c0-0.7,0.2-1.4,0.4-1.9
			c0.2-0.6,0.6-1.1,1.1-1.6c0.5-0.5,1-0.8,1.6-1.1c0.6-0.2,1.3-0.4,1.9-0.4s1.4,0.2,1.9,0.4c0.6,0.2,1.1,0.6,1.6,1.1
			c0.5,0.5,0.8,1,1.1,1.6c0.2,0.6,0.4,1.3,0.4,1.9c0,1.1-0.3,2-0.9,2.9l2.5,2.5C44.6,69.9,44.7,70.1,44.7,70.4z"/>
	</g>
</g>
<g id="Group-22" transform="translate(10.000000, 8.000000)">
	<g>
		<path class="st13" d="M436,68.3h31.5V74H436V68.3z M442.4,76.4h31.5v5.7h-31.5V76.4z M436,84.5h31.5v5.7H436V84.5z"/>
	</g>
	<g>
		<path class="st13" d="M416.6,364.2h31.5v5.7h-31.5V364.2z M423,372.3h31.5v5.7H423V372.3z M416.6,380.3h31.5v5.7h-31.5V380.3z"/>
	</g>
	<g>
		<path class="st13" d="M81.1,166.1h31.5v5.7H81.1V166.1z M87.6,174.2h31.5v5.7H87.6V174.2z M81.1,182.3h31.5v5.7H81.1V182.3z"/>
	</g>
	<g>
		<path class="st14" d="M405,416H302.8c-1.2,0-2.3-0.5-3.2-1.3s-1.3-2-1.3-3.2s0.5-2.3,1.3-3.2c0.9-0.8,2-1.3,3.2-1.3H405
			c1.2,0,2.3,0.5,3.2,1.3c0.9,0.8,1.3,2,1.3,3.2s-0.5,2.3-1.3,3.2C407.3,415.5,406.1,416,405,416z M428.3,428.8h-77.4
			c-2.5,0-4.5-2-4.5-4.5c0-2.5,2-4.5,4.5-4.5h77.4c2.5,0,4.5,2,4.5,4.5C432.8,426.7,430.8,428.8,428.3,428.8z"/>
	</g>
	<g>
		<path class="st2" d="M124.5,72.6c-1.7,0.7-3.6,0.4-4.9-0.9c-1.3-1.3-1.8-3.2-1.1-4.9c0.6-1.7,2.3-2.8,4.1-2.9
			c1.9-0.1,3.5,1.1,4.2,2.7c0.5,1.1,0.5,2.3,0.1,3.5C126.4,71.3,125.6,72.1,124.5,72.6z"/>
	</g>
	<g id="Oval">
		<ellipse class="st2" cx="392.8" cy="100.2" rx="5.7" ry="5.7"/>
	</g>
	<g>
		<ellipse class="st2" cx="242.1" cy="430.2" rx="5.7" ry="5.7"/>
	</g>
	<g>
		<ellipse class="st2" cx="460.9" cy="276.6" rx="5.7" ry="5.7"/>
	</g>
	<g>
		<ellipse class="st13" cx="228.2" cy="58.2" rx="2.8" ry="2.8"/>
	</g>
	<g>
		<path class="st13" d="M460.3,134.2c0,1.5-1.3,2.8-2.8,2.8s-2.8-1.3-2.8-2.8c0-1.5,1.3-2.8,2.8-2.8c0.7,0,1.5,0.3,2,0.8
			C460,132.7,460.3,133.5,460.3,134.2L460.3,134.2z"/>
	</g>
	<g>
		<path class="st13" d="M346.8,378.9c0,1.5-1.3,2.8-2.8,2.8s-2.8-1.3-2.8-2.8s1.3-2.8,2.8-2.8c0.7,0,1.5,0.3,2,0.8
			C346.6,377.3,346.8,378.2,346.8,378.9z"/>
	</g>
	<g>
		<ellipse class="st13" cx="95.7" cy="101.2" rx="2.8" ry="2.8"/>
	</g>
	<g>
		<path class="st13" d="M20.6,233.9c-0.9,1.3-2.7,1.6-4,0.7c-1.3-0.9-1.6-2.7-0.7-4c0.9-1.3,2.7-1.6,4-0.7c0.6,0.4,1.1,1.1,1.2,1.8
			C21.2,232.5,21,233.2,20.6,233.9L20.6,233.9z"/>
	</g>
	<g>
		<path class="st13" d="M43.9,336.7c-0.8,1.2-2.4,1.5-3.6,0.7s-1.5-2.4-0.7-3.6s2.4-1.5,3.6-0.7c0.6,0.4,1,1,1.1,1.7
			C44.4,335.4,44.4,336.1,43.9,336.7z"/>
	</g>
</g>
<g id="Group-21" transform="translate(377.000000, 2.000000)">
	<g id="SITE">
		<path class="st2" d="M-39.3,78.5c0,1.7-0.6,3-1.8,4s-2.8,1.5-5,1.5c-1.9,0-3.7-0.4-5.3-1.1v-3.6c1.2,0.6,2.3,1,3.2,1.2
			c0.9,0.2,1.6,0.3,2.3,0.3c0.9,0,1.5-0.2,1.9-0.5c0.5-0.3,0.7-0.8,0.7-1.5c0-0.3-0.1-0.6-0.3-1c-0.2-0.2-0.5-0.6-0.9-0.8
			c-0.4-0.2-1.2-0.6-2.4-1.2c-1.1-0.6-1.9-1.1-2.5-1.5c-0.5-0.6-1-1.1-1.3-1.8s-0.5-1.4-0.5-2.3c0-1.6,0.6-2.9,1.7-3.9
			s2.7-1.4,4.6-1.4c1,0,1.9,0.1,2.7,0.3c0.9,0.2,1.8,0.6,2.7,1l-1.3,3.1c-1-0.4-1.8-0.6-2.4-0.8s-1.3-0.2-1.9-0.2
			c-0.7,0-1.3,0.2-1.7,0.5c-0.4,0.3-0.6,0.8-0.6,1.4c0,0.3,0.1,0.6,0.2,0.9s0.4,0.5,0.7,0.7c0.3,0.2,1.2,0.6,2.5,1.3
			c1.7,0.8,2.9,1.6,3.6,2.5C-39.7,76.4-39.3,77.3-39.3,78.5z M-36,83.7V65.2h4v18.4L-36,83.7L-36,83.7z M-20.4,83.7h-3.9V68.5h-5
			v-3.2h13.9v3.2h-5V83.7z M-1.8,83.7h-10.6V65.2h10.7v3.2h-6.7v4h6.2v3.2h-6.2v4.8h6.7L-1.8,83.7L-1.8,83.7z"/>
	</g>
	<g>
		<path class="st11" d="M-25.2,95.1c5.7,0,10.9,1.4,15.7,4.2c4.7,2.8,8.5,6.6,11.2,11.3c2.7,4.8,4.2,10.1,4.2,15.9
			c0,4.4-1.1,9.5-3.2,15.1c-1.9,4.8-4.4,10-7.7,15.7c-2.7,4.5-5.8,9.1-9.3,14c-2.4,3.4-5,6.7-7.7,9.9l-3.2,3.8l-3.2-3.8
			c-2.7-3.2-5.3-6.5-7.7-9.9c-3.5-4.8-6.6-9.5-9.3-14c-3.3-5.7-5.8-10.8-7.7-15.7c-2.1-5.7-3.2-10.8-3.2-15.1
			c0-5.7,1.4-11.1,4.2-15.9c2.7-4.8,6.5-8.6,11.2-11.3C-36.1,96.5-30.9,95.1-25.2,95.1z"/>
	</g>
	<g>
		<path class="st3" d="M-25.3,137.9c1.9,0,3.8-0.5,5.5-1.5c1.7-1.1,3-2.3,4-4s1.5-3.6,1.5-5.6s-0.5-3.9-1.5-5.7
			c-1-1.8-2.3-3.2-4-4.1c-1.7-1.1-3.5-1.5-5.5-1.5c-1.9,0-3.8,0.5-5.4,1.5c-1.6,1.1-3,2.4-4,4.1c-1,1.8-1.5,3.6-1.5,5.7
			c0,3.2,1.1,5.7,3.2,7.9C-30.9,136.7-28.3,137.9-25.3,137.9z"/>
	</g>
</g>
<g id="Group-19" transform="translate(42.000000, 197.000000)">
	<g>
		<rect x="9.9" y="20.4" class="st15" width="175.4" height="207.7"/>
		<path class="st11" d="M187.3,230.1H7.9V18.4h179.4V230.1z M11.9,226.1h171.4V22.4H11.9V226.1z"/>
	</g>
	<g>
		<rect x="7.9" y="18.4" class="st8" width="179.4" height="23.4"/>
	</g>
	<g>
		<rect x="137.1" y="51.5" class="st16" width="38.3" height="4.5"/>
	</g>
	<g>
		<rect x="114.5" y="59" class="st17" width="38.3" height="4.5"/>
	</g>
	<g>
		<rect x="92" y="66.6" class="st16" width="38.3" height="4.5"/>
	</g>
	<g>
		<rect x="84.5" y="74.1" class="st17" width="38.3" height="4.5"/>
	</g>
	<g>
		<rect x="107" y="104.3" class="st17" width="38.3" height="4.5"/>
	</g>
	<g>
		<rect x="107" y="134.4" class="st16" width="38.3" height="4.5"/>
	</g>
	<g>
		<rect x="68" y="142" class="st17" width="77.4" height="4.5"/>
	</g>
	<g>
		<rect x="52.9" y="149.5" class="st17" width="77.4" height="4.5"/>
	</g>
	<g>
		<rect x="133.3" y="111.8" class="st17" width="19.6" height="4.5"/>
	</g>
	<g>
		<rect x="152.8" y="119.3" class="st16" width="22.6" height="4.5"/>
	</g>
	<g>
		<rect x="103.3" y="187.2" class="st17" width="19.6" height="4.5"/>
	</g>
	<g>
		<rect x="122.8" y="194.7" class="st16" width="22.6" height="4.5"/>
	</g>
	<g>
		<rect x="96.5" y="172.1" class="st17" width="19.6" height="4.5"/>
	</g>
	<g>
		<rect x="93.5" y="179.6" class="st16" width="22.6" height="4.5"/>
	</g>
	<g>
		<rect x="133.3" y="202.2" class="st17" width="19.6" height="4.5"/>
	</g>
	<g>
		<rect x="152.8" y="209.8" class="st16" width="22.6" height="4.5"/>
	</g>
	<g>
		<rect x="133.3" y="126.9" class="st16" width="19.6" height="4.5"/>
	</g>
	<g>
		<rect x="42.4" y="81.7" class="st16" width="80.3" height="4.5"/>
	</g>
	<g>
		<rect x="42.4" y="89.2" class="st16" width="80.3" height="4.5"/>
	</g>
	<g>
		<rect x="42.4" y="96.8" class="st16" width="80.3" height="4.5"/>
	</g>
	<g>
		<rect x="34.9" y="157.1" class="st16" width="80.3" height="4.5"/>
	</g>
	<g>
		<rect x="34.9" y="164.6" class="st16" width="80.3" height="4.5"/>
	</g>
	<g>
		<ellipse class="st18" cx="20.1" cy="30.4" rx="4.5" ry="4.5"/>
	</g>
	<g>
		<ellipse class="st10" cx="33.4" cy="30.4" rx="4.5" ry="4.5"/>
	</g>
</g>
<g id="Group-24" transform="translate(0.000000, 308.000000)">
	<g id="Shape">
		<path class="st2" d="M53.1,69.9l1-3.6c0.4-1.1,1.4-1.9,2.6-1.9c1.1-0.1,2.1-0.2,3.2-0.4c1.1-0.2,2.3,0.2,3.1,1.2l1.9,3.2
			c0.6,1.1,1.7,1.9,2.9,2.2c1.2,0.3,2.5,0.2,3.6-0.5l5.3-3c2.3-1.3,3.1-4.2,1.8-6.5l-1.9-3.2c-0.5-1.1-0.3-2.3,0.5-3.2
			c0.6-0.8,1.3-1.6,1.9-2.5c0.6-1,1.9-1.5,3-1.3l3.6,1c2.5,0.6,5.2-0.8,5.8-3.3l1.5-5.8c0.6-2.5-0.8-5.1-3.4-5.8l-3.6-1
			c-1.1-0.4-1.9-1.4-1.9-2.6c-0.1-1.1-0.2-2.1-0.4-3.2c-0.2-1.1,0.2-2.3,1.2-3L88,25c1.1-0.6,1.9-1.7,2.2-2.9
			c0.3-1.2,0.2-2.5-0.5-3.6l-3.1-5.3c-1.3-2.3-4.2-3-6.5-1.7l-3.2,1.9c-1.1,0.5-2.3,0.3-3.2-0.4c-0.8-0.7-1.6-1.4-2.5-1.9
			c-1-0.6-1.5-1.9-1.2-3l1-3.6C71.6,2,70-0.6,67.5-1.2l-5.9-1.5c-2.5-0.6-5.2,0.8-5.8,3.3l-1,3.6c-0.4,1.1-1.4,1.9-2.6,1.9
			c-1.1,0.1-2.1,0.2-3.2,0.4c-1.1,0.2-2.3-0.3-3-1.3l-1.9-3.2c-0.6-1.1-1.7-1.9-2.9-2.2c-1.2-0.3-2.5-0.1-3.6,0.6l-5.3,3
			C31.3,4,30.5,5,30.3,6.2c-0.3,1.2-0.2,2.5,0.5,3.6l1.9,3.2c0.3,0.6,0.4,1.3,0.2,2c-0.1,0.4-0.3,0.8-0.6,1.1
			c-0.7,0.8-1.4,1.6-1.9,2.5c-0.6,1-1.9,1.5-3,1.3l-3.6-1c-2.5-0.6-5.2,0.8-5.8,3.3l-1.5,5.8c-0.6,2.5,0.8,5.1,3.3,5.7l3.6,1
			c1.1,0.4,1.9,1.4,1.9,2.6c0.1,1.1,0.2,2.1,0.4,3.2c0.1,0.4,0.1,0.9-0.1,1.3c-0.2,0.6-0.6,1.3-1.2,1.7L21,45.4
			c-2.3,1.3-3.1,4.2-1.8,6.5l3.1,5.2c0.6,1.1,1.7,1.9,2.9,2.2s2.5,0.2,3.6-0.5l3.2-1.9c1.1-0.5,2.3-0.3,3.2,0.5
			c0.8,0.7,1.6,1.4,2.5,1.9c1,0.6,1.5,1.9,1.2,3l-1,3.6c-0.6,2.5,0.8,5.1,3.4,5.8l5.9,1.5C49.9,74,52.5,72.4,53.1,69.9z"/>
	</g>
	<g>
		<path class="st3" d="M50.5,49.1C45.1,47.6,41,43,40.2,37.5c-0.8-5.5,1.9-11,6.9-13.8s11-2.4,15.5,1c4.5,3.4,6.5,9.1,5,14.5
			C65.6,46.5,57.9,51,50.5,49.1z"/>
	</g>
	<g>
		<path class="st2" d="M91.2,126.6l0.6-2.4c0.3-0.7,1-1.3,1.8-1.4c0.7-0.1,1.5-0.2,2.2-0.2c0.8-0.2,1.6,0.2,2,0.8l1.3,2.2
			c0.4,0.7,1.1,1.3,2,1.5c0.8,0.2,1.7,0.1,2.5-0.3l3.6-2c0.7-0.4,1.3-1.1,1.5-1.9c0.2-0.8,0.2-1.8-0.3-2.5l-1.3-2.2
			c-0.2-0.4-0.2-0.9-0.1-1.4c0.1-0.3,0.2-0.6,0.4-0.8c0.5-0.6,0.9-1.1,1.4-1.7c0.5-0.6,1.3-1,2-0.9l2.4,0.6c0.9,0.2,1.9,0.2,2.6-0.3
			c0.8-0.5,1.4-1.3,1.5-2.2l1.1-3.9c0.5-1.8-0.6-3.6-2.3-4l-2.4-0.6c-0.7-0.3-1.3-1-1.4-1.8c-0.1-0.7-0.2-1.5-0.3-2.2
			c-0.1-0.3,0-0.6,0-0.9c0.1-0.5,0.4-0.9,0.8-1.1l2.3-1.3c0.7-0.4,1.3-1.1,1.5-2c0.2-0.8,0.2-1.7-0.3-2.5l-2-3.6
			c-0.4-0.7-1.1-1.3-2-1.5c-0.8-0.2-1.7-0.1-2.5,0.3l-2.3,1.3c-0.7,0.3-1.6,0.2-2.2-0.3c-0.6-0.5-1.1-0.9-1.8-1.3
			c-0.6-0.5-1-1.3-0.9-2l0.6-2.5c0.5-1.7-0.6-3.5-2.3-4l-4-1.1c-1.8-0.5-3.6,0.6-4,2.3l-0.6,2.5c-0.2,0.7-1,1.3-1.8,1.4
			c-0.7,0.1-1.5,0.2-2.2,0.3c-0.8,0.2-1.6-0.2-2-0.8l-1.3-2.2C84,78.6,82,78,80.4,78.9l-3.6,2c-0.7,0.4-1.3,1.1-1.5,2
			c-0.2,0.8-0.1,1.7,0.3,2.5l1.3,2.2c0.2,0.5,0.2,1,0.1,1.5c-0.1,0.3-0.2,0.6-0.4,0.8c-0.5,0.6-1,1.1-1.4,1.7
			c-0.5,0.6-1.3,1-2.1,0.9l-2.4-0.6c-1.7-0.5-3.5,0.6-4,2.3L65.6,98c-0.5,1.8,0.6,3.6,2.3,4l2.4,0.6c0.7,0.2,1.3,1,1.4,1.8
			c0.1,0.7,0.2,1.5,0.3,2.2c0.1,0.3,0,0.6,0,0.9c-0.1,0.5-0.4,0.9-0.8,1.1l-2.3,1.3c-0.7,0.5-1.3,1.1-1.5,2
			c-0.2,0.8-0.1,1.7,0.3,2.4l2,3.6c0.9,1.5,2.9,2.1,4.5,1.2l2.3-1.3c0.7-0.3,1.6-0.2,2.2,0.3c0.6,0.5,1.1,1,1.7,1.4
			c0.6,0.5,1,1.3,0.9,2l-0.6,2.4c-0.5,1.8,0.6,3.6,2.3,4l4,1.1C88.9,129.2,90.6,128.3,91.2,126.6L91.2,126.6z M89.7,111.9
			c-3.7-1-6.5-4.1-7-8s1.4-7.6,4.7-9.5c3.3-1.9,7.6-1.7,10.7,0.6c3.1,2.3,4.4,6.3,3.4,10C100,110.2,94.8,113.2,89.7,111.9z"/>
	</g>
	<g>
		<path class="st3" d="M89.7,111.9c-3.7-1-6.5-4.1-7-8c-0.5-3.8,1.4-7.6,4.7-9.5c3.4-1.9,7.6-1.7,10.7,0.6s4.4,6.3,3.4,10
			C100,110.2,94.8,113.2,89.7,111.9z"/>
	</g>
</g>
<g id="Group-20" transform="translate(307.638840, 261.588475) rotate(18.000000) translate(-307.638840, -261.588475) translate(192.138840, 148.088475)">
	<g>
		<path class="st2" d="M81,138c10.3-10,15.5-22.1,15.5-36.2s-5.2-26.2-15.4-36.1s-22.7-15-37.2-15s-26.8,5-37.2,15s-15.4,22-15.4,36
			s5.2,26.2,15.4,36.1s22.7,15,37.2,15C58.4,152.9,70.8,147.9,81,138z M127.4,177.4l-6.5,6.1c-23.3-22.1-35.6-34-37-35.5l-4.9,3.4
			c-10.3,7.1-22.5,10.9-35.2,10.9c-8.2,0-16.1-1.6-23.6-4.8c-7.5-3.2-14-7.5-19.4-12.9s-9.8-12-12.9-19.5
			c-3.2-7.4-4.8-15.3-4.8-23.5s1.6-16.2,4.8-23.7s7.5-14,12.9-19.5s11.9-9.8,19.4-12.9c7.5-3.2,15.4-4.8,23.6-4.8s16.1,1.6,23.6,4.8
			s14,7.5,19.4,12.9c5.4,5.4,9.8,12,12.9,19.5c3.2,7.5,4.8,15.4,4.8,23.6c0,12.7-3.6,24.2-10.7,34.5l-3.4,4.3
			C91.9,141.8,104.2,154.1,127.4,177.4z"/>
	</g>
	<g>
		<polygon class="st11" points="100.8,143.2 169.4,209.6 155.9,223.7 87.2,157.3 		"/>
	</g>
	<g class="st19">
		<path class="st11" d="M81.6,139c10.5-10.3,15.8-22.8,15.8-37.3c0-14.5-5.3-26.9-15.7-37.3S58.6,49,43.9,49
			c-14.7,0-27.2,5.2-37.7,15.4S-9.4,87.2-9.4,101.7c0,14.5,5.3,26.9,15.7,37.3c10.4,10.3,23,15.4,37.7,15.4S71.2,149.3,81.6,139z"/>
	</g>
</g>
<g id="Group-23" transform="translate(308.000000, 367.000000)">
	<g>
		<ellipse class="st3" cx="78.4" cy="0.7" rx="15.1" ry="15"/>
		<path class="st20" d="M78.4,18.1c-9.7,0-17.5-7.8-17.5-17.4s7.9-17.4,17.5-17.4S95.9-8.9,95.9,0.7S88.1,18.1,78.4,18.1z
			 M78.4-11.8c-7,0-12.7,5.7-12.7,12.5s5.7,12.5,12.7,12.5c7,0,12.7-5.7,12.7-12.5S85.4-11.8,78.4-11.8z"/>
	</g>
	<g>
		<path class="st20" d="M80.6,8v3.2h-2.8V7.9c-1.9-0.2-3.8-1.1-5.3-2.3l1.5-3c1.5,1.3,3.4,2,5.4,2.2c1.1,0,1.9-0.4,1.9-1.2
			c0-2.5-7.8-1-7.8-6.1c0-2.3,1.7-3.9,4.4-4.4v-2.8h2.8v3.1c1.6,0.2,3.2,0.7,4.7,1.5L83.9-2c-1.5-0.9-3.6-1.5-4.8-1.5
			c-1,0-1.5,0.3-1.5,1c0,2.4,7.8,1.1,7.8,6.3C85.3,6.1,83.2,7.7,80.6,8z"/>
	</g>
	<g>
		<ellipse class="st3" cx="-27.7" cy="30.2" rx="15.4" ry="15.4"/>
		<path class="st13" d="M-27.7,48c-9.9,0-17.9-8-17.9-17.8s8-17.8,17.9-17.8s17.9,8,17.9,17.8C-9.7,40-17.8,48-27.7,48z M-27.7,17.4
			c-7.2,0-13,5.7-13,12.9s5.8,12.9,13,12.9s13-5.8,13-12.9S-20.5,17.4-27.7,17.4z"/>
	</g>
	<g>
		<path class="st13" d="M-22.4,34.6L-22.4,34.6c-0.2-0.2-0.5-0.2-0.6,0c-1,0.9-2.2,1.3-3.4,1.3c-1.8,0-3.6-1-4.5-2.6h4.7
			c0.2,0,0.5-0.2,0.5-0.4v-1.4c0-0.2-0.2-0.4-0.5-0.4h-5.5c-0.1-0.2-0.1-0.6-0.1-0.8c0-0.2,0-0.6,0.1-0.8h5.5c0.2,0,0.5-0.2,0.5-0.4
			v-1.4c0-0.2-0.2-0.4-0.5-0.4H-31c1-1.6,2.7-2.6,4.5-2.6c1.2,0,2.4,0.5,3.4,1.3c0.2,0.2,0.5,0.2,0.6,0l1.8-1.5
			c0.1-0.1,0.2-0.2,0.2-0.3c0-0.1-0.1-0.2-0.2-0.3c-1.6-1.5-3.7-2.3-5.9-2.3c-3.6,0-6.9,2.3-8.2,5.6h-1.9c-0.2,0-0.5,0.2-0.5,0.4V29
			c0,0.2,0.2,0.4,0.5,0.4h1.5c0,0.3-0.1,0.6-0.1,0.8s0,0.6,0.1,0.8h-1.5c-0.2,0-0.5,0.2-0.5,0.4v1.4c0,0.2,0.2,0.4,0.5,0.4h1.9
			c1.3,3.3,4.5,5.6,8.2,5.6c2.2,0,4.3-0.8,5.9-2.3c0.1-0.1,0.2-0.2,0.2-0.3c0-0.1-0.1-0.2-0.2-0.3L-22.4,34.6z"/>
	</g>
</g>
</svg>
