<?xml version="1.0" encoding="utf-8"?>
<!-- Generator: Adobe Illustrator 23.0.2, SVG Export Plug-In . SVG Version: 6.00 Build 0)  -->
<svg version="1.1" id="Layer_1" xmlns="http://www.w3.org/2000/svg" xmlns:xlink="http://www.w3.org/1999/xlink" x="0px" y="0px"
	 viewBox="0 0 500 500" style="enable-background:new 0 0 500 500;" xml:space="preserve">
<style type="text/css">
	.st0{fill:none;}
	.st1{fill:#37DA96;}
	.st2{fill:#007F4A;}
	.st3{fill:#0A0068;}
	.st4{fill:#5AA9FF;}
	.st5{fill:#FFFFFF;}
	.st6{fill:#FCCF48;}
	.st7{fill:#E7ECFF;}
	.st8{fill:#2C96F2;}
</style>
<rect class="st0" width="500" height="500"/>
<path id="Path" class="st1" d="M319.3,404.7c-0.7-2.4-2.4-4.4-4.8-5.3c-2.5-0.8-5.2,0.4-6.2,2.7c-2.2-1.7-5.6-0.3-7.3,1.8
	c-2.8,3.6-0.7,9.4-0.2,9.8c0.6,0.2,1.2,0.4,1.9,0.3l21.4-0.1c1.9-0.1,3.8-0.4,5.7-1c3.7-1.4,6.2-7.6,3.7-10.7
	c-1.6-2.1-4.7-2.6-7.3-1.7C323.7,401.5,321.3,402.9,319.3,404.7"/>
<path id="Combined-Shape" class="st2" d="M302.3,415c-0.7,0.1-1.4-0.2-2.1-0.5c-0.8-0.7-3-7.1,0-11c1.2-1.6,3-2.7,5-2.9
	c0.9-0.1,1.8,0.1,2.6,0.4c0.5-0.8,1.2-1.6,2.2-2c1.4-0.7,3.1-0.9,4.6-0.4c2.3,0.8,4.1,2.6,4.9,4.9c1.9-1.6,4.2-2.8,6.6-3.7
	c2.6-0.8,6.2-0.5,8.2,2c1.2,1.7,1.4,4,0.7,6c-0.7,2.6-2.4,4.7-4.8,6c-1.9,0.6-3.9,0.9-6,1.1l-21.6,0.1H302.3z M305.9,401.9h-0.4
	c-1.7,0.2-3.1,1.1-4.1,2.4c-2.5,3.2-0.7,8.6-0.2,9.1c0.4,0.1,0.9,0.2,1.3,0.2l21.6-0.1c1.8-0.2,3.7-0.4,5.5-0.9c2-1,3.4-2.8,4-5
	c0.6-1.6,0.4-3.3-0.5-4.7c-1.5-2-4.5-2.2-6.6-1.5c-2.6,0.9-4.9,2.2-6.8,4.1c-0.2,0.2-0.4,0.2-0.7,0.2c-0.2-0.1-0.4-0.2-0.5-0.5
	c-0.6-2.2-2.2-4.1-4.4-4.9c-1.2-0.3-2.4-0.2-3.6,0.3c-0.8,0.4-1.5,1.1-1.7,2c-0.1,0.2-0.2,0.4-0.5,0.5c-0.2,0.1-0.5,0-0.7-0.2
	C307.2,402.1,306.6,402,305.9,401.9z M296.2,404.5c0.3-0.7,1.2-0.1,0.8,0.6c-0.5,1.1-0.7,2.3-0.6,3.6c0.1,0.7-0.9,0.7-1,0
	C295.3,407.1,295.6,405.7,296.2,404.5z M293.2,405.3c0.1-0.2,0.4-0.4,0.7-0.3c0.3,0.1,0.5,0.3,0.5,0.6c-0.3,0.9-0.4,1.9-0.1,2.9
	c0.2,0.7-1.1,0.9-1.2,0.2C292.8,407.6,292.9,406.5,293.2,405.3z M299.6,403.1c-0.3,0-0.7-0.2-0.7-0.7s0.2-0.7,0.7-0.7
	c0.4,0,0.7,0.2,0.7,0.7S299.9,403.1,299.6,403.1z M302.2,407.9c0.1-0.2,0.3-0.4,0.7-0.4c0.3,0,0.6,0.2,0.7,0.4v0.8
	c-0.1,0.2-0.3,0.4-0.7,0.4c-0.3,0-0.6-0.2-0.7-0.4V407.9z M320.6,409.7c0-0.3,0.2-0.6,0.7-0.6s0.7,0.2,0.7,0.6v0.5
	c0,0.3-0.2,0.6-0.7,0.6s-0.7-0.2-0.7-0.6V409.7z M318.1,408.6c-0.6-0.6,0.3-1.5,0.9-0.9l0.2,0.2c0.6,0.6-0.3,1.5-0.9,0.9
	L318.1,408.6z"/>
<path class="st3" d="M228.8,383.3v22.5h21.4c2.4,0,4.4,2.1,4.4,4.6s-2,4.6-4.4,4.6H141.5c-2.4,0-4.4-2.1-4.4-4.6s2-4.6,4.4-4.6h18.9
	v-22.5h-90c-3.2,0-5.8-2.6-5.8-5.8V207.5c0-3.2,2.6-5.8,5.8-5.8h249.9c3.2,0,5.8,2.6,5.8,5.8v169.9c0,3.2-2.6,5.8-5.8,5.8H228.8z"/>
<path class="st4" d="M213.7,94.2H100.5c-1.3,0-2.7-0.5-3.6-1.4s-1.5-2.2-1.5-3.6s0.5-2.6,1.5-3.5c0.9-0.9,2.2-1.5,3.6-1.5h113.2
	c1.3,0,2.6,0.5,3.6,1.5c0.9,0.9,1.5,2.2,1.5,3.5s-0.5,2.6-1.5,3.5C216.3,93.7,215.1,94.2,213.7,94.2z M239.6,108.4h-85.8
	c-2.7,0-5-2.2-5-5s2.2-5,5-5h85.8c2.7,0,5,2.2,5,5S242.3,108.4,239.6,108.4z"/>
<path id="Rectangle" class="st5" d="M77.6,209.2h236.5c1.7,0,3,1.3,3,3v137.4c0,1.7-1.3,3-3,3H77.6c-1.7,0-3-1.3-3-3V212.2
	C74.6,210.5,76,209.2,77.6,209.2z"/>
<path class="st6" d="M478.7,270c0.1,5.2-2,10.1-5.7,13.7c-3.4,3.5-5.3,8.2-5.3,13h-16.9v-0.7c-0.1-4.7-2.1-9.2-5.6-12.6
	c-5-5-6.8-12.2-4.7-18.9c2.1-6.7,7.7-11.7,14.7-13.2c5.7-1.2,11.7,0.2,16.3,3.8C475.9,258.7,478.7,264.2,478.7,270z M434,267.5
	l-17-4.8l1.2-4.4l16.2,6.7L434,267.5z M482.1,267.5l-0.6-2.4l14.9-7.8l1.4,4.2L482.1,267.5z M439.1,254.1l-11.8-12.2l2.8-3.2
	l10.4,13.4L439.1,254.1z M472,251l-1.8-1.7l7.8-14.8l3.4,2.6L472,251z M453.4,245.8l-1.5-17.1l5.1-0.4l-0.7,17.1L453.4,245.8z"/>
<path class="st3" d="M464.5,306.6v0.9c0,0.4-0.3,0.7-0.7,0.7h-11c-0.4,0-0.7-0.3-0.7-0.7v-0.9h-3.7c-0.2,0-0.5-0.2-0.5-0.5v-12.3
	c0-0.2,0.2-0.5,0.5-0.5H469c0.2,0,0.5,0.2,0.5,0.5v12.3c0,0.2-0.2,0.5-0.5,0.5H464.5z"/>
<path class="st7" d="M465.9,298.2h-15.2c-0.7,0-1.2-0.5-1.2-1.1c0-0.6,0.5-1.1,1.2-1.1h15.2c0.7,0,1.2,0.5,1.2,1.1
	C467,297.7,466.5,298.2,465.9,298.2z M465.9,301.5h-15.2c-0.7,0-1.2-0.5-1.2-1.1s0.5-1.1,1.2-1.1h15.2c0.6,0,1.2,0.5,1.2,1.1
	C467,301,466.5,301.5,465.9,301.5z M465.9,304h-15.2c-0.6,0-1.2-0.5-1.2-1.1s0.5-1.1,1.2-1.1h15.2c0.7,0,1.2,0.5,1.2,1.1
	C467,303.5,466.5,304,465.9,304z"/>
<path class="st6" d="M2.2,273.3h32.5v5.8H2.2V273.3z M8.8,281.7h32.5v5.8H8.8V281.7z M2.2,290h32.5v5.8H2.2V290z"/>
<path class="st6" d="M452,179.2h32.5v5.8H452V179.2z M458.7,185.9h32.5v5.8h-32.5V185.9z M452,194.2h32.5v5.8H452V194.2z"/>
<path class="st3" d="M48,251.7c0,2-1.2,3.8-3.1,4.6c-1.8,0.7-4,0.3-5.4-1.1c-1.4-1.4-1.8-3.6-1.1-5.4c0.7-1.8,2.6-3.1,4.7-3.1
	c1.3,0,2.6,0.5,3.5,1.5C47.5,249.2,48,250.3,48,251.7z M301.7,173.4c-3.4,0-6.2-2.8-6.2-6.2s2.8-6.2,6.2-6.2c3.4,0,6.2,2.8,6.2,6.2
	S305.1,173.4,301.7,173.4z M476.6,351.6c-3.4,0-6.2-2.8-6.2-6.2c0-3.4,2.8-6.2,6.2-6.2c3.4,0,6.2,2.8,6.2,6.2
	C482.8,348.8,480,351.6,476.6,351.6z M443.3,90c-3.4,0-6.2-2.8-6.2-6.2c0-3.4,2.8-6.2,6.2-6.2s6.2,2.8,6.2,6.2
	C449.5,87.2,446.7,90,443.3,90z"/>
<path class="st6" d="M231.7,188.4c-1.6,0-2.9-1.3-2.9-2.9c0-1.6,1.3-2.9,2.9-2.9c1.6,0,2.9,1.3,2.9,2.9
	C234.6,187,233.3,188.4,231.7,188.4z M480.3,152.9c0,1.6-1.3,2.9-2.9,2.9s-2.9-1.3-2.9-2.9c0-1.6,1.3-2.9,2.9-2.9
	c0.7,0,1.5,0.3,2.1,0.8C480,151.4,480.3,152.2,480.3,152.9z M312.9,423.7c0,1.6-1.3,2.9-2.9,2.9c-1.6,0-2.9-1.3-2.9-2.9
	s1.3-2.9,2.9-2.9c0.7,0,1.5,0.3,2.1,0.8C312.6,422.1,312.9,422.9,312.9,423.7z"/>
<path class="st6" d="M125.3,111.7c-1.3-0.9-1.7-2.7-0.7-4.1c0.9-1.3,2.7-1.7,4.1-0.7c1.3,0.9,1.7,2.7,0.7,4.1
	C128.5,112.3,126.6,112.6,125.3,111.7z M351.3,221.4c-0.9,1.3-2.7,1.7-4.1,0.7c-1.3-0.9-1.7-2.7-0.7-4.1c0.9-1.3,2.7-1.7,4.1-0.7
	c0.7,0.4,1.1,1.1,1.2,1.8C351.9,220,351.7,220.8,351.3,221.4z"/>
<path class="st8" d="M139.4,299.2c-2.7,2.5-6.6-1.5-3.9-3.8c17.8-16,35.7-31.9,53.5-47.9c2.6-2.5,6.5,1.5,3.9,3.8L139.4,299.2z
	 M199.3,323.5L199.3,323.5c-2.7,2.2-6.6-1.6-3.9-3.9l53.5-47.2c2.7-2.3,6.5,1.5,3.9,3.8L199.3,323.5z M134.3,341.6
	c-2.5,2.5-6.4-1.4-3.9-3.9l111.2-108.6c2.5-2.5,6.4,1.4,3.8,3.9L134.3,341.6z"/>
<path id="Shape" class="st6" d="M48.3,155.3l0.8-3.1c0.3-1,1.2-1.7,2.2-1.7c0.9-0.1,1.8-0.2,2.7-0.4c1-0.2,2.1,0.2,2.7,1.1l1.6,2.8
	c0.6,0.9,1.4,1.7,2.5,1.9c1.1,0.2,2.2,0.2,3.1-0.4l4.6-2.6c2-1.2,2.7-3.7,1.5-5.7l-1.7-2.8c-0.4-0.9-0.2-2,0.4-2.7
	c0.6-0.7,1.2-1.4,1.7-2.2c0.6-0.8,1.6-1.3,2.6-1.1l3.1,0.8c2.2,0.6,4.4-0.7,5.1-2.9l1.3-5.1c0.6-2.2-0.7-4.5-2.9-5.1l-3.1-0.8
	c-1-0.3-1.7-1.2-1.7-2.2c-0.1-0.9-0.2-1.8-0.3-2.7c-0.2-1,0.2-2,1-2.6l2.8-1.7c0.9-0.6,1.7-1.4,1.9-2.5s0.2-2.2-0.4-3.2l-2.7-4.6
	c-1.2-2-3.7-2.7-5.6-1.5l-2.7,1.6c-0.9,0.4-2,0.3-2.7-0.3c-0.7-0.6-1.4-1.2-2.2-1.7c-0.8-0.6-1.2-1.6-1.1-2.6l0.8-3.2
	c0.6-2.2-0.7-4.4-2.9-5l-5.1-1.3c-2.2-0.6-4.4,0.7-5.1,2.9L49.8,98c-0.3,1-1.2,1.7-2.2,1.7c-0.9,0.1-1.8,0.2-2.7,0.3
	c-1,0.2-2-0.2-2.6-1.1L40.6,96c-0.6-0.9-1.4-1.7-2.5-1.9C37,93.9,35.9,94,35,94.5l-4.6,2.7c-0.9,0.6-1.7,1.4-1.9,2.5
	s-0.2,2.2,0.4,3.2l1.6,2.8c0.2,0.5,0.3,1.2,0.2,1.7c-0.1,0.4-0.2,0.7-0.5,1c-0.6,0.7-1.2,1.4-1.7,2.2c-0.6,0.8-1.6,1.3-2.6,1.1
	l-3.2-0.8c-2.2-0.6-4.4,0.7-5,2.9l-1.3,5.1c-0.6,2.2,0.7,4.4,2.9,5l3.2,0.8c1,0.3,1.7,1.2,1.7,2.2c0.1,0.9,0.2,1.8,0.3,2.7
	c0.1,0.4,0.1,0.7-0.1,1.2c-0.2,0.6-0.5,1.1-1,1.4l-2.8,1.6c-2,1.2-2.7,3.7-1.5,5.7l2.7,4.6c0.6,0.9,1.4,1.7,2.5,1.9
	c1.1,0.2,2.2,0.2,3.1-0.4l2.8-1.7c0.9-0.4,2-0.2,2.7,0.4c0.7,0.6,1.4,1.2,2.2,1.7c0.8,0.6,1.2,1.6,1.1,2.6l-0.8,3.1
	c-0.6,2.2,0.7,4.5,2.9,5.1l5.1,1.3C45.5,158.8,47.7,157.4,48.3,155.3z M46.3,136.6c-4.7-1.2-8.2-5.2-8.8-10.1
	c-0.7-4.8,1.7-9.6,5.9-12.1c4.2-2.4,9.5-2.1,13.4,0.8c3.9,3,5.6,8,4.3,12.7C59.4,134.5,52.8,138.4,46.3,136.6z"/>
<path class="st3" d="M84.8,188.9l0.6-2.2c0.2-0.7,0.8-1.1,1.6-1.2c0.7-0.1,1.2-0.1,1.9-0.2c0.7-0.1,1.3,0.2,1.7,0.7l1.1,1.9
	c0.3,0.7,1,1.2,1.7,1.3c0.7,0.2,1.5,0.1,2.2-0.2l3.1-1.7c0.7-0.3,1.2-1,1.3-1.7c0.2-0.7,0.1-1.5-0.2-2.2l-1.1-1.9
	c-0.2-0.3-0.2-0.8-0.1-1.2c0.1-0.2,0.2-0.5,0.3-0.7c0.4-0.5,0.7-1,1.2-1.5c0.4-0.6,1.1-0.8,1.7-0.7l2.2,0.6c0.7,0.2,1.6,0.1,2.2-0.3
	c0.7-0.4,1.2-1.1,1.3-1.9l0.9-3.4c0.4-1.5-0.5-3.1-2-3.5l-2.2-0.6c-0.7-0.2-1.1-0.8-1.2-1.6c-0.1-0.6-0.2-1.2-0.2-1.9
	c-0.1-0.2,0-0.5,0-0.8c0.1-0.4,0.3-0.7,0.7-1l1.9-1.1c0.7-0.3,1.2-1,1.3-1.7c0.2-0.7,0.1-1.5-0.2-2.2l-1.7-3.1
	c-0.3-0.7-1-1.2-1.7-1.3c-0.7-0.2-1.5-0.1-2.2,0.2l-1.9,1.1c-0.7,0.3-1.4,0.2-1.9-0.2s-1-0.8-1.5-1.2c-0.6-0.4-0.8-1.1-0.7-1.7
	l0.6-2.2c0.4-1.5-0.5-3.1-2-3.5L90,145c-1.5-0.4-3.1,0.5-3.5,2l-0.6,2.2c-0.2,0.7-0.8,1.1-1.5,1.2s-1.2,0.2-1.9,0.2
	c-0.7,0.2-1.4-0.2-1.7-0.7l-1.1-1.9c-0.8-1.3-2.5-1.8-3.9-1.1l-3.1,1.7c-0.7,0.4-1.2,1-1.3,1.7c-0.2,0.7-0.1,1.5,0.2,2.2l1.1,1.9
	c0.2,0.4,0.2,0.8,0.1,1.2c-0.1,0.2-0.2,0.5-0.3,0.7c-0.4,0.5-0.8,1-1.2,1.5c-0.4,0.6-1.1,0.9-1.7,0.7l-2.2-0.6
	c-1.5-0.4-3.1,0.5-3.5,2l-0.9,3.4c-0.4,1.5,0.5,3.1,2,3.5l2.1,0.6c0.7,0.2,1.1,0.8,1.2,1.5s0.2,1.2,0.2,1.9c0.1,0.2,0,0.5,0,0.8
	c-0.1,0.4-0.3,0.7-0.7,1l-1.9,1.1c-0.7,0.4-1.2,1-1.3,1.7s-0.1,1.5,0.2,2.2l1.7,3.1c0.8,1.3,2.5,1.8,3.9,1.1l1.9-1.1
	c0.7-0.3,1.3-0.2,1.9,0.2c0.5,0.4,1,0.8,1.5,1.2c0.6,0.4,0.8,1.1,0.7,1.7l-0.6,2.2c-0.4,1.5,0.5,3.1,2,3.5l3.5,0.9
	C82.9,191.1,84.4,190.3,84.8,188.9L84.8,188.9z M83.5,176c-3.2-0.8-5.7-3.6-6.1-7c-0.4-3.3,1.2-6.7,4.1-8.3c2.9-1.7,6.6-1.5,9.2,0.6
	c2.7,2.1,3.8,5.5,3,8.8C92.5,174.5,87.9,177.2,83.5,176z"/>
<path class="st3" d="M75.9,378.3c-3.9,0-3.9-5.8,0-5.8S79.8,378.3,75.9,378.3z M87.5,378.3c-3.9,0-3.9-5.8,0-5.8
	S91.5,378.3,87.5,378.3z M99.2,378.3c-3.9,0-3.9-5.8,0-5.8S103.1,378.3,99.2,378.3z"/>
<path class="st8" d="M370.4,408.3h4.2v6.7h-50.8v-6.7h2.5l17-55.8h10.2L370.4,408.3z"/>
<path class="st3" d="M330.5,394.1h35.7l4.2,14.2h-44.2L330.5,394.1z M362.1,380.8h-27.5l4.2-14.2h19.2L362.1,380.8z"/>
<path class="st8" d="M416.2,414.1h6.4v-24.9h32.8v24.9h6.4v-24.9h6.8v-19.9h-5.4v-1.8h-9.3v1.8h-29.1v-1.8h-9.3v1.8h-6v19.9h6.7
	V414.1z M466.6,371.4L466.6,371.4l-3.9,15.7h-7.1l4-15.7H466.6z M448.2,387.1h-7l4-15.7h7L448.2,387.1z M433.8,387.1h-7.1l4-15.7h7
	L433.8,387.1z M416.3,371.4h7l-4,15.7h-7L416.3,371.4z"/>
<path class="st8" d="M88,397.5h23.3v-10H88V397.5z M88,400v13.6c0,0.4-0.1,0.7-0.3,1.1c-0.2,0.2-0.6,0.4-0.9,0.4
	c-0.7,0-1.2-0.6-1.2-1.3V303.9c0-0.7,0.6-1.4,1.2-1.4s1.2,0.7,1.2,1.4v6.1h23.3v-6.1c0-0.7,0.6-1.4,1.2-1.4s1.2,0.7,1.2,1.4v7.2
	c0,0,0,0,0,0.1s0,0,0,0.1v12.4c0,0,0,0,0,0.1s0,0,0,0.1v12.4c0,0,0,0,0,0.1s0,0,0,0.1v12.4c0,0,0,0,0,0.1s0,0,0,0.1v12.4
	c0,0,0,0,0,0.1c0,0.1,0,0,0,0.1V374c0,0,0,0,0,0.1s0,0,0,0.1v12.4c0,0,0,0,0,0.1s0,0,0,0.1v12.4c0,0,0,0,0,0.1s0,0,0,0.1v14.7
	c0,0.4-0.1,0.7-0.3,1.1c-0.2,0.2-0.6,0.4-0.9,0.4c-0.7,0-1.2-0.6-1.2-1.3V400H88z M88,385h23.3v-10H88V385z M88,372.5h23.3v-10H88
	V372.5z M88,360h23.3v-10H88V360z M88,347.5h23.3v-10H88V347.5z M88,335h23.3v-10H88V335z M88,322.5h23.3v-10H88V322.5z"/>
<path class="st3" d="M28.6,204.9h-3.2c-1.3,0-2.4-0.9-2.4-2.1c0-1.2,1.1-2.2,2.4-2.2h3.2v-3.2c0-1.3,0.9-2.4,2.1-2.4
	s2.1,1.1,2.1,2.4v3.2h1.8c1.3,0,2.4,0.9,2.4,2.2s-1.1,2.1-2.4,2.1h-1.8v1.9c0,0.7-0.2,1.2-0.7,1.7c-0.4,0.4-1,0.7-1.6,0.7
	c-1.2,0-2.1-1.1-2.1-2.3v-2H28.6z M266.1,111.9h-3.2c-1.3,0-2.4-0.9-2.4-2.1c0-1.2,1.1-2.2,2.4-2.2h3.2v-1.8c0-1.3,0.9-2.4,2.2-2.4
	s2.1,1.1,2.1,2.4v1.8h1.8c1.3,0,2.4,0.9,2.4,2.2c0,1.2-1.1,2.1-2.4,2.1h-1.8v3.3c0,0.7-0.2,1.2-0.7,1.7c-0.4,0.5-1,0.7-1.6,0.7
	c-1.2,0-2.1-1.1-2.1-2.3L266.1,111.9L266.1,111.9z M359.5,303.3l-0.8,3.3c-0.3,1.1-1.2,1.7-2.2,1.7c-0.2,0-0.4,0-0.7,0
	c-0.6-0.2-1.1-0.6-1.4-1.2c-0.3-0.6-0.3-1.2-0.2-1.9l0.8-3.2l-2-0.5c-1.3-0.3-2.1-1.7-1.7-2.9c0.3-1.2,1.7-2,3.1-1.6l1.8,0.5
	l0.4-1.6c0.3-1.3,1.6-2.1,2.8-1.7c1.2,0.3,1.9,1.7,1.6,3.1l-0.4,1.5l2.9,0.7c0.7,0.2,1.2,0.6,1.5,1.1c0.3,0.6,0.4,1.2,0.2,1.7
	c-0.3,1-1.2,1.7-2.3,1.6c-0.2,0-0.5,0-0.7,0L359.5,303.3z M295,323.7l-0.7,2.9c-0.3,1.1-1.2,1.7-2.2,1.7c-0.2,0-0.4,0-0.6,0
	c-0.6-0.2-1.1-0.6-1.4-1.2c-0.3-0.6-0.3-1.2-0.2-1.9l0.7-2.7l-3.3-0.9c-1.2-0.3-2-1.7-1.7-2.9c0.3-1.2,1.7-1.9,3-1.6l3.2,0.9l0.5-2
	c0.3-1.3,1.6-2.1,2.8-1.7c1.2,0.3,1.9,1.7,1.6,3.1l-0.5,1.8l1.4,0.4c1.2,0.2,2.2,1.3,2,2.6c-0.2,1.2-1.3,2.1-2.7,1.9
	c-0.2,0-0.4,0-0.7,0L295,323.7z"/>
<path id="Oval" class="st8" d="M199.4,180.7c13.5-13.5,13.5-35.4,0-48.9c-13.5-13.5-35.4-13.5-48.9,0c-13.5,13.5-13.5,35.4,0,48.9
	C164.1,194.3,185.9,194.3,199.4,180.7z"/>
<ellipse class="st5" cx="175.4" cy="156.3" rx="25" ry="25.4"/>
<path class="st3" d="M174.7,184.4c-10.9,0-20.8-6.6-25-16.7c-4.2-10.2-1.8-21.7,5.8-29.5c7.7-7.7,19.4-10.1,29.5-5.8
	c10.1,4.2,16.7,14.1,16.7,25C201.8,172.3,189.6,184.4,174.7,184.4z M174.7,132.2c-10.2,0-19.3,6.1-23.2,15.5
	c-3.8,9.4-1.7,20.2,5.4,27.3c7.2,7.2,18,9.3,27.3,5.4s15.5-13,15.5-23.2C199.7,143.4,188.5,132.3,174.7,132.2z M174.6,155.4h12.7
	c0.5,0,0.8,0.6,0.8,1.2c0,0.3-0.1,0.7-0.2,0.8c-0.2,0.2-0.4,0.3-0.6,0.3h-13c0,0-0.1,0-0.1,0.1c-0.2,0.2-0.6,0.2-0.9,0.2
	c-0.3,0-0.7-0.1-0.9-0.2c-0.2-0.2-0.3-0.3-0.3-0.6v-10.2c0-0.4,0.6-0.7,1.2-0.7c0.3,0,0.7,0.1,0.9,0.2s0.4,0.3,0.4,0.6V155.4
	L174.6,155.4z M174.6,137.3c0,0.5-0.3,1-0.7,1.2c-0.4,0.2-1,0.1-1.4-0.2c-0.3-0.3-0.5-0.9-0.2-1.4c0.2-0.5,0.7-0.7,1.2-0.7
	C174,136,174.6,136.6,174.6,137.3z M188.9,143.2c-0.4,0-0.7-0.3-0.7-0.7s0.3-0.7,0.7-0.7s0.7,0.3,0.7,0.7S189.3,143.2,188.9,143.2z
	 M195.5,157.9c-0.5,0-1-0.3-1.2-0.8c-0.2-0.5-0.1-1,0.2-1.4c0.3-0.3,0.9-0.5,1.4-0.2c0.5,0.2,0.7,0.7,0.7,1.2c0,0.3-0.2,0.7-0.3,0.9
	C196.2,157.7,195.8,157.9,195.5,157.9z M188.9,171.4c-0.4,0-0.7-0.3-0.7-0.7c0-0.4,0.3-0.7,0.7-0.7s0.7,0.3,0.7,0.7
	C189.6,171,189.3,171.4,188.9,171.4z M172,177.3c0-0.7,0.6-1.2,1.2-1.2s1.2,0.6,1.2,1.2s-0.6,1.2-1.2,1.2S172,177.9,172,177.3z
	 M159.1,170.4c0.5-0.5,1.2-0.5,1.7,0c0.5,0.5,0.5,1.3,0,1.8c-0.5,0.5-1.2,0.5-1.7,0c-0.2-0.2-0.4-0.6-0.4-0.9
	C158.8,171,158.9,170.7,159.1,170.4z M153.4,158c-0.4,0-0.7-0.3-0.7-0.7s0.3-0.7,0.7-0.7s0.7,0.3,0.7,0.7S153.8,158,153.4,158z
	 M160.9,140.9c0.5,0.5,0.5,1.3,0,1.8c-0.5,0.5-1.2,0.5-1.7,0c-0.2-0.2-0.4-0.6-0.4-0.9s0.2-0.7,0.4-0.9
	C159.6,140.4,160.4,140.4,160.9,140.9z"/>
<path class="st1" d="M54.2,338.4c-0.4-2.6-2.2-9.2-6.3-7.2c-6.6,3.4,1.4,16.3-6.6,18.7c-0.4-5.2-1.6-8.7-3.9-8.5
	c-4.9,0.4-3.6,11.6-3.7,14.2c-0.1,2.6-0.2,5.1-0.3,7.7c-5.7,1-4.6-13.7-8.1-15.7c-5.4-3.2-6.6,3.9-6.4,7.2
	c0.2,5.6,1.7,12.2,7.1,15.2c2.2,1.2,4.7,1.9,7.2,1.9c-0.1,4.4,0.2,8.7,0.9,13.1h0.1l0,0l3.2,0.2l0,0c0.1,0.6,0.5,1,1.1,1
	c0.6,0,1-0.4,1.1-1c0-2.7,1.7-15.8,1.9-27c2.7,0.2,5.4-0.6,7.7-2.1C54.6,351.8,55.2,344.5,54.2,338.4z"/>
<path class="st2" d="M32.1,374.8c-0.2-0.1-0.4-0.2-0.6-0.2c-0.6-0.4-0.1-1.5,0.6-1.2l0,0c0-0.4,0-0.8,0-1.2c-2.4-0.2-4.7-0.8-6.8-2
	c-1.2-0.7-2.1-1.4-2.9-2.3l-0.3,0.2c-0.5,0.5-1-0.6-0.5-1l0.2-0.2c-1.8-2.4-2.8-5.5-3.2-8.4l0,0c-0.6-0.2-0.5-0.8-0.2-1.1
	c-0.2-1-0.2-2.1-0.2-3c-0.1-2.2,0.3-6.7,2.8-8.2c1-0.5,2.2-0.6,3.2-0.2c0.1-0.2,0.3-0.2,0.6-0.2c0.3,0,0.6,0.2,0.7,0.4v0.6
	c1.7,1,2.3,4.1,3,7.6c0,0.1,0,0.1,0,0.2l0.5-0.2c0.6-0.3,1.2,0.5,0.6,0.8l-0.8,0.4c0.9,4.2,1.8,7.1,3.8,7.1v-1.2c0.1-2,0.2-4,0.2-6
	c0-0.4,0-1,0-1.7c0-0.3,0-0.7,0-1.2c-0.1,0.1-0.2,0-0.4-0.1l-0.7-0.5c-0.6-0.4,0-1.4,0.5-1l0.6,0.4c-0.1-4.3,0.3-10,3.9-10.7v-0.1
	c0-0.3,0.2-0.6,0.7-0.6c0.4,0,0.7,0.2,0.7,0.6v0.1c0.3,0.1,0.7,0.2,1,0.6c1.3,1.1,2.1,3.6,2.5,7.7c0.9-0.4,1.6-1.1,2-1.9l-0.2-0.2
	c-0.4-0.4,0.1-1.1,0.6-0.9c0.4-1.6,0.2-3.5,0.2-5.6c0-0.2,0-0.5,0-0.7c-0.2-0.2-0.2-0.6,0-0.7c-0.1-2.7,0.1-5.4,1.7-7.2
	c-0.4-0.4,0.2-1,0.7-0.6l0,0c0.2-0.2,0.5-0.3,0.8-0.5c0.8-0.5,1.8-0.6,2.7-0.3V329c0-0.2,0.2-0.5,0.7-0.5c0.4,0,0.7,0.2,0.7,0.5v1.5
	c0,0.2-0.1,0.3-0.2,0.4c2.4,1.8,3.2,6.7,3.3,7.3c0.3,2.1,0.6,5,0.2,8c0.2,0.3,0.3,0.9-0.2,1.1c-0.6,3.3-2.2,6.7-5.3,9
	c-2.2,1.5-4.7,2.3-7.3,2.3c0,1.7-0.1,3.3-0.2,5.1l1-0.2c0.7-0.1,0.7,1.2,0,1.2l-1.1,0.2c-0.1,1-0.1,1.9-0.2,2.8
	c0.2,0.2,0.2,0.7-0.1,0.9c-0.1,1.1-0.2,2.1-0.2,3.1c0.5,0,0.7,0.7,0.1,0.9c-0.1,0-0.1,0-0.2,0c-0.2,2.4-0.4,4.7-0.6,6.7
	c-0.2,2.7-0.4,4.8-0.5,5.7c0,0.6-0.3,1.1-0.8,1.3c-0.2,0.2-0.6,0.3-0.9,0.4c-0.3,0-0.7-0.1-0.9-0.2c-0.3-0.2-0.6-0.5-0.7-0.9
	l-2.3-0.1h-0.8l-0.2-0.5C32.5,381.5,32.2,378.2,32.1,374.8z M33.4,374.9c0.1,3.1,0.3,6.2,0.7,9.3l3.4,0.2v0.6c0,0.2,0.1,0.3,0.2,0.4
	c0.2,0.1,0.4,0.1,0.6,0s0.2-0.2,0.2-0.4c0-0.9,0.2-3,0.5-5.8c0.2-1.7,0.3-3.7,0.6-5.9c-0.4,0.2-1-0.3-0.6-0.7
	c0.2-0.2,0.4-0.3,0.7-0.5c0.1-1,0.2-2,0.2-3c-0.2-0.2-0.3-0.7,0-1l0.1-0.1c0.1-1,0.2-2,0.2-3.1c-0.7,0.1-0.7-1.2,0-1.3h0.1
	c0.1-1.9,0.2-3.9,0.2-5.7v-0.7l0.7,0.1c2.5,0.2,5.1-0.6,7.2-2c0.8-0.6,1.5-1.2,2.1-2c-0.2-0.1-0.5-0.3-0.5-0.7v-0.2
	c0-0.3,0.2-0.7,0.7-0.7c0.3,0,0.6,0.2,0.7,0.5c0.9-1.5,1.6-3.1,1.9-4.7H53c-0.7,0.2-1.1-1.1-0.3-1.2l0.7-0.2
	c0.4-2.8,0.2-5.7-0.2-7.7c-0.3-1.9-1.3-5.9-3.3-6.8c-0.7-0.3-1.4-0.2-2.1,0.1c-0.2,0.1-0.3,0.2-0.5,0.3c0.1,0.3-0.2,0.6-0.6,0.5
	c-1.3,1.4-1.5,3.6-1.5,6l0.7,0.1c0.7,0.1,0.7,1.3,0,1.3l-0.7-0.1c0,0.2,0,0.3,0,0.6c0.2,4.1,0.4,8.7-4.2,10.1l-0.7,0.2v-0.7
	c-0.4-5.2-1.3-7-2.2-7.7c-0.1-0.1-0.2-0.2-0.3-0.2c-0.1,0.2-0.3,0.4-0.7,0.4c-0.3,0-0.6-0.2-0.7-0.5c-0.6,0.2-1,0.6-1.3,1.2
	c0.2,0.3,0.3,0.7,0.3,1.2c0.1,0.6-0.7,0.7-1,0.4c-0.7,2.7-0.7,6.6-0.6,8.9c0,0.7,0,1.3,0,1.7c0,2-0.2,4-0.2,6l-0.1,2.2l-0.5,0.1
	c-3.6,0.7-4.8-3.7-5.7-8.1c-0.1,0-0.2-0.1-0.2-0.2c-0.1-0.2-0.1-0.4,0-0.5c0-0.2-0.1-0.2-0.1-0.4c-0.7-3-1.2-6.1-2.5-6.7
	c-0.9-0.7-2.2-0.9-3.2-0.4c-1.8,1.1-2.3,4.9-2.2,7.1c0.1,1.1,0.2,2.2,0.3,3.3l0.6,0.2c0.7,0.2,0.4,1.3-0.3,1.1
	c0.5,2.6,1.3,5.2,2.9,7.2l0.4-0.3c0.5-0.5,1,0.6,0.5,1l-0.2,0.2c0.7,0.8,1.6,1.5,2.6,2.1c0.7,0.4,1.6,0.7,2.3,1.1
	c-0.2-0.5-0.3-1.1-0.2-1.7c0.1-0.6,1.3-0.3,1.2,0.2c-0.1,0.4,0,0.7,0.2,1.2c0.1,0.2,0,0.4-0.2,0.6c1.1,0.2,2.2,0.4,3.4,0.4h0.7v0.7
	c0,0.7,0,1.2,0,1.9C33.9,373.8,34,374.7,33.4,374.9L33.4,374.9z M21.7,354.6L21.7,354.6c-0.6-0.1-0.6-1.4,0-1.2l1.7,0.2
	c0.6,0.1,0.6,1.4,0,1.3L21.7,354.6z M26,363.6L26,363.6c-0.6-0.1-0.6-1.2-0.1-1.2c0.4,0,0.8,0.2,1.2,0.7c0.3,0.6-0.2,1.3-0.6,0.8
	C26.3,363.7,26.1,363.6,26,363.6z M34.1,368.8c-0.2-0.1-0.3-0.4-0.2-0.7c0.1-0.3,0.3-0.5,0.5-0.5l0.8,0.3c0.2,0.1,0.3,0.4,0.2,0.7
	c-0.1,0.3-0.3,0.5-0.5,0.5L34.1,368.8z M37.1,358.1c0.1-0.7,1.2-0.7,1.1,0c-0.1,0.3,0.1,0.7,0.3,0.9c0.6,0.5-0.2,1.3-0.8,0.8
	C37.3,359.4,37.1,358.7,37.1,358.1z M35.9,351L35.9,351c0.5-0.4,1.6,0,1.1,0.5c-0.2,0.1-0.2,0.2-0.2,0.4c0.2,0.6-1.1,0.8-1.2,0.2
	C35.4,351.7,35.6,351.3,35.9,351z M41.5,353.7c0-0.2,0.2-0.4,0.7-0.4c0.4,0,0.7,0.2,0.7,0.4v0.7c0,0.2-0.2,0.4-0.7,0.4
	c-0.4,0-0.7-0.2-0.7-0.4V353.7z M51.6,338.9c-0.4,0.5-1.3,0-1-0.5c0.2-0.2,0.3-0.4,0.5-0.7c0.4-0.5,1.4,0,1,0.5L51.6,338.9z
	 M47.9,349.1c-0.7,0.2-1.1-0.8-0.3-1.1l1.3-0.5c0.7-0.2,1.1,0.8,0.3,1.1L47.9,349.1z M35.6,373.3c-0.4-0.7,0.7-1.2,1.1-0.6
	c0.1,0.2,0.2,0.3,0.2,0.5c0.4,0.7-0.7,1.2-1.1,0.6L35.6,373.3z"/>
<path class="st8" d="M16.7,376.6h38.4c0.7,0,1.2,0.7,1.2,1.6v5.9c0,0.9-0.5,1.7-1.2,1.7H16.7c-0.7,0-1.2-0.7-1.2-1.7v-5.9
	C15.5,377.3,16,376.6,16.7,376.6z"/>
<path class="st3" d="M17.4,387.5H17c-1.4-0.2-2.4-1.4-2.3-2.8v-6c-0.1-1.4,0.9-2.7,2.3-2.8h38.7c1.4,0.2,2.4,1.4,2.3,2.8v6
	c0.1,1.4-0.9,2.7-2.3,2.8h-0.4L50.3,413c-0.2,1.2-1.2,2.1-2.4,2H24.8c-1.2,0-2.2-0.8-2.4-2L17.4,387.5z M17,378.1
	c-0.1,0.2-0.2,0.3-0.2,0.5v6c0,0.2,0.1,0.4,0.2,0.5h38.7c0,0,0.1-0.2,0.1-0.5v-6c0-0.2-0.1-0.4-0.2-0.5H17z"/>
<path class="st3" d="M261.7,246.1l29.1,15c0.3,0.2,0.5,0.6,0.4,0.9c-0.1,0.3-0.5,0.6-0.8,0.5c-0.1,0-0.2,0-0.2-0.1L260.3,247
	c-0.7,0.3-1.5,0.5-2.2,0.5l0,0c-0.7,0-1.2-0.2-1.8-0.4l-30.7,4.6h-0.2c-0.4-0.1-0.7-0.4-0.7-0.7c0-0.4,0.2-0.7,0.7-0.7l29-4.3
	c-0.9-1.1-1.4-2.5-1.3-4c0-0.5,0.3-0.8,0.8-0.8c0.5,0,0.8,0.4,0.8,0.8c-0.1,1,0.2,2,0.8,2.8c0.3,0.3,0.7,0.7,1.1,0.8l2.7-0.4
	c0.1,0,0.2-0.1,0.3-0.1c0.2,0,0.4,0.1,0.6,0.2c1.2-0.7,2-2.1,2-3.7c0-2.4-1.8-4.3-4.2-4.3c-0.2,0-0.4-0.1-0.6-0.2s-0.2-0.3-0.2-0.6
	v-4c-1.2-0.2-2.3-0.8-3.2-1.7c-1.7-1.7-2.3-4.5-1.3-6.8c0.8-1.9,2.5-3.3,4.5-3.7v-93.3h1.7V220c3.2,0.2,5.8,2.9,5.8,6.2
	c0,2.5-1.5,4.8-3.8,5.7c-0.6,0.2-1.2,0.4-1.9,0.5v3.1c3,0.5,5.2,3.2,4.9,6.3C263.6,243.6,262.8,245,261.7,246.1z"/>
<path class="st3" d="M212.8,250l89.2,15.3c2.7,0.4,4.4,3,4,5.7l0,0l-9.3,53.6c-0.5,2.7-3,4.4-5.7,4l0,0l-88.9-15.5
	c-2.7-0.5-4.4-3-4-5.7l9-53.4C207.6,251.3,210.1,249.6,212.8,250L212.8,250z"/>
<path class="st3" d="M289.4,329.1c-0.6,0-1.1-0.1-1.6-0.2l-82.9-14.4c-2.5-0.4-4.7-1.8-6.1-3.8c-1.4-2-2-4.6-1.6-7l8.2-47.6
	c0.9-5.1,5.7-8.6,10.9-7.7l82.9,14.4c2.5,0.4,4.7,1.8,6.1,3.8c1.4,2.1,2,4.6,1.6,7l-8.2,47.6C297.9,325.8,294,329.1,289.4,329.1
	L289.4,329.1z M214.8,250.5c-3.5,0-6.6,2.6-7.2,6l-8.2,47.6c-0.3,1.9,0.1,3.8,1.2,5.4c1.1,1.6,2.8,2.7,4.7,3l83,14.4
	c3.9,0.7,7.7-2,8.4-5.9l8.2-47.6c0.3-1.9-0.1-3.8-1.2-5.4c-1.1-1.6-2.8-2.7-4.7-3l-83-14.4C215.6,250.5,215.2,250.5,214.8,250.5
	L214.8,250.5z"/>
<path class="st8" d="M214.3,254.4l84.4,14.7c1.7,0.3,2.8,1.9,2.6,3.6l-8.3,47.8c-0.3,1.7-1.9,2.8-3.6,2.6l0,0l-84.4-14.7
	c-1.7-0.3-2.8-1.9-2.6-3.6l8.3-47.8C210.9,255.2,212.6,254.2,214.3,254.4L214.3,254.4L214.3,254.4z"/>
<path class="st3" d="M288.2,324.1c-0.3,0-0.7,0-1.1-0.1l-79.7-13.9c-1.7-0.2-3.2-1.2-4.1-2.6c-0.9-1.4-1.3-3.1-1-4.7l7.5-43.4
	c0.2-1.7,1.2-3.2,2.6-4.2c1.4-1,3.1-1.3,4.7-1.1l79.7,13.9c3.4,0.6,5.7,3.9,5.2,7.4l-7.5,43.4c-0.2,1.7-1.2,3.2-2.6,4.1
	C290.7,323.7,289.5,324.1,288.2,324.1z M287.4,322c2.3,0.4,4.5-1.2,4.9-3.4l7.5-43.4c0.4-2.3-1.2-4.5-3.4-4.9l-79.7-13.9
	c-2.3-0.4-4.5,1.2-4.9,3.4l-7.5,43.4c-0.2,1.1,0.1,2.2,0.7,3.2c0.7,0.9,1.6,1.6,2.7,1.7L287.4,322z"/>
<polygon class="st5" points="248.8,316 269.7,296.7 281.2,321.6 "/>
<path class="st3" d="M282.9,322.5l-35-6.1l22.5-20.6L282.9,322.5z M251,315.5l29.5,5.1L270,298.1L251,315.5z"/>
<polygon class="st5" points="207.9,309.1 244.9,275 265.4,319.1 "/>
<path class="st3" d="M266.2,320l-60-10.4l38.7-35.4L266.2,320z M209.3,308.6l54.5,9.5l-19.4-41.6L209.3,308.6z"/>
<path class="st5" d="M288.7,281.7c-0.5,2.7-3.1,4.6-5.7,4.1c-2.7-0.5-4.6-3.1-4.1-5.7c0.5-2.7,3.1-4.6,5.7-4.1
	c1.3,0.2,2.5,1,3.2,2.1C288.6,279,288.9,280.4,288.7,281.7L288.7,281.7z"/>
<path class="st3" d="M283.7,286.7c-0.3,0-0.7,0-1-0.1c-2.3-0.4-4.2-2.2-4.7-4.5c-0.5-2.3,0.4-4.7,2.3-6c1.2-0.9,2.8-1.2,4.3-1
	c2.3,0.4,4.2,2.2,4.7,4.5c0.5,2.3-0.4,4.7-2.3,6C286.2,286.2,285,286.7,283.7,286.7L283.7,286.7z M283.7,276.4
	c-2.3,0-4.3,1.8-4.4,4.2c-0.2,2.3,1.6,4.4,3.9,4.7c2.3,0.2,4.5-1.3,4.9-3.7l0,0c0.4-2.4-1.2-4.7-3.6-5.1
	C284.2,276.4,284,276.4,283.7,276.4L283.7,276.4z"/>
<rect x="244.6" y="125.9" class="st8" width="77.5" height="8.3"/>
<path class="st3" d="M382.9,370v20h20v-20H382.9z M384,345h17.8l-8.9-8.6L384,345z M384,322.5h17.8l-8.9-8.6L384,322.5z M335.4,97.5
	h22.5h22.5V73.4h25v24.2h20h25v25h-25h-20v294.1h-25V122.5h-22.5h-22.5h-22.5v-25H335.4z M383,95.7l8.1-8.2l-8.1-8.2V95.7z
	 M384.8,97.5H401l-8.1-8.1L384.8,97.5z M401,77.6h-16.2l8.2,8.2L401,77.6z M402.8,79.5l-8.1,8.1l8.1,8.1V79.5z M383,119l8.1-8.1
	l-8.1-8.1V119z M385.6,120h14.6l-7.2-7.2L385.6,120z M401.8,100.1H384l8.9,8.9L401.8,100.1z M402.8,102.8l-8.1,8.1l8.1,8.1V102.8z
	 M383,141.4l8.2-8.2l-8.2-8.2V141.4z M385.6,142.4h14.6l-7.3-7.3L385.6,142.4z M401.8,122.6H384l8.9,8.9L401.8,122.6z M402.8,125.2
	l-8.1,8.1l8.1,8.1V125.2z M383,163.1l8.1-8.1l-8.1-8.1V163.1z M384.7,164.9H401l-8.2-8.2L384.7,164.9z M401,145.1h-16.1l8,8.1
	L401,145.1z M402.8,146.9l-8.1,8.1l8.1,8.1V146.9z M383,186.4l8.1-8.2l-8.1-8.2V186.4z M385.5,187.4h14.7l-7.3-7.3L385.5,187.4z
	 M401.7,167.6H384l8.8,8.8L401.7,167.6z M402.8,170.2l-8.1,8.1l8.1,8.1V170.2z M383,208.8l8.1-8.2l-8.1-8.2V208.8z M385.5,209.9
	h14.7l-7.4-7.4L385.5,209.9z M401.6,190.2h-17.5l8.7,8.7L401.6,190.2z M402.8,192.7l-8.1,8.1l8.1,8.1V192.7z M383,230.5l8.2-8.2
	l-8.2-8.2V230.5z M384.6,232.4h16.5l-8.2-8.2L384.6,232.4z M400.9,212.6H385l8,8L400.9,212.6z M402.8,214.3l-8.1,8.1l8.1,8.1V214.3z
	 M383,253l8.2-8.2l-8.2-8.2V253z M384.6,254.9h16.5l-8.2-8.2L384.6,254.9z M400.9,235.1H385l7.9,7.9L400.9,235.1z M402.8,236.8
	l-8.1,8.1l8.1,8.1V236.8z M383,276.2l8.2-8.2l-8.2-8.2V276.2z M385.5,277.4h14.9l-7.5-7.5L385.5,277.4z M401.6,257.6h-17.5l8.7,8.7
	L401.6,257.6z M402.8,260l-8.1,8.1l8.1,8.1V260z M383,297.9l8.2-8.2l-8.2-8.2V297.9z M384.5,299.9h16.7l-8.3-8.3L384.5,299.9z
	 M400.8,280.1H385l7.8,7.8L400.8,280.1z M402.8,281.7l-8.1,8.1l8.1,8.1V281.7z M427.9,101.9v15.7l7.8-7.8L427.9,101.9z M429.8,100.1
	l7.7,7.7l7.7-7.7H429.8z M447.8,118.1v-16.8l-8.4,8.4L447.8,118.1z M446,120l-8.4-8.4l-8.4,8.4H446z M405.5,101.9v15.7l7.8-7.8
	L405.5,101.9z M407.3,100.1l7.7,7.7l7.7-7.7H407.3z M425.3,118.1v-16.8l-8.4,8.4L425.3,118.1z M423.5,120l-8.4-8.4l-8.4,8.4H423.5z
	 M360.5,101.8v15.8l7.9-7.9L360.5,101.8z M362.5,100.1l7.7,7.7l7.7-7.7H362.5z M380.3,118v-16.7l-8.3,8.3L380.3,118z M378.6,120
	l-8.4-8.4l-8.4,8.4H378.6z M338,101.7v15.9l8-8L338,101.7z M340,100.1l7.7,7.7l7.7-7.7H340z M357.8,118v-16.5l-8.2,8.2L357.8,118z
	 M356.2,120l-8.4-8.5l-8.4,8.5H356.2z M315.5,120h19.8v-19.8h-19.8V120z M382.9,319.9l8.1-7.8l-8.1-7.8V319.9z M400.9,302.5h-16.1
	l8.1,7.7L400.9,302.5z M402.9,304.2l-8.2,7.8l8.2,7.8V304.2z M382.9,409.9l8.1-7.8l-8.1-7.8V409.9z M384,412.5h17.8l-8.9-8.6
	L384,412.5z M400.9,392.5h-16.1l8.1,7.7L400.9,392.5z M402.9,394.2l-8.2,7.8l8.2,7.8V394.2z M382.9,342.4l8.1-7.8l-8.1-7.8V342.4z
	 M400.9,325h-16.1l8.1,7.7L400.9,325z M402.9,326.7l-8.2,7.8l8.2,7.8V326.7z M382.9,365.7l8.1-7.8l-8.1-7.8V365.7z M384.8,367.5
	h16.1l-8-7.7L384.8,367.5z M401.8,347.5H384l8.9,8.6L401.8,347.5z M402.9,350.1l-8.2,7.8l8.2,7.8V350.1z M382.9,388.2l8.2-7.8
	l-8.2-7.8V388.2z M384.8,390h16.1l-8.1-7.7L384.8,390z M401.8,370H384l8.9,8.6L401.8,370z M402.9,372.5l-8.2,7.8l8.2,7.8V372.5z
	 M405.4,392.5h-25v-25h25V392.5z M314.2,98.3l0.7-0.7l10.6,10.6l10.5-10.6l1.8,1.8L327.4,110l10,10.1l-1.8,1.8l-10-10.1l-10.3,10.4
	c-0.2,0.2-0.6,0.3-0.9,0.3h-22.7c-0.5,0-1-0.3-1.2-0.8c-0.2-0.5-0.1-1,0.2-1.4l22.7-22.7L314.2,98.3z M314.2,100.5L294.8,120h19
	l9.9-10L314.2,100.5z"/>
</svg>
