<?xml version="1.0" encoding="utf-8"?>
<!-- Generator: Adobe Illustrator 23.0.2, SVG Export Plug-In . SVG Version: 6.00 Build 0)  -->
<svg version="1.1" id="Layer_1" xmlns="http://www.w3.org/2000/svg" xmlns:xlink="http://www.w3.org/1999/xlink" x="0px" y="0px"
	 viewBox="0 0 500 500" style="enable-background:new 0 0 500 500;" xml:space="preserve">
<style type="text/css">
	.st0{fill:none;}
	.st1{fill:url(#Path_1_);}
	.st2{fill:url(#SVGID_1_);}
	.st3{fill:url(#SVGID_2_);}
	.st4{fill:url(#SVGID_3_);}
	.st5{fill:url(#SVGID_4_);}
	.st6{fill:#A8D2FF;}
	.st7{fill:#0A0068;}
	.st8{fill:#FFFFFF;}
	.st9{fill:#2C96F2;}
	.st10{fill:#5F4CEF;}
	.st11{fill:#5AA9FF;}
	.st12{fill:#FFFFFF;stroke:#2C96F2;stroke-width:3;}
	.st13{fill:#FCCF48;}
	.st14{fill:#FA8B55;}
</style>
<rect y="0" class="st0" width="500" height="500"/>
<linearGradient id="Path_1_" gradientUnits="userSpaceOnUse" x1="-60.85" y1="22.9386" x2="-60.85" y2="25.222" gradientTransform="matrix(71 0 0 240 4413 -5536.5)">
	<stop  offset="0" style="stop-color:#5AA9FF"/>
	<stop  offset="1" style="stop-color:#FFFFFF;stop-opacity:0"/>
</linearGradient>
<path id="Path" class="st1" d="M65.6,208h54.1c1.3,0,2.5,1.1,2.5,2.5v197.1H63.1V210.5C63.1,209.1,64.2,208,65.6,208z"/>
<linearGradient id="SVGID_1_" gradientUnits="userSpaceOnUse" x1="-61.0634" y1="22.7424" x2="-61.0634" y2="25.0257" gradientTransform="matrix(71 0 0 284 4503 -6570.5)">
	<stop  offset="0" style="stop-color:#5AA9FF"/>
	<stop  offset="1" style="stop-color:#FFFFFF;stop-opacity:0"/>
</linearGradient>
<path class="st2" d="M140.5,171.4h54.1c1.3,0,2.5,1.1,2.5,2.5v233.7H138V173.9C138,172.5,139.1,171.4,140.5,171.4z"/>
<linearGradient id="SVGID_2_" gradientUnits="userSpaceOnUse" x1="-61.2791" y1="22.6654" x2="-61.2791" y2="24.9486" gradientTransform="matrix(71 0 0 306 4594 -7087.5)">
	<stop  offset="0" style="stop-color:#5AA9FF"/>
	<stop  offset="1" style="stop-color:#FFFFFF;stop-opacity:0"/>
</linearGradient>
<path class="st3" d="M216.2,153.1h54.1c1.3,0,2.5,1.1,2.5,2.5v252h-59.1v-252C213.7,154.2,214.7,153.1,216.2,153.1z"/>
<linearGradient id="SVGID_3_" gradientUnits="userSpaceOnUse" x1="-61.4924" y1="22.6283" x2="-61.4924" y2="24.9118" gradientTransform="matrix(71 0 0 318 4684 -7370.5)">
	<stop  offset="0" style="stop-color:#5AA9FF"/>
	<stop  offset="1" style="stop-color:#FFFFFF;stop-opacity:0"/>
</linearGradient>
<path class="st4" d="M291,142.3h54.1c1.3,0,2.5,1.1,2.5,2.5v262h-59.1v-262C288.5,143.4,289.6,142.3,291,142.3z"/>
<linearGradient id="SVGID_4_" gradientUnits="userSpaceOnUse" x1="-61.7081" y1="22.4874" x2="-61.7081" y2="24.7707" gradientTransform="matrix(71 0 0 373 4775 -8663)">
	<stop  offset="0" style="stop-color:#5AA9FF"/>
	<stop  offset="1" style="stop-color:#FFFFFF;stop-opacity:0"/>
</linearGradient>
<path class="st5" d="M366.7,96.6h54.1c1.3,0,2.5,1.1,2.5,2.5v307.7h-59.1V99C364.2,97.6,365.3,96.6,366.7,96.6z"/>
<path id="Combined-Shape" class="st6" d="M392.9,82.6l-11.7-21.8l87.8,3l-46.5,74.4l-11.6-21.6l-150.8,81.1l-22.5-31.5l-185.2,91
	l-16.7-34.6l214.2-105.3l21.8,30.5L392.9,82.6z"/>
<path class="st7" d="M78.3,163.3c2.1-2.1,3.1-4.5,3.1-7.3c0-2.8-1-5.3-3.1-7.3c-2.1-2-4.5-3.1-7.3-3.1c-2.8,0-5.3,1-7.3,3.1
	s-3.1,4.5-3.1,7.3c0,2.8,1,5.3,3.1,7.3c2.1,2,4.5,3.1,7.3,3.1C73.9,166.4,76.3,165.4,78.3,163.3z M93.1,175.1c0,0.8-0.3,1.5-0.9,2.1
	s-1.2,0.9-2.1,0.9s-1.5-0.3-2.1-0.9l-7.9-7.9c-2.7,1.9-5.8,2.8-9.1,2.8c-2.2,0-4.3-0.4-6.3-1.2c-2-0.8-3.7-2-5.2-3.4
	c-1.4-1.4-2.6-3.2-3.4-5.2c-0.8-2-1.2-4.1-1.2-6.3s0.4-4.3,1.2-6.3s2-3.7,3.4-5.2c1.4-1.4,3.2-2.6,5.2-3.4c2-0.8,4.1-1.2,6.3-1.2
	c2.2,0,4.3,0.4,6.3,1.2s3.7,2,5.2,3.4c1.4,1.4,2.6,3.2,3.4,5.2s1.2,4.1,1.2,6.3c0,3.4-0.9,6.4-2.8,9.1l7.9,7.9
	C92.8,173.7,93.1,174.3,93.1,175.1z"/>
<path class="st7" d="M371.9,247.9H134.4c-3.5,0-6.4,2.8-6.4,6.3v150h250.3v-150c0-1.7-0.7-3.3-1.8-4.5
	C375.3,248.6,373.7,247.9,371.9,247.9z"/>
<rect id="Rectangle" x="140.5" y="257.9" class="st8" width="227.1" height="136.4"/>
<path class="st7" d="M112.2,405.9c0,4.4,1.7,8.6,5,11.8c3.2,3.2,7.5,4.9,12,4.8H374c9.3,0,16.9-7.5,16.9-16.6H112.2z"/>
<path class="st8" d="M272.5,410.1h-46.2c-1.2,0-2.2-0.5-3.1-1.5c-0.8-0.9-1.2-2.2-1.2-3.5h54.9c0,1.3-0.5,2.6-1.3,3.6
	C274.8,409.6,273.6,410.1,272.5,410.1L272.5,410.1z"/>
<path class="st7" d="M112.2,405.9c0,4.4,1.8,8.6,5,11.8c3.2,3.2,7.5,4.9,12.1,4.8h65.3c-13.2-4.1-25.9-9.6-37.7-16.6H112.2z"/>
<path id="Shape" class="st9" d="M176.2,336.1c-2.7,0-5.4-0.5-8-1.4c-4.1-1.6-7.7-4.2-10.2-7.8c-1-1.4-1.8-2.9-2.5-4.5
	c-1.2-2.7-1.7-5.7-1.7-8.6c0-2,0.2-3.9,0.7-5.8c0.5-2,1.3-3.9,2.4-5.7c1-1.7,2.2-3.2,3.7-4.6s3-2.6,4.7-3.5c0.8-0.5,1.7-0.9,2.5-1.2
	c4.3-1.7,9.1-2.2,13.7-1c3.2,0.7,6.2,2.2,8.6,4.2c1.2,1,2.4,2.2,3.5,3.4c1.1,1.2,1.9,2.7,2.7,4.1c2.5,5,3.1,10.7,1.6,16.1
	c-0.7,2.6-1.9,5-3.5,7.2c-1,1.3-2.2,2.6-3.4,3.7c-2,1.7-4.2,3.1-6.7,4C181.6,335.5,178.9,336.1,176.2,336.1L176.2,336.1z
	 M176.2,297.1c-2.2,0-4.2,0.4-6.2,1.2c-0.7,0.2-1.2,0.6-1.9,0.9c-1.2,0.7-2.4,1.6-3.5,2.6c-1,1-1.9,2.2-2.7,3.4
	c-0.7,1.3-1.4,2.7-1.7,4.2c-0.4,1.4-0.6,2.8-0.6,4.3c0,2.2,0.4,4.3,1.2,6.4c0.5,1.2,1.2,2.3,1.9,3.3c1.9,2.6,4.5,4.7,7.6,5.7
	c1.1,0.4,2.2,0.7,3.4,0.9c2.8,0.4,5.7,0.1,8.4-0.9c1.8-0.7,3.5-1.7,5-3c2.5-2.2,4.2-4.9,5.1-8.1c0.4-1.5,0.6-3,0.6-4.5
	c0-1.1-0.1-2.1-0.3-3.2c-0.2-1.5-0.7-2.9-1.4-4.2c-0.6-1.1-1.2-2.1-2-3.1c-0.7-0.9-1.7-1.7-2.6-2.5c-1.9-1.5-4.1-2.6-6.4-3.1
	C178.8,297.3,177.5,297.2,176.2,297.1L176.2,297.1z"/>
<path class="st7" d="M198.6,313.5h-5.7c0-1-0.1-2-0.3-3c-0.2-1.4-0.7-2.8-1.4-4.1c-0.6-1-1.2-2-1.9-2.9c-0.7-0.9-1.6-1.7-2.6-2.3
	c-1.8-1.4-4-2.4-6.2-3l1.3-5.4c3.1,0.7,6,2.1,8.6,4c1.2,1,2.4,2.1,3.4,3.2c1,1.2,1.9,2.5,2.7,3.9C197.9,307,198.7,310.3,198.6,313.5
	L198.6,313.5z"/>
<path class="st10" d="M183.3,334.4l-2.1-5.2c1.8-0.7,3.5-1.6,5-2.8c2.5-2,4.2-4.7,5.2-7.7c0.4-1.4,0.7-2.8,0.7-4.2h5.9
	c0,4.5-1.5,8.9-4.3,12.6c-1,1.3-2.2,2.5-3.5,3.6C188,332.3,185.8,333.5,183.3,334.4z"/>
<path class="st7" d="M174,314.5c-0.7,0.7-1.7,1.1-2.7,1c-1,0.1-1.9-0.2-2.7-1c-0.6-0.9-0.8-1.9-0.7-3v-0.7c-0.1-1.1,0.2-2.1,0.7-3
	c0.7-0.7,1.7-1,2.7-0.9c1-0.1,1.9,0.2,2.7,0.9c0.6,0.8,0.9,1.9,0.7,2.9v0.7C174.9,312.5,174.6,313.6,174,314.5z M170.9,313.5
	c0.2,0.1,0.3,0.1,0.5,0.1c0.2,0,0.3,0,0.5-0.1c0.1-0.1,0.2-0.2,0.3-0.2c0.1-0.2,0.2-0.3,0.2-0.4c0-0.2,0.1-0.4,0.1-0.6s0-0.4,0-0.7
	V311c0-0.3,0-0.6,0-0.7c0-0.2,0-0.3,0-0.6c0-0.2-0.1-0.3-0.2-0.4c-0.1-0.1-0.2-0.2-0.3-0.2c-0.2-0.1-0.3-0.1-0.5-0.1s-0.3,0-0.5,0.1
	c-0.1,0.1-0.2,0.1-0.3,0.2c-0.1,0.1-0.2,0.2-0.2,0.4s0,0.3,0,0.6c0,0.2,0,0.4,0,0.7v0.5c0,0.3,0,0.6,0,0.7c0,0.2,0,0.4,0,0.6
	s0.1,0.3,0.2,0.4C170.7,313.3,170.7,313.4,170.9,313.5L170.9,313.5z M173.2,321.9l4.4-14.9h1.7l-4.4,14.9H173.2z M181.1,321.9
	c-1,0.1-1.9-0.2-2.7-1c-0.6-0.9-0.9-1.9-0.8-3v-0.7c-0.1-1.1,0.2-2.1,0.7-3c0.7-0.7,1.7-1,2.7-0.9c1-0.1,1.9,0.2,2.7,0.9
	c0.6,0.8,0.9,1.9,0.7,2.9v0.7c0.1,1.1-0.2,2.1-0.8,3C183.1,321.6,182.1,322,181.1,321.9L181.1,321.9z M180.6,319.9
	c0.2,0.1,0.3,0.1,0.5,0.1c0.2,0,0.3,0,0.5-0.1c0.1-0.1,0.2-0.2,0.3-0.2c0.1-0.2,0.2-0.3,0.2-0.4c0-0.2,0.1-0.4,0.1-0.6s0-0.4,0-0.7
	v-0.4c0-0.3,0-0.6,0-0.7c0-0.2,0-0.3,0-0.6c0-0.2-0.1-0.3-0.2-0.4c-0.1-0.1-0.2-0.2-0.3-0.2c-0.2-0.1-0.3-0.1-0.5-0.1
	c-0.2,0-0.3,0-0.5,0.1c-0.1,0.1-0.2,0.1-0.3,0.2c-0.1,0.2-0.2,0.2-0.2,0.4s0,0.3,0,0.6c0,0.2,0,0.4,0,0.7v0.6c0,0.3,0,0.6,0,0.7
	c0,0.2,0,0.4,0,0.6s0.1,0.3,0.2,0.4C180.5,319.8,180.6,319.9,180.6,319.9L180.6,319.9z"/>
<rect x="207" y="291.2" class="st10" width="64" height="5"/>
<rect x="207" y="301.1" class="st10" width="64" height="5"/>
<rect x="207" y="311.1" class="st10" width="64" height="5"/>
<rect x="207" y="320.3" class="st10" width="64" height="5"/>
<rect x="207" y="331.9" class="st10" width="64" height="5"/>
<rect x="154.6" y="346.1" class="st8" width="44.1" height="38.3"/>
<rect x="206.2" y="346.1" class="st9" width="5.8" height="38.3"/>
<rect x="215.3" y="370.2" class="st7" width="5.8" height="14.1"/>
<rect x="224.5" y="357.7" class="st9" width="5.8" height="25.8"/>
<rect x="234.5" y="346.1" class="st7" width="5.8" height="38.3"/>
<polygon class="st9" points="249.4,383.5 243.9,383.5 243.6,357.7 249.1,357.7 "/>
<rect x="252.7" y="350.2" class="st7" width="5.8" height="33.3"/>
<rect x="262.7" y="361" class="st8" width="5.8" height="22.5"/>
<rect x="147.1" y="265.4" class="st9" width="211.3" height="6.7"/>
<path class="st9" d="M177.1,351.1v12.5h12.5c0-3.3-1.3-6.5-3.7-8.8C183.6,352.4,180.4,351.1,177.1,351.1z"/>
<path class="st11" d="M175.2,352.7c-6.7,0-12.2,5.6-12.2,12.5s5.5,12.5,12.2,12.5c2.2,0,4.2-0.6,6.1-1.7c-2.2-4.2-6.1-10.8-6.1-10.8
	V352.7z"/>
<path class="st7" d="M177.1,365.2c0,0,3.9,6.6,6.2,10.8c3.9-2.2,6.2-6.3,6.3-10.8H177.1z"/>
<rect x="280.2" y="290.3" class="st12" width="77.3" height="93.1"/>
<rect x="286" y="297.8" class="st10" width="64.9" height="6.7"/>
<path class="st7" d="M113,274.5c0,2-1.2,3.8-3.1,4.6c-1.8,0.7-4,0.3-5.4-1.1s-1.8-3.6-1.1-5.4c0.7-1.8,2.6-3.1,4.7-3.1
	c1.3,0,2.6,0.5,3.5,1.5C112.5,272,113,273.2,113,274.5z M333,171.4c-3.4,0-6.2-2.8-6.2-6.2c0-3.4,2.8-6.2,6.2-6.2
	c3.4,0,6.2,2.8,6.2,6.2S336.4,171.4,333,171.4z"/>
<path class="st7" d="M350.6,299.4c2-0.4,4,0.4,5.2,2.1c1.2,1.7,1.2,3.8,0.1,5.6c-1.1,1.7-3.2,2.6-5.1,2.2c-2-0.4-3.6-1.9-4-3.9
	c-0.2-1.3,0-2.7,0.7-3.7C348.1,300.5,349.3,299.7,350.6,299.4z M204,105.7c0.7,3.4-1.4,6.7-4.8,7.4s-6.7-1.4-7.4-4.8
	s1.4-6.7,4.8-7.4C200,100.1,203.3,102.3,204,105.7z"/>
<path class="st13" d="M113.4,201.3c-1.6,0-2.9-1.3-2.9-2.9s1.3-2.9,2.9-2.9s2.9,1.3,2.9,2.9S115,201.3,113.4,201.3z M361.7,166
	c0,1.6-1.3,2.9-2.9,2.9c-1.6,0-2.9-1.3-2.9-2.9c0-1.6,1.3-2.9,2.9-2.9c0.7,0,1.5,0.3,2.1,0.8C361.4,164.5,361.7,165.3,361.7,166z
	 M194.5,436.3c0,1.6-1.3,2.9-2.9,2.9c-1.6,0-2.9-1.3-2.9-2.9c0-1.6,1.3-2.9,2.9-2.9c0.7,0,1.5,0.3,2.1,0.8
	C194.2,434.8,194.5,435.6,194.5,436.3z"/>
<path class="st13" d="M275.3,126.8c0.1-1.6,1.5-2.8,3.1-2.7c1.6,0.1,2.8,1.5,2.7,3.1c-0.1,1.6-1.5,2.8-3.1,2.7
	C276.4,129.8,275.2,128.5,275.3,126.8z M293.3,377c-1.6-0.1-2.8-1.5-2.7-3.1c0.1-1.6,1.5-2.8,3.1-2.7c1.6,0.1,2.8,1.5,2.7,3.1
	c-0.1,0.7-0.4,1.5-1,2C294.8,376.8,294,377,293.3,377z M35.3,191.4c-1.6-0.1-2.8-1.5-2.7-3.1c0.1-1.6,1.5-2.8,3.1-2.7
	c1.6,0.1,2.8,1.5,2.7,3.1c-0.1,0.7-0.4,1.5-1,2C36.8,191.2,36,191.4,35.3,191.4z"/>
<path class="st11" d="M132.9,104H20c-1.3,0-2.7-0.5-3.6-1.4c-0.9-0.9-1.5-2.2-1.5-3.6s0.5-2.6,1.5-3.5s2.2-1.5,3.6-1.5h113
	c1.3,0,2.6,0.5,3.6,1.5c0.9,0.9,1.5,2.2,1.5,3.5c0,1.3-0.5,2.6-1.5,3.5C135.6,103.5,134.3,104,132.9,104z M158.8,118.2H73.1
	c-2.7,0-5-2.2-5-5s2.2-5,5-5h85.7c2.7,0,5,2.2,5,5S161.5,118.2,158.8,118.2z"/>
<rect x="286" y="309.5" class="st10" width="64.9" height="6.7"/>
<rect x="286" y="321.9" class="st10" width="64.9" height="6.7"/>
<rect x="286" y="334.4" class="st10" width="64.9" height="6.7"/>
<rect x="288.5" y="369.3" class="st11" width="9.1" height="10.8"/>
<rect x="302.7" y="364.4" class="st11" width="9.1" height="16.6"/>
<rect x="315.1" y="356.9" class="st11" width="9.1" height="23.3"/>
<rect x="329.3" y="350.2" class="st11" width="9.1" height="29.1"/>
<polygon class="st11" points="351.7,380.2 341.9,380.2 341.7,345.2 351.6,345.2 "/>
<path class="st13" d="M332,385.2h51.9c0.6,0,1.1,0.5,1.1,1.1v7.8c0,0.6-0.5,1.1-1.1,1.1H332c-0.6,0-1.1-0.5-1.1-1.1v-7.8
	C330.9,385.6,331.4,385.2,332,385.2z"/>
<path class="st14" d="M338.7,395.1h51.9c0.6,0,1.1,0.5,1.1,1.1v7.8c0,0.6-0.5,1.1-1.1,1.1h-51.9c-0.6,0-1.1-0.5-1.1-1.1v-7.8
	C337.6,395.6,338.1,395.1,338.7,395.1z"/>
<path class="st14" d="M332,356h51.9c0.6,0,1.1,0.5,1.1,1.1v7.8c0,0.6-0.5,1.1-1.1,1.1H332c-0.6,0-1.1-0.5-1.1-1.1v-7.8
	C330.9,356.5,331.4,356,332,356z"/>
<path class="st13" d="M338.7,366h51.9c0.6,0,1.1,0.5,1.1,1.1v7.8c0,0.6-0.5,1.1-1.1,1.1h-51.9c-0.6,0-1.1-0.5-1.1-1.1v-7.8
	C337.6,366.5,338.1,366,338.7,366z"/>
<path class="st14" d="M330.3,376h51.9c0.6,0,1.1,0.5,1.1,1.1v7.8c0,0.6-0.5,1.1-1.1,1.1h-51.9c-0.6,0-1.1-0.5-1.1-1.1v-7.8
	C329.3,376.5,329.8,376,330.3,376z"/>
<path class="st0" d="M60.5,281.2c-4.6,0-9.1,1.1-13.1,3.2c14.1-6.6,30.9-0.8,37.8,12.8c6.9,13.6,1.3,30.3-12.5,37.3
	c12.1-5.6,18.5-18.6,15.6-31.4C85.3,290.3,73.8,281.2,60.5,281.2L60.5,281.2z"/>
<path class="st7" d="M12.2,324.4H2.4v9.8c0,19.8,16.1,35.9,35.9,35.9h9.8v-9.8C48.2,340.6,32,324.4,12.2,324.4z"/>
<path class="st11" d="M107.4,349.4h9.8v9.8c0,9.6-3.7,18.7-10.6,25.4c-6.8,6.7-15.9,10.5-25.4,10.5h-9.8v-9.8
	c0-9.6,3.7-18.7,10.6-25.4C88.8,353.1,97.9,349.4,107.4,349.4L107.4,349.4z"/>
<path class="st7" d="M62.5,405.7v13.6h-5.7v-38.5l-34.4-34.6l1.6-1.6l32.9,33v-92.2h5.7v117.2l33.2-33.3l1.6,1.6L62.5,405.7z"/>
<g id="Oval">
	<circle class="st8" cx="59.4" cy="304.9" r="32"/>
	<path class="st14" d="M59.4,339.4c-19,0-34.5-15.5-34.5-34.5s15.5-34.5,34.5-34.5s34.5,15.5,34.5,34.5S78.4,339.4,59.4,339.4z
		 M59.4,275.4c-16.3,0-29.5,13.2-29.5,29.5s13.2,29.5,29.5,29.5s29.5-13.2,29.5-29.5S75.7,275.4,59.4,275.4z"/>
</g>
<path class="st14" d="M63.8,320.2v6.7h-5.7v-6.7c-3.9-0.6-7.7-2.2-10.7-4.7l3-6.2c3.1,2.7,6.8,4.2,10.8,4.6c2.3,0,3.7-0.8,3.7-2.5
	c0-5.2-15.7-2.1-15.7-12.9c0-4.8,3.4-8.2,8.9-9.1v-6.5h5.7v6.4c3.3,0.3,6.5,1.5,9.3,3.2l-2.9,6.5c-3.2-1.8-7.2-3.2-9.6-3.2
	c-1.9,0-3.1,0.7-3.1,2.1c0,5.1,15.7,2.2,15.7,13.2C73.2,316.3,69.1,319.4,63.8,320.2z"/>
<path class="st7" d="M393.1,223h-9.8v9.8c0,19.9,16.1,35.9,35.9,35.9h9.8v-9.8c0-9.6-3.8-18.7-10.6-25.4
	C411.8,226.8,402.6,223,393.1,223z"/>
<path class="st11" d="M393.1,311.1h-9.8v9.8c0,9.6,3.8,18.7,10.6,25.4c6.7,6.7,15.9,10.6,25.4,10.6h9.7v-9.8
	c0-9.6-3.8-18.7-10.6-25.4C411.8,315,402.6,311.1,393.1,311.1z"/>
<path class="st11" d="M488.3,247.1h9.8v9.8c0,19.9-16.1,35.9-35.9,35.9h-9.8V283C452.4,263.2,468.5,247.1,488.3,247.1z"/>
<path class="st7" d="M488.3,335.2h9.8v9.8c0,9.6-3.8,18.7-10.6,25.4c-6.7,6.7-15.9,10.6-25.4,10.6h-9.7v-9.8
	c0-9.6,3.8-18.7,10.6-25.4C469.7,339.1,478.8,335.2,488.3,335.2z"/>
<path class="st7" d="M443.5,391.4v27.9h-5.7v-52.7l-34.6-34.9l1.6-1.6l33,33.3v-85.4l-34.6-34.9l1.6-1.6l33,33.4v-65h5.7v89.7
	l33-33.3l1.6,1.6l-34.6,34.9v85.5l33-33.4l1.6,1.6L443.5,391.4z"/>
<g>
	<circle class="st8" cx="441.1" cy="192.6" r="32"/>
	<path class="st13" d="M441.1,227.1c-19,0-34.5-15.5-34.5-34.5s15.5-34.5,34.5-34.5c19,0,34.5,15.5,34.5,34.5
		S460.2,227.1,441.1,227.1z M441.1,163.1c-16.3,0-29.5,13.2-29.5,29.5s13.2,29.5,29.5,29.5s29.5-13.2,29.5-29.5
		S457.4,163.1,441.1,163.1z"/>
</g>
<path class="st13" d="M452.4,201.8L452.4,201.8c-0.4-0.3-1-0.3-1.3,0c-2,1.7-4.7,2.7-7.2,2.7c-3.8,0-7.4-2-9.5-5.2h9.8
	c0.6,0,1-0.3,1-0.8v-2.9c0-0.5-0.4-0.8-1-0.8h-11.6c-0.1-0.6-0.1-1.1-0.1-1.6s0.1-1.1,0.2-1.7h11.6c0.6,0,1-0.3,1-0.8v-2.9
	c0-0.5-0.4-0.8-1-0.8h-9.8c2.1-3.2,5.7-5.2,9.5-5.2c2.7,0,5.2,1,7.2,2.7c0.4,0.3,1,0.3,1.3,0l3.7-2.9c0.2-0.2,0.3-0.3,0.3-0.7
	c0-0.2-0.1-0.4-0.2-0.7c-3.4-2.9-7.7-4.6-12.3-4.6c-7.6,0-14.4,4.5-17.1,11.2h-4.2c-0.6,0-1,0.3-1,0.8v2.9c0,0.5,0.4,0.8,1,0.8h3
	c-0.1,0.6-0.1,1.2-0.1,1.7s0.1,1.1,0.1,1.6h-3c-0.6,0-1,0.3-1,0.8v2.9c0,0.5,0.4,0.8,1,0.8h4.2c2.7,6.7,9.6,11.2,17.1,11.2
	c4.6,0,9-1.6,12.3-4.6c0.2-0.2,0.3-0.3,0.3-0.7c0-0.2-0.2-0.4-0.3-0.7L452.4,201.8z"/>
</svg>
