<?xml version="1.0" encoding="utf-8"?>
<!-- Generator: Adobe Illustrator 23.0.2, SVG Export Plug-In . SVG Version: 6.00 Build 0)  -->
<svg version="1.1" id="Layer_1" xmlns="http://www.w3.org/2000/svg" xmlns:xlink="http://www.w3.org/1999/xlink" x="0px" y="0px"
	 viewBox="0 0 500 500" style="enable-background:new 0 0 500 500;" xml:space="preserve">
<style type="text/css">
	.st0{fill:none;}
	.st1{fill:#0A0068;}
	.st2{fill:#FFFFFF;}
	.st3{fill:#5AA9FF;}
	.st4{fill:#132057;}
	.st5{fill:#FCCF48;}
	.st6{fill:#E5EAFD;}
	.st7{fill:#ED9FBF;}
	.st8{opacity:0.3;}
	.st9{fill:#E7ECFF;}
	.st10{fill:#F9DEB1;}
	.st11{fill:#D891AE;}
	.st12{fill:#EEA7C4;}
	.st13{fill:#E7E4FF;}
	.st14{fill:#5F4CEF;}
</style>
<rect class="st0" width="500" height="500"/>
<path id="Combined-Shape" class="st1" d="M181.3,86.4c2.1,0,3.8,1.7,3.8,3.8c0,1.5-0.9,3-2.4,3.6s-3.1,0.3-4.2-0.9
	c-1.1-1.1-1.5-2.7-0.9-4.2C178.4,87.3,179.7,86.4,181.3,86.4z M180.9,78.7c3.2,0,6.3,1.3,8.7,3.7c0.9,0.9,0.9,2.3,0,3.2
	c-0.4,0.5-0.9,0.8-1.6,0.8c-0.6,0-1.2-0.3-1.6-0.7c-3.1-3.1-7.9-3.1-11,0c-0.4,0.4-1,0.7-1.6,0.7c-0.6,0-1.2-0.3-1.6-0.8
	c-0.4-0.4-0.7-1-0.7-1.6c0-0.6,0.3-1.2,0.7-1.6C174.5,80,177.6,78.7,180.9,78.7z M180.9,54.8c9,0,17.5,3.7,24,10.2
	c0.4,0.4,0.7,1,0.7,1.6c0,0.6-0.3,1.2-0.7,1.6l-0.3,0.3c-0.9,0.8-2.1,0.9-3,0.2c-11.6-11.7-30-11.7-41.6,0c-0.4,0.4-1,0.7-1.6,0.7
	c-0.6,0-1.2-0.3-1.5-0.8l-0.3-0.3c-0.4-0.4-0.7-1-0.7-1.6c0-0.6,0.3-1.2,0.7-1.6C163.2,58.5,171.9,54.8,180.9,54.8z M180.4,67.6
	c5.9,0,11.5,2.2,15.9,6.1c0.5,0.4,0.8,1,0.8,1.7s-0.3,1.3-0.7,1.7c-0.4,0.4-1.1,0.7-1.8,0.7c-0.7,0-1.3-0.3-1.8-0.7
	c-7-6.4-17.9-6.4-24.9,0c-0.4,0.4-1.1,0.7-1.7,0.7c-0.7,0-1.3-0.3-1.7-0.7c-0.4-0.5-0.7-1.1-0.7-1.7c0-0.6,0.3-1.3,0.8-1.7
	C168.9,69.7,174.5,67.6,180.4,67.6z"/>
<path class="st1" d="M303.9,395.7v23.9h22.6c2.6,0,4.7,2.1,4.7,4.7s-2.1,4.7-4.7,4.7H211.2c-2.6,0-4.7-2.1-4.7-4.7s2.1-4.7,4.7-4.7
	h20.1v-23.9h-95.7c-3.3,0-6-2.6-6-6v-182c0-3.3,2.6-6,6-6h266.5c3.3,0,6,2.6,6,6v182c0,3.3-2.6,6-6,6H303.9z"/>
<path id="Rectangle" class="st2" d="M142.9,209.4h252.8c1.7,0,3.1,1.4,3.1,3.1v146.9c0,1.7-1.4,3.1-3.1,3.1H142.9
	c-1.7,0-3.1-1.4-3.1-3.1V212.5C139.8,210.8,141.2,209.4,142.9,209.4z"/>
<path class="st3" d="M149.4,223.3h239.5v23H149.4V223.3z M149.4,328h239.5v23H149.4V328z M218.3,259.1H389v14.6H218.3V259.1z
	 M218.3,281.5H389v14.6H218.3V281.5z M218.3,303.9H389v14.6H218.3V303.9z M149.4,258.4h56v62.4h-56L149.4,258.4L149.4,258.4z"/>
<path class="st3" d="M45,388h16.2v30.8H45V388z M65.5,358.9h16.2v60.7H65.5V358.9z M86,366.6h16.2v53H86V366.6z M106.5,352.1h16.2
	v68.3h-16.2V352.1z"/>
<rect x="44.2" y="421.3" class="st4" width="78.6" height="4.3"/>
<circle id="Oval" class="st2" cx="233.8" cy="369.2" r="24.8"/>
<path id="Shape" class="st5" d="M233.4,396.5c-10.8,0-20.7-6.6-24.9-16.6c-4.2-10-1.9-21.6,5.8-29.3c7.7-7.7,19.3-10,29.3-5.8
	c10.1,4.2,16.7,14,16.7,24.9C260.3,384.5,248.2,396.5,233.4,396.5z M233.4,346.7c-12.6,0-22.9,10.3-22.9,22.9s10.2,22.9,22.8,22.9
	c12.6,0,22.9-10.2,23-22.8C256.3,357,246,346.8,233.4,346.7L233.4,346.7L233.4,346.7z"/>
<path class="st5" d="M236,382.9v4.2h-3.8v-4c-3.4-0.1-6.7-1.1-9.5-3l2.1-4.5c2.2,1.5,4.7,2.4,7.3,2.6V372c-4.3-1-8.9-2.4-8.9-7.8
	c0-3.9,2.9-7.3,8.9-8v-4.1h3.8v4.1c2.7,0.1,5.4,0.9,7.7,2.2l-1.9,4.6c-1.8-1-3.8-1.7-5.8-2v6.4c4.2,0.9,8.9,2.3,8.9,7.6
	C244.8,378.7,242,382.2,236,382.9z M232.2,366.4v-5.3c-2.1,0.4-2.8,1.5-2.8,2.8S230.5,365.9,232.2,366.4L232.2,366.4z M238.7,375.4
	c0-1.3-1.1-2.1-2.7-2.6v5.1C237.8,377.5,238.7,376.6,238.7,375.4L238.7,375.4z"/>
<path id="Path" class="st6" d="M315.1,330.8L315.1,330.8c5.9,3.4,13.4,1.5,16.8-4.4l29.2-49.1L339.9,265l-29.2,49.1
	c-1.6,2.8-2.1,6.2-1.3,9.2C310.2,326.5,312.2,329.1,315.1,330.8z"/>
<path class="st7" d="M311.7,285.1l17.9,17.3c1.2,1.2,2.8,1.9,4.5,1.9s3.3-0.7,4.5-1.9l0,0c1.2-1.2,1.9-2.8,1.9-4.4
	c0-1.7-0.7-3.2-1.9-4.4l-17.9-17.3c-1.2-1.2-2.8-1.9-4.5-1.9s-3.3,0.7-4.5,1.9l0,0c-1.2,1.2-1.9,2.8-1.9,4.4
	C309.8,282.3,310.5,283.9,311.7,285.1L311.7,285.1z"/>
<g id="Group" transform="translate(339.000000, 300.000000)" class="st8">
	<path class="st9" d="M-9,1.6L-9,1.6c2,2.1,5.3,2.1,7.3,0l0,0c2-2.1,2-5.6,0-7.7l0,0c-1-1-2.3-1.5-3.7-1.5S-8.1-7.1-9-6.1l0,0
		C-11-4-11-0.5-9,1.6z"/>
</g>
<path class="st7" d="M316.8,273.1l19.3,18.2c1.2,1.2,2.9,1.8,4.6,1.8s3.4-0.7,4.6-1.8l0,0c1.2-1.2,1.9-2.7,1.9-4.4
	c0-1.6-0.7-3.2-1.9-4.4l-19.3-18.2c-1.2-1.2-2.9-1.8-4.6-1.8s-3.4,0.7-4.6,1.8l0,0c-1.2,1.2-1.9,2.7-1.9,4.4
	S315.7,271.9,316.8,273.1L316.8,273.1z"/>
<path class="st10" d="M333.6,286.4l6.3-6.4c0.3-0.3,0.7-0.3,0.9,0l6.4,6.3c0.3,0.3,0.3,0.7,0,0.9l0,0l-6.3,6.4
	c-0.3,0.3-0.7,0.3-0.9,0l-6.4-6.3C333.3,287.1,333.3,286.6,333.6,286.4L333.6,286.4L333.6,286.4z"/>
<path class="st11" d="M303,307.9c0.5-0.4,1-0.9,1.4-1.4l19.8,9.9l21.3-13.6l-7.3-9.9l-11.6-3.2c-3.8-0.9-6.2-4.7-5.4-8.5
	c0.8-3.8,4.3-6.4,8.2-5.9l14.1,1.6c2.2,0.3,4.2,1.5,5.6,3.2l15.6,20.6c2.2,2.9,2.2,6.8,0,9.7l-25.8,33.1v7.7h-29.4l0.2-14.1
	L303,307.9z"/>
<path class="st12" d="M305,306l5.6,1c3.7,5.3,7.7,10.4,12.1,15.2c-2.2,2.6-3.7,5.9-4.4,9.2c-1,7.7,3.6,10.8,3.6,10.8v8.1h-12.3
	v-13.8l-6.6-26.9C303.8,309,304.5,306.7,305,306z"/>
<path class="st7" d="M306.9,296.3l18.2,18.5c1.9,1.9,4.9,1.9,6.7,0l2.1-2.2c1.9-2,1.9-5,0-6.9l-17.2-17.4c-1.2-1.2-2.7-1.9-4.4-1.9
	s-3.2,0.7-4.4,1.9l-1,1.1c-0.9,0.9-1.5,2.1-1.5,3.5S306.1,295.4,306.9,296.3z"/>
<g transform="translate(332.000000, 313.000000)" class="st8">
	<path class="st9" d="M-8.7-0.7L-8.7-0.7c2,2.1,5.3,2.1,7.3,0l0,0C-0.5-1.7,0.1-3,0.1-4.4s-0.5-2.7-1.5-3.7l0,0
		C-2.4-9-3.7-9.6-5.1-9.6S-7.7-9-8.7-8.1l0,0c-0.9,0.9-1.5,2.3-1.5,3.7S-9.7-1.7-8.7-0.7L-8.7-0.7z"/>
</g>
<g transform="translate(333.000000, 281.000000)" class="st8">
	<path class="st9" d="M-9.3,2.1l0.3-1.7c0.3-2.8,3-4.9,5.8-4.5l1.8,0.3c2.8,0.3,4.9,3,4.5,5.8L2.8,3.6C2.5,6.4-0.2,8.5-3,8.1
		l-1.7-0.3C-7.6,7.5-9.7,5-9.3,2.1L-9.3,2.1z"/>
</g>
<path class="st9" d="M338,315.4l-7.3,12.7c-2.9,5-9.3,6.7-14.3,3.8l-3.2-2c-5-3-6.6-9.5-3.7-14.5H338L338,315.4z"/>
<path class="st7" d="M304,311.9l12.8,12.7c1.2,1.2,2.8,1.9,4.5,1.9s3.3-0.7,4.5-1.9l0,0c1.2-1.2,1.9-2.8,1.9-4.5
	c0-1.7-0.7-3.3-1.9-4.5l-12.8-12.7c-1.2-1.2-2.8-1.9-4.5-1.9c-1.7,0-3.3,0.7-4.5,1.9l0,0C301.6,305.3,301.6,309.3,304,311.9
	L304,311.9z"/>
<g transform="translate(325.000000, 326.000000)" class="st8">
	<path class="st9" d="M-7.1-2L-7.1-2c2,2,5.3,2,7.3,0l0,0c2-2,2-5.3,0-7.3l0,0c-2-2-5.3-2-7.3,0l0,0C-9.1-7.2-9.1-4-7.1-2L-7.1-2z"
		/>
</g>
<path class="st1" d="M284.2,165.3l-21.8,38.2l-20.1-14.9l26.3-33.8L284.2,165.3z M397,245.4l-26.2,39.2l-39.6-21.4l34.2-46.9
	L397,245.4z"/>
<polygon class="st13" points="365.4,215.5 311.5,130.8 236.4,234.6 331.6,262.4 "/>
<path class="st14" d="M230.6,230.8l75-104.1l11,7.9l-75,104.1L230.6,230.8z M374.4,290.1l-14.7-10.6l30.9-42.9l14.7,10.6
	L374.4,290.1z"/>
<path class="st14" d="M227,146.1l-3.5,5.2l-52.9-30.5l11.4-13.1L227,146.1z M212.5,178.6l-1.2,6.1l-60.3-7.6l5.6-16.3L212.5,178.6z
	 M257.7,132.6l-5.3,3.3l-36.6-49.3l14.4-11.4L257.7,132.6z"/>
<rect x="304.7" y="345.3" class="st9" width="37.6" height="9.4"/>
<rect x="303" y="351.2" class="st14" width="41.9" height="11.1"/>
<path class="st1" d="M354.3,103c0,7.9-3.6,12.3-9,12.3c-2.6,0.3-5.1-1.4-6-3.8c-1.6,2.6-4.5,4-7.5,3.8c-5.6,0-10.1-4.4-10.1-11
	c0-6.6,4.4-11,10.1-11c2.6-0.1,5,0.9,6.7,2.9v-2.7h6v14.2c0,2.2,0.9,2.8,2.2,2.8c2.1,0,3.2-2.3,3.2-7.4c0-8.8-6.6-15-16.3-15
	s-16.3,6.6-16.3,15.8c-0.3,4.4,1.5,8.5,4.5,11.6c3.1,3.1,7.3,4.6,11.6,4.4c3,0,6-0.7,8.6-2l1.4,4c-3.2,1.5-6.6,2.1-10,2.1
	c-12.6,0-21-8.5-21-20.2s8.4-19.8,21.1-19.8C345.8,83.8,354.3,92,354.3,103z M338.6,104.2c0-3.1-2.5-5.5-5.5-5.5s-5.5,2.5-5.5,5.5
	s2.5,5.5,5.5,5.5S338.6,107.2,338.6,104.2z"/>
<path class="st5" d="M114.9,217.3h-2.8c-0.9-0.1-1.6-0.7-1.9-1.5c-0.3-0.8-0.6-1.5-0.9-2.2c-0.4-0.8-0.3-1.7,0.3-2.4l2-2
	c0.7-0.7,1-1.5,1-2.5s-0.3-1.9-1-2.5l-3.2-3.2c-1.4-1.4-3.7-1.4-5,0l-2,2c-0.7,0.6-1.6,0.7-2.4,0.3c-0.7-0.3-1.5-0.6-2.2-0.9
	c-0.9-0.3-1.5-1-1.5-1.9v-2.7c0-2-1.6-3.6-3.6-3.6H87c-2,0-3.6,1.6-3.6,3.6v2.7c-0.1,0.9-0.7,1.6-1.5,1.9c-0.8,0.3-1.5,0.6-2.2,0.9
	c-0.8,0.3-1.7,0.3-2.4-0.3l-2-2c-0.7-0.7-1.5-1-2.5-1s-1.9,0.3-2.5,1l-3.2,3.2c-1.4,1.4-1.4,3.7,0,5l2,2c0.6,0.7,0.7,1.6,0.3,2.4
	c-0.3,0.7-0.7,1.5-0.9,2.2c-0.3,0.9-1,1.5-1.9,1.5h-2.8c-2,0-3.5,1.6-3.5,3.6v4.5c0,2,1.6,3.6,3.6,3.6h2.8c0.9,0.1,1.6,0.7,1.9,1.5
	s0.5,1.5,0.9,2.2c0.3,0.8,0.3,1.7-0.3,2.4l-2,2c-0.7,0.7-1,1.5-1,2.5c0,0.9,0.3,1.9,1,2.5l3.2,3.2c0.7,0.7,1.5,1,2.5,1
	s1.9-0.3,2.5-1l2-2c0.4-0.3,0.9-0.5,1.5-0.5c0.3,0,0.7,0.1,0.9,0.3c0.7,0.3,1.5,0.7,2.2,0.9c0.9,0.3,1.5,1,1.5,1.9v2.8
	c0,2,1.6,3.6,3.6,3.6h4.5c2,0,3.6-1.6,3.6-3.6v-2.8c0.1-0.9,0.7-1.6,1.5-1.9c0.8-0.3,1.5-0.6,2.2-0.9c0.3-0.2,0.6-0.3,0.9-0.3
	c0.5,0,1,0.2,1.5,0.5l2,2c1.4,1.4,3.7,1.4,5,0l3.2-3.2c0.7-0.7,1-1.5,1-2.5c0-0.9-0.3-1.9-1-2.5l-2-2c-0.6-0.7-0.7-1.6-0.3-2.4
	c0.3-0.7,0.7-1.5,0.9-2.2c0.3-0.9,1-1.5,1.9-1.5h2.8c2,0,3.6-1.6,3.6-3.6V221C118.5,218.8,116.9,217.3,114.9,217.3z M99.9,223.1
	c0,4.2-2.6,8-6.4,9.7c-3.8,1.6-8.4,0.8-11.4-2.2s-3.9-7.4-2.3-11.4c1.6-3.9,5.4-6.4,9.7-6.4C95.2,212.7,99.9,217.3,99.9,223.1z"/>
<path class="st1" d="M135,179.4h-2c-0.6-0.1-1.1-0.4-1.4-1c-0.2-0.5-0.4-1-0.6-1.5c-0.3-0.5-0.2-1.2,0.3-1.6l1.4-1.4
	c0.4-0.4,0.7-1.1,0.7-1.7c0-0.7-0.3-1.3-0.7-1.7l-2.2-2.1c-0.4-0.4-1.1-0.8-1.7-0.7c-0.7,0-1.3,0.3-1.8,0.7l-1.4,1.4
	c-0.3,0.3-0.6,0.3-1,0.3c-0.3,0-0.4-0.1-0.7-0.2c-0.5-0.3-1-0.4-1.5-0.6c-0.6-0.2-0.9-0.7-1-1.4v-2c0-0.7-0.3-1.4-0.8-1.9
	c-0.5-0.5-1.2-0.8-1.9-0.7h-3.1c-1.4,0-2.5,1.1-2.5,2.5v1.9c-0.1,0.6-0.5,1.1-1,1.4c-0.5,0.2-1,0.4-1.5,0.6
	c-0.2,0.1-0.4,0.2-0.7,0.2c-0.3,0-0.7-0.1-1-0.3l-1.4-1.4c-0.4-0.4-1.1-0.8-1.7-0.7c-0.7,0-1.3,0.3-1.7,0.7l-2.2,2.1
	c-0.4,0.4-0.7,1.1-0.7,1.7c0,0.7,0.3,1.3,0.7,1.7l1.4,1.4c0.4,0.4,0.5,1.1,0.3,1.6s-0.4,1-0.6,1.5c-0.3,0.6-0.8,0.9-1.4,1h-2
	c-1.4,0-2.5,1.1-2.5,2.5v3.2c0,1.4,1.1,2.5,2.5,2.5h2c0.6,0.1,1.1,0.4,1.4,1c0.2,0.5,0.4,1,0.6,1.5c0.3,0.5,0.2,1.2-0.3,1.6
	l-1.4,1.4c-0.9,0.9-0.9,2.6,0,3.5l2.2,2.1c0.4,0.4,1.1,0.7,1.7,0.7c0.7,0,1.3-0.3,1.7-0.7l1.4-1.4c0.3-0.3,0.7-0.3,1-0.3
	c0.3,0,0.4,0.1,0.7,0.2c0.5,0.3,1,0.4,1.5,0.7c0.6,0.2,1,0.7,1,1.4v1.9c0,1.4,1.1,2.5,2.4,2.5h3.1c1.4,0,2.5-1.1,2.5-2.5V199
	c0.1-0.6,0.4-1.1,1-1.4c0.5-0.2,1-0.4,1.5-0.7c0.2-0.1,0.4-0.2,0.7-0.2c0.3,0,0.7,0.1,1,0.3l1.4,1.4c0.5,0.4,1.1,0.7,1.8,0.7
	c0.7,0,1.3-0.3,1.7-0.7l2.2-2.1c0.9-0.9,0.9-2.6,0-3.5l-1.4-1.4c-0.4-0.4-0.5-1.1-0.3-1.6c0.3-0.5,0.4-1,0.7-1.5
	c0.2-0.6,0.8-0.9,1.4-1h2c1.4,0,2.5-1.1,2.5-2.5v-3.2C137.3,180.5,136.3,179.4,135,179.4L135,179.4z M124.5,183.4
	c0,2.9-1.8,5.6-4.4,6.7c-2.7,1.1-5.8,0.5-7.9-1.5c-2.1-2.1-2.7-5.1-1.6-7.9c1.1-2.7,3.8-4.4,6.7-4.4
	C121.2,176.2,124.5,179.4,124.5,183.4z"/>
<path class="st1" d="M449.6,99.2h-43.8c-3.3,0-6.5,1.3-8.8,3.6c-2.3,2.2-3.5,5.4-3.4,8.5v29.1c0,6.7,5.5,12.1,12.3,12.1H431
	l8.3,10.7l8.3-10.7h2c6.7,0,12.3-5.5,12.3-12.1v-29.1C461.9,104.7,456.4,99.2,449.6,99.2L449.6,99.2z M457.2,111.3v29.1
	c0,4.1-3.3,7.3-7.4,7.3h-4.4l-6,7.6l-6-7.7H406c-4.1,0-7.4-3.3-7.4-7.3v-29c-0.1-2,0.7-3.8,2.1-5.2c1.4-1.4,3.3-2.2,5.3-2.1h43.8
	c2,0,3.9,0.8,5.4,2.1C456.4,107.5,457.2,109.4,457.2,111.3z"/>
<path class="st3" d="M370,133.4c-2.6,0-5.1,1-7,2.9c-1.9,1.9-2.8,4.4-2.8,7v29.2c0,5.4,4.4,9.8,9.8,9.8h26.1l7.1,9.2l7.1-9.2h3.1
	c2.6,0,5.1-1,7-2.8c1.9-1.8,2.9-4.4,2.9-6.9v-29.2c0-2.6-1-5.1-2.8-7c-1.9-1.9-4.4-2.9-7-2.9L370,133.4L370,133.4z"/>
<path class="st1" d="M402.1,160.2c0-3.1,2.6-5.6,5.6-5.5c3.1,0,5.6,2.5,5.6,5.6s-2.5,5.6-5.6,5.6
	C404.6,165.9,402.1,163.4,402.1,160.2L402.1,160.2z M385.9,160.3c0-3.1,2.5-5.6,5.6-5.6c3.1,0,5.6,2.5,5.6,5.6s-2.5,5.6-5.6,5.6
	C388.4,165.9,385.9,163.4,385.9,160.3L385.9,160.3z M370.5,160.2c0-3.1,2.6-5.6,5.6-5.5c3.1,0,5.6,2.5,5.6,5.6s-2.5,5.6-5.6,5.6
	C373,165.9,370.5,163.4,370.5,160.2L370.5,160.2z"/>
<path class="st3" d="M82.8,97.5h67.1c2.5,0,4.4,2,4.4,4.4v38.1c0,2.5-2,4.4-4.4,4.4H82.8c-2.5,0-4.4-2-4.4-4.4V102
	C78.3,99.5,80.3,97.5,82.8,97.5z"/>
<polygon class="st2" points="109.9,112 109.9,130.8 127.9,120.7 "/>
<path class="st5" d="M296.2,70.9c0.1,4.3-1.6,8.5-4.7,11.4c-2.9,2.9-4.4,6.8-4.4,10.9h-14v-0.6c-0.1-4-1.7-7.8-4.6-10.6
	c-4.2-4.2-5.6-10.3-3.9-15.9c1.7-5.6,6.4-9.8,12.2-11c4.8-1,9.7,0.2,13.6,3.2C294,61.5,296.2,66,296.2,70.9z M259.1,68.5l-14.2-4
	l0.9-3.7l13.6,5.6L259.1,68.5z M299.2,68.5l-0.5-2.1l12.5-6.5l1.2,3.4L299.2,68.5z M263.4,57.4l-9.9-10.1l2.4-2.7l8.7,11.1
	L263.4,57.4z M290.9,54.8l-1.5-1.4l6.6-12.3l2.8,2.1L290.9,54.8z M275.2,50.5L274,36.3l4.3-0.3l-0.6,14.1L275.2,50.5z"/>
<path class="st1" d="M284.2,100.9v0.9c0,0.4-0.3,0.8-0.8,0.8h-8.7c-0.4,0-0.8-0.3-0.8-0.8v-0.9h-2.9c-0.3,0-0.5-0.3-0.5-0.5V90.3
	c0-0.3,0.3-0.5,0.5-0.5H288c0.3,0,0.5,0.3,0.5,0.5v10.1c0,0.3-0.3,0.5-0.5,0.5H284.2z"/>
<path class="st9" d="M285.8,94h-12.6c-0.5,0-0.9-0.3-0.9-0.8s0.4-0.8,0.9-0.8h12.6c0.5,0,0.9,0.3,0.9,0.8S286.3,94,285.8,94z
	 M285.8,96.6h-12.6c-0.5,0-0.9-0.3-0.9-0.8s0.4-0.8,0.9-0.8h12.6c0.5,0,0.9,0.3,0.9,0.8S286.3,96.6,285.8,96.6z M285.8,99.1h-12.6
	c-0.5,0-0.9-0.3-0.9-0.8s0.4-0.8,0.9-0.8h12.6c0.5,0,0.9,0.3,0.9,0.8S286.3,99.1,285.8,99.1z"/>
<polygon class="st1" points="119.3,307.9 112.8,307.9 112.8,314.5 107.9,314.5 107.9,307.9 101.4,307.9 101.4,303.2 107.9,303.2 
	107.9,296.6 112.8,296.6 112.8,303.2 119.3,303.2 "/>
<path class="st1" d="M85.2,312.8c-5.2,0-9.4-4.2-9.4-9.4s4.2-9.4,9.4-9.4c5.2,0,9.4,4.2,9.4,9.4S90.4,312.8,85.2,312.8z M88.4,313.6
	L88.4,313.6c6.7,0,12.1,5.4,12.1,12v9.7l-0.7,0.3c-4.6,2-9.6,2.8-14.5,2.6c-5.6,0-11.2-0.9-16.6-2.6l-0.7-0.3v-9.9
	c0-6.7,5.5-12,12.2-12L88.4,313.6L88.4,313.6z"/>
<path class="st3" d="M349.2,413.6L349.2,413.6H386c1.3,0,2.4-0.9,2.7-2.1l8.1-28.2c0.3-0.9,0.1-1.8-0.4-2.5
	c-0.5-0.7-1.4-1.1-2.2-1.1h-49l-1.4-5.9c-0.3-1.3-1.5-2.2-2.7-2.2H329c-1.5,0-2.8,1.3-2.8,2.8s1.3,2.8,2.8,2.8h9.8l7.1,31.5
	c-2.7,1.5-4.1,4.5-3.3,7.5c0.7,3,3.3,5.1,6.4,5.2c-2.3,1.8-3.2,4.9-2.1,7.6c0.9,2.7,3.6,4.5,6.5,4.5c2.9,0,5.6-1.8,6.5-4.5
	c0.9-2.7,0.1-5.8-2.1-7.6h20c-1.6,1.3-2.6,3.2-2.6,5.3c-0.2,2.6,1.1,5,3.3,6.2s5,1.3,7.1,0c2.2-1.3,3.5-3.7,3.3-6.2
	c0-2.1-0.9-4-2.6-5.3c1.5-0.2,2.6-1.5,2.5-2.9c-0.1-1.5-1.2-2.6-2.7-2.6h-36.7c-0.6-0.1-1.1-0.6-1.1-1.2S348.5,413.7,349.2,413.6
	L349.2,413.6z M381.9,428.1c-0.7,0-1.2-0.6-1.2-1.3c0-0.7,0.6-1.2,1.3-1.2c0.7,0,1.2,0.5,1.2,1.2
	C383.2,427.6,382.6,428.1,381.9,428.1L381.9,428.1z M353.2,425.6c0.7,0,1.2,0.5,1.2,1.2c0,0.7-0.5,1.2-1.2,1.2s-1.2-0.5-1.2-1.2
	c0-0.3,0.2-0.7,0.3-0.9C352.6,425.8,353,425.6,353.2,425.6L353.2,425.6z M346.4,385.4h44.1l-6.7,22.6h-32.3L346.4,385.4z"/>
<path class="st5" d="M38.2,262.4h33.3v6H38.2V262.4z M45,270.9h33.3v6H45V270.9z M38.2,279.5h33.3v6H38.2V279.5z"/>
<path class="st5" d="M365.4,73.6h33.3v6h-33.3V73.6z M372.2,80.4h33.3v6h-33.3V80.4z M365.4,89h33.3v6h-33.3V89z"/>
<path class="st1" d="M119.3,265.8c0,2.1-1.3,3.9-3.2,4.7c-1.9,0.8-4.1,0.3-5.6-1.1c-1.5-1.5-1.9-3.7-1.1-5.6
	c0.8-1.9,2.6-3.2,4.8-3.2c1.4,0,2.6,0.5,3.6,1.5C118.8,263.2,119.3,264.4,119.3,265.8z M345.3,159.9c-3.5,0-6.4-2.9-6.4-6.4
	c0-3.5,2.9-6.4,6.4-6.4c3.5,0,6.4,2.9,6.4,6.4C351.7,157,348.8,159.9,345.3,159.9z"/>
<path class="st5" d="M85.6,175.2c-1.6,0-3-1.4-3-3c0-1.6,1.4-3,3-3c1.6,0,3,1.4,3,3C88.6,173.9,87.2,175.2,85.6,175.2z M340.6,138.9
	c0,1.6-1.4,3-3,3c-1.6,0-3-1.4-3-3c0-1.6,1.4-3,3-3c0.8,0,1.5,0.3,2.1,0.9C340.3,137.4,340.6,138.2,340.6,138.9z M168.9,416.6
	c0,1.6-1.4,3-3,3c-1.6,0-3-1.4-3-3s1.4-3,3-3c0.8,0,1.5,0.3,2.1,0.9C168.5,415,168.9,415.8,168.9,416.6z"/>
<path class="st3" d="M241.4,449.5h-116c-1.4,0-2.7-0.5-3.7-1.5c-0.9-0.9-1.5-2.3-1.5-3.7c0-1.4,0.5-2.6,1.5-3.6
	c0.9-0.9,2.3-1.5,3.7-1.5h116.1c1.4,0,2.6,0.5,3.7,1.5c0.9,0.9,1.5,2.3,1.5,3.6c0,1.4-0.5,2.6-1.5,3.6
	C244.1,449,242.9,449.5,241.4,449.5z M268,464h-88c-2.8,0-5.1-2.3-5.1-5.1c0-2.8,2.3-5.1,5.1-5.1h88c2.8,0,5.1,2.3,5.1,5.1
	C273.1,461.7,270.8,464,268,464z"/>
</svg>
