<?xml version="1.0" encoding="utf-8"?>
<!-- Generator: Adobe Illustrator 23.0.2, SVG Export Plug-In . SVG Version: 6.00 Build 0)  -->
<svg version="1.1" id="Layer_1" xmlns="http://www.w3.org/2000/svg" xmlns:xlink="http://www.w3.org/1999/xlink" x="0px" y="0px"
	 viewBox="0 0 60 60" style="enable-background:new 0 0 60 60;" xml:space="preserve">
<style type="text/css">
	.st0{fill:none;}
	.st1{fill:#FFFFFF;}
</style>
<rect class="st0" width="60" height="60"/>
<path id="Combined-Shape" class="st1" d="M22.1,31.4c0,0.5-0.1,1-0.4,1.4s-0.7,0.7-1.2,1C20.1,34,19.5,34,18.8,34
	c-0.6,0-1,0-1.4-0.1c-0.4-0.1-0.8-0.2-1.2-0.4v-2.1c0.4,0.2,0.9,0.4,1.4,0.5c0.5,0.1,0.9,0.2,1.3,0.2c0.3,0,0.6-0.1,0.8-0.2
	c0.2-0.1,0.2-0.3,0.2-0.5c0-0.1,0-0.2-0.1-0.3s-0.2-0.2-0.3-0.3c-0.1-0.1-0.5-0.3-1.1-0.6c-0.6-0.3-1-0.5-1.3-0.7
	c-0.3-0.2-0.5-0.5-0.6-0.8c-0.1-0.3-0.2-0.7-0.2-1.1c0-0.8,0.3-1.4,0.9-1.8c0.6-0.4,1.4-0.7,2.4-0.7c0.9,0,1.8,0.2,2.7,0.6l-0.7,1.8
	c-0.8-0.4-1.5-0.6-2.1-0.6c-0.3,0-0.5,0.1-0.7,0.2s-0.2,0.2-0.2,0.4c0,0.2,0.1,0.3,0.3,0.5s0.6,0.4,1.4,0.7c0.7,0.3,1.3,0.7,1.5,1.1
	C21.9,30.3,22.1,30.8,22.1,31.4z M27.1,33.9l-1.8-6.1h-0.1c0.1,1.1,0.1,1.9,0.1,2.4v3.7h-2.1v-8.5h3.1l1.8,6l0,0l1.8-6H33v8.5h-2.1
	v-3.7c0-0.2,0-0.4,0-0.7s0-0.8,0.1-1.8h-0.1l-1.6,6.2H27.1z M38.6,33.9l-1.8-6.1h-0.1c0.1,1.1,0.1,1.9,0.1,2.4v3.7h-2.1v-8.5h3.1
	l1.8,6l0,0l1.8-6h3.1v8.5h-2.1v-3.7c0-0.2,0-0.4,0-0.7s0-0.8,0.1-1.8h-0.1l-1.6,6.2H38.6z M52.3,31c0.2-0.2,0.3-0.5,0.3-0.8
	s-0.1-0.6-0.3-0.8c-0.2-0.3-0.5-0.4-0.8-0.4c-0.3,0-0.6,0.1-0.8,0.3c-0.2,0.2-0.3,0.5-0.3,0.8s0.1,0.6,0.3,0.8
	c0.2,0.2,0.5,0.3,0.8,0.3C51.8,31.3,52.1,31.2,52.3,31z M52.8,28.9c0.3,0.3,0.5,0.8,0.5,1.2s-0.2,0.9-0.5,1.3
	c-0.3,0.3-0.8,0.5-1.2,0.5c-0.5,0-0.9-0.2-1.2-0.5c-0.3-0.3-0.5-0.8-0.5-1.2c0-0.4,0.2-0.9,0.5-1.2c0.3-0.3,0.8-0.5,1.2-0.5
	C52,28.4,52.4,28.6,52.8,28.9z M53.6,28c0.1,0.1,0.1,0.2,0.1,0.3c0,0.1,0,0.2-0.1,0.3s-0.2,0.1-0.3,0.1s-0.2,0-0.3-0.1
	s-0.1-0.2-0.1-0.3c0-0.1,0-0.2,0.1-0.3c0.1-0.1,0.2-0.1,0.3-0.1C53.5,27.9,53.6,27.9,53.6,28z M51.9,27.3h-0.3c0,0-0.1,0-0.3,0
	c-0.2,0-0.4,0-0.5,0s-0.3,0-0.4,0c-0.2,0-0.3,0-0.5,0c-0.1,0-0.2,0-0.3,0.1c-0.1,0.1-0.3,0.1-0.4,0.3c-0.1,0.1-0.2,0.2-0.3,0.4
	c0,0.1-0.1,0.2-0.1,0.3c0,0.1,0,0.3,0,0.5s0,0.3,0,0.4c0,0.1,0,0.3,0,0.5s0,0.3,0,0.3s0,0.1,0,0.3s0,0.4,0,0.5s0,0.3,0,0.4
	c0,0.2,0,0.3,0,0.5s0,0.2,0.1,0.3c0.1,0.1,0.1,0.3,0.3,0.4c0.1,0.1,0.2,0.2,0.4,0.3c0.1,0,0.2,0.1,0.3,0.1s0.3,0,0.5,0
	c0.2,0,0.3,0,0.4,0s0.3,0,0.5,0c0.2,0,0.3,0,0.3,0s0.1,0,0.3,0c0.2,0,0.4,0,0.5,0s0.3,0,0.4,0c0.2,0,0.3,0,0.5,0
	c0.1,0,0.2,0,0.3-0.1c0.1-0.1,0.3-0.1,0.4-0.3c0.1-0.1,0.2-0.2,0.3-0.4c0-0.1,0.1-0.2,0.1-0.3c0-0.1,0-0.3,0-0.5c0-0.2,0-0.3,0-0.4
	s0-0.3,0-0.5s0-0.3,0-0.3s0-0.1,0-0.3c0-0.2,0-0.4,0-0.5c0-0.1,0-0.3,0-0.4c0-0.2,0-0.3,0-0.5c0-0.1,0-0.2-0.1-0.3
	c-0.2-0.1-0.2-0.3-0.4-0.4c-0.1-0.1-0.2-0.2-0.4-0.3c-0.1,0-0.2-0.1-0.3-0.1c-0.1,0-0.3,0-0.5,0c-0.2,0-0.3,0-0.4,0
	S52.1,27.3,51.9,27.3z M54.9,28.7c0,0.3,0,0.7,0,1.4c0,0.7,0,1.2,0,1.4c0,0.6-0.2,1.1-0.6,1.4c-0.4,0.3-0.8,0.5-1.4,0.6
	c-0.3,0-0.7,0-1.4,0c-0.7,0-1.2,0-1.4,0c-0.6,0-1.1-0.2-1.4-0.6c-0.3-0.4-0.5-0.8-0.6-1.4c0-0.3,0-0.7,0-1.4s0-1.2,0-1.4
	c0-0.6,0.2-1.1,0.6-1.4c0.3-0.3,0.8-0.5,1.4-0.6c0.3,0,0.7,0,1.4,0c0.7,0,1.2,0,1.4,0c0.6,0,1.1,0.2,1.4,0.6
	C54.7,27.6,54.9,28.1,54.9,28.7z M45.2,13.2c0.1,0.1,0.2,0.1,0.3,0.2l1.7,2.3l2.8-0.1H50c0.1,0,0.1,0,0.2,0.1s0.1,0.1,0.1,0.2
	s0,0.1-0.1,0.2l-1.7,2.3l1,2.7c0,0.1,0,0.2,0,0.2c0,0.1,0,0.1-0.1,0.2c-0.1,0-0.1,0-0.2,0h-0.1l-2.7-0.9l-2.3,1.7
	c-0.1,0.1-0.2,0.1-0.3,0.1s-0.2-0.1-0.2-0.3v-2.8l-2.3-1.6c-0.1-0.1-0.2-0.2-0.2-0.3c0-0.1,0.1-0.2,0.3-0.2l2.7-0.9l0.8-2.7
	C45,13.3,45.1,13.2,45.2,13.2z M26.8,37.5c0.4,0.5,0.7,1.1,0.7,1.8c0,0.6-0.2,1.2-0.7,1.8s-1.1,1-1.8,1.3c-0.8,0.3-1.6,0.5-2.5,0.5
	c-0.3,0-0.5,0-0.8,0c-0.7,0.7-1.6,1.1-2.6,1.4c-0.2,0.1-0.4,0.1-0.6,0.1c-0.1,0-0.1,0-0.2-0.1c-0.1,0-0.1-0.1-0.1-0.2l0,0
	c0,0,0,0,0-0.1s0,0,0-0.1c0,0,0,0,0-0.1v-0.1l0,0c0,0,0,0,0-0.1c0,0,0.1-0.1,0.2-0.2c0.1-0.1,0.2-0.2,0.2-0.2s0.1-0.1,0.2-0.2
	s0.1-0.2,0.2-0.3c0-0.1,0.1-0.2,0.2-0.3c0.1-0.1,0.1-0.3,0.1-0.4c-0.6-0.3-1-0.7-1.4-1.2c-0.4-0.5-0.4-0.9-0.4-1.5
	c0-0.5,0.1-0.9,0.4-1.4c0.3-0.4,0.6-0.8,1.1-1.1c0.5-0.3,1-0.6,1.6-0.8c0.6-0.2,1.3-0.3,1.9-0.3c0.9,0,1.7,0.2,2.5,0.5
	C25.9,36.6,26.5,37,26.8,37.5z M34.8,50.7c0.2,0,0.3,0.1,0.4,0.2c0.1,0.1,0.2,0.2,0.2,0.4c0,0.2-0.1,0.3-0.2,0.4
	c-0.1,0.1-0.2,0.2-0.4,0.2v1.7c0,0.2-0.1,0.3-0.2,0.4c-0.1,0.1-0.2,0.2-0.4,0.2c-1.2-1-2.4-1.6-3.5-1.7c-0.2,0.1-0.3,0.2-0.4,0.3
	c-0.1,0.1-0.1,0.3-0.1,0.4c0,0.2,0.1,0.3,0.2,0.4c-0.1,0.1-0.1,0.2-0.1,0.3s0,0.2,0,0.3s0.1,0.2,0.1,0.2s0.1,0.2,0.2,0.2
	c0.1,0.1,0.2,0.1,0.3,0.2c-0.1,0.2-0.3,0.3-0.5,0.4c-0.2,0.1-0.5,0.1-0.8,0.1S29.1,55.1,29,55c0-0.1-0.1-0.2-0.1-0.4
	c-0.1-0.2-0.1-0.3-0.1-0.4c0-0.1-0.1-0.2-0.1-0.4c0-0.2-0.1-0.3-0.1-0.5c0-0.1,0-0.3,0-0.4s0-0.3,0.1-0.5h-0.5
	c-0.2,0-0.4-0.1-0.5-0.2c-0.1-0.2-0.2-0.4-0.2-0.6v-0.9c0-0.2,0.1-0.4,0.2-0.5c0.1-0.1,0.3-0.2,0.5-0.2h2.1c1.3,0,2.6-0.6,3.9-1.7
	c0.2,0,0.3,0.1,0.4,0.2c0.1,0.1,0.2,0.2,0.2,0.4C34.8,49,34.8,50.7,34.8,50.7z M34.3,53.3v-4.2c-1.2,0.9-2.3,1.4-3.3,1.5v1.2
	C32.1,51.9,33.1,52.4,34.3,53.3z M11.1,30.4v0.9c0,0.1,0,0.2-0.1,0.3c-0.1,0.1-0.2,0.1-0.3,0.1H8.8v1.9c0,0.1,0,0.2-0.1,0.3
	s-0.2,0.1-0.3,0.1H7.6c-0.1,0-0.2,0-0.3-0.1c-0.1-0.1-0.1-0.2-0.1-0.3v-1.9H5.3c-0.1,0-0.2,0-0.3-0.1c-0.1-0.1-0.1-0.2-0.1-0.3v-0.9
	c0-0.1,0-0.2,0.1-0.3C5.1,30,5.2,30,5.3,30h1.9v-1.9c0-0.1,0-0.2,0.1-0.3c0.1-0.1,0.2-0.1,0.3-0.1h0.9c0.1,0,0.2,0,0.3,0.1
	c0.1,0.1,0.1,0.2,0.1,0.3V30h1.9c0.1,0,0.2,0,0.3,0.1C11,30.2,11.1,30.3,11.1,30.4z M24.1,8.3c0.1,0.2-0.1,0.5-0.6,1.1
	c-0.1,0.1-0.1,0.2-0.3,0.3C23.1,9.8,23,9.9,23,10c0,0.1,0,0.2-0.1,0.3c-0.1,0.1-0.1,0.1,0,0.2s0,0.1,0.1,0.1c0.1,0,0.1,0.1,0.1,0.2
	c0,0.1,0.1,0.1,0.2,0.2l0,0c0.4,0.3,0.6,0.6,0.7,0.9l0,0V12v0.1c0,0,0,0.1-0.1,0.1c-0.1,0-0.1,0-0.2,0h-1c-0.1,0-0.1,0-0.2,0
	c-0.1,0-0.2-0.1-0.2-0.1h-0.1C22.1,12,22,12,21.9,11.9c-0.1-0.1-0.2-0.2-0.3-0.3c-0.1-0.1,0-0.2-0.1-0.2c-0.1,0-0.2-0.1-0.2-0.1l0,0
	c0,0,0,0-0.1,0.1c-0.1,0.1-0.1,0.1-0.1,0.1s0,0.1-0.1,0.2c-0.1,0.1,0,0.2,0,0.3v0.1v0.1l0,0c0,0-0.1,0.1-0.2,0.1h-0.4
	c-0.2,0-0.4,0-0.6-0.1c-0.2-0.1-0.4-0.1-0.5-0.2c-0.1-0.1-0.3-0.2-0.4-0.3s-0.3-0.1-0.4-0.2l-0.1-0.1l-0.1-0.1c0,0-0.1-0.2-0.3-0.4
	c-0.2-0.2-0.3-0.3-0.4-0.5c-0.1-0.2-0.3-0.5-0.5-0.8s-0.3-0.7-0.5-1.1V8.4c0,0,0,0,0-0.1l0,0c0,0,0.1-0.1,0.2-0.1H18h0.1
	c0,0,0,0,0.1,0l0,0l0.1,0.1c0.1,0.1,0.1,0.3,0.2,0.4c0.1,0.1,0.1,0.2,0.2,0.3l0,0.2c0.1,0.2,0.1,0.3,0.2,0.4C19,9.7,19,9.8,19.1,9.9
	c0.1,0.1,0.1,0.1,0.2,0.2s0.1,0.1,0.1,0.1h0.1l0,0c0,0,0,0,0-0.1s0-0.1,0.1-0.2c0.1-0.1,0-0.2,0-0.3c0-0.1,0-0.3,0-0.5
	c0-0.1,0-0.2,0-0.3s0-0.1-0.1-0.2l0,0c-0.1-0.1-0.2-0.1-0.3-0.2c0,0,0,0,0-0.1l0.1-0.1c0.1-0.1,0.4-0.1,0.9-0.1c0.2,0,0.4,0,0.5,0.1
	c0.1,0,0.1,0,0.1,0.1s0.1,0.1,0.1,0.1v0.1c0,0,0,0.1,0,0.2c0,0.1,0,0.1,0,0.2s0,0.2,0,0.3s0,0.2,0,0.3c0,0,0,0.1,0,0.2
	c0,0.1,0,0.1,0,0.2s0,0.1,0,0.2c0,0.1,0,0.1,0,0.2s0.1,0.1,0.1,0.1s0,0,0.1,0c0.1,0,0.1,0,0.1,0l0.1-0.1c0,0,0.4-0.5,0.4-0.6
	c0-0.1,0.2-0.3,0.3-0.4c0.2-0.3,0.3-0.6,0.4-0.9c0,0,0,0,0-0.1c0-0.1,0,0,0,0l0,0l0,0c0,0,0,0,0.1,0c0.1,0,0.1,0,0.1,0h1.1
	c0.1,0,0.2,0,0.2,0S24,8.3,24.1,8.3L24.1,8.3z M39.8,11C39.8,11,39.9,11,39.8,11C39.9,10.9,39.8,10.9,39.8,11
	c-0.2-0.1-0.3-0.2-0.4-0.3c-0.1-0.1-0.2-0.2-0.2-0.4c0,0,0-0.1-0.1-0.1c-0.1,0,0,0.1,0,0.1c0,0.2,0.1,0.4,0.2,0.5S39.6,11,39.8,11z
	 M43.1,9.8c0,0.1,0,0.3-0.1,0.4s-0.3,0.1-0.5,0.1h-1.8c0,0.3-0.1,0.5-0.3,0.7c-0.2,0.2-0.3,0.3-0.6,0.3c-0.3,0-0.5-0.1-0.7-0.3
	c-0.2-0.2-0.3-0.4-0.3-0.7h-1.8c-0.1,0-0.3,0-0.4-0.1s-0.1-0.2-0.1-0.4c0.1-0.1,0.2-0.2,0.4-0.3c0.2-0.1,0.2-0.3,0.3-0.5
	c0.1-0.2,0.2-0.4,0.3-0.6c0.1-0.2,0.1-0.5,0.2-0.8c0.1-0.3,0.1-0.7,0.1-1c0-0.4,0.2-0.8,0.5-1.1c0.3-0.3,0.7-0.5,1.2-0.6
	c0,0,0-0.1,0-0.2c0-0.1,0-0.2,0.1-0.3c0.1-0.1,0.1-0.1,0.2-0.1s0.2,0,0.3,0.1c0.1,0.1,0.1,0.2,0.1,0.3s0,0.1,0,0.2
	c0.5,0.1,0.9,0.3,1.2,0.6c0.3,0.3,0.5,0.7,0.5,1.1c0,0.4,0,0.7,0.1,1c0.1,0.3,0.1,0.6,0.2,0.8s0.2,0.4,0.3,0.6
	c0.1,0.2,0.2,0.3,0.3,0.5C42.9,9.7,42.9,9.7,43.1,9.8z M15.7,45.5c0.1-0.2,0.2-0.4,0.2-0.6s0-0.4,0-0.5s-0.1-0.3-0.2-0.4
	c-0.1-0.1-0.2-0.3-0.3-0.3c-0.1-0.1-0.2-0.2-0.4-0.2c-0.1-0.1-0.3-0.1-0.5-0.1c-0.2,0-0.4,0-0.6,0c-0.2,0-0.3,0.1-0.5,0.1
	c-0.1,0-0.3,0.1-0.4,0.1c-0.1,0-0.2,0-0.2,0c-0.1,0-0.1-0.1-0.1-0.2c0-0.1-0.1-0.2-0.1-0.4c0-0.2-0.1-0.3-0.2-0.5
	c-0.1-0.2-0.2-0.3-0.3-0.5c-0.1-0.1-0.3-0.3-0.4-0.3c-0.2,0-0.4,0-0.5-0.1c-0.1,0-0.3-0.1-0.4-0.1c-0.2,0-0.3,0-0.4,0.1
	s-0.3,0.1-0.4,0.3c-0.1,0.2-0.3,0.4-0.4,0.6c-0.2,0.4-0.2,1,0.1,1.8l1.1,3.3l3.3-1.1C15,46.3,15.5,45.9,15.7,45.5z M16.2,45.7
	c-0.3,0.6-0.9,1-1.8,1.4l-3.6,1.2c-0.1,0-0.1,0-0.2,0c-0.1,0-0.1-0.1-0.1-0.2l-1.3-3.5c0,0,0-0.1-0.1-0.2C9.1,44.3,9,44.2,9,44
	c0-0.2-0.1-0.4-0.1-0.5c0-0.2,0-0.4,0-0.6c0-0.2,0.1-0.4,0.2-0.6c0.3-0.6,0.7-1,1.2-1.1c0.5-0.1,1.1-0.1,1.7,0.2
	c0.2,0.1,0.3,0.2,0.5,0.3c0.1,0.1,0.3,0.3,0.4,0.5c0.1,0.2,0.2,0.3,0.2,0.5s0.1,0.3,0.2,0.4c0.1,0,0.3-0.1,0.4-0.1
	c0.1,0,0.3-0.1,0.5-0.1c0.2,0,0.4,0,0.6,0c0.2,0,0.4,0.1,0.5,0.2c0.6,0.3,1,0.7,1.2,1.2C16.6,44.7,16.5,45.3,16.2,45.7z M16.2,18.8
	c-0.4,0.2-0.8,0.4-1.2,0.4c0,0-0.1,0.1-0.1,0.2c-0.2,0.4-0.5,0.8-0.8,1.2c-0.3,0.4-0.7,0.7-1.2,1c-0.5,0.3-0.9,0.5-1.4,0.6
	c-0.5,0.1-1.1,0.2-1.7,0.1S8.7,22,8.1,21.7c-0.9-0.4-1.6-1.1-2.1-1.9C6.2,20,6.3,20,6.5,20.1c0.8,0.4,1.5,0.5,2.3,0.3
	C8.4,20.2,8.1,20,8,19.6c-0.2-0.3-0.2-0.7-0.2-1.1C7.9,18.6,8,18.6,8,18.7c0.1,0.1,0.3,0.1,0.5,0.2c-0.3-0.3-0.6-0.6-0.7-1
	c-0.1-0.4-0.1-0.8,0.1-1.2l0,0c0.2,0.2,0.4,0.4,0.6,0.6c-0.1-0.3-0.2-0.5-0.2-0.8c0-0.3,0-0.6,0.2-0.9c0.1-0.3,0.3-0.5,0.6-0.7
	c0.2,0.7,0.5,1.3,0.9,1.9s1,1.1,1.6,1.4c0-0.1,0.1-0.3,0.1-0.4c0.2-0.4,0.6-0.8,1-0.9c0.5-0.2,0.9-0.1,1.4,0.1
	c0.5,0.2,0.8,0.6,0.9,1.1c0.4,0.1,0.8,0.1,1.2,0.1c-0.3,0.3-0.7,0.5-1.1,0.5C15.4,18.7,15.8,18.8,16.2,18.8z M40.3,38.7l-0.6,1.3
	L39,39.5c-0.3-0.1-0.5-0.2-0.7-0.1s-0.3,0.2-0.4,0.5l-0.5,1l1.5,0.7L38,43l-1.3-0.6l-1.9,3.7l-1.5-0.7l1.9-3.7l-1.3-0.6l0.7-1.5
	l1.3,0.6l0.5-1.1c0.3-0.6,0.7-1,1.2-1.2c0.5-0.2,1.1-0.1,1.6,0.2C39.7,38.3,40.1,38.6,40.3,38.7z M50.1,42.8c0.3-0.3,0.4-0.6,0.4-1
	c0-0.4-0.1-0.7-0.4-1c-0.3-0.3-0.6-0.4-1-0.4s-0.7,0.1-1,0.4c-0.3,0.3-0.4,0.6-0.4,1c0,0.4,0.1,0.7,0.4,1c0.3,0.3,0.6,0.4,1,0.4
	S49.8,43.1,50.1,42.8z M51.8,41.8c0,0.4-0.1,0.7-0.2,1l-2,4.2c-0.1,0.1-0.1,0.2-0.3,0.3c-0.1,0.1-0.2,0.1-0.4,0.1s-0.3,0-0.4-0.1
	c-0.1-0.1-0.2-0.2-0.3-0.3l-2-4.2c-0.1-0.3-0.2-0.6-0.2-1c0-0.8,0.3-1.5,0.8-2c0.6-0.6,1.2-0.8,2-0.8c0.8,0,1.5,0.3,2,0.8
	C51.6,40.3,51.8,41,51.8,41.8z M26.8,20.4c0.1-0.1,0.1-0.2,0.1-0.3s0-0.2-0.1-0.3c-0.1-0.1-0.2-0.1-0.3-0.1c-0.1,0-0.2,0-0.3,0.1
	c-0.1,0.1-0.1,0.2-0.1,0.3s0,0.2,0.1,0.3c0.1,0.1,0.2,0.1,0.3,0.1C26.8,20.4,26.8,20.4,26.8,20.4z M33.3,16.9c0-0.2-0.1-0.4-0.2-0.5
	c-0.1-0.1-0.3-0.2-0.5-0.2h-2c0-0.2,0.1-0.5,0.3-0.9c0.2-0.4,0.3-0.7,0.3-0.9c0-0.4-0.1-0.6-0.2-0.8c-0.1-0.2-0.4-0.3-0.7-0.3
	c-0.1,0.1-0.2,0.3-0.2,0.5c0,0.2-0.1,0.5-0.2,0.7c-0.1,0.2-0.2,0.5-0.3,0.6c-0.1,0.1-0.2,0.3-0.4,0.5c0,0-0.1,0.1-0.1,0.2
	C29.1,15.9,29.1,16,29,16c0,0.1-0.1,0.1-0.2,0.2c-0.1,0.1-0.2,0.2-0.2,0.2c-0.1,0.1-0.1,0.1-0.2,0.2c-0.1,0.1-0.2,0.1-0.2,0.2
	s-0.1,0.1-0.2,0.1h-0.2v3.5H28c0,0,0.1,0,0.2,0s0.1,0,0.2,0c0.1,0,0.1,0,0.2,0.1c0.1,0,0.2,0,0.2,0.1c0,0,0.1,0,0.2,0.1
	c0.1,0.1,0.1,0.1,0.2,0.1c0.8,0.3,1.4,0.4,1.9,0.4h0.4c0.7,0,1.1-0.3,1.1-0.9c0-0.1,0-0.2,0-0.3c0.1-0.1,0.2-0.2,0.3-0.3
	c0.1-0.1,0.1-0.3,0.1-0.4s0-0.3-0.1-0.4c0.2-0.2,0.3-0.4,0.3-0.7c0-0.1,0-0.2-0.1-0.3C33,17.9,33,17.8,33,17.7
	c0.1,0,0.2-0.1,0.3-0.3C33.2,17.2,33.3,17,33.3,16.9z M34,16.9c0,0.3-0.1,0.6-0.3,0.9c0,0.1,0.1,0.3,0.1,0.4c0,0.3-0.1,0.6-0.2,0.8
	c0,0.1,0,0.2,0,0.2c0,0.4-0.1,0.7-0.3,1c0,0.5-0.2,0.9-0.5,1.2c-0.3,0.3-0.7,0.4-1.3,0.4h-0.7c-0.4,0-0.7,0-1.1-0.1
	c-0.3-0.1-0.8-0.2-1.2-0.4c-0.4-0.1-0.7-0.2-0.8-0.2h-1.6c-0.2,0-0.4-0.1-0.5-0.2c-0.1-0.1-0.2-0.3-0.2-0.5v-3.5
	c0-0.2,0.1-0.4,0.2-0.5c0.1-0.1,0.3-0.2,0.5-0.2h1.5c0.1-0.1,0.4-0.4,0.8-0.9c0.2-0.3,0.4-0.5,0.6-0.7c0.1-0.1,0.2-0.3,0.2-0.5
	s0.1-0.5,0.2-0.7c0-0.1,0.2-0.3,0.3-0.5c0.1-0.1,0.3-0.2,0.5-0.2c0.3,0,0.6,0.1,0.8,0.2c0.2,0.1,0.4,0.3,0.6,0.6
	c0.1,0.3,0.2,0.6,0.2,1c0,0.3-0.1,0.7-0.3,1.1h1c0.4,0,0.7,0.1,1,0.4C33.8,16.2,34,16.5,34,16.9z"/>
</svg>
